<svg width="397" height="110" viewBox="0 0 397 110" fill="none" xmlns="http://www.w3.org/2000/svg">
<path d="M54.807 0H396L332.703 110H54.807L0 55.5L54.807 0Z" fill="#1E4193"/>
<path d="M237 0H396.5L333.5 110H174L237 0Z" fill="#5A9BD5"/>
<rect x="12" y="55.1121" width="60.9697" height="60.9697" transform="rotate(-45 12 55.1121)" fill="white"/>
<path d="M54.0572 39.0892C52.4939 39.3872 51.2226 40.3483 50.5231 41.7656C50.146 42.5381 50 43.1342 50 43.9554C50 44.5576 50.1156 45.2996 51.1922 51.4371C51.8491 55.1841 52.4331 58.3836 52.4818 58.5539C52.7007 59.2473 53.1934 59.7948 53.8929 60.1232C54.2762 60.3057 54.337 60.3179 55 60.3179C55.663 60.3179 55.7238 60.3057 56.1071 60.1232C56.8005 59.7948 57.2932 59.2473 57.5122 58.5539C57.5669 58.3836 58.1509 55.1841 58.8078 51.4371C59.8844 45.2996 60 44.5576 60 43.9554C60 43.1342 59.854 42.5381 59.4769 41.7656C58.4854 39.7583 56.2835 38.6695 54.0572 39.0892Z" fill="#1E4193"/>
<path d="M54.045 62.599C52.354 63.0431 51.1679 64.5577 51.1679 66.2851C51.1679 67.2705 51.5328 68.2316 52.1594 68.9068C52.646 69.4238 53.0961 69.7158 53.7652 69.9348C54.489 70.172 55.4562 70.1842 56.1557 69.9713C57.8467 69.4482 58.9051 67.9092 58.8139 66.0966C58.6983 63.7 56.3686 61.9908 54.045 62.599Z" fill="#1E4193"/>
<path d="M282.337 15.0759C274.959 15.9512 268.956 19.5777 264.97 25.5177C263.173 28.2063 262.032 31.0044 261.36 34.2714C260.937 36.366 260.984 41.1961 261.438 43.3064C262.485 48.074 264.533 51.8099 267.94 55.2332C270.723 58 273.693 59.8602 277.163 61.0013C280.07 61.9391 281.071 62.0955 284.604 62.0955C287.386 62.0955 288.027 62.0486 289.434 61.7359C294.155 60.673 297.812 58.6565 301.267 55.2176C304.628 51.8568 306.597 48.3241 307.676 43.6503C308.067 41.9464 308.113 41.4931 308.113 38.7263C308.129 36.366 308.067 35.3656 307.848 34.2714C306.863 29.4256 304.675 25.3301 301.267 21.9225C297.468 18.1396 292.982 15.9043 287.73 15.2009C286.229 14.9977 283.509 14.9352 282.337 15.0759ZM286.948 23.767V25.674L287.98 25.9554C289.84 26.44 291.356 27.5342 292.498 29.238C293.154 30.1915 293.67 31.7547 293.67 32.7238V33.4273L291.372 33.3804L289.074 33.3335L288.949 32.6926C288.871 32.3174 288.59 31.786 288.261 31.4108C287.48 30.4885 286.542 30.2384 284.15 30.3166C282.587 30.3635 282.243 30.426 281.681 30.7386C279.68 31.8797 279.555 34.4277 281.415 35.8501C281.993 36.3035 282.04 36.3035 284.666 36.3973C287.48 36.491 288.246 36.6317 289.528 37.2726C292.67 38.8514 294.389 42.4623 293.607 45.8231C292.888 48.8868 290.622 51.044 287.386 51.763L286.948 51.8568V53.8108V55.7647H284.604H282.259V53.8264V51.8881L281.446 51.7005C278.367 50.9658 276.038 48.496 275.553 45.4635C275.459 44.9164 275.428 44.4006 275.475 44.3381C275.522 44.2599 276.569 44.1974 277.788 44.1974H280.039L280.211 44.9008C280.414 45.7136 281.18 46.6515 281.899 46.9485C282.243 47.1048 283.119 47.1674 284.604 47.1674C286.479 47.1674 286.886 47.1205 287.402 46.8547C289.559 45.7605 289.7 42.8843 287.652 41.6182C286.901 41.1649 286.87 41.1492 284.072 41.0554C281.555 40.9773 281.149 40.9304 280.383 40.6021C277.804 39.4923 276.209 37.6321 275.6 35.0373C274.99 32.4268 275.959 29.4412 278.007 27.6123C278.836 26.862 280.649 25.971 281.618 25.8147L282.259 25.7053V23.7826V21.8443H284.604H286.948V23.767Z" fill="white"/>
<path d="M268.972 67.4104V72.4906H264.986H261V74.1632V75.8514L272.802 85.4335L284.604 95L296.405 85.4335L308.207 75.8514V74.1788V72.4906H304.221H300.235V67.4104C300.235 64.6123 300.188 62.3301 300.141 62.3301C300.079 62.3301 299.641 62.5802 299.141 62.8772C296.562 64.4404 293.06 65.7847 289.887 66.4256C288.355 66.7382 287.652 66.7851 284.604 66.7851C281.555 66.7851 280.852 66.7382 279.32 66.4256C276.147 65.7847 272.646 64.4404 270.066 62.8772C269.566 62.5802 269.128 62.3301 269.066 62.3301C269.019 62.3301 268.972 64.6123 268.972 67.4104Z" fill="white"/>
</svg>
