<svg width="56" height="56" viewBox="0 0 56 56" fill="none" xmlns="http://www.w3.org/2000/svg">
<circle cx="28" cy="28" r="28" fill="#1E4193"/>
<path d="M26.2837 16.0329C21.9393 16.2233 19.1042 16.9779 17.8001 18.2966C17.4705 18.6336 17.2653 18.9633 16.6133 20.26L15.8294 21.8204H14.7891C14.2177 21.8204 13.6683 21.8497 13.5657 21.8937C13.3313 21.9816 13.2726 22.2014 13.2726 22.9193C13.28 23.5274 13.3606 23.7472 13.6609 23.9303L13.8734 24.0549L12.8111 24.6043C12.2324 24.8973 11.6756 25.2197 11.5803 25.3076C11.3679 25.5054 11.2873 25.7911 11.1188 26.912C11.0089 27.6739 10.9943 28.3259 11.0016 31.7105C11.0089 34.2234 11.0529 36.0915 11.1115 36.912L11.214 38.1941L11.6243 38.216C12.0712 38.238 12.1298 38.2966 12.1298 38.7582C12.1298 39.0439 12.269 39.3076 12.4521 39.3589C12.5327 39.3809 13.9759 39.4029 15.6536 39.4029C19.2214 39.4029 19.0162 39.4468 19.0749 38.6776L19.1042 38.2307H28.4668H37.8295L37.8588 38.6776C37.9174 39.4468 37.7049 39.4029 41.3533 39.4029C43.7562 39.4029 44.5108 39.3809 44.606 39.3076C44.6866 39.2563 44.7672 39.0366 44.8185 38.7215L44.8991 38.2307H45.324H45.7562V37.9523C45.7562 37.8058 45.7928 37.227 45.8295 36.6776C46.1958 31.5713 45.9467 25.8644 45.324 25.2417C45.2507 25.1611 44.7159 24.8607 44.1518 24.575L43.1188 24.0475L43.3313 23.8864C43.617 23.6739 43.7342 23.249 43.6829 22.597C43.617 21.857 43.6243 21.8644 42.247 21.8351L41.0822 21.8131L40.987 21.5787C40.6646 20.7728 39.7928 19.0805 39.5071 18.7069C38.3936 17.2417 35.9247 16.3992 31.9467 16.1135C30.3862 16.0036 27.8587 15.9669 26.2837 16.0329ZM30.1957 18.3772C33.0456 18.5457 35.1921 18.9413 36.4741 19.5494C37.4485 20.0109 38.4082 21.3662 39.258 23.4834L39.4485 23.945H28.4668H17.4924L17.7342 23.3735C18.1225 22.4505 18.7159 21.3003 19.0529 20.8314C19.6829 19.945 20.3496 19.4981 21.5437 19.1464C23.7782 18.5017 27.1335 18.2014 30.1957 18.3772ZM14.8038 26.5897C15.7415 26.7069 17.0309 27.0512 17.7342 27.3809C18.4375 27.7105 19.1994 28.2087 19.3093 28.4138C19.3752 28.5384 19.3532 28.5604 19.1481 28.597C18.0565 28.7875 13.9393 28.934 13.5803 28.7948C13.4265 28.7289 13.3752 28.6409 13.3093 28.3406C13.2214 27.923 13.2067 27.3516 13.2726 26.8461L13.3239 26.5091H13.7342C13.9613 26.5091 14.4448 26.5457 14.8038 26.5897ZM43.5511 26.575C43.6756 26.6556 43.6976 27.3149 43.6024 28.0695C43.5144 28.8534 43.5071 28.8534 42.0419 28.8534C40.8697 28.8534 39.1335 28.7655 38.2983 28.6629C37.9686 28.619 37.91 28.5897 37.8661 28.4285C37.8295 28.2746 37.8661 28.2014 38.0712 28.0256C38.7379 27.4615 40.65 26.7655 42.0126 26.5897C42.6719 26.5017 43.4265 26.4944 43.5511 26.575ZM30.1518 31.271C33.0968 31.542 36.4082 32.4505 36.9577 33.1464C37.1555 33.3955 37.1555 33.4395 36.8844 34.1281L36.6646 34.7142H28.4815H20.2983L20.0565 34.1794C19.932 33.8937 19.8221 33.5713 19.8221 33.4761C19.8221 33.3809 19.9247 33.205 20.0639 33.0659C20.2617 32.8681 20.5254 32.7508 21.4705 32.4431C24.6719 31.4102 27.4631 31.0292 30.1518 31.271Z" fill="white"/>
<circle cx="28" cy="28" r="28" fill="#1E4193"/>
<circle cx="28" cy="28" r="28" fill="#1E4193"/>
<path d="M28.0017 10.0976C27.8846 10.1562 24.0924 12.4696 19.5828 15.2515C13.4918 18.9998 11.3395 20.3614 11.2223 20.5371C11.0027 20.8519 10.9442 21.218 11.054 21.584C11.237 22.2063 11.9471 22.6236 12.5255 22.4479C12.6792 22.4039 16.2811 20.2223 20.5345 17.6088C26.1423 14.1607 28.3312 12.8503 28.4849 12.8503C28.6387 12.8503 30.8276 14.1607 36.4281 17.6088C40.6815 20.2223 44.2833 22.3966 44.4297 22.4406C44.7445 22.5211 45.1838 22.4406 45.4547 22.2429C45.6963 22.0672 45.9744 21.5254 45.9744 21.2326C45.9671 20.8593 45.7255 20.4273 45.3815 20.1931C44.7226 19.7465 29.0633 10.1416 28.8803 10.0683C28.6167 9.96586 28.2653 9.9805 28.0017 10.0976Z" fill="white"/>
<path d="M37.1895 12.7775V13.6487L37.5042 13.861C37.9728 14.1758 39.6493 15.1934 39.7005 15.1934C39.7298 15.1934 39.7518 14.454 39.7518 13.5462V11.899H38.4706H37.1895V12.7775Z" fill="white"/>
<path d="M20.8279 18.8905C16.6843 21.4455 13.1996 23.5539 13.0897 23.5758L12.8848 23.6271V32.5512V41.4826L13.0678 41.6583L13.2435 41.8413H15.8936C18.3827 41.8413 18.5365 41.834 18.4852 41.7095C18.0094 40.5821 17.8337 39.5572 17.8849 38.2907C18.002 35.787 18.9171 33.5907 20.6815 31.5629C21.3843 30.7649 22.6288 29.696 23.6537 29.0152L24.4444 28.4881L24.2248 28.3271C23.7343 27.9683 23.5 27.4705 23.5 26.7897C23.5 26.1015 24.0344 25.3475 24.6713 25.1425C24.8104 25.0986 24.9569 25.0327 24.9861 25.0034C25.1692 24.835 24.1735 23.5685 23.4268 23.0121C22.4458 22.2874 22.2994 22.0385 22.519 21.4894C22.6508 21.16 23.2511 20.728 24.0637 20.3913C24.7812 20.0911 25.3522 20.0033 26.26 20.0399C27.1751 20.0838 27.9511 20.3327 28.7491 20.8305L29.2249 21.1234L29.7959 20.9403C30.8867 20.6036 31.6115 20.5377 32.4681 20.7207C33.6028 20.9623 34.5545 21.7017 34.5545 22.3459C34.5545 22.6607 34.2983 23.0195 33.9835 23.1439C32.8414 23.5978 32.124 24.1103 31.8531 24.652L31.7067 24.9595L32.124 25.0912C32.6584 25.2523 33.0244 25.5598 33.266 26.043C33.6614 26.8336 33.3978 27.9171 32.7096 28.3563L32.4973 28.4954L32.9952 28.8102C34.9279 30.0182 36.7215 31.8191 37.7098 33.5541C38.8226 35.4941 39.3204 38.0125 38.9836 39.9525C38.8958 40.4796 38.6761 41.2264 38.4712 41.7095C38.4199 41.834 38.5736 41.8413 41.0627 41.8413H43.7129L43.8886 41.6583L44.0716 41.4826V32.5585V23.6344L43.8373 23.5612C43.7056 23.5246 40.2355 21.4162 36.1285 18.8905C32.0215 16.3575 28.5953 14.2784 28.5148 14.2637C28.4196 14.2491 25.6304 15.9256 20.8279 18.8905Z" fill="white"/>
<path d="M25.0366 21.3718C24.5974 21.4963 24.0117 21.7598 24.0117 21.833C24.0117 21.8623 24.1508 21.9867 24.3119 22.1112C25.0293 22.6383 25.9225 23.773 26.2812 24.6222L26.4496 25.0029L28.4189 24.9883L30.3882 24.9663L30.5126 24.6003C30.8055 23.7364 31.4936 22.9677 32.3868 22.5065C32.6503 22.3674 32.8626 22.2283 32.848 22.1917C32.7967 22.0307 32.2257 21.9062 31.5522 21.8989C30.9226 21.8989 30.7689 21.9282 29.9563 22.2064C28.9387 22.5578 29.0704 22.5797 28.2066 21.9867C27.5038 21.5036 26.7497 21.2693 25.9737 21.2766C25.6369 21.2766 25.2197 21.3206 25.0366 21.3718Z" fill="white"/>
<path d="M24.9273 26.4304C24.6271 26.7233 24.6857 27.1991 25.0444 27.3821C25.3519 27.5432 31.6039 27.5432 31.9114 27.3821C32.2701 27.1991 32.3286 26.7233 32.0285 26.4304L31.8528 26.2474H28.4779H25.103L24.9273 26.4304Z" fill="white"/>
<path d="M25.8639 29.1687C22.489 30.933 20.1317 33.5905 19.3996 36.4603C18.7334 39.0811 19.2239 41.3286 20.8492 43.0197C21.7935 44.0153 22.9576 44.6523 24.2607 44.8792C25.1977 45.0403 31.7426 45.0403 32.6797 44.8792C34.7368 44.5205 36.5231 43.1002 37.343 41.1749C38.0678 39.4691 37.98 37.2216 37.1088 35.1645C36.1131 32.8072 33.7851 30.5157 30.908 29.0735L30.2345 28.7368H28.4628H26.6839L25.8639 29.1687ZM28.7703 32.5802C28.8948 32.6461 29.0119 32.7852 29.0632 32.9389C29.129 33.1439 29.1876 33.1952 29.4146 33.2391C30.2052 33.3855 31.2594 34.1981 31.2594 34.6593C31.2594 34.9888 30.9739 35.2816 30.6445 35.2816C30.4395 35.2816 30.3223 35.223 30.1027 35.018C29.9563 34.8643 29.6854 34.6813 29.5024 34.6008L29.173 34.4543L29.151 35.6769C29.1437 36.3431 29.1437 36.9288 29.1656 36.9727C29.1803 37.0166 29.3413 37.0972 29.5097 37.1484C30.0002 37.2948 30.6445 37.6462 30.9666 37.9317C31.8524 38.737 31.7865 40.1133 30.8128 40.9918C30.4175 41.3506 29.8465 41.6507 29.4146 41.7312C29.1876 41.7752 29.129 41.8264 29.0558 42.0387C29.0046 42.2071 28.8948 42.3242 28.7264 42.4048C28.4994 42.5146 28.4555 42.5146 28.2286 42.4048C28.0602 42.3242 27.9504 42.2071 27.8991 42.0387C27.8259 41.8264 27.7674 41.7752 27.5404 41.7312C26.7424 41.5848 25.6956 40.7795 25.6956 40.311C25.6956 39.9816 25.9811 39.6887 26.3032 39.6887C26.5082 39.6887 26.6326 39.7546 26.8962 39.9962C27.1597 40.2378 27.6429 40.5233 27.7893 40.5233C27.8113 40.5233 27.8113 39.945 27.804 39.2275L27.782 37.9391L27.416 37.8146C26.0104 37.3387 25.3588 36.6213 25.3734 35.5744C25.3808 34.5349 26.3837 33.4514 27.5404 33.2391C27.7674 33.1952 27.8259 33.1439 27.8918 32.9389C27.9723 32.7047 28.2432 32.4777 28.4628 32.4704C28.5141 32.4704 28.6532 32.5216 28.7703 32.5802Z" fill="white"/>
<path d="M27.416 34.623C26.7425 34.9378 26.4716 35.4283 26.7059 35.9042C26.801 36.1018 26.9474 36.2263 27.3062 36.4093L27.782 36.6509L27.804 36.1018C27.8186 35.7943 27.8186 35.2965 27.804 34.9964L27.782 34.4473L27.416 34.623Z" fill="white"/>
<path d="M29.1367 39.4253C29.1367 40.0256 29.1514 40.5234 29.166 40.5234C29.2905 40.5234 29.7663 40.2599 29.9713 40.0769C30.3227 39.7767 30.4179 39.4034 30.2495 39.0666C30.125 38.803 29.9127 38.6493 29.4076 38.437L29.1367 38.3272V39.4253Z" fill="white"/>
</svg>
