<svg width="56" height="56" viewBox="0 0 56 56" fill="none" xmlns="http://www.w3.org/2000/svg">
<circle cx="28" cy="28" r="28" fill="#1E4193"/>
<path d="M29.5182 10.2703C29.7749 10.4742 30.0078 10.6953 30.2402 10.926C30.382 11.065 30.5301 11.1965 30.6785 11.3283C31.1035 11.7097 31.5236 12.0965 31.944 12.4828C32.3493 12.8552 32.7559 13.2258 33.1655 13.5934C33.3967 13.802 33.6259 14.0127 33.8551 14.2233C34.0678 14.4185 34.2815 14.6123 34.4965 14.8049C34.8005 15.0777 35.1006 15.3546 35.4004 15.6321C35.6779 15.8886 35.9579 16.142 36.2393 16.3942C36.4698 16.6019 36.6982 16.8118 36.9266 17.0217C37.1392 17.2169 37.353 17.4107 37.5679 17.6033C37.8719 17.8761 38.1721 18.153 38.4718 18.4305C38.7493 18.687 39.0294 18.9404 39.3108 19.1926C39.5412 19.4003 39.7696 19.6102 39.998 19.8201C40.2106 20.0153 40.4244 20.2091 40.6393 20.4017C40.9434 20.6745 41.2435 20.9514 41.5432 21.2289C41.8207 21.4854 42.1008 21.7388 42.3822 21.991C42.6126 22.1987 42.841 22.4086 43.0694 22.6186C43.282 22.8137 43.4958 23.0075 43.7107 23.2001C44.0145 23.4727 44.3151 23.7487 44.6136 24.0271C44.7861 24.1876 44.9593 24.3438 45.1398 24.4954C45.6135 24.8943 45.9228 25.2481 45.997 25.8791C46.0175 26.5076 45.941 26.9027 45.5408 27.3807C45.1417 27.7162 44.7785 27.9574 44.2462 27.9558C44.1902 27.9558 44.1341 27.9558 44.0764 27.9558C44.0166 27.9554 43.9568 27.9551 43.8952 27.9547C43.8026 27.9546 43.8026 27.9546 43.7082 27.9544C43.5114 27.954 43.3146 27.9532 43.1178 27.9523C42.9842 27.952 42.8506 27.9517 42.717 27.9514C42.3899 27.9506 42.0628 27.9494 41.7356 27.948C41.7358 28.0213 41.736 28.0946 41.7362 28.1702C41.7408 29.9543 41.7441 31.7385 41.7462 33.5227C41.7473 34.3855 41.7487 35.2483 41.7511 36.1111C41.7531 36.8632 41.7544 37.6153 41.7549 38.3674C41.7552 38.7656 41.7558 39.1637 41.7573 39.5619C41.7587 39.9369 41.7591 40.3118 41.7588 40.6868C41.7588 40.8242 41.7593 40.9616 41.76 41.099C41.7611 41.2871 41.7608 41.4752 41.7603 41.6633C41.7609 41.7173 41.7614 41.7713 41.7621 41.8269C41.7588 42.2332 41.708 42.6862 41.4366 43.007C41.128 43.2782 40.8741 43.3134 40.4771 43.3152C40.4017 43.3157 40.3264 43.3161 40.2487 43.3166C40.1663 43.3168 40.0839 43.317 39.999 43.3172C39.8684 43.3179 39.8684 43.3179 39.7352 43.3186C39.4468 43.32 39.1584 43.3207 38.87 43.3214C38.7706 43.3217 38.6711 43.3219 38.5717 43.3222C38.1043 43.3235 37.637 43.3245 37.1696 43.3251C36.631 43.3257 36.0923 43.3275 35.5536 43.3303C35.1368 43.3324 34.7199 43.3334 34.303 43.3336C34.0542 43.3337 33.8055 43.3344 33.5568 43.3361C33.279 43.338 33.0013 43.3377 32.7235 43.3372C32.6008 43.3385 32.6008 43.3385 32.4755 43.3399C31.9109 43.3363 31.5318 43.2685 31.1241 42.8653C30.9646 42.4943 30.9841 42.1424 30.9888 41.7428C30.9888 41.6542 30.9887 41.5656 30.9887 41.4743C30.9886 41.2322 30.9902 40.9901 30.9921 40.748C30.9938 40.4947 30.994 40.2413 30.9943 39.988C30.9952 39.5087 30.9974 39.0294 31.0001 38.55C31.0038 37.902 31.0052 37.254 31.0068 36.6061C31.0094 35.5856 31.0148 34.5653 31.0198 33.5448C29.353 33.5448 27.6863 33.5448 25.969 33.5448C25.9722 34.1954 25.9754 34.8459 25.9786 35.5162C25.98 35.928 25.9813 36.3399 25.9824 36.7517C25.984 37.4056 25.9859 38.0594 25.9896 38.7133C25.9923 39.1895 25.9941 39.6656 25.9947 40.1418C25.9951 40.3939 25.9959 40.646 25.9979 40.8981C26.0001 41.1797 26.0001 41.4612 26 41.7428C26.001 41.8262 26.002 41.9096 26.003 41.9955C26.0014 42.3207 25.994 42.5645 25.8647 42.8653C25.4581 43.2674 25.0787 43.3364 24.5156 43.3414C24.4341 43.3407 24.3525 43.34 24.2685 43.3394C24.1813 43.3397 24.0942 43.3401 24.0043 43.3405C23.7666 43.3414 23.5288 43.3407 23.2911 43.3395C23.0415 43.3386 22.792 43.339 22.5424 43.3393C22.1235 43.3395 21.7047 43.3386 21.2858 43.337C20.8023 43.3352 20.3188 43.335 19.8354 43.3358C19.3691 43.3366 18.9028 43.3361 18.4366 43.3352C18.2387 43.3348 18.0408 43.3348 17.8428 43.3351C17.5663 43.3355 17.2897 43.3342 17.0131 43.3327C16.8906 43.3332 16.8906 43.3332 16.7656 43.3336C16.2656 43.3292 15.8789 43.3107 15.5049 42.9468C15.2572 42.5432 15.2334 42.1389 15.2368 41.6797C15.2367 41.6208 15.2365 41.5618 15.2364 41.5011C15.2362 41.3045 15.237 41.1079 15.2377 40.9113C15.2377 40.77 15.2377 40.6288 15.2376 40.4875C15.2376 40.1045 15.2384 39.7215 15.2394 39.3386C15.2402 38.9381 15.2403 38.5377 15.2404 38.1372C15.2409 37.3792 15.242 36.6212 15.2434 35.8631C15.2449 35 15.2456 34.1369 15.2463 33.2738C15.2478 31.4985 15.2502 29.7233 15.2532 27.948C15.172 27.9495 15.0908 27.9509 15.0071 27.9524C14.7031 27.9573 14.3991 27.9605 14.0951 27.963C13.964 27.9644 13.8329 27.9663 13.7019 27.9686C12.1624 27.9958 12.1624 27.9958 11.5803 27.5172C11.0683 26.8882 10.9431 26.4608 11.0215 25.6274C11.1687 25.1383 11.4619 24.7973 11.8405 24.4671C11.8804 24.4319 11.9202 24.3967 11.9613 24.3605C12.0492 24.2834 12.1375 24.2068 12.226 24.1304C12.4248 23.9557 12.619 23.7766 12.8131 23.5969C12.851 23.5618 12.889 23.5267 12.928 23.4905C13.0053 23.4189 13.0825 23.3474 13.1598 23.2758C13.6367 22.8346 14.1169 22.397 14.6005 21.963C14.8317 21.7545 15.0609 21.5438 15.2901 21.3331C15.5028 21.138 15.7165 20.9442 15.9315 20.7515C16.1967 20.5135 16.4591 20.2727 16.7206 20.0306C17.0362 19.7385 17.3541 19.4493 17.6743 19.1622C17.8694 18.9865 18.063 18.8091 18.2564 18.6314C18.5039 18.4039 18.7525 18.1776 19.0029 17.9531C19.2681 17.7151 19.5305 17.4743 19.7921 17.2322C20.1076 16.9401 20.4255 16.6509 20.7458 16.3638C20.9408 16.1881 21.1344 16.0107 21.3278 15.833C21.5754 15.6055 21.8239 15.3792 22.0743 15.1547C22.3395 14.9167 22.602 14.6759 22.8635 14.4338C23.1791 14.1417 23.4969 13.8524 23.8172 13.5654C24.0122 13.3897 24.2058 13.2123 24.3992 13.0346C24.6468 12.8071 24.8953 12.5808 25.1457 12.3563C25.411 12.1183 25.6734 11.8775 25.9349 11.6354C26.0827 11.4988 26.2306 11.3623 26.3785 11.2259C26.4409 11.1683 26.5033 11.1108 26.5676 11.0515C27.4557 10.2411 28.323 9.62245 29.5182 10.2703Z" fill="white"/>
<path d="M34.5 12.0447C35.4161 12.0384 36.3322 12.0335 37.2483 12.0306C37.6737 12.0291 38.099 12.0272 38.5244 12.0241C38.9351 12.0211 39.3458 12.0195 39.7565 12.0188C39.913 12.0183 40.0695 12.0173 40.2261 12.0158C40.4457 12.0139 40.6652 12.0136 40.8848 12.0137C40.9492 12.0127 41.0136 12.0118 41.08 12.0107C41.4874 12.0133 41.8075 12.0782 42.1444 12.3177C42.3953 12.6265 42.4944 12.8817 42.4939 13.2741C42.494 13.3548 42.494 13.3548 42.4942 13.4371C42.4938 13.5246 42.4938 13.5246 42.4934 13.6139C42.4934 13.6759 42.4935 13.7378 42.4935 13.8017C42.4934 14.0063 42.4929 14.2109 42.4923 14.4155C42.4922 14.5574 42.4921 14.6993 42.4921 14.8412C42.4918 15.2147 42.4911 15.5881 42.4904 15.9615C42.4897 16.3426 42.4894 16.7237 42.489 17.1048C42.4883 17.8525 42.4871 18.6002 42.4857 19.3479C42.2731 19.2461 42.1219 19.1397 41.9514 18.9759C41.9024 18.9293 41.8534 18.8826 41.8029 18.8345C41.727 18.7613 41.727 18.7613 41.6496 18.6866C41.317 18.3679 40.9823 18.0545 40.634 17.7529C40.4428 17.5861 40.257 17.4135 40.0712 17.2405C39.7529 16.9454 39.4322 16.6533 39.109 16.3636C38.9139 16.1878 38.7203 16.0105 38.527 15.8328C38.2779 15.6039 38.0279 15.3762 37.7762 15.1503C37.489 14.8926 37.2044 14.6322 36.9203 14.3712C36.6514 14.1243 36.3802 13.88 36.1085 13.6361C35.8762 13.4265 35.6458 13.2148 35.4158 13.0027C35.1505 12.7586 34.8798 12.5215 34.6056 12.2876C34.5 12.1812 34.5 12.1812 34.5 12.0447Z" fill="white"/>
</svg>
