<svg width="56" height="56" viewBox="0 0 56 56" fill="none" xmlns="http://www.w3.org/2000/svg">
<circle cx="28" cy="28" r="28" fill="#1E4193"/>
<path d="M41.7875 10.1043C40.9057 10.3162 40.7827 10.4255 36.7907 14.5816C34.7537 16.7006 33.0516 18.4437 33.0175 18.4574C32.9764 18.471 29.3262 17.2816 24.8968 15.812C20.4673 14.3492 16.5437 13.0436 16.1745 12.9274L15.5047 12.7018L13.6796 14.5269C12.5175 15.689 11.8818 16.3725 11.9228 16.4135C11.9638 16.4477 15.2244 18.4642 19.1685 20.8977C23.1195 23.3243 26.3528 25.334 26.3664 25.3613C26.3869 25.4297 19.1412 32.9899 19.0318 33.0172C18.9908 33.024 17.9108 32.8668 16.6394 32.6549L14.3153 32.279L12.6611 33.9332L11 35.5942L14.4793 36.8178L17.9586 38.0345L19.1754 41.5138L20.3921 45L22.06 43.3321L23.721 41.6711L23.3383 39.388C23.1264 38.1302 22.9623 37.057 22.976 36.9955C22.9965 36.8656 30.5498 29.5994 30.6318 29.6267C30.6592 29.6404 32.6688 32.8736 35.0955 36.8246C37.529 40.7688 39.5455 44.0293 39.5796 44.0704C39.6207 44.1114 40.2974 43.4825 41.4663 42.3136L43.2845 40.4953L40.4067 31.78C38.8209 26.9882 37.5221 23.0441 37.5221 23.0099C37.5221 22.9757 39.2515 21.2873 41.3569 19.264C44.0843 16.6459 45.2737 15.4565 45.4583 15.1694C46.5314 13.5152 45.8957 11.239 44.1253 10.3709C43.3529 9.98806 42.6215 9.90604 41.7875 10.1043Z" fill="white"/>
</svg>
