<svg width="56" height="56" viewBox="0 0 56 56" fill="none" xmlns="http://www.w3.org/2000/svg">
<circle cx="28" cy="28" r="28" fill="#1E4193"/>
<path d="M39.7444 21.9922C39.8583 22.0491 39.972 22.1063 40.0856 22.1637C41.9345 23.0634 43.9199 23.6013 45.9443 23.9322C46.1581 23.968 46.3714 24.0064 46.5847 24.0454C46.6582 24.0588 46.7317 24.0722 46.8074 24.086C46.8628 24.0962 46.9183 24.1063 46.9754 24.1168C46.9807 25.1537 46.9847 26.1906 46.9871 27.2275C46.9883 27.7091 46.9899 28.1907 46.9924 28.6723C46.9949 29.1381 46.9963 29.6038 46.9968 30.0696C46.9973 30.2463 46.9981 30.423 46.9993 30.5997C47.0209 33.8291 46.038 36.7655 43.8161 39.1574C43.6604 39.3239 43.6604 39.3239 43.5296 39.5039C42.6374 40.5611 41.3432 41.3458 40.1232 41.9625C40.0367 42.0081 39.9501 42.0536 39.8609 42.1005C39.2593 42.3898 39.2593 42.3898 38.8996 42.2873C38.7787 42.2329 38.6597 42.1741 38.542 42.1131C38.4485 42.0689 38.355 42.0249 38.2614 41.9811C36.7249 41.2497 35.2505 40.207 34.1746 38.8753C34.1157 38.8024 34.0568 38.7295 33.9961 38.6544C32.3773 36.6176 31.2951 34.061 31.3048 31.4341C31.3047 31.3547 31.3047 31.2753 31.3047 31.1935C31.3048 30.9328 31.3054 30.672 31.3059 30.4113C31.3061 30.2298 31.3062 30.0483 31.3063 29.8669C31.3066 29.3905 31.3073 28.9142 31.3081 28.4379C31.3089 27.9513 31.3092 27.4647 31.3096 26.9781C31.3104 26.0243 31.3117 25.0706 31.3133 24.1168C31.3832 24.1044 31.4532 24.092 31.5252 24.0793C31.7898 24.0323 32.0543 23.985 32.3188 23.9375C32.4324 23.9171 32.5459 23.8969 32.6595 23.8768C34.6991 23.5158 36.6975 22.9526 38.5374 21.9824C39.0026 21.7458 39.2717 21.7712 39.7444 21.9922ZM43.3238 28.2017C43.2795 28.2461 43.2352 28.2905 43.1896 28.3363C43.1132 28.4123 43.1132 28.4123 43.0354 28.4899C42.9796 28.5462 42.9238 28.6025 42.8663 28.6606C42.8075 28.7193 42.7487 28.7781 42.6882 28.8386C42.4931 29.0338 42.2985 29.2296 42.1039 29.4253C41.9691 29.5604 41.8343 29.6955 41.6994 29.8305C41.3802 30.1502 41.0613 30.4703 40.7426 30.7905C40.3798 31.155 40.0165 31.5191 39.6533 31.8831C38.9059 32.6321 38.159 33.3816 37.4125 34.1315C37.1956 34.0271 37.0396 33.9278 36.8697 33.7564C36.8245 33.7112 36.7793 33.666 36.7328 33.6194C36.6849 33.5708 36.637 33.5222 36.5877 33.472C36.538 33.4221 36.4883 33.3722 36.4371 33.3207C36.2787 33.1615 36.1208 33.0018 35.963 32.842C35.8556 32.7338 35.7481 32.6257 35.6406 32.5176C35.3775 32.2528 35.1148 31.9875 34.8523 31.7219C34.6128 31.8356 34.4533 31.9538 34.2688 32.1455C34.2226 32.1931 34.1764 32.2406 34.1288 32.2896C34.0942 32.3259 34.0597 32.3622 34.024 32.3996C34.1313 32.6427 34.2613 32.8076 34.4472 32.9965C34.5031 33.0535 34.5589 33.1105 34.6164 33.1693C34.6768 33.2301 34.7372 33.2909 34.7994 33.3535C34.8616 33.4164 34.9238 33.4793 34.988 33.5441C35.1197 33.6769 35.2516 33.8095 35.3837 33.9419C35.5856 34.1447 35.7861 34.3489 35.9865 34.5531C36.1147 34.682 36.2429 34.8108 36.3712 34.9395C36.431 35.0007 36.4908 35.062 36.5524 35.1251C36.7802 35.3511 36.975 35.5331 37.2658 35.6717C37.8293 35.5848 38.3353 34.8757 38.7254 34.4837C38.7857 34.4234 38.846 34.3631 38.9081 34.301C39.1055 34.1036 39.3026 33.9059 39.4997 33.7082C39.6372 33.5705 39.7748 33.4329 39.9124 33.2952C40.2363 32.9711 40.5599 32.6468 40.8836 32.3224C41.2524 31.9528 41.6214 31.5833 41.9904 31.2139C42.7487 30.4548 43.5068 29.6955 44.2647 28.9359C44.1524 28.7005 44.0364 28.5367 43.8505 28.3523C43.8047 28.3061 43.7589 28.2599 43.7117 28.2123C43.5492 28.0759 43.4884 28.0642 43.3238 28.2017Z" fill="white"/>
<path d="M28.0005 20.4648C28.053 20.4653 28.1055 20.4657 28.1596 20.4662C28.9182 20.4742 29.6267 20.4985 30.3347 20.8037C30.3808 20.8235 30.4268 20.8433 30.4743 20.8637C31.4073 21.2786 32.1024 21.8959 32.7443 22.6861C32.4772 22.8642 32.3031 22.8784 31.9857 22.9173C31.9342 22.9238 31.8827 22.9303 31.8297 22.9369C31.6656 22.9574 31.5014 22.9771 31.3372 22.9967C31.2257 23.0105 31.1143 23.0243 31.0029 23.0382C30.73 23.0721 30.4571 23.1052 30.1841 23.1379C30.1806 24.135 30.178 25.132 30.1763 26.1291C30.1756 26.5922 30.1745 27.0554 30.1728 27.5186C30.1711 27.9673 30.1702 28.416 30.1699 28.8647C30.1696 29.0341 30.169 29.2036 30.1682 29.373C30.164 30.2803 30.1824 31.1814 30.2489 32.0864C30.2545 32.1648 30.26 32.2431 30.2658 32.3239C30.3455 33.3035 30.5623 34.2675 30.8945 35.1923C30.9371 35.3363 30.9371 35.3363 30.9371 35.5622C30.465 35.5622 29.9929 35.5622 29.5065 35.5622C29.5065 38.3452 29.5065 41.1282 29.5065 43.9956C27.5186 43.9956 25.5307 43.9956 23.4826 43.9956C23.4826 42.4053 23.4826 40.815 23.4826 39.1765C23.085 39.1765 22.6874 39.1765 22.2778 39.1765C22.2778 40.7668 22.2778 42.3571 22.2778 43.9956C20.2899 43.9956 18.302 43.9956 16.2539 43.9956C16.2539 41.2126 16.2539 38.4295 16.2539 35.5622C16.9392 35.5585 17.6245 35.5548 18.3305 35.551C18.7656 35.5483 19.2007 35.5456 19.6359 35.5428C20.3259 35.5382 21.016 35.5338 21.7061 35.5304C22.2088 35.5279 22.7114 35.5249 23.2141 35.5213C23.4799 35.5194 23.7458 35.5178 24.0116 35.5167C24.3094 35.5156 24.6071 35.5133 24.9048 35.5109C24.9917 35.5107 25.0785 35.5106 25.168 35.5104C26.2532 35.4993 27.1954 35.3454 28.014 34.5848C28.632 33.8992 28.7997 33.1554 28.777 32.2502C28.7315 31.4456 28.3299 30.8097 27.7511 30.2724C27.0939 29.7444 26.2929 29.5758 25.4642 29.6462C24.3171 29.7215 24.3171 29.7215 23.9413 29.425C23.6516 29.0594 23.4923 28.618 23.3161 28.1902C23.0647 27.5978 22.7509 27.0326 22.4542 26.4621C22.3117 26.187 22.1713 25.9109 22.031 25.6347C21.6467 24.878 21.2544 24.1258 20.8576 23.3756C20.6363 22.9567 20.4168 22.5368 20.1977 22.1167C20.1742 22.0721 20.1508 22.0275 20.1267 21.9815C20.0581 21.8509 19.9899 21.7201 19.9218 21.5893C19.8824 21.514 19.843 21.4387 19.8025 21.3612C19.7176 21.1801 19.7176 21.1801 19.7176 21.0295C20.121 21.0998 20.507 21.2251 20.8979 21.3446C20.9525 21.361 21.0071 21.3774 21.0633 21.3943C21.1122 21.4092 21.161 21.4241 21.2114 21.4394C22.9242 21.8803 24.7702 21.5339 26.3439 20.8037C26.4183 20.7501 26.4926 20.6965 26.5692 20.6413C26.9969 20.3922 27.5214 20.4573 28.0005 20.4648Z" fill="white"/>
<path d="M26.172 10.0573C27.2529 10.939 28.1349 12.1575 28.3034 13.5752C28.4133 15.2108 28.2035 16.7344 27.1002 18.011C26.1058 19.1003 24.8673 19.8541 23.3673 19.9239C21.8093 19.9684 20.4114 19.6663 19.2347 18.592C18.1245 17.5273 17.4747 16.285 17.4303 14.7322C17.4125 13.1964 17.7968 11.8449 18.8761 10.7197C20.8 8.79338 23.9299 8.36275 26.172 10.0573Z" fill="white"/>
<path d="M18.1374 20.5027C18.6759 21.4559 19.1856 22.4209 19.6811 23.397C19.8135 23.6574 19.9461 23.9177 20.0787 24.178C20.1113 24.2418 20.1438 24.3057 20.1773 24.3714C20.4635 24.9318 20.7563 25.4886 21.0502 26.045C21.2965 26.5115 21.5383 26.9802 21.78 27.449C21.8777 27.6383 21.9755 27.8275 22.0733 28.0167C22.0972 28.0631 22.1212 28.1095 22.1459 28.1573C22.3664 28.5838 22.5883 29.0095 22.8107 29.435C23.1811 30.144 23.5498 30.8539 23.9174 31.5643C24.1359 31.9863 24.3553 32.4076 24.5769 32.8279C24.6187 32.9073 24.6605 32.9867 24.7036 33.0685C24.7825 33.2183 24.8617 33.3681 24.9412 33.5176C24.9939 33.6177 24.9939 33.6177 25.0476 33.7197C25.0783 33.7777 25.1091 33.8358 25.1407 33.8956C25.2155 34.0565 25.2155 34.0565 25.2908 34.3577C23.6757 34.3577 22.0605 34.3577 20.3964 34.3577C19.3765 32.4029 19.3765 32.4029 18.9657 31.6093C18.642 30.9844 18.3175 30.36 17.9916 29.7362C17.6249 29.0345 17.2609 28.3315 16.8975 27.6281C16.5468 26.9495 16.1946 26.2717 15.8408 25.5947C15.6365 25.2037 15.4329 24.8124 15.2302 24.4206C15.1954 24.3534 15.1954 24.3534 15.1599 24.2847C15.0475 24.0676 14.9351 23.8503 14.823 23.633C14.7818 23.5534 14.7406 23.4738 14.6981 23.3917C14.6578 23.3135 14.6174 23.2352 14.5759 23.1546C14.4851 22.9828 14.3926 22.8135 14.2965 22.6447C14.2717 22.6006 14.247 22.5565 14.2214 22.5111C14.152 22.3879 14.0815 22.2654 14.011 22.1429C13.9207 21.9334 13.9207 21.9334 13.9342 21.7631C14.2034 21.1935 15.2903 20.8631 15.85 20.6554C16.5947 20.4283 17.368 20.4863 18.1374 20.5027Z" fill="white"/>
<path d="M13.0161 22.686C13.2011 22.8544 13.3107 23.0193 13.4246 23.2414C13.4592 23.3083 13.4938 23.3752 13.5295 23.4442C13.5666 23.517 13.6037 23.5899 13.642 23.6649C13.6813 23.7413 13.7207 23.8176 13.7613 23.8963C13.8459 24.0603 13.9303 24.2245 14.0145 24.3888C14.2326 24.8133 14.4528 25.2367 14.6726 25.6603C14.7622 25.8331 14.8517 26.0058 14.9412 26.1786C15.1756 26.6306 15.411 27.0821 15.6468 27.5334C15.9889 28.1882 16.3289 28.8442 16.668 29.5006C17.0088 30.1601 17.3504 30.8191 17.694 31.4771C17.7473 31.5794 17.7473 31.5794 17.8017 31.6837C18.0038 32.071 18.2066 32.4579 18.4099 32.8446C18.5007 33.0178 18.5915 33.1911 18.6823 33.3643C18.7255 33.4462 18.7687 33.528 18.8132 33.6123C18.8725 33.7256 18.8725 33.7256 18.9329 33.8411C18.9681 33.9082 19.0034 33.9752 19.0397 34.0443C19.1153 34.2067 19.1153 34.2067 19.1153 34.3573C18.441 34.3643 17.7668 34.3697 17.0925 34.3729C16.7794 34.3745 16.4663 34.3766 16.1531 34.38C15.8504 34.3833 15.5477 34.3851 15.245 34.3859C15.13 34.3864 15.0151 34.3875 14.9001 34.3892C14.0518 34.4008 13.3241 34.3345 12.6796 33.7326C12.1657 33.161 12.0145 32.5784 12.0153 31.8256C12.0148 31.7539 12.0143 31.6822 12.0138 31.6083C12.0123 31.3717 12.0121 31.1352 12.0119 30.8986C12.0114 30.7331 12.0109 30.5676 12.0104 30.4022C12.0095 30.0551 12.0092 29.7081 12.0093 29.361C12.0093 28.919 12.0072 28.477 12.0046 28.035C12.003 27.6929 12.0027 27.3508 12.0027 27.0088C12.0026 26.846 12.0019 26.6832 12.0007 26.5204C11.9934 25.3955 12.0302 24.3434 12.6113 23.3449C12.6558 23.2669 12.7002 23.1888 12.7461 23.1084C12.8328 22.9656 12.9234 22.8251 13.0161 22.686Z" fill="white"/>
<path d="M24.7637 30.7432C25.0272 30.7344 25.2907 30.7291 25.5543 30.7244C25.6283 30.7218 25.7022 30.7193 25.7784 30.7167C26.3567 30.709 26.7528 30.808 27.1915 31.1923C27.232 31.2414 27.2726 31.2904 27.3144 31.3409C27.377 31.4141 27.377 31.4141 27.4409 31.4888C27.7782 31.9784 27.7511 32.503 27.7003 33.0774C27.5731 33.5816 27.2113 33.9132 26.7967 34.2069C26.6849 34.2442 26.6849 34.2442 26.5708 34.2822C26.3053 33.8712 26.0675 33.4523 25.8446 33.0169C25.8134 32.9562 25.7822 32.8956 25.75 32.8331C25.6848 32.7063 25.6197 32.5793 25.5547 32.4523C25.4548 32.2573 25.3544 32.0626 25.2538 31.868C25.1903 31.7442 25.1268 31.6205 25.0634 31.4968C25.0333 31.4385 25.0032 31.3802 24.9721 31.3202C24.7637 30.9111 24.7637 30.9111 24.7637 30.7432Z" fill="white"/>
</svg>
