<svg width="56" height="56" viewBox="0 0 56 56" fill="none" xmlns="http://www.w3.org/2000/svg">
<circle cx="28" cy="28" r="28" fill="#1E4193"/>
<path d="M27.5459 13.1582C26.0967 13.8281 24.8867 17.1025 24.2646 22.0518C24.0391 23.8633 23.8203 26.666 23.8203 27.8486V28.2451L24.3193 27.9717C24.5859 27.8213 25.1396 27.5889 25.543 27.4521C27.6826 26.7412 29.8701 26.9121 31.873 27.9648C32.1602 28.1152 32.3994 28.2246 32.4063 28.2178C32.4404 28.1836 32.2969 25.5312 32.1943 24.3076C31.6748 18.0801 30.3008 13.8145 28.5781 13.0967C28.2363 12.9531 27.9424 12.9668 27.5459 13.1582Z" fill="white"/>
<path d="M24.9834 13.3768C22.1807 13.9852 19.7197 15.2908 17.71 17.2254C16.3359 18.5516 15.3857 19.8641 14.5518 21.5731C13.6152 23.5076 13.1572 25.2576 13.0479 27.3973L13 28.2108L13.1914 28.3612C13.4648 28.5799 13.6357 28.5526 14.2236 28.1971C15.9395 27.1512 18.0312 26.7889 19.9932 27.1854C20.7178 27.3358 21.2305 27.5135 21.9756 27.8826C22.3311 28.0604 22.6455 28.2108 22.666 28.2244C22.6865 28.2313 22.7275 27.7733 22.7549 27.199C22.9053 23.8426 23.2266 21.0467 23.7188 18.7635C24.0811 17.1024 24.6553 15.3865 25.2705 14.1629C25.5234 13.6571 25.7217 13.2332 25.7148 13.2264C25.708 13.2264 25.3799 13.2879 24.9834 13.3768Z" fill="white"/>
<path d="M30.6641 13.5685C31.4297 14.8605 32.0859 16.8087 32.5713 19.215C33.0088 21.3888 33.3301 24.0001 33.4258 26.1193C33.4463 26.591 33.4805 27.2609 33.501 27.6095L33.542 28.2384L33.9043 28.0333C34.916 27.4523 36.208 27.09 37.459 27.0353C39.1201 26.9533 40.6035 27.3497 42.1484 28.2794C42.6133 28.5597 42.8389 28.5734 43.0781 28.3341C43.2559 28.1564 43.2559 28.1495 43.208 27.3976C42.9756 23.5968 41.4443 20.172 38.792 17.4992C36.6387 15.3322 33.8975 13.8693 30.9375 13.3087L30.459 13.2199L30.6641 13.5685Z" fill="white"/>
<path d="M19.7197 29.0998C17.8261 29.5031 16.4726 31.3488 16.5957 33.3654C16.6572 34.3703 17.0537 35.2316 17.7714 35.9289C18.5234 36.6603 19.33 37.0363 20.3007 37.1047C22.1806 37.2345 24.0126 35.9631 24.5458 34.1515C24.6894 33.6593 24.7099 32.6818 24.58 32.1349C24.3203 31.0343 23.4521 29.9406 22.454 29.4484C21.579 29.0177 20.6494 28.8947 19.7197 29.0998Z" fill="white"/>
<path d="M34.7666 29.0994C34.2061 29.2156 33.4473 29.5779 33.0371 29.9197C32.1416 30.6648 31.5469 31.9226 31.5469 33.0574C31.5469 34.0212 32.0322 35.197 32.6953 35.8738C33.9668 37.1658 35.7646 37.4734 37.4258 36.6736C38.1162 36.3455 38.8818 35.5798 39.2305 34.8689C40.0234 33.2419 39.6885 31.3621 38.3691 30.1179C37.3984 29.1951 36.0586 28.8191 34.7666 29.0994Z" fill="white"/>
<path d="M27.2383 32.5039C26.3565 32.7568 25.5977 33.3926 25.2559 34.1445C24.2578 36.332 25.7344 38.6973 28.0928 38.6973C29.0156 38.6973 29.7608 38.3965 30.376 37.7881C31.0186 37.1523 31.3194 36.3047 31.251 35.3135C31.169 34.0625 30.4375 33.0439 29.3028 32.6064C28.8174 32.4219 27.71 32.3672 27.2383 32.5039Z" fill="white"/>
<path d="M16.8487 37.1387C15.4815 38.0752 14.4356 39.3467 14.0391 40.5361C13.6358 41.7461 14.0391 42.8604 15.0577 43.3594L15.5157 43.585L18.9473 43.6055L22.379 43.626L22.1261 43.1338C21.9005 42.6895 21.8731 42.5801 21.8526 42.0127C21.8048 40.707 22.3927 39.5518 23.753 38.2666L24.3682 37.6924L24.2247 37.3369C24.1427 37.1455 24.047 36.9883 24.0196 36.9883C23.9854 36.9883 23.8214 37.0977 23.6436 37.2275C23.254 37.5215 22.4952 37.8906 21.9073 38.0547C21.2442 38.2393 19.9932 38.2256 19.2891 38.0273C18.6534 37.8428 18.0382 37.5488 17.5528 37.1865C17.3546 37.043 17.1905 36.9199 17.1768 36.9199C17.1632 36.9199 17.0196 37.0225 16.8487 37.1387Z" fill="white"/>
<path d="M32.0374 37.2341C31.8255 37.658 31.846 37.7605 32.1673 37.9861C32.3246 38.0886 32.6322 38.3826 32.8578 38.6287C34.2455 40.1394 34.7376 41.7595 34.1771 42.9832C34.0814 43.2019 33.9515 43.4343 33.89 43.5027C33.7806 43.6189 33.8968 43.6257 37.2601 43.6052C40.6507 43.5847 40.7464 43.5779 41.0541 43.4412C42.0384 42.9832 42.5101 41.9851 42.2777 40.864C42.1751 40.365 41.765 39.5447 41.3275 38.9636C40.8968 38.3963 40.0423 37.5828 39.4886 37.2136L39.0648 36.9265L38.5111 37.2957C37.5677 37.9246 36.7337 38.1775 35.5785 38.1775C34.4095 38.1775 33.4251 37.8562 32.5296 37.1931L32.181 36.9334L32.0374 37.2341Z" fill="white"/>
<path d="M24.3612 39.1896C23.4179 40.1193 23.0009 40.8575 22.9462 41.6915C22.9052 42.3136 23.0487 42.7101 23.4452 43.1066C23.9716 43.6329 23.9032 43.6261 28.2372 43.6056C32.0038 43.5851 32.0653 43.5851 32.3319 43.4347C32.9608 43.0997 33.2821 42.5734 33.2821 41.8761C33.289 41.2677 33.1317 40.8165 32.7079 40.1808C32.3524 39.6476 31.3544 38.629 31.1835 38.629C31.1288 38.629 30.9374 38.7521 30.7528 38.8956C30.0419 39.4903 29.1396 39.798 28.1278 39.798C27.1093 39.798 26.2206 39.4972 25.4687 38.9025C25.2773 38.7521 25.079 38.629 25.0243 38.629C24.9765 38.629 24.6757 38.8819 24.3612 39.1896Z" fill="white"/>
</svg>
