<svg width="40" height="40" viewBox="0 0 40 40" fill="none" xmlns="http://www.w3.org/2000/svg">
<path d="M38.3299 0.14397C38.1781 0.23328 33.0427 5.96699 26.9161 12.8974C20.7983 19.819 15.6809 25.5795 15.5469 25.6867C15.279 25.9099 14.8324 25.9546 14.5198 25.7849C14.4127 25.7313 12.6175 24.1327 10.5366 22.2393C8.45568 20.3459 6.5891 18.6847 6.38369 18.5418C5.22266 17.7648 3.64187 17.6577 2.32901 18.2739C1.58774 18.6222 0.766083 19.4528 0.373119 20.2387C0.0783954 20.8371 0.0337404 20.9979 0.00694736 21.757C-0.0377077 22.7573 0.131981 23.5164 0.542808 24.1594C1.03401 24.9364 11.8048 38.0561 12.171 38.324C13.7428 39.4851 15.922 39.2886 17.2884 37.8685C17.6546 37.4934 20.5125 32.9476 28.8898 19.4617C38.8032 3.48417 40 1.51934 40 1.19783C40 0.742348 39.7499 0.33152 39.348 0.14397C38.9461 -0.0525131 38.6871 -0.0435829 38.3299 0.14397Z" fill="#5A9BD5"/>
</svg>
