<svg width="300" height="285" viewBox="0 0 300 285" fill="none" xmlns="http://www.w3.org/2000/svg">
<path d="M165.74 1.00683C157.638 3.17903 150.123 9.3434 146.66 16.6819C143.254 23.903 142.667 29.539 144.253 40.0478C146.894 57.6016 156.523 69.5194 169.967 71.8677C183.704 74.216 196.973 63.355 201.61 45.9774C202.374 42.9245 202.902 38.8149 203.078 33.4138C203.372 26.4275 203.254 24.9011 202.198 21.3786C197.501 5.99703 181.121 -3.16146 165.74 1.00683Z" fill="#FFF9F9"/>
<path d="M234.311 2.35708C233.019 3.41383 232.902 3.94221 232.726 10.4588C232.55 17.0929 232.432 17.4451 230.847 19.1476C228.557 21.6134 227.912 23.0811 227.912 25.8991C227.912 28.7171 229.086 31.1828 231.082 32.8267L232.55 33.9421L232.726 55.8403L232.902 77.6798L234.311 78.7952C236.189 80.3217 238.244 80.2042 239.947 78.443L241.415 77.034V55.6642V34.2944L242.941 32.8854C245.172 30.8306 246.111 28.6584 246.111 25.5468C246.111 22.6114 244.467 19.2651 242.53 18.267C241.532 17.6799 241.415 16.9167 241.415 10.8698C241.415 4.47058 241.356 4.05962 239.947 2.70933C238.244 0.948085 236.189 0.830669 234.311 2.35708Z" fill="#FFF9F9"/>
<path d="M261.082 2.70935L259.614 4.11835V25.7817V47.445L258.088 48.854C255.857 50.9088 254.917 53.081 254.917 56.1926C254.917 59.128 256.561 62.4744 258.499 63.4724C259.497 64.0595 259.614 64.8227 259.614 70.4587C259.614 75.9773 259.79 77.034 260.847 78.3843C262.315 80.2043 264.722 80.3804 266.718 78.7953C268.009 77.7385 268.127 77.2101 268.303 70.9871C268.479 64.6466 268.597 64.2943 270.182 62.5918C272.471 60.126 273.117 58.6583 273.117 55.8403C273.117 53.0223 271.943 50.5566 269.947 48.9127L268.479 47.7973L268.303 25.6056L268.127 3.47256L266.718 2.3571C264.839 0.830686 262.784 0.948103 261.082 2.70935Z" fill="#FFF9F9"/>
<path d="M287.911 2.59199C286.678 3.88357 286.62 4.52936 286.62 12.9834V21.9657L284.33 24.4315C280.455 28.5997 280.69 34.3532 284.917 37.8756L286.62 39.3434V58.3648V77.3863L287.97 78.6192C289.673 80.2043 292.138 80.263 293.665 78.7366C294.78 77.6211 294.839 76.7992 294.839 58.7171V39.813L297.128 37.3473C301.062 33.0616 300.944 27.6017 296.835 23.8444L294.839 22.0244V12.8072C294.839 4.35324 294.721 3.47262 293.665 2.41587C292.08 0.830744 289.496 0.889452 287.911 2.59199Z" fill="#FFF9F9"/>
<path d="M101.689 40.6349C101.689 43.1007 98.6949 48.1496 95.5247 51.085C92.5306 53.7856 87.4229 56.3687 84.7811 56.4861C84.2527 56.4861 85.2507 56.8971 87.012 57.3668C94.7028 59.4216 98.9885 64.0595 102.1 73.4528C102.276 73.9225 102.746 73.1006 103.157 71.5155C104.096 67.8755 107.501 62.9441 110.671 60.7131C113.431 58.7758 117.482 57.0145 119.478 56.9558C120.182 56.9558 119.302 56.4861 117.423 55.8991C115.603 55.312 113.255 54.2552 112.139 53.6094C107.912 50.9676 103.861 45.5077 103.098 41.3394C102.687 39.2259 101.689 38.6975 101.689 40.6349Z" fill="#FFF9F9"/>
<path d="M155.113 81.0848C136.033 83.0809 120.769 98.2276 115.25 120.478C113.313 128.521 111.082 145.018 111.611 147.836C112.198 151.006 114.722 155.233 116.953 156.818C126.288 163.453 156.229 167.386 185.172 165.742C209.184 164.392 225.681 160.811 231.082 155.762C233.43 153.531 235.544 148.834 235.544 145.664C235.544 140.732 232.08 121.065 230.26 115.547C223.508 95.4684 209.477 83.0222 191.454 81.0848C185.348 80.439 161.102 80.439 155.113 81.0848Z" fill="#FFF9F9"/>
<path d="M68.5776 87.6015C68.0493 90.4195 65.29 94.6465 62.7068 96.6426C61.4739 97.5819 59.1843 98.7561 57.4818 99.3432C55.7792 99.9303 54.9573 100.4 55.6031 100.4C57.6579 100.517 62.5894 103.159 64.5268 105.214C66.5229 107.328 68.7538 111.731 68.8712 113.668C68.8712 114.314 69.3996 113.433 69.9866 111.731C71.9827 106.153 75.2704 102.807 80.6128 101.046L83.4895 100.048L81.0238 99.2845C75.6813 97.6994 71.9827 94.0007 69.9279 88.1299L68.9886 85.488L68.5776 87.6015Z" fill="#FFF9F9"/>
<path d="M79.086 182.709C75.7983 183.237 70.7494 184.764 51.9041 190.869C41.1605 194.333 38.8708 195.272 39.1057 196.094C48.3816 227.973 57.2465 258.149 57.4226 258.325C57.5988 258.501 60.4168 257.914 63.8218 257.033L69.9275 255.448L93.8805 264.196C107.031 269.01 119.125 273.354 120.769 273.941C128.988 276.701 135.094 277.229 140.436 275.644C142.139 275.174 154.409 269.186 167.677 262.376C180.945 255.624 198.029 246.877 205.602 243.002C213.176 239.069 225.328 232.904 232.608 229.147C250.044 220.223 251.571 219.343 253.626 216.994C255.68 214.705 256.326 212.239 255.857 208.834C255.093 203.726 250.808 199.441 246.522 199.499C244.878 199.558 230.964 204.196 205.074 213.296L166.092 227.092L165.094 230.615C163.274 237.308 159.105 242.474 153.411 245.116C151.18 246.114 149.653 246.349 144.252 246.349L137.794 246.29L118.714 239.069C108.205 235.135 99.1642 231.437 98.6358 230.967C96.3462 228.912 98.2249 223.746 101.219 223.746C101.806 223.746 110.788 226.975 121.18 230.908C138.499 237.425 140.495 238.012 144.252 238.071C147.716 238.129 148.773 237.895 151.062 236.544C160.808 230.85 158.812 212.826 147.892 207.719C146.248 206.897 133.509 201.202 119.653 194.979C90.4167 181.887 88.0097 181.182 79.086 182.709Z" fill="#FFF9F9"/>
<path d="M13.0981 187.112C6.22926 189.108 0.29973 191.045 0.00618825 191.339C-0.463478 191.809 25.9552 283.863 26.7772 284.685C27.0707 284.979 51.8456 277.875 53.0197 277.17C53.5481 276.818 50.6127 265.898 40.3388 230.674C32.9415 205.429 26.6597 184.411 26.3075 184.059C25.8378 183.59 22.2566 184.411 13.0981 187.112ZM18.9102 194.979C20.4367 196.505 20.4367 199.734 18.9102 201.143C17.2077 202.67 14.2723 202.552 12.922 200.908C10.6324 197.973 12.3936 193.805 15.9748 193.805C16.9729 193.805 18.2645 194.333 18.9102 194.979Z" fill="#FFF9F9"/>
</svg>
