<svg width="300" height="258" viewBox="0 0 300 258" fill="none" xmlns="http://www.w3.org/2000/svg">
<path d="M60.7617 0.607666C50.4492 2.1311 40.4883 11.4475 38.1445 21.7014C37.2656 25.4514 37.3828 31.428 38.3789 35.4124C40.957 45.0803 49.1602 53.1663 58.7695 55.3342L61.8164 56.0374L55.3711 56.3303C44.3555 56.8577 35.8594 60.6663 28.8281 68.1663C24.8438 72.5022 22.3242 76.6038 20.5078 81.9944C19.4531 85.0413 19.1602 87.6194 18.9258 94.7092L18.6328 103.674H55.3125H91.9922V131.506V159.338H116.309H140.625V149.377V139.416H126.27H111.914V114.045C111.914 85.803 111.738 84.4553 107.988 76.8381C106.758 74.3186 104.355 70.9202 102.129 68.5178C94.6875 60.4905 86.8359 56.9749 75.293 56.3303L68.8477 56.0374L71.7773 55.3342C84.4336 52.4045 93.1641 41.2717 93.1641 28.0881C93.1641 20.0022 90.293 13.4983 84.1406 7.69751C77.9297 1.77954 69.6094 -0.73999 60.7617 0.607666Z" fill="#5A9BD5"/>
<path d="M230.156 0.607674C220.312 2.01392 210.996 10.1585 207.949 19.9436C203.203 35.1194 212.637 51.6428 228.223 55.3928L231.152 56.096L226.465 56.1545C219.961 56.2717 214.453 57.5608 208.594 60.3733C201.973 63.5374 195.234 70.217 192.07 76.721C190.898 79.1233 189.785 81.9944 189.551 82.9905L189.141 84.9241H204.902H220.664L222.891 103.381L225.176 121.838H253.242H281.367L281.133 103.791L280.898 85.803L279.082 81.0569C273.281 65.7053 259.688 56.3889 242.871 56.1545L238.184 56.096L241.23 55.3928C251.074 52.9905 259.043 45.1975 261.621 35.4124C262.617 31.428 262.734 25.4514 261.855 21.7014C260.156 14.1428 254.062 6.58424 246.973 3.1858C243.457 1.48658 236.543 -0.212639 234.082 0.0217363C233.789 0.08033 231.973 0.314705 230.156 0.607674Z" fill="#5A9BD5"/>
<path d="M160.84 104.377C161.25 107.073 162.891 120.198 162.891 121.076C162.891 121.662 167.344 121.838 185.156 121.838C202.969 121.838 207.422 121.662 207.422 121.076C207.422 120.198 205.781 107.073 205.371 104.377L205.02 102.502H182.754H160.488L160.84 104.377Z" fill="#5A9BD5"/>
<path d="M0 189.514V257.776H8.78906H17.5781V231.701V205.627H37.207H56.8359L56.9531 231.526L57.1289 257.483L65.8008 257.658L74.4141 257.834V189.514V121.252H37.207H0V189.514Z" fill="#5A9BD5"/>
<path d="M158.203 150.139V160.862L161.074 162.151C169.863 166.135 175.898 175.1 176.777 185.471L177.129 189.807H185.801H194.531V181.018V172.229H203.32H212.109V181.018V189.807H220.898H229.688V198.596V207.385H220.898H212.109V216.174V224.963H203.32H194.531V216.174V207.385H185.742H176.953V232.58V257.776H238.477H300V198.596V139.416H229.102H158.203V150.139Z" fill="#5A9BD5"/>
<path d="M92.2266 177.678C92.1094 178.088 92.0508 184.475 92.1094 191.858L92.2852 205.334L111.504 205.51L130.664 205.627V231.701V257.776L144.902 257.658L159.082 257.483L159.258 222.033C159.375 198.655 159.199 185.881 158.789 184.475C157.969 181.487 156.035 179.319 153.281 178.03C151.055 177.033 148.828 176.916 121.699 176.916C98.6133 176.916 92.461 177.092 92.2266 177.678Z" fill="#5A9BD5"/>
</svg>
