<svg width="300" height="259" viewBox="0 0 300 259" fill="none" xmlns="http://www.w3.org/2000/svg">
<path d="M27.4842 1.14651C17.2576 3.19184 8.05356 10.2227 3.5794 19.3627C-0.0638432 26.9049 7.34462e-05 25.7544 7.34462e-05 75.6093C7.34462e-05 118.497 0.06399 121.885 1.15057 125.464C3.00415 131.408 5.81648 136.202 9.97106 140.293C16.6823 146.94 23.6492 149.88 34.3872 150.52L40.5871 150.903V162.152C40.5871 168.352 40.9067 174.488 41.2263 175.767C42.5685 180.624 48.0014 183.884 53.2426 182.925C55.2879 182.606 57.8446 180.305 71.5866 166.627L87.5658 150.775L91.4008 150.583L95.2358 150.392L95.6193 125.464C95.811 108.654 96.1945 99.8337 96.7059 98.2997C97.1533 97.0853 97.4729 95.9987 97.4729 95.8709C97.4729 95.807 93.1265 95.807 87.7575 95.8709L78.0422 96.0626L72.4815 108.207C67.8795 118.306 66.6011 120.607 64.8115 121.821C63.1497 122.972 62.0631 123.227 60.4012 122.972C57.3972 122.524 54.6487 119.456 54.6487 116.58C54.6487 115.174 60.1456 102.326 71.2031 77.9742C80.3432 57.9044 88.3967 40.3274 89.1637 38.8573C91.4647 34.3192 97.0254 33.2965 100.285 36.812C100.797 37.4511 104.44 44.9933 108.339 53.5581C112.238 62.1229 115.561 69.3455 115.753 69.6012C115.881 69.8568 118.501 68.7702 121.569 67.2363C131.476 62.2508 131.349 62.2508 162.86 61.9951L190.791 61.8033V46.9108C190.791 38.7295 190.471 30.3564 190.088 28.2471C187.787 15.5917 177.177 4.47017 164.457 1.46609C161.006 0.699092 150.651 0.507342 95.2358 0.571259C59.3786 0.635175 28.8904 0.890842 27.4842 1.14651Z" fill="#5A9BD5"/>
<path d="M89.9306 69.729C87.0544 76.1206 84.6895 81.5536 84.6895 81.8092C84.6895 82.1288 89.1636 82.3206 94.5965 82.3206C104.312 82.3206 104.504 82.3206 104.823 80.8505C105.079 79.8917 103.673 76.1206 100.349 68.962C97.7284 63.1456 95.4914 58.3518 95.3635 58.2879C95.2996 58.224 92.8708 63.3373 89.9306 69.729Z" fill="#5A9BD5"/>
<path d="M137.421 75.9928C132.563 76.6959 124.254 80.6587 120.355 84.1741C116.648 87.4339 113.005 92.8668 110.896 98.2997L109.298 102.454L109.106 148.602C108.914 199.671 108.914 199.48 112.941 207.214C116.009 212.966 122.337 219.038 128.153 221.85C130.774 223.065 134.673 224.407 136.718 224.791C139.147 225.238 153.464 225.494 176.027 225.494H211.564L226.265 240.258C234.382 248.376 242.18 255.726 243.714 256.621C248.572 259.497 255.028 257.772 257.776 252.786C258.671 251.06 258.926 248.632 259.054 238.213L259.246 225.685L266.085 225.302C276.695 224.791 283.343 221.978 289.99 215.203C294.911 210.154 298.619 202.675 299.513 195.772C299.897 192.513 300.089 175 299.961 147.196C299.769 107.248 299.641 103.477 298.555 100.217C294.784 88.6483 286.73 80.6587 275.161 76.8237C271.838 75.6732 267.811 75.6093 206.451 75.5454C170.594 75.4815 139.53 75.6732 137.421 75.9928ZM207.09 106.865C210.478 108.335 211.245 110.508 211.245 119.073V126.423H224.987C239.815 126.423 242.052 126.806 244.098 129.683C245.504 131.792 245.376 135.499 243.778 137.481C242.564 139.078 239.751 140.229 236.236 140.612C234.83 140.804 234.574 141.316 233.615 146.237C231.634 155.889 226.329 166.563 220.129 173.402C218.084 175.639 217.061 177.237 217.381 177.556C218.403 178.579 227.352 180.624 232.912 181.136C237.578 181.519 238.409 181.775 240.071 183.437C241.477 184.907 241.925 185.929 241.925 187.847C241.925 194.43 237.77 195.964 225.626 193.855C219.17 192.704 213.737 190.979 208.496 188.358L204.725 186.505L200.187 188.678C189.321 193.791 175.004 196.284 170.274 193.791C167.973 192.641 166.247 189.061 166.823 186.505C167.59 183.053 169.763 181.839 177.049 180.944C183.505 180.177 189.513 178.771 191.431 177.556C192.134 177.109 191.686 176.342 189.066 173.53C185.486 169.758 181.715 164.262 179.798 159.851C178.775 157.486 178.711 156.719 179.286 154.866C180.309 151.862 182.674 150.072 185.806 150.072C188.938 150.072 191.239 152.309 194.562 158.253C195.777 160.427 198.461 164.006 200.571 166.179L204.406 170.206L208.688 165.604C214.377 159.468 218.851 150.775 220.513 142.53L220.96 140.485H195.266C166.695 140.485 166.247 140.421 164.33 136.33C163.052 133.709 163.052 133.198 164.33 130.578C166.12 126.806 167.845 126.423 183.697 126.423H197.822V118.561C197.822 109.869 198.334 108.462 201.913 106.865C204.406 105.778 204.47 105.778 207.09 106.865Z" fill="#5A9BD5"/>
</svg>
