<svg width="55" height="46" viewBox="0 0 55 46" fill="none" xmlns="http://www.w3.org/2000/svg">
<path d="M1.36139 0C1.00032 0 0.65405 0.137684 0.398741 0.382762C0.143431 0.627841 0 0.960238 0 1.30683V38.4209C0 38.7674 0.143431 39.0998 0.398741 39.3449C0.65405 39.59 1.00032 39.7277 1.36139 39.7277H37.7812C37.306 39.1262 36.8297 38.5251 36.3523 37.9243C35.7576 37.0821 34.894 36.3613 34.6407 35.3378C31.1393 36.7251 27.1161 36.8537 23.5231 35.7021C23.4442 35.6776 23.3668 35.6472 23.2884 35.6216C22.8762 36.0084 22.4318 36.6828 22.3616 37.114H17.1845C17.5733 35.8495 16.7478 33.8752 17.5287 32.5882C17.5907 32.5725 17.6659 32.4716 17.7002 32.3676C17.612 32.2882 17.5227 32.2108 17.4366 32.1298C16.671 32.3535 16.365 32.9071 15.9391 33.3927C16.1716 34.4507 14.4933 34.2003 14.6627 35.2798C15.8318 36.1501 13.5834 35.4868 12.9147 35.5563C12.2051 35.5636 10.1293 34.8506 10.8497 36.309C10.737 36.7094 10.841 36.9551 11.0485 37.114H10.7304C10.6809 36.6561 9.78238 36.5882 9.43604 36.3634C8.85282 36.2275 8.15634 36.1595 7.55243 35.9013C7.39723 36.3153 5.99663 36.7889 5.69005 37.114H2.72277V18.0181C3.14045 18.2868 4.07708 18.1801 2.80064 17.5999H2.72277V11.5811C2.97054 11.4609 3.14752 11.4228 3.13663 11.624C3.75035 11.4254 4.01772 9.99151 5.0796 10.5785C5.74178 10.6721 6.83743 11.6575 6.28688 11.7808C6.71599 12.7866 7.0204 12.1389 7.54698 13.3375C7.18649 14.9768 8.56693 16.1916 9.32441 17.2366C10.2316 17.5983 10.5905 18.7243 12.0651 18.7682C12.2655 18.9365 12.5226 19.0892 12.7905 19.2355C12.8646 18.6947 12.9675 18.159 13.0993 17.6286C13.0639 17.6208 13.0296 17.6161 12.9914 17.6041C11.5729 18.8602 11.2821 16.6856 12.6674 16.6004C12.76 16.5948 12.8598 16.5992 12.9669 16.6135C13.1276 16.5952 13.261 16.6135 13.3737 16.6517C13.8287 15.22 14.5028 13.8612 15.3739 12.6198C15.8421 11.95 16.3672 11.3185 16.9438 10.7317C16.6574 10.2717 16.3644 10.015 16.0186 10.6157C15.9925 9.7244 13.4821 8.79027 15.3292 9.64546C16.298 10.4468 16.6154 9.50642 16.7685 8.8645C17.5989 8.03336 15.9173 7.74951 16.2239 7.20639C15.7142 6.473 14.9595 5.72183 14.184 5.26758C12.68 5.43485 12.1528 5.1301 14.1639 5.12905C14.3452 4.22734 14.6463 3.58856 14.8538 2.82955C14.636 2.76944 14.4084 2.77885 14.184 2.77832C13.2218 2.65444 12.6505 3.01146 12.6701 3.71663C11.9475 3.66122 12.5966 2.4788 11.4825 2.84001C9.79327 2.81439 11.8353 3.36222 11.6785 3.44115C11.4852 3.85724 10.2681 3.59797 10.4113 4.01982C9.85371 3.02976 9.59995 4.49184 9.16594 3.49029C8.90456 3.24983 10.2605 3.72761 9.95173 2.85098C9.26886 2.60007 9.02436 3.03917 8.49233 3.21847C6.90441 4.06216 8.7695 4.85566 9.57599 5.13689C10.7914 4.82587 10.7903 4.43277 11.6355 4.86507C12.583 5.36951 10.6787 5.0151 10.737 5.79136C10.6281 5.30887 10.4919 5.01771 9.90381 5.6361C9.11965 5.77201 8.76951 4.73753 8.18411 4.81019C6.84995 4.63612 7.34822 7.51637 8.44713 6.53573C9.11203 7.64026 7.59762 6.82532 7.14837 6.70196C6.13386 7.78976 5.04094 6.67373 3.82985 6.62877C3.44213 6.381 3.06203 6.37786 2.72277 6.50384V2.61366H17.0026C15.9843 2.64032 15.0749 2.76944 15.4452 3.47251C15.3853 4.82848 17.2128 3.75165 17.4758 4.97798C18.235 5.83474 17.0244 7.65647 18.3373 7.33655C17.8543 7.90058 17.9148 8.79916 18.2916 9.50746C19.6857 8.38445 21.2666 7.49454 22.9682 6.87498C22.9982 6.71398 22.9748 6.52893 22.8746 6.31043C22.7041 5.49026 23.497 5.22837 23.2193 4.31882C23.5928 3.63404 23.3031 2.90953 22.6627 2.61366H52.2772V6.31357C52.1927 6.27906 52.1059 6.24973 52.0175 6.22575C51.2502 6.89328 51.8704 6.95653 52.2772 6.8065V7.38987C51.37 6.90007 50.3735 6.84623 49.4058 7.0501C48.9663 6.3167 47.4105 6.33395 46.8987 5.67374C45.9969 4.63664 47.1737 4.9461 47.9605 4.86612C47.7373 4.21793 46.3977 3.91056 45.8319 4.01772C44.8098 4.55509 46.3688 5.03705 46.2114 5.75842C46.2114 6.28273 45.5454 6.28638 44.9644 6.25763C45.1991 5.70249 43.8519 5.0198 43.3177 5.47144C42.3064 5.17767 41.9209 5.35017 42.588 4.3392C42.3549 3.5619 41.3916 3.54726 40.9598 3.0078C40.4081 4.13063 39.4884 3.79034 38.5027 4.47407C38.1079 5.02817 37.2856 5.52581 37.2448 5.89172C36.6338 6.1672 36.0223 4.76157 35.5937 6.00672C35.2049 7.06055 35.6155 7.57126 34.3037 6.70875C32.9461 5.31985 37.0308 4.13011 35.5126 3.5389C34.2525 3.89175 33.495 4.74432 33.2445 5.95549C33.1089 6.23097 33.1704 6.42282 33.3137 6.57807C38.097 7.94763 42.0554 11.6402 43.6646 16.1702C43.6896 15.8973 43.737 15.6349 43.8323 15.4431C44.2347 15.1483 43.9156 16.5748 44.7471 15.7635C44.1345 17.0259 46.2871 15.9308 46.5785 15.4096C46.1515 14.3809 48.1141 13.8963 48.0684 13.7024C47.3457 12.9747 47.7563 13.6987 46.9591 13.8655C46.695 13.5278 47.4655 11.6763 46.4401 11.8462C44.9089 11.4677 47.7427 10.3851 48.5078 10.7835C48.8563 9.54562 49.3573 10.5315 48.4964 11.1008C48.1686 12.199 48.3254 13.6972 49.2898 12.2293C49.7233 11.8242 49.6154 10.7683 50.1796 10.5843C50.9376 10.2414 52.2903 9.97322 52.2549 8.91312C52.2625 8.91103 52.2696 8.91155 52.2772 8.90998V37.114H50.1213C50.5886 36.493 51.2066 35.4308 50.5521 35.0456C49.5659 34.882 48.8291 33.7403 47.6371 33.7879C47.0991 33.193 45.8602 32.8919 45.5269 32.7759C45.1937 32.6598 44.6153 33.3305 44.0229 33.0341C43.8445 33.0067 43.6626 33.0098 43.4854 33.0435C45.2683 35.2651 47.0343 37.4988 48.8068 39.7277H53.6386C53.9997 39.7277 54.346 39.59 54.6013 39.3449C54.8566 39.0998 55 38.7674 55 38.4209V1.30683C55 0.960238 54.8566 0.627841 54.6013 0.382762C54.346 0.137684 53.9997 0 53.6386 0H1.36139ZM27.8757 2.78094C26.999 3.19547 28.5537 4.84573 28.5967 3.27022C28.7574 3.50022 29.835 3.73231 29.4827 2.99055C28.6997 2.5478 28.8184 3.05694 27.8752 2.78146M40.4441 2.78251C41.2718 3.2331 39.4982 3.22474 40.4441 2.78251ZM10.3955 2.93253C9.68762 3.43749 11.4346 3.93722 10.4881 2.95919L10.3955 2.93253ZM16.1923 3.23206C16.3693 3.39515 16.0175 3.33713 16.1923 3.23206ZM9.35545 3.87763C9.43876 3.97015 9.31188 3.88443 9.35545 3.87763ZM11.7803 4.093C12.6337 4.23518 11.715 4.42755 11.7803 4.093ZM12.9756 4.18709C13.787 4.13743 13.2735 4.3805 12.9756 4.18709ZM10.5932 4.22159C11.1209 4.27386 10.5257 4.4563 10.5932 4.22159ZM12.2824 4.9576C12.8161 5.07573 12.02 5.11703 12.2824 4.9576ZM12.6587 5.77254C12.3374 6.75632 13.8006 8.08824 12.6652 6.96698C12.3532 6.51848 12.1909 6.08879 12.6587 5.77254ZM10.7539 5.87186C11.2216 6.62198 11.9339 6.82218 11.3376 7.08041C10.9417 6.89641 10.8502 6.3235 10.7539 5.87186ZM18.0939 6.62773C18.1598 6.67007 17.9164 6.63818 18.0939 6.62773ZM7.05253 6.86453C6.99153 7.10185 6.96812 6.86819 7.05253 6.86453ZM11.2696 7.24821C11.2314 7.74272 11.0207 7.23933 11.2696 7.24821ZM14.3997 7.25135C14.196 8.2184 15.0041 8.15672 14.9497 8.25395C14.282 8.53623 14.4416 9.69878 13.9308 8.81171C13.6084 8.66743 14.0963 7.39092 14.3158 7.27905L14.3997 7.25135ZM11.1176 7.25239C11.189 7.26808 11.1127 7.47874 11.1176 7.25239ZM50.5085 7.33917C50.5303 7.37471 50.4138 7.42803 50.5085 7.33917ZM11.1568 7.46567C11.5282 7.8389 10.6591 7.80544 11.1568 7.46567ZM28.4617 7.97951C25.4922 7.99947 22.6099 8.94498 20.2487 10.6737C14.2096 15.0882 13.0345 23.4101 17.6332 29.2072C21.9379 34.6337 29.7986 35.9426 35.7397 32.468L36.8745 33.8987C36.6512 34.3974 36.6719 34.8741 36.9317 35.2024L45.1653 45.5812C45.6554 46.1986 46.8388 46.1249 47.8081 45.4161C48.7774 44.7078 49.1656 43.6325 48.6761 43.0146L40.4424 32.6358C40.1821 32.3075 39.7089 32.1611 39.1486 32.2354L38.0137 30.8052C43.083 26.2313 43.8601 18.6098 39.5559 13.1833C37.2562 10.2848 33.9388 8.55452 30.4417 8.09974C29.7855 8.0144 29.1238 7.97422 28.4617 7.97951ZM13.0023 9.29053C13.3427 10.0663 14.6572 9.61096 14.1426 10.6685C14.7155 11.186 14.0517 13.0103 13.829 11.4557C12.4033 11.4489 11.7226 10.0835 12.9196 9.36685L13.0023 9.29053ZM14.2445 9.41912C14.6801 9.77458 13.5583 9.61724 14.2445 9.41912ZM48.4577 10.3747C48.5906 10.5362 48.4958 10.3485 48.4577 10.3747ZM29.01 10.9084C29.3531 10.9213 29.6944 10.9495 30.0338 10.9931C31.4294 11.1741 32.7739 11.6182 33.99 12.2998C35.2061 12.9815 36.2699 13.8871 37.1201 14.9648C37.9755 16.0383 38.6016 17.2635 38.9625 18.5699C39.3233 19.8764 39.4118 21.2384 39.2229 22.5777C39.034 23.9171 38.5713 25.2074 37.8615 26.3747C37.1517 27.542 36.2088 28.5632 35.0867 29.3797C33.9684 30.2009 32.692 30.802 31.331 31.1484C29.97 31.4949 28.5511 31.5798 27.1557 31.3985C25.7604 31.2171 24.4161 30.773 23.2001 30.0916C21.984 29.4102 20.9202 28.5049 20.0696 27.4278C19.2142 26.3542 18.5881 25.129 18.2273 23.8226C17.8665 22.5161 17.778 21.1541 17.967 19.8148C18.156 18.4754 18.6187 17.1851 19.3285 16.0178C20.0384 14.8506 20.9814 13.8294 22.1035 13.0129C24.0796 11.5597 26.5226 10.8153 29.01 10.9084ZM50.0233 11.4468C51.0498 12.0014 49.1684 12.1258 50.0233 11.4468ZM51.0416 12.0124C51.8688 12.4567 50.0952 12.4562 51.0416 12.0124ZM51.6581 12.2194C52.5185 12.5393 50.814 12.8937 51.6581 12.2194ZM51.6243 12.3658C51.6711 12.3652 51.5954 12.4133 51.6243 12.3658ZM51.7049 12.4499C51.7305 12.4897 51.6368 12.4583 51.7049 12.4499ZM28.649 12.9951C27.4586 12.9747 26.2835 13.2304 25.1998 13.6893C25.2564 13.7557 25.3376 13.8195 25.4563 13.877C24.3672 13.5372 24.0502 14.8582 24.5088 15.4525L25.2455 15.5105L25.8614 15.2502C26.2595 14.8529 26.3586 14.9214 26.4871 14.3197L26.7273 14.3495L26.9179 14.2732L27.3519 14.4792C27.8725 14.6747 27.897 15.096 27.7227 15.2194C27.476 15.3652 27.7668 15.3866 27.7908 15.4771C27.9139 15.4431 27.9857 15.3412 28.0631 15.2868L28.2025 15.2387C28.7111 14.9183 28.356 14.8127 28.0026 14.3804L28.19 14.4264C28.4639 14.7243 28.625 15.0615 28.7873 15.4196C28.8058 15.4337 28.8227 15.452 28.844 15.4583C28.967 15.4975 29.1407 15.4844 29.2894 15.4452C29.4364 15.4065 29.4462 15.1373 29.4212 14.8796C29.6308 15.7975 31.6871 15.5246 30.4635 16.0845C29.7583 16.0996 28.6376 15.7285 28.4312 16.1974C27.9749 15.9988 27.7418 15.8686 27.6492 15.7667C27.3682 15.6653 26.5596 15.3715 26.5307 15.3715C26.4964 15.3715 25.4672 15.5513 25.4672 15.5513L24.6177 15.8608C24.3416 16.7149 23.9059 16.258 23.7578 16.9203C23.6418 17.3437 22.6437 18.2585 23.1664 18.9789C23.6331 21.0625 26.339 19.6751 26.9696 20.6756C26.6734 21.292 28.1388 22.4644 27.3187 23.4738C27.7053 24.9401 28.7443 27.3912 30.4161 25.3044C30.8572 24.0551 31.8069 23.3797 31.7731 22.1403C31.2683 20.9198 34.24 20.0149 33.0512 19.0264C32.7664 19.0588 32.7337 19.1179 32.5077 19.19C32.0329 19.1728 31.9103 18.8053 31.7486 18.5743C31.6251 18.4057 31.5159 18.2279 31.4219 18.0426C31.7241 18.4922 32.0361 18.8738 32.474 19.1085C33.2314 18.9454 34.1 18.4075 34.4534 18.0128C34.4447 16.4744 36.599 18.0703 36.5554 19.2266C36.6888 19.5382 36.8582 19.7546 37.0281 19.8811C36.9078 19.1415 36.6779 18.4222 36.3452 17.7452C35.7413 16.4729 34.7742 15.3804 33.599 14.5628C33.5772 14.5952 33.5228 14.5973 33.5337 14.5189C33.3747 14.4109 33.2122 14.3079 33.0463 14.21C33.0644 14.2828 33.086 14.3565 33.1111 14.4311C33.0398 14.3291 32.9646 14.2256 32.9025 14.1258C31.6196 13.4003 30.1482 12.9842 28.6496 12.9946L28.649 12.9951ZM46.3672 13.0641C46.762 14.1441 44.9938 16.6469 44.7368 15.004C44.9181 14.1917 46.3694 14.314 46.3672 13.0641ZM13.2174 13.3495C13.2969 13.3407 13.2049 13.3888 13.2174 13.3495ZM14.0566 13.7296C14.215 13.8561 13.8649 13.8247 14.0566 13.7296ZM30.4085 13.7641C30.8479 14.1195 32.1962 14.59 30.769 14.2147C30.0262 14.5403 29.7964 14.3318 30.4085 13.7641ZM27.0115 14.3966C26.9157 14.4248 26.9968 14.6156 26.9369 14.6757C27.3453 14.8676 27.1166 14.4943 27.1771 14.4332C27.0943 14.3955 27.0431 14.3867 27.0115 14.3966ZM33.2374 14.786C33.3638 15.1012 33.4476 15.3025 33.1231 14.9115C33.1501 14.8992 33.1742 14.8817 33.1938 14.8602C33.2135 14.8386 33.2283 14.8133 33.2374 14.786ZM27.0497 14.8252C26.8896 14.8085 26.8046 14.9115 26.8041 15.0552C27.2261 15.2753 27.1825 14.912 27.2343 14.8843C27.1768 14.8541 27.1146 14.8341 27.0497 14.8252ZM33.5696 17.0641C33.8103 17.0735 33.3393 17.3986 33.4199 17.0824C33.4868 17.0683 33.5353 17.0625 33.5696 17.0641ZM50.1573 19.109C51.0917 20.0494 49.3731 19.9088 50.1573 19.109ZM50.1028 19.2334C50.1834 19.2251 50.0881 19.2867 50.1028 19.2334ZM50.1703 19.3479C50.178 19.4017 50.0887 19.3348 50.1703 19.3479ZM50.7405 19.4525C51.6575 19.856 49.9808 20.0871 50.7405 19.4525ZM50.8222 19.6328C50.8799 19.6234 50.8113 19.7096 50.8222 19.6328ZM50.7149 19.6605C50.765 19.7253 50.6708 19.6971 50.7149 19.6605ZM44.5086 20.4822C44.522 20.8084 44.525 21.1343 44.5173 21.4597C45.1419 21.5554 45.9245 21.5282 45.9392 22.1916C47.0588 22.2381 45.8237 23.8079 45.7829 22.3547C45.3268 22.2916 44.8615 22.3673 44.4525 22.5711C44.3392 23.7118 44.096 24.8372 43.7272 25.927C44.642 25.6484 45.5754 25.6756 46.1265 26.5292C47.5777 26.524 46.3432 27.4738 47.3719 27.6677C47.8102 26.8083 47.141 26.9166 47.9633 26.2161C48.761 25.237 48.2388 23.9725 47.4432 23.4378C47.2777 22.8324 46.6182 22.5052 46.9286 22.0923C47.5331 22.879 48.3897 22.2898 47.6747 21.8643C48.2023 21.3913 50.0876 23.0834 49.029 21.7817C48.5062 21.6887 47.7879 20.6511 47.6251 21.3191C47.5783 21.8732 46.1379 20.4781 45.6064 21.0489C45.4529 20.5345 44.7014 20.845 44.6589 21.0745C44.8898 20.7295 44.7444 20.5512 44.5086 20.4822ZM47.2793 20.9292C47.984 21.34 46.499 21.3547 47.2793 20.9292ZM26.8939 20.9658C26.9565 21.1017 26.8759 20.9882 26.8939 20.9658ZM20.0581 21.0295C20.0418 21.7554 20.1258 22.4801 20.3081 23.1848C20.9343 22.2742 20.9098 21.419 20.0581 21.0295ZM47.239 21.0546C47.2858 21.087 47.1813 21.0672 47.239 21.0546ZM47.7667 21.1174C48.021 21.2899 47.5118 21.2899 47.7667 21.1174ZM47.7667 21.1226C47.9981 21.2825 47.5347 21.2825 47.7667 21.1226ZM47.2913 21.1681C47.3 21.2209 47.2107 21.1587 47.2913 21.1681ZM44.513 21.7358C44.5075 21.8612 44.4961 21.9867 44.4874 22.1121C44.6633 21.9218 44.7395 21.7253 44.513 21.7358ZM32.1015 22.2773C31.472 22.6092 32.7751 22.7608 32.2305 22.3714L32.2071 22.3155L32.1015 22.2773ZM32.8377 22.3703C32.2158 22.7436 31.2509 24.523 32.5889 24.5789C32.9112 24.2109 33.7286 22.57 32.8377 22.3703ZM49.7058 23.5036C51.1527 24.0698 49.2076 24.4472 49.7058 23.5036ZM33.8343 23.6291C34.619 24.0844 33.0251 24.1503 33.8343 23.6291ZM51.0046 25.7807C51.4653 26.7817 49.9373 27.3813 50.0527 28.3107C50.8369 28.6735 51.2415 27.3081 51.7937 26.8904C52.4466 26.3426 51.2796 26.1805 51.0046 25.7807ZM14.7874 28.8596C14.8767 29.4105 15.1457 29.9437 15.626 30.1063C15.3254 29.7041 15.0455 29.288 14.7874 28.8596Z" fill="#5A9BD5"/>
</svg>
