<svg width="55" height="52" viewBox="0 0 55 52" fill="none" xmlns="http://www.w3.org/2000/svg">
<path d="M27.5 0C23.8886 0 20.3127 0.67251 16.9762 1.97913C13.6398 3.28575 10.6082 5.2009 8.05456 7.61522C2.89731 12.4912 0 19.1044 0 26C0 32.8956 2.89731 39.5088 8.05456 44.3848C10.6082 46.7991 13.6398 48.7142 16.9762 50.0209C20.3127 51.3275 23.8886 52 27.5 52C34.7935 52 41.7882 49.2607 46.9454 44.3848C52.1027 39.5088 55 32.8956 55 26C55 22.5856 54.2887 19.2047 52.9067 16.0502C51.5247 12.8958 49.499 10.0295 46.9454 7.61522C44.3918 5.2009 41.3602 3.28575 38.0238 1.97913C34.6873 0.67251 31.1114 0 27.5 0ZM39.05 36.92L24.75 28.6V13H28.875V26.52L41.25 33.54L39.05 36.92Z" fill="#385495"/>
</svg>
