<svg width="55" height="61" viewBox="0 0 55 61" fill="none" xmlns="http://www.w3.org/2000/svg">
<path d="M27.5 30.5C23.7187 30.5 20.4818 29.0068 17.7891 26.0203C15.0964 23.0339 13.75 19.4438 13.75 15.25C13.75 11.0562 15.0964 7.46615 17.7891 4.47969C20.4818 1.49323 23.7187 0 27.5 0C31.2812 0 34.5182 1.49323 37.2109 4.47969C39.9036 7.46615 41.25 11.0562 41.25 15.25C41.25 19.4438 39.9036 23.0339 37.2109 26.0203C34.5182 29.0068 31.2812 30.5 27.5 30.5ZM0 61V50.325C0 48.1646 0.501876 46.1795 1.50563 44.3699C2.50938 42.5602 3.84083 41.1775 5.5 40.2219C9.05208 38.2521 12.6615 36.7754 16.3281 35.7917C19.9948 34.8081 23.7187 34.315 27.5 34.3125C31.2812 34.31 35.0052 34.803 38.6719 35.7917C42.3385 36.7805 45.9479 38.2572 49.5 40.2219C51.1615 41.175 52.4941 42.5577 53.4978 44.3699C54.5016 46.1821 55.0023 48.1671 55 50.325V61H0Z" fill="#385495"/>
</svg>
