<svg width="90" height="76" viewBox="0 0 90 76" fill="none" xmlns="http://www.w3.org/2000/svg">
<path d="M34.3439 0.244995C32.8644 0.614861 31.7548 1.24892 30.6276 2.37612C29.4828 3.52094 28.7783 4.77142 28.4613 6.30372C28.3556 6.81448 28.2676 8.78709 28.2676 10.654V14.0885H23.7764H19.2852V44.9104V75.7324H44.9995H70.7138V44.9104V14.0885H66.2226H61.7314V10.654C61.7314 8.76948 61.6434 6.81448 61.5377 6.30372C60.886 3.27436 58.4379 0.82621 55.4261 0.192162C54.0523 -0.0896378 35.5239 -0.0544128 34.3439 0.244995ZM55.0387 5.63445C56.2891 6.26849 56.4477 6.84971 56.4477 10.7421V14.0885H47.9584H39.4868L37.9721 14.8986C34.4496 16.8008 32.0543 18.9319 31.0327 21.0807C30.5396 22.1198 30.4691 22.472 30.4691 23.6345C30.4867 24.885 30.5396 25.1139 31.2617 26.5405L32.0543 28.0905L36.1052 28.566C40.3674 29.0768 40.8605 29.2 41.4418 29.8165C41.6531 30.0278 44.066 34.1316 46.8312 38.9222C51.4281 46.8831 51.8684 47.7108 51.8684 48.4506C51.8684 49.93 51.6394 50.1238 45.3517 53.7696C36.9858 58.613 37.1795 58.525 35.7705 57.7148C35.1717 57.3801 34.6961 56.6404 31.8253 51.6913C24.8507 39.6091 24.745 39.4153 24.745 38.7813C24.745 38.4114 25.3439 36.7734 26.2597 34.5895L27.7744 31.0141L27.4045 30.4858C26.6472 29.429 25.6433 27.0161 25.3439 25.5542C24.6394 21.9965 25.837 18.2979 28.7783 15.0924L29.7118 14.0885H31.6316H33.5513V10.6892C33.5689 6.83209 33.6746 6.42701 34.8899 5.7049L35.5768 5.28219H44.9643C54.0171 5.28219 54.3694 5.2998 55.0387 5.63445ZM58.9486 24.8497C60.4809 25.1668 61.7314 25.8713 62.8762 27.0161C67.4203 31.5777 64.9545 39.2744 58.5788 40.3664C56.0954 40.7891 53.6296 39.9789 51.7803 38.1296C48.6453 35.0122 48.6453 30.1511 51.7803 27.0337C53.7177 25.0787 56.3068 24.3038 58.9486 24.8497Z" fill="#5A9BD5"/>
<path d="M32.2674 34.0264C32.1265 34.3434 31.6334 35.4882 31.1754 36.5802L30.3477 38.5352L34.1696 45.1751C37.1109 50.2475 38.062 51.7798 38.2733 51.6918C38.4318 51.6389 40.1579 50.6702 42.1128 49.5254L45.6882 47.4647L45.3712 46.9364C45.195 46.6546 43.5218 43.7485 41.6549 40.5078C39.788 37.2671 38.15 34.5019 38.0267 34.361C37.833 34.1497 33.9758 33.5156 32.7254 33.4628C32.6021 33.4628 32.3907 33.727 32.2674 34.0264Z" fill="#5A9BD5"/>
<path d="M56.0613 30.3088C55.3039 30.6962 54.6875 31.7354 54.6875 32.5808C54.6875 33.4614 55.3039 34.4653 56.0965 34.8704C56.4664 35.0641 57.03 35.2227 57.3294 35.2227C58.21 35.2227 59.2139 34.6062 59.619 33.8137C59.8128 33.4438 59.9713 32.8802 59.9713 32.5808C59.9713 31.7001 59.3548 30.6962 58.5623 30.2911C57.6992 29.8508 56.9067 29.8508 56.0613 30.3088Z" fill="#5A9BD5"/>
<path d="M7.74953 14.2645C4.33269 14.969 1.54991 17.4172 0.405089 20.7459L0 21.926V44.9104V67.8948L0.405089 69.0748C1.409 71.9633 3.59296 74.1648 6.53426 75.2216C7.41489 75.5562 8.06655 75.6267 10.7965 75.6971L14.002 75.7676V44.928V14.0884L11.2368 14.106C9.70452 14.1236 8.137 14.1941 7.74953 14.2645Z" fill="#5A9BD5"/>
<path d="M75.9961 44.9104V75.7676L79.2192 75.6971C81.9315 75.6267 82.5832 75.5562 83.4638 75.2216C86.4051 74.1648 88.5891 71.9633 89.593 69.0748L89.9981 67.8948V44.9104V21.926L89.593 20.7459C88.5891 17.8575 86.4051 15.6559 83.4638 14.5992C82.5832 14.2645 81.9315 14.1941 79.2192 14.1236L75.9961 14.0532V44.9104Z" fill="#5A9BD5"/>
</svg>
