<svg width="193" height="191" viewBox="0 0 193 191" fill="none" xmlns="http://www.w3.org/2000/svg">
<path d="M96.5 185.833C147.034 185.833 188 145.352 188 95.4165C188 45.4807 147.034 5 96.5 5C45.9659 5 5 45.4807 5 95.4165C5 145.352 45.9659 185.833 96.5 185.833Z" stroke="white" stroke-width="9"/>
<path d="M14.1523 126.996C26.1934 131.768 34.8615 131.768 40.1562 126.996C48.0984 119.839 41.245 98.1182 52.3682 92.1276C63.491 86.1371 80.4377 112.692 96.2773 103.954C112.116 95.2163 94.7849 71.9177 105.777 62.4723C116.769 53.0269 131.062 63.6794 133.56 47.8858C136.059 32.0925 121.903 38.9423 119.187 24.0178C117.376 14.0682 117.376 8.83642 119.187 8.32227" stroke="white" stroke-width="9" stroke-linecap="round"/>
<path d="M119.473 182.895C110.899 174.224 107.813 166.165 110.214 158.715C113.815 147.541 119.756 148.202 122.346 141.293C124.936 134.384 117.619 124.544 133.854 116.132C144.678 110.524 159.56 117.022 178.5 135.625" stroke="white" stroke-width="9" stroke-linecap="round"/>
</svg>
