<svg width="183" height="157" viewBox="0 0 183 157" fill="none" xmlns="http://www.w3.org/2000/svg">
<path d="M146.4 104.667H128.1V122.111H146.4M146.4 69.7778H128.1V87.2222H146.4M164.7 139.556H91.5V122.111H109.8V104.667H91.5V87.2222H109.8V69.7778H91.5V52.3333H164.7M73.2 34.8889H54.9V17.4444H73.2M73.2 69.7778H54.9V52.3333H73.2M73.2 104.667H54.9V87.2222H73.2M73.2 139.556H54.9V122.111H73.2M36.6 34.8889H18.3V17.4444H36.6M36.6 69.7778H18.3V52.3333H36.6M36.6 104.667H18.3V87.2222H36.6M36.6 139.556H18.3V122.111H36.6M91.5 34.8889V0H0V157H183V34.8889H91.5Z" fill="#5A9BD5"/>
</svg>
