<svg width="170" height="148" viewBox="0 0 170 148" fill="none" xmlns="http://www.w3.org/2000/svg">
<path d="M47.6624 0.616543L46.1875 0.73298V23.2443C46.1875 35.5867 46.3039 45.7168 46.4592 45.7168C46.6144 45.7168 48.2446 44.7853 50.1464 43.6597L53.5231 41.6415L53.5619 37.4885V33.2968L69.3974 33.2191L85.2718 33.1027L78.7125 25.5731C73.5504 19.5959 72.1919 17.8493 72.1919 16.9567C72.1919 15.8311 73.2011 14.5503 82.4385 3.99324L85.1554 0.888231L82.4773 0.810606C77.8198 0.655355 49.1761 0.500105 47.6624 0.616543Z" fill="#5A9BD5"/>
<path d="M9.1965 16.7634C3.29698 18.9369 1.66685 26.3113 6.05268 30.7359C10.5161 35.1994 17.8905 33.4528 20.1417 27.3592C21.5001 23.7885 19.4818 19.0145 15.7946 17.1127C14.1645 16.2976 10.9431 16.1036 9.1965 16.7634Z" fill="#5A9BD5"/>
<path d="M6.83102 44.9414C4.38583 45.9117 2.09588 48.0852 0.931503 50.5692L0 52.5098V68.3454C0 85.7722 0 85.811 2.44519 88.3339C3.14382 89.0713 4.38583 90.0028 5.2397 90.4685C6.67577 91.2836 7.45202 91.3224 17.4657 91.5165C29.3811 91.7494 29.3811 91.7494 31.9428 94.5827C32.6802 95.4366 33.4953 96.795 33.7282 97.6101C33.961 98.4639 34.1551 102.927 34.1551 108.089V117.133H38.4245H42.6939V101.802C42.6939 88.916 42.6162 86.238 42.1117 85.3065C40.9473 83.0553 40.598 82.9777 31.4382 82.9777C24.8013 82.9777 22.8994 82.8613 22.2784 82.4343C21.5798 81.891 21.541 81.2311 21.4246 71.1399C21.3081 61.9025 21.3857 60.2723 21.9291 59.4573C22.2396 58.9527 22.8994 58.5258 23.3652 58.5258C23.8309 58.5258 27.3241 59.3408 31.1277 60.3111C37.2601 61.9025 38.2692 62.0965 39.5112 61.7084C41.7624 61.0098 57.5203 50.9573 58.1025 49.8317C59.1116 47.9299 57.7144 45.7176 55.502 45.7176C54.881 45.7176 51.8536 47.3866 47.8948 49.8317C39.8606 54.9162 38.8126 55.4208 36.1345 55.4208C33.961 55.4208 22.3561 52.5874 21.4246 51.8112C21.1141 51.5783 20.5707 50.7632 20.1826 49.987C17.7762 45.2519 11.799 43.0007 6.83102 44.9414Z" fill="#5A9BD5"/>
<path d="M139.261 67.4911C139.144 78.5139 139.106 79.1737 138.407 79.717C137.786 80.1828 134.72 80.2604 120.825 80.2604H104.019V88.7604C104.019 95.9795 103.941 97.3768 103.398 97.8814C102.855 98.4247 100.759 98.5024 85.9323 98.5024H69.0876V113.406C69.0876 126.447 69.01 128.427 68.4666 128.931C67.9232 129.475 65.8273 129.552 51.0009 129.552H34.1562V138.479V147.406H102.078H170V101.607V55.8085H154.669H139.377L139.261 67.4911Z" fill="#5A9BD5"/>
<path d="M49.8756 60.4664C48.1678 61.5144 46.6153 62.6399 46.4213 62.9116C46.266 63.1833 46.3048 64.1148 46.5377 65.0463C47.5857 68.8499 52.5537 68.5782 53.3299 64.6582C53.6792 62.9504 53.6016 58.5258 53.2523 58.5258C53.097 58.5258 51.5445 59.3797 49.8756 60.4664Z" fill="#5A9BD5"/>
<path d="M6.28856 117.404L6.405 139.449H10.6744H14.9438V117.52V95.591L10.5579 95.4745L6.21094 95.3581L6.28856 117.404Z" fill="#5A9BD5"/>
<path d="M34.1562 123.343V125.283H42.0352C49.4872 125.283 49.9918 125.244 50.6516 124.507C51.2338 123.886 51.3114 123.498 51.0009 122.644L50.6516 121.596L42.3845 121.48L34.1562 121.402V123.343Z" fill="#5A9BD5"/>
<path d="M6.21094 145.466V147.406H14.284C20.0282 147.406 22.4734 147.29 22.8227 146.94C23.5602 146.203 23.4049 144.379 22.551 143.913C22.0853 143.68 18.631 143.525 14.0123 143.525H6.21094V145.466Z" fill="#5A9BD5"/>
</svg>
