<svg width="170" height="177" viewBox="0 0 170 177" fill="none" xmlns="http://www.w3.org/2000/svg">
<path d="M122.778 92.7143C96.7111 92.7143 75.5556 111.594 75.5556 134.857C75.5556 158.12 96.7111 177 122.778 177C148.844 177 170 158.12 170 134.857C170 111.594 148.844 92.7143 122.778 92.7143ZM138.361 154.664L118.056 136.543V109.571H127.5V133.087L144.972 148.68L138.361 154.664ZM132.222 16.8571H102.189C98.2222 7.08 87.8333 0 75.5556 0C63.2778 0 52.8889 7.08 48.9222 16.8571H18.8889C8.5 16.8571 0 24.4429 0 33.7143V160.143C0 169.414 8.5 177 18.8889 177H76.5944C70.9998 172.165 66.4533 166.451 63.1833 160.143H18.8889V33.7143H37.7778V59H113.333V33.7143H132.222V76.5314C138.928 77.3743 145.256 79.1443 151.111 81.5886V33.7143C151.111 24.4429 142.611 16.8571 132.222 16.8571ZM75.5556 33.7143C70.3611 33.7143 66.1111 29.9214 66.1111 25.2857C66.1111 20.65 70.3611 16.8571 75.5556 16.8571C80.75 16.8571 85 20.65 85 25.2857C85 29.9214 80.75 33.7143 75.5556 33.7143Z" fill="white"/>
</svg>
