<svg width="34" height="30" viewBox="0 0 34 30" fill="none" xmlns="http://www.w3.org/2000/svg">
<path d="M1.7 30C1.21833 30 0.814583 29.8403 0.48875 29.5208C0.162917 29.2014 0 28.8056 0 28.3333C0 27.8611 0.162917 27.4653 0.48875 27.1458C0.814583 26.8264 1.21833 26.6667 1.7 26.6667H32.3C32.7817 26.6667 33.1854 26.8264 33.5112 27.1458C33.8371 27.4653 34 27.8611 34 28.3333C34 28.8056 33.8371 29.2014 33.5112 29.5208C33.1854 29.8403 32.7817 30 32.3 30H1.7ZM4.25 25C3.54167 25 2.93958 24.7569 2.44375 24.2708C1.94792 23.7847 1.7 23.1944 1.7 22.5V15.8333C1.7 15.1389 1.94792 14.5486 2.44375 14.0625C2.93958 13.5764 3.54167 13.3333 4.25 13.3333C4.95833 13.3333 5.56042 13.5764 6.05625 14.0625C6.55208 14.5486 6.8 15.1389 6.8 15.8333V22.5C6.8 23.1944 6.55208 23.7847 6.05625 24.2708C5.56042 24.7569 4.95833 25 4.25 25ZM12.75 25C12.0417 25 11.4396 24.7569 10.9438 24.2708C10.4479 23.7847 10.2 23.1944 10.2 22.5V7.5C10.2 6.80556 10.4479 6.21528 10.9438 5.72917C11.4396 5.24306 12.0417 5 12.75 5C13.4583 5 14.0604 5.24306 14.5563 5.72917C15.0521 6.21528 15.3 6.80556 15.3 7.5V22.5C15.3 23.1944 15.0521 23.7847 14.5563 24.2708C14.0604 24.7569 13.4583 25 12.75 25ZM21.25 25C20.5417 25 19.9396 24.7569 19.4438 24.2708C18.9479 23.7847 18.7 23.1944 18.7 22.5V12.5C18.7 11.8056 18.9479 11.2153 19.4438 10.7292C19.9396 10.2431 20.5417 10 21.25 10C21.9583 10 22.5604 10.2431 23.0563 10.7292C23.5521 11.2153 23.8 11.8056 23.8 12.5V22.5C23.8 23.1944 23.5521 23.7847 23.0563 24.2708C22.5604 24.7569 21.9583 25 21.25 25ZM29.75 25C29.0417 25 28.4396 24.7569 27.9438 24.2708C27.4479 23.7847 27.2 23.1944 27.2 22.5V2.5C27.2 1.80556 27.4479 1.21528 27.9438 0.729167C28.4396 0.243056 29.0417 0 29.75 0C30.4583 0 31.0604 0.243056 31.5563 0.729167C32.0521 1.21528 32.3 1.80556 32.3 2.5V22.5C32.3 23.1944 32.0521 23.7847 31.5563 24.2708C31.0604 24.7569 30.4583 25 29.75 25Z" fill="#1E4193"/>
</svg>
