<svg width="30" height="30" viewBox="0 0 30 30" fill="none" xmlns="http://www.w3.org/2000/svg">
<path d="M14.4726 0.0122608C12.9082 0.31694 11.7773 1.66456 11.7773 3.21725C11.7832 4.53557 12.6094 5.73671 13.8691 6.23475C14.2265 6.37537 14.3437 6.38708 14.9999 6.38708C15.6093 6.38708 15.7909 6.36365 16.0839 6.25818C17.5838 5.70156 18.4803 4.09613 18.158 2.54344C18.0584 2.05713 17.7244 1.42433 17.3729 1.03762C16.7518 0.375532 16.037 0.0415568 15.1464 0.00640155C14.8593 -0.00531688 14.5546 0.000542338 14.4726 0.0122608Z" fill="#1E4193"/>
<path d="M10.881 6.78556C10.5353 7.27188 10.2306 7.88123 10.0724 8.42028C9.95523 8.80699 9.93765 9.01206 9.92007 10.3773C9.89078 12.135 9.90836 12.2053 10.3712 12.4397L10.629 12.5745H15H19.371L19.6288 12.4397C20.0917 12.2053 20.1092 12.135 20.08 10.3773C20.0624 9.01206 20.0448 8.80699 19.9276 8.42028C19.7694 7.88123 19.4647 7.27188 19.119 6.78556L18.8554 6.41643L18.4628 6.79142C17.4902 7.70546 16.3125 8.18005 15 8.18005C13.6875 8.18005 12.5509 7.72889 11.5548 6.80314L11.1388 6.41643L10.881 6.78556Z" fill="#1E4193"/>
<path d="M0.404701 8.60777C-0.0288809 8.89487 0.000415194 8.47301 0.000415194 14.9592C0.000415194 18.8614 0.0179928 20.8242 0.0590073 20.9356C0.0941626 21.0234 1.35975 22.3359 2.87143 23.8534L5.6194 26.6073L5.63698 27.9959C5.65456 29.5193 5.66041 29.5252 6.05884 29.824C6.21704 29.947 6.28735 29.947 9.76186 29.9646L13.3067 29.9763L13.5411 29.8474C13.6875 29.7654 13.8106 29.6306 13.8867 29.4783C13.9981 29.2439 14.0039 29.115 14.0039 25.2538C14.0039 20.8711 13.9864 20.6426 13.6524 19.7051C13.3067 18.7559 13.0196 18.3751 11.4024 16.7462C10.1369 15.4689 9.87905 15.2404 9.55679 15.0822C8.64275 14.6486 7.51193 14.8713 6.82054 15.633C6.3811 16.1193 6.15259 16.9044 6.26391 17.5255C6.39868 18.2345 6.53344 18.422 7.8752 19.7813C8.56658 20.4727 9.15836 21.1055 9.19938 21.1758C9.30485 21.3926 9.28141 21.8086 9.15251 22.0195C8.88298 22.4531 8.2912 22.5586 7.8752 22.248C7.56466 22.0195 3.96124 18.3809 3.86164 18.1993C3.79719 18.0821 3.77375 17.2618 3.75031 13.9221L3.72102 9.79133L3.56282 9.49837C3.35774 9.11166 3.03549 8.80698 2.63706 8.62535C2.33824 8.48473 2.25035 8.47301 1.45936 8.47301C0.668365 8.47301 0.586336 8.48473 0.404701 8.60777Z" fill="#1E4193"/>
<path d="M27.363 8.62535C26.9645 8.80698 26.6423 9.11166 26.4372 9.49837L26.279 9.79133L26.2497 13.9221C26.2263 17.2618 26.2028 18.0821 26.1384 18.1993C26.0388 18.3809 22.4354 22.0195 22.1248 22.248C21.7088 22.5586 21.117 22.4531 20.8475 22.0195C20.7186 21.8086 20.6952 21.3926 20.8006 21.1758C20.8417 21.1055 21.4334 20.4727 22.1248 19.7813C23.1326 18.7618 23.4021 18.4571 23.5252 18.1876C23.8416 17.5021 23.8416 16.8517 23.531 16.1779C23.0096 15.0412 21.5858 14.5373 20.4432 15.0822C20.121 15.2404 19.869 15.463 18.5741 16.7755C17.3437 18.0177 17.0273 18.3751 16.7929 18.7676C16.4531 19.3477 16.1426 20.2207 16.0605 20.8535C16.0195 21.1406 15.9961 22.8105 15.9961 25.2772C15.9961 29.115 16.002 29.2439 16.1133 29.4783C16.1894 29.6306 16.3125 29.7654 16.459 29.8474L16.6933 29.9763L20.2382 29.9646C23.7127 29.947 23.783 29.947 23.9412 29.824C24.3396 29.5252 24.3455 29.5193 24.363 27.9959L24.3806 26.6073L27.1286 23.8534C28.6403 22.3359 29.9059 21.0234 29.941 20.9356C29.982 20.8242 29.9996 18.8614 29.9996 14.9592C29.9996 8.47301 30.0289 8.89487 29.5953 8.60777C29.4137 8.48473 29.3317 8.47301 28.5407 8.47301C27.7497 8.47301 27.6618 8.48473 27.363 8.62535Z" fill="#1E4193"/>
</svg>
