<svg width="30" height="30" viewBox="0 0 30 30" fill="none" xmlns="http://www.w3.org/2000/svg">
<path d="M2.06341 0.102942C1.08919 0.363137 0.350961 1.11347 0.0907657 2.09374C0.0121021 2.40839 0 3.69726 0 12.7859C0 20.2106 0.0181531 23.2058 0.0665615 23.4358C0.272297 24.3918 1.00447 25.1966 1.94239 25.4871C2.29335 25.596 2.57775 25.6021 7.59406 25.6021H12.8766L12.7254 25.1966C12.4531 24.4402 12.326 23.7081 12.3199 22.7883C12.3139 22.3224 12.3381 21.7959 12.3623 21.6144L12.4107 21.2937L12.2594 21.4631L12.1142 21.6386L10.7346 21.6568C8.84058 21.681 8.83453 21.681 8.83453 20.622C8.83453 19.9746 8.84058 19.9625 9.01001 19.787L9.18549 19.6115H10.6135H12.0416L12.2292 19.7809C12.4046 19.9383 12.4228 19.9927 12.4652 20.4647C12.4894 20.7431 12.5136 20.9125 12.5196 20.8399C12.5317 20.6099 12.9553 19.4723 13.2276 18.9217C13.3789 18.6252 13.6754 18.1109 13.8811 17.772L14.2684 17.1608L14.1352 16.9793C14.0263 16.822 14.0082 16.7131 14.0082 16.2169C14.0082 15.279 14.1655 15.1337 15.176 15.1337H15.7811L16.5738 14.22L17.3665 13.3124L17.1426 13.0401L16.9187 12.7738H15.6722C14.2926 12.7738 14.22 12.7557 14.0626 12.3745C13.9598 12.1385 13.9537 11.5092 14.0445 11.1824C14.0868 11.0251 14.1716 10.9162 14.2986 10.8375C14.4741 10.7286 14.6133 10.7165 15.7085 10.7165H16.9248L17.0095 10.5591C17.0518 10.4744 17.2455 10.2566 17.4331 10.0811L17.778 9.76646L17.3302 9.31869C16.8522 8.8467 16.6101 8.44128 16.5315 7.99351L16.4831 7.72121L9.93582 7.69095L3.38859 7.6607L3.22521 7.49127L3.05578 7.32789L3.03763 5.9059C3.01947 4.71384 3.03157 4.45969 3.11629 4.30842C3.31597 3.9151 2.85609 3.9393 10.6317 3.9393C17.5904 3.9393 17.7054 3.9393 17.899 4.06033C18.1531 4.21765 18.2136 4.38708 18.2136 4.92563V5.3613H18.6796C18.9398 5.3613 19.2484 5.38551 19.3633 5.40971C19.563 5.45812 19.5812 5.44602 19.6901 5.24028C19.9261 4.79855 20.7672 4.18135 21.1363 4.18135C21.2452 4.18135 21.2513 4.12084 21.2271 3.13452L21.2089 2.09374L20.985 1.62175C20.6038 0.829067 19.9866 0.314728 19.1395 0.0968906C18.6251 -0.0362324 2.55959 -0.0301814 2.06341 0.102942ZM6.86189 10.777C7.14023 10.8799 7.26126 11.1703 7.26126 11.727C7.26126 12.2776 7.21285 12.4592 7.01316 12.6468C6.88004 12.7678 6.81348 12.7738 5.42779 12.7738H3.98159L3.80611 12.5984C3.63668 12.4229 3.63063 12.4047 3.63063 11.7936C3.63668 11.1219 3.69114 10.9404 3.93923 10.8012C4.11471 10.7044 6.61984 10.6802 6.86189 10.777ZM12.1444 10.8375C12.3986 10.9888 12.4894 11.3216 12.4531 11.9509C12.4228 12.3987 12.4107 12.441 12.2292 12.6044L12.0416 12.7738H10.6135H9.18549L9.01001 12.5984C8.84058 12.4229 8.83453 12.4047 8.83453 11.7754C8.83453 10.7165 8.82848 10.7225 10.6196 10.7165C11.8358 10.7165 11.969 10.7286 12.1444 10.8375ZM6.87399 15.2245C7.15234 15.3395 7.26126 15.6057 7.26126 16.1927C7.26126 16.7857 7.15234 17.0459 6.86189 17.1669C6.68641 17.2395 6.39596 17.2577 5.31282 17.2395L3.98159 17.2214L3.80611 17.0217C3.63668 16.8341 3.63063 16.8038 3.63063 16.1987C3.63063 15.6541 3.64878 15.5513 3.7577 15.4121C3.83031 15.3213 3.94528 15.2185 4.01789 15.1943C4.08446 15.164 4.71377 15.1398 5.40358 15.1398C6.3778 15.1337 6.71061 15.1519 6.87399 15.2245ZM12.0295 15.2003C12.3562 15.3153 12.4349 15.5089 12.4349 16.1927C12.4349 16.8946 12.3502 17.0882 11.9871 17.1971C11.854 17.2335 11.2852 17.2516 10.4804 17.2395L9.18549 17.2214L9.01001 17.0217C8.84058 16.8341 8.83453 16.8038 8.83453 16.1987C8.83453 15.6541 8.85268 15.5513 8.9616 15.4121C9.03421 15.3213 9.14918 15.2185 9.22179 15.1943C9.40938 15.1156 11.8056 15.1216 12.0295 15.2003ZM7.05552 19.7991C7.2189 19.9746 7.231 20.0109 7.24915 20.5676C7.26731 21.0759 7.24915 21.1848 7.14023 21.3542C7.07367 21.4631 6.9466 21.5781 6.86189 21.6084C6.77717 21.6447 6.12366 21.6689 5.40964 21.6689C3.64878 21.6689 3.63063 21.6568 3.63063 20.5736C3.63063 19.9806 3.63668 19.9625 3.80611 19.787L3.98159 19.6115H5.42779H6.87399L7.05552 19.7991Z" fill="#1E4193"/>
<path d="M21.1908 5.16763C20.8943 5.25839 20.5433 5.63356 20.4283 5.97847C20.2286 6.57147 19.8837 6.71669 19.2907 6.45045C18.9821 6.31127 18.8672 6.28707 18.5888 6.31732C17.9353 6.38389 17.4694 6.90428 17.4694 7.56384C17.4694 8.02372 17.5843 8.2234 18.262 8.91322L18.8429 9.50623H21.6325H24.422L25.0029 8.91322C25.6806 8.21735 25.8017 8.02372 25.8017 7.56989C25.8077 6.91638 25.3297 6.38389 24.6762 6.31732C24.3978 6.28707 24.2828 6.31127 23.9742 6.45045C23.3812 6.71669 23.0363 6.57147 22.8366 5.97847C22.6067 5.2947 21.8987 4.93769 21.1908 5.16763Z" fill="#1E4193"/>
<path d="M18.4859 10.547C18.1834 10.6559 17.9292 10.8798 17.79 11.1702C17.5056 11.7572 17.7416 12.5075 18.3044 12.798C18.5404 12.925 18.619 12.925 21.6748 12.925H24.7972L25.0634 12.7435C25.4265 12.4833 25.5959 12.1626 25.5959 11.7269C25.5959 11.1521 25.2933 10.7225 24.7548 10.5409C24.4825 10.4502 18.7461 10.4562 18.4859 10.547Z" fill="#1E4193"/>
<path d="M17.6207 14.4862C15.9869 16.3621 14.7404 18.0806 14.0929 19.3513C12.6104 22.2679 13.1429 25.4447 15.5028 27.6957C16.6404 28.7849 18.2076 29.5715 19.8474 29.8801C20.6462 30.0253 22.6128 30.0253 23.4055 29.8801C25.0876 29.5654 26.5641 28.8333 27.738 27.7199C29.9345 25.6383 30.5699 22.8306 29.4747 20.0048C28.9906 18.7462 27.6472 16.7977 25.7593 14.6254C25.0513 13.8085 25.0513 13.8085 24.8577 13.869C24.5975 13.9416 18.6675 13.9416 18.4073 13.869C18.2137 13.8085 18.2076 13.8146 17.6207 14.4862ZM21.9895 16.8582C22.1226 16.9793 22.1468 17.0519 22.1468 17.3363V17.663L22.4675 17.772C22.9093 17.9172 23.2481 18.1229 23.5688 18.4436C23.8472 18.728 24.1437 19.2424 24.1437 19.442C24.1437 19.6659 23.9682 19.9019 23.7504 19.9745C23.4841 20.0653 23.2602 19.9685 23.0787 19.672C22.6975 19.0729 22.3647 18.8369 21.808 18.7825C21.2089 18.722 20.5554 19.0003 20.3678 19.3997C20.2166 19.7204 20.2408 20.1137 20.4283 20.3376C20.6643 20.6159 20.9669 20.743 21.8564 20.9427C23.1574 21.2332 23.7806 21.6325 24.1316 22.3828C24.3676 22.8851 24.3615 23.5568 24.1255 24.0408C23.829 24.6459 23.2058 25.0695 22.3163 25.2631C22.1589 25.2995 22.1468 25.3237 22.1468 25.6202C22.1408 25.953 22.0803 26.08 21.8624 26.195C21.6567 26.31 21.4449 26.2797 21.2573 26.1224C21.1242 26.0074 21.0819 25.9106 21.0577 25.6323L21.0274 25.2874L20.6522 25.1663C19.7083 24.8819 18.8672 23.9138 18.9277 23.1876C18.9579 22.8609 19.3331 22.6491 19.6841 22.7701C19.8172 22.8185 19.9019 22.9214 20.029 23.2058C20.2166 23.6233 20.4949 23.9198 20.8338 24.059C21.2029 24.2103 21.7596 24.2405 22.2013 24.1256C22.9456 23.938 23.2118 23.6475 23.1634 23.109C23.109 22.5583 22.6733 22.2558 21.6022 22.0319C20.2468 21.7414 19.6599 21.3844 19.3089 20.6401C19.1818 20.3679 19.1516 20.2226 19.1516 19.8233C19.1576 18.8672 19.6841 18.1774 20.6643 17.8204L21.0274 17.6872L21.0577 17.3423C21.0819 17.064 21.1242 16.9672 21.2573 16.8522C21.4812 16.6586 21.7777 16.6586 21.9895 16.8582Z" fill="#1E4193"/>
</svg>
