<svg width="169" height="150" viewBox="0 0 169 150" fill="none" xmlns="http://www.w3.org/2000/svg">
<path d="M85.345 150C82.9508 150 80.9454 149.2 79.3286 147.6C77.7118 146 76.9006 144.022 76.895 141.667C76.895 140.694 77.1062 139.686 77.5287 138.642C77.9512 137.597 78.585 136.661 79.43 135.833L118.511 97.2917L112.385 91.25L73.515 129.792C72.67 130.625 71.7546 131.25 70.7687 131.667C69.7829 132.083 68.7267 132.292 67.6 132.292C65.2058 132.292 63.2004 131.494 61.5836 129.9C59.9668 128.306 59.1556 126.325 59.15 123.958C59.15 122.569 59.3612 121.422 59.7837 120.517C60.2062 119.611 60.7696 118.814 61.4737 118.125L100.555 79.5833L94.64 73.75L55.5587 112.083C54.7137 112.917 53.7983 113.542 52.8125 113.958C51.8267 114.375 50.7 114.583 49.4325 114.583C47.1792 114.583 45.2075 113.75 43.5175 112.083C41.8275 110.417 40.9825 108.472 40.9825 106.25C40.9825 105.139 41.1937 104.097 41.6162 103.125C42.0387 102.153 42.6725 101.25 43.5175 100.417L82.5987 61.875L76.4725 56.0417L37.6025 94.5833C36.8983 95.2778 36.0533 95.8333 35.0675 96.25C34.0817 96.6667 32.8846 96.875 31.4762 96.875C29.0821 96.875 27.0738 96.075 25.4514 94.475C23.829 92.875 23.0206 90.8972 23.0262 88.5417C23.0262 87.4306 23.2375 86.3889 23.66 85.4167C24.0825 84.4445 24.7162 83.5417 25.5612 82.7083L72.67 36.25L104.357 67.7083C105.907 69.2361 107.737 70.4528 109.85 71.3583C111.962 72.2639 114.075 72.7139 116.187 72.7084C120.694 72.7084 124.637 71.1472 128.017 68.025C131.397 64.9028 133.087 60.9084 133.087 56.0417C133.087 54.0972 132.735 52.0834 132.031 50C131.327 47.9167 130.06 45.9722 128.229 44.1667L90.415 6.87503C92.8092 4.65281 95.485 2.95281 98.4425 1.77503C101.4 0.597257 104.357 0.00559042 107.315 3.48675e-05C110.977 3.48675e-05 114.357 0.591702 117.455 1.77503C120.553 2.95837 123.37 4.79726 125.905 7.2917L161.606 42.7084C164.141 45.2084 166.009 47.9861 167.209 51.0417C168.408 54.0972 169.006 57.6389 169 61.6667C169 64.4445 168.366 67.2583 167.099 70.1083C165.831 72.9583 164 75.5611 161.606 77.9167L91.26 147.5C90.1333 148.611 89.1475 149.306 88.3025 149.583C87.4575 149.861 86.4717 150 85.345 150ZM12.8862 83.3333L7.39375 77.9167C4.99958 75.6945 3.16875 73.0556 1.90125 70C0.633749 66.9445 0 63.75 0 60.4167C0 56.8056 0.704167 53.4722 2.1125 50.4167C3.52083 47.3611 5.28125 44.7917 7.39375 42.7084L43.095 7.2917C45.3483 5.06948 48.0242 3.29726 51.1225 1.97503C54.2208 0.652812 57.2487 -0.00552069 60.2062 3.48675e-05C64.0087 3.48675e-05 67.3887 0.522257 70.3462 1.5667C73.3037 2.61115 76.1908 4.51948 79.0075 7.2917L122.314 50C123.159 50.8334 123.792 51.7361 124.215 52.7084C124.637 53.6806 124.849 54.7222 124.849 55.8334C124.849 58.0556 124.004 60 122.314 61.6667C120.624 63.3333 118.652 64.1667 116.399 64.1667C115.131 64.1667 114.075 63.9945 113.23 63.65C112.385 63.3056 111.47 62.6445 110.484 61.6667L72.4587 24.5834L12.8862 83.3333Z" fill="#FFF9F9"/>
</svg>
