<svg width="360" height="450" viewBox="0 0 360 450" fill="none" xmlns="http://www.w3.org/2000/svg">
<path d="M330 3.5H3.5V420C3.5 434.636 15.3645 446.5 30 446.5H330C344.636 446.5 356.5 434.636 356.5 420V30C356.5 15.3645 344.636 3.5 330 3.5Z" fill="white" stroke="#D9534F" stroke-width="7"/>
<path d="M104 4H4V104C59.2285 104 104 59.2285 104 4Z" fill="#D9534F"/>
<path d="M45.8781 19.0471C50.1344 19.3797 54.1949 20.7691 57.7369 23.1076C66.6311 28.9784 70.8189 39.7218 68.2553 50.064C66.2299 58.2047 60.1439 64.868 52.2185 67.6175C42.9525 70.8366 32.7864 68.4002 25.9862 61.3554C22.2387 57.4709 19.9687 52.7743 19.1761 47.2754C18.9413 45.661 18.9413 42.3342 19.1761 40.7198C19.9589 35.2502 22.2191 30.5635 25.9177 26.7181C29.9293 22.5401 34.8803 20.0157 40.6629 19.1938C41.9643 19.0079 44.4985 18.9394 45.8781 19.0471ZM42.9623 26.7768C40.2422 26.9628 37.6493 27.7162 35.575 28.9294L34.8607 29.3404L39.4497 33.9293L44.0386 38.5183L48.5786 33.9783C52.4044 30.1525 53.1089 29.4089 53.0012 29.2915C52.7958 29.0371 50.5453 27.9706 49.469 27.6183C47.9328 27.1095 46.6511 26.8747 44.4789 26.6986C44.4006 26.6888 43.7157 26.7279 42.9623 26.7768ZM53.9699 39.4478L49.4201 43.9976L53.9895 48.567C57.825 52.4025 58.5784 53.1168 58.6958 53.0092C58.9502 52.8037 60.0167 50.5532 60.369 49.4769C61.5529 45.8958 61.5529 42.0798 60.369 38.5281C59.9091 37.1387 58.8132 34.898 58.598 34.898C58.5491 34.898 56.4747 36.943 53.9699 39.4478ZM28.5888 36.2287C27.3168 38.7727 26.7689 41.1014 26.7689 43.9976C26.7689 46.3165 27.0918 48.1071 27.8746 50.1814C28.1583 50.9153 28.9704 52.5786 29.2053 52.8917C29.3618 53.0972 29.4694 52.9896 33.9116 48.5474L38.4614 43.9976L33.9116 39.4478C28.6867 34.2131 29.3814 34.6436 28.5888 36.2287ZM39.4497 54.0659L34.8607 58.6548L35.5359 59.0462C39.5671 61.3945 44.8703 61.9033 49.469 60.3769C50.5453 60.0247 52.7958 58.9582 53.0012 58.7038C53.1089 58.5863 52.3946 57.8329 48.5786 54.017C46.0836 51.5219 44.0386 49.4769 44.0386 49.4769C44.0386 49.4769 41.9741 51.5415 39.4497 54.0659Z" fill="white"/>
</svg>
