<svg width="70" height="70" viewBox="0 0 70 70" fill="none" xmlns="http://www.w3.org/2000/svg">
<path d="M35 35C30.1875 35 26.0677 33.2865 22.6406 29.8594C19.2135 26.4323 17.5 22.3125 17.5 17.5C17.5 12.6875 19.2135 8.56771 22.6406 5.14063C26.0677 1.71354 30.1875 0 35 0C39.8125 0 43.9323 1.71354 47.3594 5.14063C50.7865 8.56771 52.5 12.6875 52.5 17.5C52.5 22.3125 50.7865 26.4323 47.3594 29.8594C43.9323 33.2865 39.8125 35 35 35ZM0 70V57.75C0 55.2708 0.638751 52.9929 1.91625 50.9162C3.19375 48.8396 4.88833 47.2529 7 46.1563C11.5208 43.8958 16.1146 42.2012 20.7812 41.0725C25.4479 39.9437 30.1875 39.3779 35 39.375C39.8125 39.3721 44.5521 39.9379 49.2187 41.0725C53.8854 42.2071 58.4792 43.9017 63 46.1563C65.1146 47.25 66.8106 48.8367 68.0881 50.9162C69.3656 52.9958 70.0029 55.2738 70 57.75V70H0Z" fill="#385495"/>
</svg>
