<svg width="45" height="47" viewBox="0 0 45 47" fill="none" xmlns="http://www.w3.org/2000/svg">
<path fill-rule="evenodd" clip-rule="evenodd" d="M21.756 0.206309C21.9826 0.0711112 22.239 0 22.5 0C22.761 0 23.0174 0.0711112 23.244 0.206309L44.244 12.7405C44.4736 12.8775 44.6644 13.0754 44.7972 13.3142C44.9299 13.5531 44.9999 13.8243 45 14.1005V16.3566C45.0001 23.2691 42.8441 29.9935 38.8585 35.5118C34.8729 41.0302 29.2745 45.042 22.911 46.94C22.6423 47.02 22.3577 47.02 22.089 46.94C15.7254 45.042 10.1271 41.0302 6.1415 35.5118C2.15587 29.9935 -8.24681e-05 23.2691 2.36594e-09 16.3566L2.36593e-09 14.1005C8.52835e-05 13.8243 0.0700538 13.5531 0.202817 13.3142C0.335579 13.0754 0.526419 12.8775 0.756 12.7405L21.756 0.206309ZM21.216 33.5629L34.17 16.6449L31.83 14.6896L20.784 29.107L12.96 22.2978L11.04 24.7044L21.216 33.5629Z" fill="#5A9BD5"/>
</svg>
