<svg width="20" height="21" viewBox="0 0 20 21" fill="none" xmlns="http://www.w3.org/2000/svg">
<path d="M18.0404 14.3206L15.2125 13.9816C14.88 13.9405 14.5429 13.9792 14.2267 14.0946C13.9104 14.21 13.6232 14.3992 13.3866 14.6479L11.338 16.7989C8.17765 15.1108 5.60877 12.4134 4.00102 9.09502L6.06073 6.93233C6.53947 6.42965 6.77327 5.72823 6.69534 5.01512L6.37246 2.06918C6.30958 1.4988 6.049 0.972659 5.64039 0.591054C5.23179 0.20945 4.70374 -0.000935304 4.15689 3.12592e-06H2.23079C0.972706 3.12592e-06 -0.0738448 1.09889 0.00408987 2.41989C0.594166 12.4034 8.19836 20.3761 17.6953 20.9957C18.9533 21.0775 19.9999 19.9787 19.9999 18.6577V16.6352C20.011 15.4545 19.1649 14.4609 18.0404 14.3206Z" fill="#5A9BD5"/>
</svg>
