<svg width="170" height="197" viewBox="0 0 170 197" fill="none" xmlns="http://www.w3.org/2000/svg">
<path d="M78.4609 8.46225V16.9238H84.9994H91.5379V8.46225V0.000676811H84.9994H78.4609V8.46225Z" fill="#5A9BD5"/>
<path d="M25.5763 22.3085L20.9609 26.9239L27.4225 33.3855L33.8456 39.8086L38.5379 35.0778L43.2687 30.3855L36.9225 24.0393C33.4225 20.5393 30.4994 17.6931 30.3841 17.6931C30.2687 17.6931 28.1148 19.77 25.5763 22.3085Z" fill="#5A9BD5"/>
<path d="M133.081 24.0393L126.734 30.3855L131.465 35.0778L136.157 39.8086L142.581 33.3855L149.042 26.9239L144.427 22.3085C141.888 19.77 139.734 17.6931 139.619 17.6931C139.504 17.6931 136.581 20.5393 133.081 24.0393Z" fill="#5A9BD5"/>
<path d="M79.8117 33.0771C53.9654 36.0002 34.6961 58.3464 35.8884 84.0388C36.3499 94.1927 39.3884 102.924 45.2346 110.962C56.8116 126.847 61.5808 139.77 62.6193 157.808C62.9654 163.616 63.2347 164.347 65.7731 166.039L67.0424 166.924H85.004H102.966L104.235 166.039C106.773 164.347 107.043 163.616 107.389 157.616C108.35 140.693 113.812 125.924 124.389 111.539C135.504 96.462 137.312 76.385 129.004 59.9234C122.158 46.3464 108.658 36.1925 94.0425 33.654C89.8117 32.9232 83.504 32.6925 79.8117 33.0771ZM102.312 69.5772L106.35 73.3465L101.889 78.1157C99.4271 80.7311 94.1963 86.3466 90.2348 90.5773C86.2732 94.8081 82.504 98.5774 81.8117 98.9235C80.0809 99.9235 78.0809 99.8081 76.3886 98.6543C74.8501 97.6158 64.5039 88.5389 64.3116 88.0389C64.2347 87.8466 67.5424 83.8465 71.1962 79.8465C71.3501 79.6542 73.0809 80.9235 75.0039 82.6542C76.9655 84.3465 78.7347 85.7696 79.004 85.7312C79.2347 85.7312 83.5809 81.2311 88.6579 75.7696C93.7348 70.308 97.9656 65.808 98.081 65.808C98.1964 65.7695 100.081 67.4619 102.312 69.5772Z" fill="#5A9BD5"/>
<path d="M0 81.5377V88.0762H9.61543H19.2309V81.5377V74.9992H9.61543H0V81.5377Z" fill="#5A9BD5"/>
<path d="M150.766 81.5377V88.0762H160.381H169.996V81.5377V74.9992H160.381H150.766V81.5377Z" fill="#5A9BD5"/>
<path d="M63.0781 190.578V196.924H85.0013H106.924V190.578V184.231H85.0013H63.0781V190.578Z" fill="#5A9BD5"/>
</svg>
