<svg width="170" height="170" viewBox="0 0 170 170" fill="none" xmlns="http://www.w3.org/2000/svg">
<g clip-path="url(#clip0_1339_656)">
<path d="M14.1123 0.496582C11.0244 1.39307 7.6709 3.28564 5.51269 5.44385C1.92676 8.99658 0.333005 13.0474 0.333005 18.6255C0.333005 22.1118 0.764646 23.2407 2.75683 24.7017C4.11816 25.6978 7.07324 25.6646 8.56738 24.6353C10.1943 23.4399 10.7256 22.145 10.958 18.5923C11.124 15.936 11.29 15.2388 12.0205 14.1763C14.3779 10.6899 19.5244 9.46143 24.7373 11.188C26.8623 11.8853 29.585 14.5415 30.1494 16.4673C30.7139 18.3599 30.6475 21.4478 30.0166 23.5396C29.3525 25.8638 27.1611 28.0552 18.7607 34.6958C8.56738 42.8306 3.68652 48.1099 0.963864 53.9536C0.100583 55.7466 -0.0322293 56.3442 0.166989 57.4731C0.465818 59.2329 2.29199 61.2915 3.91894 61.7563C5.5791 62.188 37.5869 62.188 39.2471 61.7563C40.874 61.2915 42.7002 59.2329 42.999 57.4731C43.2978 55.7134 42.1689 53.2896 40.542 52.2271C39.4131 51.4634 39.3135 51.4634 27.5928 51.4634H15.8057L17.4326 49.77C18.3623 48.8403 22.0146 45.7524 25.5674 42.897C36.4248 34.231 39.3467 30.7446 40.6416 25.0005C41.3057 22.0122 41.3057 17.4302 40.6748 14.6411C39.2139 8.46533 34.0342 3.05322 27.5596 0.928223C24.8037 -0.00146484 16.7353 -0.233887 14.1123 0.496582Z" fill="white"/>
<path d="M70.6874 0.896365C69.5585 1.85926 39.7421 37.287 38.3475 39.3788C36.7206 41.7694 37.5174 45.2889 40.0409 46.7167C41.3358 47.4471 41.4686 47.4804 54.8827 47.4804H68.3964V51.996C68.3964 57.5741 68.7284 59.0682 70.3885 60.5624C72.1483 62.1561 73.9081 62.3886 75.9335 61.3593C78.6561 59.9979 78.8221 59.5331 79.0214 53.1913L79.1874 47.6464L81.4452 47.4471C84.1014 47.2147 85.1639 46.5507 86.2596 44.4921C87.1893 42.6327 87.1893 41.6366 86.2264 39.8436C85.2303 37.9511 83.2381 36.8554 80.7811 36.8554H79.0214V20.2538C79.0214 2.02527 79.0878 2.62293 77.0292 0.863162C76.1327 0.132693 75.6678 -0.000119686 73.8749 -0.000119686C72.0819 -0.000119686 71.6171 0.132693 70.6874 0.896365ZM68.3964 28.3886V36.8554H61.2577H54.119L61.1581 28.3886C65.0428 23.7401 68.2635 19.955 68.3299 19.9218C68.3631 19.9218 68.3964 23.7401 68.3964 28.3886Z" fill="white"/>
<path d="M93.1378 1.42686C90.9795 2.42295 89.6514 5.0128 90.1163 7.2042C90.7139 9.89365 92.6729 11.3214 96.292 11.7862C99.2139 12.1515 105.788 13.7784 109.573 15.1065C129.96 22.1788 146.761 38.6144 154.564 59.1007C156.091 63.0851 157.851 69.7921 158.614 74.5401C159.411 79.6202 159.411 90.6769 158.614 95.9562C156.124 112.093 148.919 126.337 137.464 137.792C125.909 149.347 111.831 156.386 95.296 158.942C90.0499 159.739 79.9229 159.739 74.71 158.909C61.7608 156.95 50.3057 152.136 39.8799 144.333C35.7295 141.212 29.0225 134.505 25.9014 130.321C16.4053 117.638 11.6241 104.357 10.6944 87.8878C10.462 84.1026 10.2959 83.173 9.73149 82.4093C7.34086 79.1886 3.25688 79.1886 0.866254 82.4425C0.235395 83.3058 0.168989 83.8038 0.202192 88.087C0.335004 105.618 7.17485 124.179 18.8291 138.622C22.0499 142.607 28.6573 149.114 32.542 152.136C44.5284 161.4 58.1085 167.177 72.9835 169.368C77.167 169.966 78.8604 170.032 86.5967 169.933C93.9014 169.8 96.1924 169.634 99.6124 169.036C112.196 166.745 124.116 161.732 134.31 154.46C138.858 151.206 141.913 148.55 146.097 144.233C171.962 117.571 177.374 76.964 159.444 44.3253C149.683 26.5616 133.778 12.8155 114.72 5.67686C105.921 2.35655 95.5284 0.331155 93.1378 1.42686Z" fill="white"/>
<path d="M117.705 33.7005C116.676 34.0657 108.076 42.4993 76.3337 74.2747C32.7048 117.904 35.4275 114.949 36.0251 118.103C36.324 119.73 38.3161 121.722 39.9431 122.021C43.0974 122.618 40.1091 125.374 84.07 81.4134C124.279 41.1712 124.478 41.0052 124.677 39.4447C125.242 35.4935 121.424 32.3392 117.705 33.7005Z" fill="white"/>
<path d="M100.939 78.723C99.8098 79.1879 98.2825 80.6488 97.884 81.6781C97.4192 82.9398 97.4856 85.1312 98.0833 86.2602C98.3821 86.8246 99.0794 87.6215 99.677 88.0531C100.773 88.8168 100.906 88.8168 111.995 88.9828L123.185 89.1488L109.439 110.631C101.868 122.452 95.427 132.579 95.095 133.176C94.3977 134.537 94.6301 137.161 95.5266 138.389C96.5559 139.817 98.8469 140.846 100.441 140.614C101.902 140.381 103.562 139.452 104.126 138.555C104.359 138.223 112.062 126.17 121.325 111.727C137.927 85.8285 138.126 85.4965 138.126 83.8031C138.126 81.9437 137.329 80.4496 135.702 79.2211C134.773 78.5238 134.441 78.5238 118.271 78.4574C107.745 78.4242 101.47 78.5238 100.939 78.723Z" fill="white"/>
</g>
<defs>
<clipPath id="clip0_1339_656">
<rect width="170" height="170" fill="white"/>
</clipPath>
</defs>
</svg>
