<svg width="758" height="235" viewBox="0 0 758 235" fill="none" xmlns="http://www.w3.org/2000/svg">
<rect x="-7" y="7" width="744" height="221" rx="110.5" transform="matrix(-1 0 0 1 744 0)" fill="url(#paint0_linear_381_397)" stroke="url(#paint1_linear_381_397)" stroke-width="14"/>
<circle cx="85" cy="85" r="85" transform="matrix(-1 0 0 1 208 29)" fill="url(#paint2_linear_381_397)"/>
<rect x="-3.5" y="3.5" width="723" height="200" rx="96.5" transform="matrix(-1 0 0 1 737 12)" stroke="url(#paint3_linear_381_397)" stroke-width="7"/>
<path d="M163.97 72.1508C158.901 67.0121 152.865 62.9376 146.212 60.1648C139.56 57.392 132.424 55.9763 125.221 56.0003C95.0402 56.0003 70.4422 80.6977 70.4422 111.001C70.4422 120.713 72.9849 130.148 77.7387 138.473L70 167L99.0201 159.341C107.035 163.726 116.045 166.057 125.221 166.057C155.402 166.057 180 141.359 180 111.056C180 96.3487 174.307 82.5292 163.97 72.1508ZM125.221 156.733C117.04 156.733 109.025 154.513 102.005 150.35L100.347 149.351L83.1005 153.902L87.6884 137.03L86.5829 135.31C82.0367 128.023 79.6232 119.599 79.6181 111.001C79.6181 85.8037 100.07 65.2688 125.166 65.2688C137.327 65.2688 148.769 70.0418 157.337 78.6997C161.58 82.9392 164.942 87.9823 167.229 93.5367C169.516 99.091 170.681 105.046 170.658 111.056C170.769 136.253 150.317 156.733 125.221 156.733ZM150.206 122.545C148.824 121.879 142.08 118.549 140.864 118.049C139.593 117.605 138.709 117.383 137.769 118.715C136.829 120.103 134.231 123.211 133.457 124.099C132.683 125.042 131.854 125.153 130.472 124.432C129.09 123.766 124.668 122.267 119.472 117.605C115.382 113.942 112.673 109.447 111.844 108.059C111.07 106.672 111.734 105.95 112.452 105.229C113.06 104.618 113.834 103.619 114.497 102.842C115.161 102.065 115.437 101.455 115.879 100.567C116.322 99.6232 116.1 98.8462 115.769 98.1802C115.437 97.5142 112.673 90.7432 111.568 87.9682C110.462 85.3042 109.302 85.6372 108.472 85.5817H105.819C104.879 85.5817 103.442 85.9147 102.171 87.3022C100.955 88.6897 97.4171 92.0197 97.4171 98.7907C97.4171 105.562 102.337 112.111 103 112.999C103.663 113.942 112.673 127.817 126.382 133.756C129.643 135.199 132.186 136.031 134.176 136.642C137.437 137.696 140.422 137.53 142.799 137.197C145.452 136.808 150.925 133.867 152.03 130.648C153.191 127.429 153.191 124.709 152.804 124.099C152.417 123.488 151.588 123.211 150.206 122.545Z" fill="white"/>
<defs>
<linearGradient id="paint0_linear_381_397" x1="379" y1="0" x2="379" y2="235" gradientUnits="userSpaceOnUse">
<stop stop-color="#128C7E"/>
<stop offset="1" stop-color="#0E6B5B"/>
</linearGradient>
<linearGradient id="paint1_linear_381_397" x1="379" y1="0" x2="379" y2="235" gradientUnits="userSpaceOnUse">
<stop stop-color="#25D366"/>
<stop offset="1" stop-color="#128C7E"/>
</linearGradient>
<linearGradient id="paint2_linear_381_397" x1="85" y1="0" x2="85" y2="170" gradientUnits="userSpaceOnUse">
<stop stop-color="#5DF5A2"/>
<stop offset="0.548077" stop-color="#25D366"/>
</linearGradient>
<linearGradient id="paint3_linear_381_397" x1="365" y1="207" x2="365" y2="0" gradientUnits="userSpaceOnUse">
<stop offset="0.216346" stop-color="#0B5146"/>
<stop offset="1" stop-color="#1DD1B8" stop-opacity="0"/>
</linearGradient>
</defs>
</svg>
