<svg width="758" height="235" viewBox="0 0 758 235" fill="none" xmlns="http://www.w3.org/2000/svg">
<rect x="7" y="7" width="744" height="221" rx="110.5" fill="url(#paint0_linear_381_398)" stroke="url(#paint1_linear_381_398)" stroke-width="14"/>
<circle cx="635" cy="114" r="85" fill="url(#paint2_linear_381_398)"/>
<path d="M676.97 73.1508C671.901 68.0121 665.865 63.9376 659.212 61.1648C652.56 58.392 645.424 56.9763 638.221 57.0003C608.04 57.0003 583.442 81.6977 583.442 112.001C583.442 121.713 585.985 131.148 590.739 139.473L583 168L612.02 160.341C620.035 164.726 629.045 167.057 638.221 167.057C668.402 167.057 693 142.359 693 112.056C693 97.3487 687.307 83.5292 676.97 73.1508ZM638.221 157.733C630.04 157.733 622.025 155.513 615.005 151.35L613.347 150.351L596.101 154.902L600.688 138.03L599.583 136.31C595.037 129.023 592.623 120.599 592.618 112.001C592.618 86.8037 613.07 66.2688 638.166 66.2688C650.327 66.2688 661.769 71.0418 670.337 79.6997C674.58 83.9392 677.942 88.9823 680.229 94.5367C682.516 100.091 683.681 106.046 683.658 112.056C683.769 137.253 663.317 157.733 638.221 157.733ZM663.206 123.545C661.824 122.879 655.08 119.549 653.864 119.049C652.593 118.605 651.709 118.383 650.769 119.715C649.829 121.103 647.231 124.211 646.457 125.099C645.683 126.042 644.854 126.153 643.472 125.432C642.09 124.766 637.668 123.267 632.472 118.605C628.382 114.942 625.673 110.447 624.844 109.059C624.07 107.672 624.734 106.95 625.452 106.229C626.06 105.618 626.834 104.619 627.497 103.842C628.161 103.065 628.437 102.455 628.879 101.567C629.322 100.623 629.1 99.8462 628.769 99.1802C628.437 98.5142 625.673 91.7432 624.568 88.9682C623.462 86.3042 622.302 86.6372 621.472 86.5817H618.819C617.879 86.5817 616.442 86.9147 615.171 88.3022C613.955 89.6897 610.417 93.0197 610.417 99.7907C610.417 106.562 615.337 113.111 616 113.999C616.663 114.942 625.673 128.817 639.382 134.756C642.643 136.199 645.186 137.031 647.176 137.642C650.437 138.696 653.422 138.53 655.799 138.197C658.452 137.808 663.925 134.867 665.03 131.648C666.191 128.429 666.191 125.709 665.804 125.099C665.417 124.488 664.588 124.211 663.206 123.545Z" fill="white"/>
<rect x="17.5" y="15.5" width="723" height="200" rx="96.5" stroke="url(#paint3_linear_381_398)" stroke-width="7"/>
<defs>
<linearGradient id="paint0_linear_381_398" x1="379" y1="0" x2="379" y2="235" gradientUnits="userSpaceOnUse">
<stop stop-color="#128C7E"/>
<stop offset="1" stop-color="#0E6B5B"/>
</linearGradient>
<linearGradient id="paint1_linear_381_398" x1="379" y1="0" x2="379" y2="235" gradientUnits="userSpaceOnUse">
<stop stop-color="#25D366"/>
<stop offset="1" stop-color="#128C7E"/>
</linearGradient>
<linearGradient id="paint2_linear_381_398" x1="635" y1="29" x2="635" y2="199" gradientUnits="userSpaceOnUse">
<stop stop-color="#5DF5A2"/>
<stop offset="0.548077" stop-color="#25D366"/>
</linearGradient>
<linearGradient id="paint3_linear_381_398" x1="379" y1="219" x2="379" y2="12" gradientUnits="userSpaceOnUse">
<stop offset="0.216346" stop-color="#0B5146"/>
<stop offset="1" stop-color="#1DD1B8" stop-opacity="0"/>
</linearGradient>
</defs>
</svg>
