<svg width="54" height="46" viewBox="0 0 54 46" fill="none" xmlns="http://www.w3.org/2000/svg">
<path d="M52.7941 44.2742C52.0419 45.3726 51.0258 45.987 49.9693 45.9821C48.9127 45.9773 47.9023 45.3538 47.1601 44.2485L27.5695 15.0663L7.71378 44.0688C6.95748 45.136 5.94828 45.7238 4.90358 45.7056C3.85898 45.6875 2.86238 45.0648 2.12858 43.9718C1.39478 42.8787 0.982477 41.4027 0.980477 39.8617C0.978377 38.3207 1.38678 36.8379 2.11758 35.7327L24.8093 2.58791C25.5615 1.48951 26.5776 0.875111 27.6341 0.879911C28.6907 0.884711 29.7012 1.50831 30.4433 2.61351L52.832 35.9638C53.574 37.0693 53.9868 38.5659 53.9797 40.1243C53.9726 41.6827 53.5461 43.1755 52.7941 44.2742Z" fill="#1E4193"/>
</svg>
