<svg width="170" height="170" viewBox="0 0 170 170" fill="none" xmlns="http://www.w3.org/2000/svg">
<g clip-path="url(#clip0_1319_641)">
<path d="M58.2715 0.199219C46.9824 1.52734 37.3867 4.98047 28.5215 10.8906C10.6914 22.8438 0 42.8652 0 64.4141C0 86.7266 11.5547 107.412 30.6465 119.266C36.8887 123.184 44.2598 126.072 52.0957 127.732C55.9473 128.562 56.9102 128.629 64.2481 128.662C70.6563 128.662 72.8809 128.529 75.5371 128.031C103.959 122.752 125.01 100.473 128.529 71.9512C129.16 66.7383 128.762 56.877 127.699 51.8965C124.611 37.2539 117.008 24.4375 105.918 15.1074C94.1309 5.21289 79.2891 -0.0996094 63.9824 0.0332031C61.3926 0.0664062 58.8359 0.166016 58.2715 0.199219ZM66.7383 17.1328C67.2363 17.4316 68.1992 18.6602 68.8965 19.8887C71.2871 24.0391 75.6035 27.7578 80.0195 29.4844C84.4688 31.2109 88.8848 31.875 96.2227 31.875C102.166 31.875 102.963 32.1406 103.926 34.2988C105.287 37.4531 105.885 50.8672 104.955 57.7734C103.262 70.5234 98.3809 82.5762 90.9766 92.3047C85.1992 99.9082 77.1309 106.682 69.0625 110.732C65.0449 112.725 64.5801 112.791 61.7246 111.596C54.5527 108.574 46.0195 102.033 40.1758 95.0273C31.1113 84.2363 25.6992 71.6855 23.9063 57.4414C23.4082 53.2246 23.4746 43.2969 24.0723 38.7148C24.9355 32.1406 25.2676 31.875 32.9375 31.875C41.5703 31.875 47.7793 30.5801 52.3613 27.8574C54.9512 26.2969 58.0391 23.1426 59.5664 20.4863C61.293 17.498 62.3887 16.6016 64.3145 16.6016C65.1445 16.6016 66.207 16.834 66.7383 17.1328Z" fill="white"/>
<path d="M62.5861 30.9121C56.6759 36.9551 48.5412 39.9766 36.1564 40.707L32.6369 40.9062L32.4045 42.8984C32.1056 45.9863 32.172 52.4277 32.5705 56.0469C34.4631 73.6113 43.8927 89.748 57.7716 99.2441C59.3322 100.307 61.4572 101.635 62.5197 102.232L64.4455 103.328L67.1681 101.768C72.9455 98.4141 78.0588 94.1641 82.1759 89.2832C89.8459 80.1523 94.5607 69.4277 96.1213 57.5742C96.6193 53.6895 96.7853 45.1895 96.4201 42.4004L96.2209 40.9062L92.6681 40.6738C85.3634 40.2422 80.549 39.2793 75.967 37.3535C72.7463 35.9922 68.4299 33.1035 66.2384 30.9121C65.342 29.9824 64.5119 29.2188 64.4123 29.2188C64.3127 29.2188 63.4826 29.9824 62.5861 30.9121ZM82.7072 50.4355C83.8029 51.5312 84.0021 51.9297 84.0021 53.1582C84.0021 54.0215 83.7365 55.0508 83.3713 55.6484C82.5412 56.9766 66.9689 76.8652 65.6408 78.293C64.3791 79.6211 62.8517 80.0859 61.258 79.6543C60.4279 79.4219 57.9045 77.3965 53.1896 73.1797C49.4045 69.8262 45.9845 66.6055 45.5861 66.0078C44.258 64.2148 44.756 61.6582 46.6818 60.1309C47.6779 59.3672 50.0353 59.168 51.1642 59.7988C51.5295 59.998 54.0861 62.1562 56.8088 64.6133L61.7892 69.0625L62.5529 68.166C62.9513 67.6348 66.2384 63.4512 69.8576 58.8359C73.4767 54.2207 76.8302 50.1699 77.2951 49.8047C77.8595 49.3398 78.6232 49.1406 79.7853 49.1406C81.2463 49.1406 81.5451 49.2734 82.7072 50.4355Z" fill="white"/>
<path d="M122.752 108.707C119.697 112.99 112.957 119.697 108.674 122.752C107.744 123.449 106.947 124.18 106.914 124.346C106.914 124.545 116.676 134.406 128.596 146.293C148.816 166.48 150.377 167.941 152.402 168.838C154.262 169.668 154.992 169.834 157.549 169.834C160.205 169.834 160.77 169.734 162.695 168.805C165.418 167.51 167.477 165.451 168.805 162.695C169.734 160.77 169.834 160.205 169.834 157.549C169.834 154.992 169.668 154.262 168.838 152.402C167.941 150.377 166.48 148.816 146.293 128.562C134.406 116.676 124.545 106.914 124.346 106.914C124.18 106.947 123.449 107.744 122.752 108.707Z" fill="white"/>
</g>
<defs>
<clipPath id="clip0_1319_641">
<rect width="170" height="170" fill="white"/>
</clipPath>
</defs>
</svg>
