<svg width="170" height="170" viewBox="0 0 170 170" fill="none" xmlns="http://www.w3.org/2000/svg">
<path d="M111.131 4.91406C110.667 5.41211 110.567 6.24219 110.567 8.86523V12.2188L109.073 13.082C108.209 13.6133 107.28 14.5098 106.848 15.2734L106.084 16.6016H89.7817C74.4087 16.6016 73.4126 16.6348 72.6821 17.1992C71.6528 18.0625 71.6528 19.7891 72.6821 20.6523C73.3462 21.1836 74.0767 21.25 78.061 21.25C80.5845 21.25 82.6763 21.3164 82.6763 21.416C82.6763 21.4824 80.2524 27.8906 77.3306 35.5938C71.4868 50.834 71.4868 50.9336 72.5493 54.6191C73.1802 56.8105 75.272 60.0312 76.8989 61.3262C78.9243 62.9199 81.4478 64.0488 83.9712 64.4805C91.8403 65.8418 99.7095 59.7988 100.174 52.0293L100.34 49.6387L94.9946 35.627C92.0396 27.9238 89.6489 21.5156 89.6489 21.416C89.6489 21.3164 93.3345 21.25 97.8833 21.25H106.084L106.848 22.6113C107.313 23.375 108.276 24.3379 109.106 24.8359L110.534 25.7324L110.467 49.4395L110.401 73.1797L101.436 76.8652L92.4712 80.584L92.3716 82.9414L92.272 85.332H112.725H133.178L133.079 82.9414L132.979 80.5176L124.114 76.8652L115.215 73.2129V49.4395V25.6992L116.709 24.6367C117.54 24.0723 118.469 23.043 118.768 22.4121L119.333 21.25H127.6C135.336 21.25 135.868 21.2832 135.735 21.8145C135.635 22.1465 133.245 28.5547 130.389 36.0918C124.778 50.7676 124.711 51.0996 125.708 54.4863C126.471 57.0098 127.567 58.7363 129.659 60.7285C135.336 66.1074 143.903 65.9746 149.448 60.4629C151.606 58.2715 152.901 55.7148 153.432 52.5605L153.797 50.3027L148.485 36.3574C145.563 28.6875 143.073 22.1465 142.94 21.8145C142.708 21.2832 143.073 21.25 147.389 21.25C151.938 21.25 152.137 21.2168 152.901 20.4199C153.963 19.3906 153.963 18.4609 152.901 17.4316L152.104 16.6016H135.702H119.266L118.868 15.6055C118.436 14.5098 116.344 12.6172 115.647 12.6172C115.315 12.6172 115.215 11.7871 115.215 9.33008C115.215 6.54102 115.116 5.94336 114.518 5.17969C113.688 4.11719 111.961 3.98438 111.131 4.91406ZM90.4458 36.7227C92.7368 42.7656 94.6294 47.8125 94.6294 47.9453C94.6294 48.0449 90.811 48.1445 86.1626 48.1445C81.5142 48.1445 77.6958 48.0449 77.6958 47.9121C77.6958 47.5801 86.0962 25.5664 86.1958 25.666C86.229 25.6992 88.1548 30.6797 90.4458 36.7227ZM143.737 36.9883C145.961 42.7656 147.754 47.6797 147.754 47.8457C147.754 48.0117 144.268 48.1445 139.254 48.1445C134.008 48.1445 130.821 48.0117 130.887 47.8125C132.913 42.0352 139.354 25.7324 139.52 26.0312C139.653 26.2305 141.545 31.1777 143.737 36.9883Z" fill="#5A9BD5"/>
<path d="M60.7278 100.904C57.6067 101.701 54.7512 102.962 43.4289 108.408C36.1242 111.927 34.6301 112.757 34.8293 113.189C34.9953 113.488 37.9836 120.66 41.5031 129.16C45.0227 137.66 47.9446 144.666 48.011 144.732C48.0774 144.798 49.7375 144.101 51.7297 143.171C58.8684 139.785 59.7649 139.851 76.5325 144.798L89.1496 148.55H93.6321C99.9739 148.517 96.7864 149.58 135.136 134.804L157.88 126.039L159.906 124.013C162.329 121.623 163.359 119.265 163.359 116.144C163.359 113.255 162.329 111.595 159.806 110.334C158.013 109.47 157.614 109.404 153.896 109.437C149.247 109.47 150.708 109.105 130.122 115.115L114.616 119.63L114.484 121.921C114.052 127.931 109.171 132.613 102.863 133.011C100.572 133.177 99.6418 132.978 85.0657 129.06C75.7688 126.537 69.427 124.677 69.0285 124.312C67.7336 123.117 68.6965 120.527 70.4895 120.527C70.8879 120.527 77.927 122.32 86.095 124.511C94.2961 126.703 101.601 128.496 102.364 128.496C105.154 128.496 108.308 126.304 109.47 123.615C110.068 122.187 110.034 119.132 109.37 117.605C108.806 116.211 107.146 114.384 105.917 113.72C105.452 113.488 99.9407 111.927 93.6653 110.234C83.0735 107.412 82.1106 107.08 79.9524 105.685C76.9641 103.759 73.0129 101.8 70.7219 101.103C67.8 100.24 63.6828 100.173 60.7278 100.904Z" fill="#5A9BD5"/>
<path d="M15.106 107.246C10.1588 109.305 8.56503 110.135 7.73496 111.064C5.67636 113.289 5.44394 112.625 16.6334 139.486C22.1451 152.701 26.8932 163.791 27.192 164.156C28.0553 165.119 29.4166 165.684 30.9107 165.684C33.0689 165.684 44.2916 160.936 45.9185 159.342C48.1764 157.084 48.442 157.98 37.1529 130.787C31.6744 117.572 26.9264 106.482 26.6275 106.117C26.3287 105.785 25.6646 105.32 25.1666 105.055C23.3736 104.125 21.7467 104.49 15.106 107.246Z" fill="#5A9BD5"/>
</svg>
