<svg width="170" height="170" viewBox="0 0 170 170" fill="none" xmlns="http://www.w3.org/2000/svg">
<path d="M54.4863 11.1555C48.875 12.6497 44.4922 17.1321 42.998 22.8098C42.5996 24.2708 42.5 26.7942 42.5 33.6008V42.4993H43.9277C48.709 42.4993 55.9805 44.3918 61.2598 46.9817C85.1328 58.7356 92.2715 89.2161 76.168 110.765L74.4082 113.122L74.3086 135.335C74.2422 151.97 74.1094 157.781 73.8105 158.478L73.3789 159.374H109.338C148.883 159.374 147.123 159.474 151.107 157.349C153.432 156.087 156.32 153.165 157.516 150.808C159.475 146.956 159.375 149.38 159.375 99.2102V53.1243H145.164C129.791 53.1243 128.961 53.0579 125.441 51.2649C123.084 50.0696 120.162 47.1809 118.9 44.8567C116.941 41.1711 116.875 40.4407 116.875 24.8352V10.6243L86.5938 10.6575C61.2266 10.6575 55.9805 10.7571 54.4863 11.1555ZM103.793 43.3626C105.553 44.6575 106.084 45.72 106.084 47.8118C106.084 49.9036 105.553 50.9661 103.793 52.261C102.93 52.9251 102.365 52.9583 93.6992 53.0579C87.7891 53.1243 84.0703 53.0247 83.2734 52.8254C79.9199 51.8293 78.625 47.2141 80.916 44.4583C82.543 42.5657 82.9082 42.4993 93.3672 42.5989C102.398 42.6653 102.93 42.6985 103.793 43.3626ZM135.668 69.9251C137.428 71.22 137.959 72.2825 137.959 74.3743C137.959 76.4661 137.428 77.5286 135.668 78.8235C134.771 79.4876 134.34 79.5208 117.605 79.6204C106.15 79.6868 100.041 79.6204 99.2109 79.3547C95.8574 78.3918 94.5625 73.7766 96.8535 71.0208C98.5469 69.0286 98.1484 69.0618 117.273 69.1614C134.34 69.2278 134.771 69.2278 135.668 69.9251ZM135.668 96.4875C137.428 97.7825 137.959 98.845 137.959 100.937C137.959 103.029 137.428 104.091 135.668 105.386C134.771 106.05 134.34 106.083 117.605 106.183C106.15 106.249 100.041 106.183 99.2109 105.917C95.8574 104.954 94.5625 100.339 96.8535 97.5833C98.5469 95.5911 98.1484 95.6243 117.273 95.7239C134.34 95.7903 134.771 95.7903 135.668 96.4875ZM135.668 123.05C137.428 124.345 137.959 125.407 137.959 127.499C137.959 129.591 137.428 130.654 135.668 131.948C134.771 132.646 134.373 132.646 112.293 132.745C97.1191 132.812 89.416 132.745 88.5859 132.48C85.2324 131.517 83.9375 126.902 86.2285 124.146C87.9219 122.12 87.0586 122.187 111.961 122.286C134.406 122.353 134.771 122.353 135.668 123.05Z" fill="white"/>
<path d="M127.5 25.9973C127.5 35.5598 127.6 38.4485 127.965 39.2786C128.529 40.6731 130.223 42.1008 131.584 42.3333C132.182 42.4329 137.926 42.4661 144.367 42.4329L156.055 42.3333L141.777 28.0559L127.5 13.7786V25.9973Z" fill="white"/>
<path d="M36.957 53.6225C30.2832 54.8178 24.2402 58.0717 19.5586 63.019C7.63864 75.4702 7.70505 94.7612 19.7246 107.179C25.3359 113.023 32.7734 116.343 41.0078 116.775C56.1152 117.539 69.33 107.71 73.4472 92.6694C74.4765 89.017 74.4765 80.9819 73.4472 77.3295C70.0273 64.812 60.2656 55.7807 47.914 53.6225C44.5273 53.0249 40.2109 53.0249 36.957 53.6225Z" fill="white"/>
<path d="M21.25 138.456C21.25 156.917 21.2168 156.551 23.4082 158.211C24.67 159.208 26.1309 159.54 27.791 159.208C28.8535 159.008 30.0489 158.012 35.793 152.301L42.5 145.627L49.2403 152.301C54.9512 158.012 56.1465 159.008 57.209 159.208C58.8692 159.54 60.3301 159.208 61.5918 158.211C63.7832 156.551 63.75 156.883 63.75 138.522V121.887L60.5957 123.381C54.4864 126.237 49.5723 127.299 42.5 127.299C34.5977 127.333 29.418 125.971 21.5157 121.92C21.3496 121.854 21.25 129.292 21.25 138.456Z" fill="white"/>
</svg>
