<svg width="160" height="176" viewBox="0 0 160 176" fill="none" xmlns="http://www.w3.org/2000/svg">
<path d="M80.0192 107.633H80.4555C89.8049 107.868 97.2845 115.04 97.2845 123.857C97.2845 131.382 91.8618 137.671 84.5069 139.553V146.136C84.5069 148.488 82.5124 150.369 80.0192 150.369C77.526 150.369 75.5315 148.488 75.5315 146.136V139.553C71.8696 138.623 68.6342 136.582 66.3248 133.745C64.0153 130.909 62.7605 127.434 62.7539 123.857C62.7539 121.506 64.7485 119.625 67.2416 119.625C69.7348 119.625 71.7294 121.506 71.7294 123.857C71.7294 128.207 75.4068 131.675 79.9569 131.675C84.5069 131.675 88.2467 128.148 88.2467 123.857C88.2467 119.566 84.5069 116.039 79.9569 116.039H79.5206C75.0367 115.924 70.7769 114.165 67.6461 111.136C64.5154 108.106 62.7604 104.045 62.7539 99.8144C62.7539 92.29 68.1766 86.0001 75.5315 84.119V77.5352C75.5315 75.1838 77.526 73.3027 80.0192 73.3027C82.5124 73.3027 84.5069 75.1838 84.5069 77.5352V84.119C91.8618 86.0001 97.2845 92.29 97.2845 99.8144C97.2845 102.166 95.2899 104.047 92.7967 104.047C90.3036 104.047 88.309 102.166 88.309 99.8144C88.309 95.5232 84.5692 91.9961 80.0192 91.9961C75.4691 91.9961 71.7294 95.5232 71.7294 99.8144C71.7294 104.106 75.4691 107.633 80.0192 107.633Z" fill="white"/>
<path d="M46.9466 23.8959L64.3116 43.0596L62.4355 45.0347C26.6957 52.5944 0 82.6978 0 118.685C0 150.323 27.2255 176 60.7713 176H99.2286C132.774 176 160 150.329 160 118.691C160.062 82.6978 133.366 52.5944 97.6267 45.0347C97.7735 43.7925 97.5353 42.5368 96.9411 41.4195L111.713 25.4714L112.667 24.0841C113.78 21.7934 114.065 19.2212 113.478 16.7629C112.89 14.3047 111.462 12.0966 109.414 10.4783C107.366 8.85994 104.811 7.92096 102.142 7.80575C99.4728 7.69055 96.8374 8.4055 94.6412 9.84065L89.3868 3.96223C88.2081 2.71824 86.7647 1.72246 85.1507 1.03976C83.5367 0.357068 81.7883 0.00278949 80.0194 1.64065e-05C78.2505 -0.00275668 76.5008 0.346037 74.8844 1.02367C73.268 1.7013 71.8211 2.69255 70.6381 3.93284L65.1344 9.72896C62.9438 8.26396 60.3024 7.52051 57.6188 7.6136C54.9352 7.70669 52.3589 8.63114 50.2883 10.2439C48.2178 11.8568 46.7684 14.0681 46.1643 16.5358C45.5603 19.0036 45.8352 21.5903 46.9466 23.8959ZM70.6256 32.0376L60.0545 20.5159C62.5108 21.6299 65.2891 21.9457 67.9557 21.414C70.6224 20.8823 73.0274 19.533 74.7954 17.5766L79.7818 11.4748L85.3167 17.6589C87.0424 19.5517 89.3704 20.8678 91.9537 21.4112C94.5371 21.9547 97.2375 21.6963 99.6525 20.6746L89.1312 32.0376H70.6256ZM12.4659 118.685C12.4659 83.4855 42.7082 54.9634 80.0311 54.9634C117.354 54.9634 147.596 83.4855 147.534 118.674V118.685C147.529 130.767 142.438 142.352 133.38 150.894C124.322 159.437 112.038 164.238 99.2286 164.243H60.7713C47.9614 164.238 35.6776 159.437 26.6197 150.894C17.5618 142.352 12.4709 130.767 12.4659 118.685Z" fill="white"/>
</svg>
