<svg width="41" height="40" viewBox="0 0 41 40" fill="none" xmlns="http://www.w3.org/2000/svg">
<path d="M36.0994 32.6117C37.417 33.326 38.506 34.3305 39.3665 35.6251C40.2269 36.9197 40.7714 38.378 41 40H38.7816C38.6337 39.1518 38.3581 38.3631 37.9547 37.634C37.5514 36.9048 37.0607 36.2798 36.4825 35.759C35.9044 35.2382 35.2523 34.8215 34.5263 34.509C33.8003 34.1965 33.0474 34.0477 32.2676 34.0626C31.4743 34.0626 30.7214 34.2114 30.0089 34.509C29.2963 34.8066 28.6442 35.2159 28.0526 35.7367C27.4611 36.2575 26.9703 36.8899 26.5804 37.634C26.1905 38.378 25.9149 39.1667 25.7536 40H23.5352C23.7503 38.3929 24.2881 36.942 25.1485 35.6474C26.009 34.3528 27.1048 33.3409 28.4358 32.6117C27.6695 31.9421 27.0779 31.1311 26.6611 30.1787C26.2443 29.2264 26.0292 28.2145 26.0157 27.1431C26.0157 26.4735 26.0964 25.8261 26.2577 25.2012C26.4191 24.5762 26.6611 23.9884 26.9838 23.4378C27.3064 22.8872 27.6896 22.3961 28.1333 21.9646C28.577 21.5331 29.0744 21.1685 29.6257 20.8709C29.2627 20.2905 28.8459 19.7771 28.3753 19.3307C27.9047 18.8843 27.3938 18.49 26.8426 18.1477C26.2914 17.8054 25.7132 17.5599 25.1082 17.4111C24.5032 17.2623 23.878 17.173 23.2327 17.1433C22.1571 17.1433 21.1285 17.3739 20.1471 17.8352C19.1656 18.2965 18.3119 18.9736 17.5858 19.8664C17.9085 20.8337 18.0698 21.8307 18.0698 22.8574C18.0698 24.2265 17.7942 25.5136 17.243 26.719C16.6918 27.9243 15.9187 28.9362 14.9238 29.7546C15.7977 30.2457 16.5842 30.8484 17.2833 31.5626C17.9825 32.2769 18.5875 33.0805 19.0984 33.9733C19.6093 34.8662 19.9925 35.8185 20.2479 36.8304C20.5034 37.8423 20.6378 38.8988 20.6513 40H18.0698C18.0698 38.8244 17.8682 37.7158 17.4648 36.6742C17.0615 35.6325 16.5102 34.7248 15.8111 33.951C15.112 33.1772 14.2851 32.5597 13.3305 32.0984C12.376 31.6371 11.3743 31.4138 10.3256 31.4287C9.25004 31.4287 8.2484 31.6519 7.32071 32.0984C6.39302 32.5448 5.57288 33.1549 4.86031 33.9287C4.14773 34.7025 3.58977 35.6176 3.18642 36.6742C2.78308 37.7307 2.58141 38.8393 2.58141 40H0C0 38.9137 0.134448 37.8646 0.403345 36.8527C0.672241 35.8408 1.05542 34.8885 1.55288 33.9956C2.05034 33.1028 2.64863 32.2992 3.34776 31.585C4.04689 30.8707 4.84014 30.2606 5.7275 29.7546C4.73258 28.9362 3.9595 27.9243 3.40826 26.719C2.85703 25.5136 2.58141 24.2265 2.58141 22.8574C2.58141 21.6819 2.78308 20.5733 3.18642 19.5316C3.58977 18.49 4.14101 17.5822 4.84014 16.8084C5.53927 16.0346 6.3594 15.4171 7.30054 14.9558C8.24168 14.4945 9.25004 14.2713 10.3256 14.2862C11.4684 14.2862 12.5507 14.554 13.5726 15.0897C14.5944 15.6254 15.4817 16.3695 16.2346 17.3218C16.5842 16.9498 16.9606 16.615 17.364 16.3174C17.7673 16.0198 18.1909 15.737 18.6345 15.4692C17.6396 14.6507 16.8665 13.6389 16.3153 12.4335C15.7641 11.2282 15.4884 9.941 15.4884 8.57198C15.4884 7.3964 15.6901 6.28779 16.0935 5.24614C16.4968 4.20449 17.048 3.29677 17.7472 2.52298C18.4463 1.74918 19.2664 1.13163 20.2076 0.670329C21.1487 0.209027 22.1571 -0.0141832 23.2327 0.000697532C24.2948 0.000697532 25.2964 0.223908 26.2376 0.670329C27.1787 1.11675 27.9989 1.72686 28.698 2.50065C29.3971 3.27445 29.9551 4.18961 30.3719 5.24614C30.7887 6.30267 30.9903 7.41128 30.9769 8.57198C30.9769 9.941 30.7013 11.2282 30.15 12.4335C29.5988 13.6389 28.8257 14.6507 27.8308 15.4692C28.7719 16.0198 29.619 16.6894 30.3719 17.4781C31.1248 18.2667 31.7634 19.1819 32.2878 20.2236C33.1482 20.2236 33.9549 20.4021 34.7078 20.7593C35.4607 21.1164 36.1263 21.6149 36.7044 22.2548C37.2825 22.8946 37.7262 23.6238 38.0354 24.4422C38.3446 25.2607 38.506 26.161 38.5194 27.1431C38.5194 28.2145 38.311 29.2264 37.8942 30.1787C37.4775 31.1311 36.8792 31.9421 36.0994 32.6117ZM10.3256 28.5716C11.0382 28.5716 11.7037 28.4228 12.3222 28.1252C12.9406 27.8276 13.4919 27.4184 13.9759 26.8976C14.4599 26.3767 14.8296 25.7741 15.0851 25.0895C15.3405 24.405 15.475 23.661 15.4884 22.8574C15.4884 22.0688 15.354 21.3322 15.0851 20.6477C14.8162 19.9631 14.4465 19.353 13.9759 18.8173C13.5053 18.2816 12.9608 17.8724 12.3424 17.5897C11.7239 17.3069 11.0516 17.1581 10.3256 17.1433C9.61305 17.1433 8.94753 17.2921 8.32907 17.5897C7.71061 17.8873 7.15937 18.2965 6.67536 18.8173C6.19134 19.3382 5.82161 19.9408 5.56616 20.6253C5.31071 21.3099 5.17626 22.0539 5.16281 22.8574C5.16281 23.6461 5.29726 24.3827 5.56616 25.0672C5.83506 25.7517 6.20479 26.3618 6.67536 26.8976C7.14593 27.4333 7.69044 27.8425 8.3089 28.1252C8.92737 28.4079 9.59961 28.5567 10.3256 28.5716ZM18.0698 8.57198C18.0698 9.36065 18.2043 10.0972 18.4732 10.7818C18.7421 11.4663 19.1118 12.0764 19.5824 12.6121C20.053 13.1478 20.5975 13.557 21.2159 13.8397C21.8344 14.1225 22.5066 14.2713 23.2327 14.2862C23.9452 14.2862 24.6108 14.1374 25.2292 13.8397C25.8477 13.5421 26.3989 13.1329 26.8829 12.6121C27.3669 12.0913 27.7367 11.4886 27.9921 10.8041C28.2476 10.1196 28.382 9.37553 28.3955 8.57198C28.3955 7.7833 28.261 7.04671 27.9921 6.36219C27.7232 5.67768 27.3535 5.06757 26.8829 4.53187C26.4124 3.99616 25.8678 3.58694 25.2494 3.30421C24.6309 3.02148 23.9587 2.87267 23.2327 2.85779C22.5201 2.85779 21.8546 3.0066 21.2361 3.30421C20.6176 3.60183 20.0664 4.01104 19.5824 4.53187C19.0984 5.05269 18.7286 5.65536 18.4732 6.33987C18.2177 7.02438 18.0833 7.76842 18.0698 8.57198ZM32.2676 22.6342C31.7029 22.6342 31.1786 22.7533 30.6945 22.9914C30.2105 23.2295 29.7803 23.5494 29.4038 23.9512C29.0274 24.353 28.7316 24.8291 28.5165 25.3797C28.3014 25.9303 28.1938 26.5181 28.1938 27.1431C28.1938 27.7681 28.3014 28.3484 28.5165 28.8841C28.7316 29.4198 29.0207 29.896 29.3837 30.3127C29.7467 30.7293 30.1769 31.0567 30.6744 31.2948C31.1718 31.5329 31.7029 31.6519 32.2676 31.6519C32.8323 31.6519 33.3566 31.5329 33.8406 31.2948C34.3246 31.0567 34.7549 30.7368 35.1313 30.335C35.5078 29.9332 35.8036 29.457 36.0187 28.9064C36.2338 28.3559 36.3414 27.7681 36.3414 27.1431C36.3414 26.5181 36.2338 25.9377 36.0187 25.402C35.8036 24.8663 35.5145 24.3902 35.1515 23.9735C34.7885 23.5568 34.3583 23.2295 33.8608 22.9914C33.3633 22.7533 32.8323 22.6342 32.2676 22.6342Z" fill="#5A9BD5"/>
</svg>
