<svg width="360" height="450" viewBox="0 0 360 450" fill="none" xmlns="http://www.w3.org/2000/svg">
<path d="M30 3.5H356.5V420C356.5 434.636 344.636 446.5 330 446.5H30C15.3645 446.5 3.5 434.636 3.5 420V30C3.5 15.3645 15.3645 3.5 30 3.5Z" fill="white" stroke="#D9534F" stroke-width="7"/>
<path d="M256 4H356V104V104C300.772 104 256 59.2285 256 4V4Z" fill="#D9534F"/>
<path d="M314.122 19.0471C309.866 19.3797 305.805 20.7691 302.263 23.1076C293.369 28.9784 289.181 39.7218 291.745 50.064C293.77 58.2047 299.856 64.868 307.782 67.6175C317.047 70.8366 327.214 68.4002 334.014 61.3554C337.761 57.4709 340.031 52.7743 340.824 47.2754C341.059 45.661 341.059 42.3342 340.824 40.7198C340.041 35.2502 337.781 30.5635 334.082 26.7181C330.071 22.5401 325.12 20.0157 319.337 19.1938C318.036 19.0079 315.502 18.9394 314.122 19.0471ZM317.038 26.7768C319.758 26.9628 322.351 27.7162 324.425 28.9294L325.139 29.3404L320.55 33.9293L315.961 38.5183L311.421 33.9783C307.596 30.1525 306.891 29.4089 306.999 29.2915C307.204 29.0371 309.455 27.9706 310.531 27.6183C312.067 27.1095 313.349 26.8747 315.521 26.6986C315.599 26.6888 316.284 26.7279 317.038 26.7768ZM306.03 39.4478L310.58 43.9976L306.011 48.567C302.175 52.4025 301.422 53.1168 301.304 53.0092C301.05 52.8037 299.983 50.5532 299.631 49.4769C298.447 45.8958 298.447 42.0798 299.631 38.5281C300.091 37.1387 301.187 34.898 301.402 34.898C301.451 34.898 303.525 36.943 306.03 39.4478ZM331.411 36.2287C332.683 38.7727 333.231 41.1014 333.231 43.9976C333.231 46.3165 332.908 48.1071 332.125 50.1814C331.842 50.9153 331.03 52.5786 330.795 52.8917C330.638 53.0972 330.531 52.9896 326.088 48.5474L321.539 43.9976L326.088 39.4478C331.313 34.2131 330.619 34.6436 331.411 36.2287ZM320.55 54.0659L325.139 58.6548L324.464 59.0462C320.433 61.3945 315.13 61.9033 310.531 60.3769C309.455 60.0247 307.204 58.9582 306.999 58.7038C306.891 58.5863 307.605 57.8329 311.421 54.017C313.916 51.5219 315.961 49.4769 315.961 49.4769C315.961 49.4769 318.026 51.5415 320.55 54.0659Z" fill="white"/>
</svg>
