<svg width="360" height="450" viewBox="0 0 360 450" fill="none" xmlns="http://www.w3.org/2000/svg">
<path d="M330 3.5H3.5V420C3.5 434.636 15.3645 446.5 30 446.5H330C344.636 446.5 356.5 434.636 356.5 420V30C356.5 15.3645 344.636 3.5 330 3.5Z" fill="white" stroke="#5A9BD5" stroke-width="7"/>
<path d="M104 4H4V104C59.2285 104 104 59.2285 104 4Z" fill="#5A9BD5"/>
<path d="M41.7052 16.5045C40.9708 16.8143 40.638 17.0438 39.5593 18.0307C38.6183 18.8914 37.2298 19.9242 36.1167 20.6127C32.7888 22.6553 29.3232 23.7111 24.5838 24.1472C23.6314 24.239 22.8166 24.3767 22.3232 24.5488C20.3264 25.2373 18.8232 26.9013 18.2723 29.0242C18.1232 29.575 18.0773 30.6996 18.0199 34.4751C17.9281 40.7062 18.1461 44.4472 18.8461 48.6243C20.3723 57.7587 24.5494 64.7014 31.5265 69.6703C34.9117 72.0801 41.1888 74.9834 43.0019 74.9834C44.0347 74.9834 46.7888 73.9391 49.8298 72.4014C53.0315 70.7834 55.2348 69.2801 57.6561 67.0768C61.661 63.4391 64.6676 58.4128 66.2282 52.7555C67.6053 47.7636 68.0987 42.5653 67.984 34.3029C67.9266 30.6767 67.8807 29.5636 67.7315 29.0242C67.1807 26.9013 65.6774 25.2373 63.6807 24.5488C63.1872 24.3767 62.3725 24.239 61.42 24.1472C54.9593 23.5619 50.7134 21.7947 46.2151 17.8242C44.9413 16.6996 44.1609 16.3094 43.1167 16.2635C42.5314 16.2291 42.2331 16.2865 41.7052 16.5045ZM45.1823 31.1587C50.8167 31.939 55.5905 36.1964 57.1053 41.762C57.7594 44.1603 57.7708 46.9489 57.1512 49.2784C55.7856 54.4423 51.838 58.3899 46.6741 59.7555C44.4249 60.3637 41.579 60.3637 39.3298 59.7555C34.1658 58.3899 30.2183 54.4423 28.8527 49.2784C28.2445 47.0292 28.2445 44.1833 28.8527 41.9341C30.4937 35.7374 35.8757 31.3423 42.256 30.998C43.0364 30.9521 44.1495 31.0209 45.1823 31.1587Z" fill="white"/>
<path d="M42.428 34.452C39.6165 34.6126 37.2641 35.6454 35.2329 37.6077C32.9952 39.7651 31.8591 42.4618 31.8591 45.6061C31.8591 48.7504 32.9952 51.4471 35.2329 53.6045C37.4362 55.7389 39.9493 56.7488 43.0018 56.7488C46.0543 56.7488 48.5674 55.7389 50.7707 53.6045C53.0084 51.4471 54.1445 48.7389 54.1445 45.6061C54.1445 42.4733 52.9969 39.7536 50.7707 37.6077C48.4756 35.4044 45.492 34.2684 42.428 34.452ZM49.1985 40.7635C50.0018 41.1651 50.369 42.2668 49.9559 43.0586C49.8641 43.2307 47.8559 45.2848 45.5034 47.6373C40.9362 52.1701 40.9706 52.1471 40.0411 51.975C39.6969 51.9176 39.2952 51.5734 37.8034 50.1045C36.805 49.1061 35.91 48.1651 35.8182 47.993C35.3706 47.1324 35.8067 46.0192 36.7362 45.6635C37.6198 45.3192 37.9526 45.4684 39.2149 46.7078C39.8231 47.3045 40.3624 47.7865 40.4313 47.7865C40.4887 47.7865 42.0838 46.2373 43.9772 44.3323C45.8707 42.4274 47.5805 40.8094 47.7641 40.7176C48.2346 40.511 48.7166 40.5225 49.1985 40.7635Z" fill="white"/>
</svg>
