<svg width="137" height="157" viewBox="0 0 137 157" fill="none" xmlns="http://www.w3.org/2000/svg">
<g clip-path="url(#clip0_1303_1156)">
<path d="M119.875 48.7241H17.125C12.5846 48.7284 8.23138 50.441 5.0208 53.4859C1.81022 56.5308 0.00453364 60.6594 0 64.9655V97.4483C0 100.32 1.20282 103.074 3.34386 105.105C5.4849 107.135 8.38878 108.276 11.4167 108.276V146.172C11.4167 149.044 12.6195 151.798 14.7605 153.829C16.9016 155.859 19.8054 157 22.8333 157H45.6667C48.6946 157 51.5984 155.859 53.7395 153.829C55.8805 151.798 57.0833 149.044 57.0833 146.172V81.2069H45.6667V146.172H22.8333V97.4483H11.4167V64.9655C11.4167 63.5297 12.0181 62.1527 13.0886 61.1374C14.1591 60.1221 15.6111 59.5517 17.125 59.5517H119.875C121.389 59.5517 122.841 60.1221 123.911 61.1374C124.982 62.1527 125.583 63.5297 125.583 64.9655V97.4483H114.167V146.172H91.3333V81.2069H79.9167V146.172C79.9167 149.044 81.1195 151.798 83.2605 153.829C85.4016 155.859 88.3054 157 91.3333 157H114.167C117.195 157 120.098 155.859 122.239 153.829C124.381 151.798 125.583 149.044 125.583 146.172V108.276C128.611 108.276 131.515 107.135 133.656 105.105C135.797 103.074 137 100.32 137 97.4483V64.9655C136.995 60.6594 135.19 56.5308 131.979 53.4859C128.769 50.441 124.415 48.7284 119.875 48.7241ZM34.25 43.3104C29.734 43.3104 25.3194 42.0403 21.5645 39.6608C17.8096 37.2813 14.883 33.8992 13.1548 29.9423C11.4266 25.9853 10.9744 21.6312 11.8554 17.4305C12.7364 13.2298 14.9111 9.37119 18.1044 6.34266C21.2977 3.31413 25.3662 1.25168 29.7954 0.416108C34.2247 -0.419462 38.8157 0.00938296 42.9879 1.64841C47.1602 3.28744 50.7263 6.06304 53.2352 9.62421C55.7442 13.1854 57.0833 17.3722 57.0833 21.6552C57.0773 27.3967 54.6697 32.9015 50.3889 36.9614C46.1082 41.0213 40.3039 43.3046 34.25 43.3104ZM34.25 10.8276C31.992 10.8276 29.7847 11.4626 27.9072 12.6524C26.0298 13.8421 24.5665 15.5332 23.7024 17.5116C22.8383 19.4901 22.6122 21.6672 23.0527 23.7675C23.4932 25.8679 24.5806 27.7972 26.1772 29.3114C27.7738 30.8257 29.8081 31.8569 32.0227 32.2747C34.2373 32.6925 36.5328 32.4781 38.619 31.6586C40.7051 30.8391 42.4881 29.4513 43.7426 27.6707C44.9971 25.8901 45.6667 23.7967 45.6667 21.6552C45.6667 18.7835 44.4638 16.0295 42.3228 13.9989C40.1818 11.9684 37.2779 10.8276 34.25 10.8276ZM102.75 43.3104C98.234 43.3104 93.8194 42.0403 90.0645 39.6608C86.3096 37.2813 83.383 33.8992 81.6548 29.9423C79.9266 25.9853 79.4744 21.6312 80.3554 17.4305C81.2364 13.2298 83.4111 9.37119 86.6044 6.34266C89.7977 3.31413 93.8662 1.25168 98.2954 0.416108C102.725 -0.419462 107.316 0.00938296 111.488 1.64841C115.66 3.28744 119.226 6.06304 121.735 9.62421C124.244 13.1854 125.583 17.3722 125.583 21.6552C125.577 27.3967 123.17 32.9015 118.889 36.9614C114.608 41.0213 108.804 43.3046 102.75 43.3104ZM102.75 10.8276C100.492 10.8276 98.2847 11.4626 96.4072 12.6524C94.5298 13.8421 93.0665 15.5332 92.2024 17.5116C91.3383 19.4901 91.1122 21.6672 91.5527 23.7675C91.9932 25.8679 93.0806 27.7972 94.6772 29.3114C96.2738 30.8257 98.3081 31.8569 100.523 32.2747C102.737 32.6925 105.033 32.4781 107.119 31.6586C109.205 30.8391 110.988 29.4513 112.243 27.6707C113.497 25.8901 114.167 23.7967 114.167 21.6552C114.167 18.7835 112.964 16.0295 110.823 13.9989C108.682 11.9684 105.778 10.8276 102.75 10.8276Z" fill="white"/>
</g>
<defs>
<clipPath id="clip0_1303_1156">
<rect width="137" height="157" fill="white"/>
</clipPath>
</defs>
</svg>
