<svg width="183" height="151" viewBox="0 0 183 151" fill="none" xmlns="http://www.w3.org/2000/svg">
<path d="M66.5265 23.8421C75.3485 23.8421 83.8091 27.1913 90.0472 33.153C96.2853 39.1147 99.7898 47.2005 99.7898 55.6316C99.7898 64.0627 96.2853 72.1485 90.0472 78.1101C83.8091 84.0718 75.3485 87.4211 66.5265 87.4211C57.7046 87.4211 49.2439 84.0718 43.0058 78.1101C36.7678 72.1485 33.2633 64.0627 33.2633 55.6316C33.2633 47.2005 36.7678 39.1147 43.0058 33.153C49.2439 27.1913 57.7046 23.8421 66.5265 23.8421ZM66.5265 103.316C88.7298 103.316 133.053 113.965 133.053 135.105V151H0V135.105C0 113.965 44.3233 103.316 66.5265 103.316ZM131.057 26.7032C147.855 44.1874 147.855 68.4268 131.057 84.4805L117.087 71.0495C124.072 61.6716 124.072 49.5121 117.087 40.1342L131.057 26.7032ZM158.583 0C191.264 32.1868 191.014 80.3479 158.583 111.263L145.028 98.3089C168.063 73.0363 168.063 36.9553 145.028 12.9542L158.583 0Z" fill="#5A9BD5"/>
</svg>
