<svg width="170" height="121" viewBox="0 0 170 121" fill="none" xmlns="http://www.w3.org/2000/svg">
<path d="M147.459 0.00764441H21.2492C15.6135 0.00764441 10.2087 2.55712 6.22373 7.09521C2.23874 11.6333 0 17.7883 0 24.2061V96.8015C0 103.219 2.23874 109.374 6.22373 113.912C10.2087 118.451 15.6135 121 21.2492 121H148.744C154.38 121 159.785 118.451 163.77 113.912C167.755 109.374 169.993 103.219 169.993 96.8015V25.6701L122.82 79.3907C119.813 82.6951 115.787 84.5223 111.608 84.4787C107.429 84.4351 103.433 82.5243 100.48 79.1577C97.5261 75.7912 95.8519 71.2383 95.8176 66.4797C95.7833 61.7211 97.3916 57.1375 100.296 53.7162L147.459 0.00764441ZM21.2492 42.355C21.2492 40.7505 21.8088 39.2118 22.8051 38.0772C23.8013 36.9427 25.1525 36.3054 26.5615 36.3054H47.8106C49.2195 36.3054 50.5707 36.9427 51.567 38.0772C52.5632 39.2118 53.1229 40.7505 53.1229 42.355C53.1229 43.9594 52.5632 45.4982 51.567 46.6327C50.5707 47.7672 49.2195 48.4046 47.8106 48.4046H26.5615C25.1525 48.4046 23.8013 47.7672 22.8051 46.6327C21.8088 45.4982 21.2492 43.9594 21.2492 42.355ZM21.2492 78.6527C21.2492 77.0482 21.8088 75.5095 22.8051 74.3749C23.8013 73.2404 25.1525 72.6031 26.5615 72.6031H74.3721C75.781 72.6031 77.1322 73.2404 78.1284 74.3749C79.1247 75.5095 79.6844 77.0482 79.6844 78.6527C79.6844 80.2571 79.1247 81.7959 78.1284 82.9304C77.1322 84.0649 75.781 84.7023 74.3721 84.7023H26.5615C25.1525 84.7023 23.8013 84.0649 22.8051 82.9304C21.8088 81.7959 21.2492 80.2571 21.2492 78.6527ZM168.442 10.3404C169.44 9.20444 170 7.66375 170 6.05726C170 4.45078 169.44 2.91009 168.442 1.77413C167.445 0.638175 166.092 3.16677e-08 164.681 0C163.27 -3.16677e-08 161.917 0.638175 160.92 1.77413L107.797 62.2703C106.799 63.4063 106.239 64.947 106.239 66.5534C106.239 68.1599 106.799 69.7006 107.797 70.8366C108.795 71.9725 110.147 72.6107 111.558 72.6107C112.969 72.6107 114.322 71.9725 115.319 70.8366L168.442 10.3404Z" fill="#FFF9F9"/>
</svg>
