<svg width="170" height="170" viewBox="0 0 170 170" fill="none" xmlns="http://www.w3.org/2000/svg">
<path d="M58.2715 0.167969C46.9824 1.49609 37.3867 4.94922 28.5215 10.8594C10.6914 22.8125 0 42.834 0 64.3828C0 86.6953 11.5547 107.381 30.6465 119.234C36.8887 123.152 44.2598 126.041 52.0957 127.701C55.9473 128.531 56.9102 128.598 64.2481 128.631C70.6563 128.631 72.8809 128.498 75.5371 128C103.959 122.721 125.01 100.441 128.529 71.9199C129.16 66.707 128.762 56.8457 127.699 51.8652C124.611 37.2227 117.008 24.4062 105.918 15.0762C94.1309 5.18164 79.2891 -0.130859 63.9824 0.00195312C61.3926 0.0351562 58.8359 0.134766 58.2715 0.167969ZM66.7383 17.1016C67.2363 17.4004 68.1992 18.6289 68.8965 19.8574C71.2871 24.0078 75.6035 27.7266 80.0195 29.4531C84.4688 31.1797 88.8848 31.8438 96.2227 31.8438C102.166 31.8438 102.963 32.1094 103.926 34.2676C105.287 37.4219 105.885 50.8359 104.955 57.7422C103.262 70.4922 98.3809 82.5449 90.9766 92.2734C85.1992 99.877 77.1309 106.65 69.0625 110.701C65.0449 112.693 64.5801 112.76 61.7246 111.564C54.5527 108.543 46.0195 102.002 40.1758 94.9961C31.1113 84.2051 25.6992 71.6543 23.9063 57.4102C23.4082 53.1934 23.4746 43.2656 24.0723 38.6836C24.9355 32.1094 25.2676 31.8438 32.9375 31.8438C41.5703 31.8438 47.7793 30.5488 52.3613 27.8262C54.9512 26.2656 58.0391 23.1113 59.5664 20.4551C61.293 17.4668 62.3887 16.5703 64.3145 16.5703C65.1445 16.5703 66.207 16.8027 66.7383 17.1016Z" fill="#5A9BD5"/>
<path d="M62.5861 30.8809C56.6759 36.9238 48.5412 39.9453 36.1564 40.6758L32.6369 40.875L32.4045 42.8672C32.1056 45.9551 32.172 52.3965 32.5705 56.0156C34.4631 73.5801 43.8927 89.7168 57.7716 99.2129C59.3322 100.275 61.4572 101.604 62.5197 102.201L64.4455 103.297L67.1681 101.736C72.9455 98.3828 78.0588 94.1328 82.1759 89.252C89.8459 80.1211 94.5607 69.3965 96.1213 57.543C96.6193 53.6582 96.7853 45.1582 96.4201 42.3691L96.2209 40.875L92.6681 40.6426C85.3634 40.2109 80.549 39.248 75.967 37.3223C72.7463 35.9609 68.4299 33.0723 66.2384 30.8809C65.342 29.9512 64.5119 29.1875 64.4123 29.1875C64.3127 29.1875 63.4826 29.9512 62.5861 30.8809ZM82.7072 50.4043C83.8029 51.5 84.0021 51.8984 84.0021 53.127C84.0021 53.9902 83.7365 55.0195 83.3713 55.6172C82.5412 56.9453 66.9689 76.834 65.6408 78.2617C64.3791 79.5898 62.8517 80.0547 61.258 79.623C60.4279 79.3906 57.9045 77.3652 53.1896 73.1484C49.4045 69.7949 45.9845 66.5742 45.5861 65.9766C44.258 64.1836 44.756 61.627 46.6818 60.0996C47.6779 59.3359 50.0353 59.1367 51.1642 59.7676C51.5295 59.9668 54.0861 62.125 56.8088 64.582L61.7892 69.0312L62.5529 68.1348C62.9513 67.6035 66.2384 63.4199 69.8576 58.8047C73.4767 54.1895 76.8302 50.1387 77.2951 49.7734C77.8595 49.3086 78.6232 49.1094 79.7853 49.1094C81.2463 49.1094 81.5451 49.2422 82.7072 50.4043Z" fill="#5A9BD5"/>
<path d="M122.752 108.676C119.697 112.959 112.957 119.666 108.674 122.721C107.744 123.418 106.947 124.148 106.914 124.314C106.914 124.514 116.676 134.375 128.596 146.262C148.816 166.449 150.377 167.91 152.402 168.807C154.262 169.637 154.992 169.803 157.549 169.803C160.205 169.803 160.77 169.703 162.695 168.773C165.418 167.479 167.477 165.42 168.805 162.664C169.734 160.738 169.834 160.174 169.834 157.518C169.834 154.961 169.668 154.23 168.838 152.371C167.941 150.346 166.48 148.785 146.293 128.531C134.406 116.645 124.545 106.883 124.346 106.883C124.18 106.916 123.449 107.713 122.752 108.676Z" fill="#5A9BD5"/>
</svg>
