<svg width="170" height="194" viewBox="0 0 170 194" fill="none" xmlns="http://www.w3.org/2000/svg">
<path fill-rule="evenodd" clip-rule="evenodd" d="M67.9018 0.309548C69.9757 0.10758 72.0567 0.00429918 74.1389 0C76.3413 0 78.4644 0.127947 80.3798 0.309548C83.7217 0.605888 86.8252 2.3182 89.0271 5.08072C121.988 11.7216 149.12 41.9788 150.492 78.9719L166.011 100.558C168.595 104.151 170 108.588 170 113.158C170 121.186 165.656 128.718 158.527 131.773C155.762 132.961 152.354 134.356 148.924 135.57L145.46 160.874C144.809 165.665 142.449 169.98 138.896 172.876C135.342 175.771 130.884 177.012 126.495 176.327L118.373 175.056V185.745C118.373 187.935 117.577 190.034 116.16 191.582C114.743 193.13 112.821 194 110.817 194C108.813 194 106.892 193.13 105.475 191.582C104.058 190.034 103.262 187.935 103.262 185.745V165.534C103.262 164.351 103.494 163.182 103.944 162.106C104.393 161.03 105.049 160.072 105.867 159.297C106.685 158.522 107.646 157.949 108.684 157.615C109.723 157.281 110.815 157.195 111.886 157.362L128.641 159.987C128.857 160.019 129.077 160.005 129.289 159.945C129.5 159.884 129.698 159.779 129.872 159.635C130.046 159.491 130.192 159.311 130.303 159.105C130.413 158.899 130.485 158.671 130.515 158.435L134.689 127.942C134.907 126.35 135.546 124.862 136.528 123.662C137.51 122.461 138.792 121.601 140.216 121.186C144.251 120.014 149.082 118.091 153 116.407C154.05 115.957 154.889 114.756 154.889 113.158C154.892 112.286 154.626 111.439 154.133 110.752L137.046 86.9995C136 85.5462 135.431 83.7513 135.43 81.9023C135.43 54.8519 117.119 30.8929 92.6122 22.9685C92.6727 26.7862 92.7142 31.2685 92.7142 36.4565C92.7142 40.3073 92.6916 46.5602 92.6576 50.6627C97.7415 54.3689 101.797 59.5288 104.381 65.5798C106.965 71.6309 107.979 78.3409 107.313 84.9784C106.647 91.6158 104.325 97.9261 100.602 103.221C96.8784 108.516 91.8959 112.593 86.1976 115.007C95.5702 123.906 107.47 129.325 118.532 129.325C119.524 129.325 120.506 129.539 121.423 129.953C122.34 130.368 123.173 130.976 123.874 131.743C124.576 132.509 125.132 133.419 125.512 134.421C125.892 135.422 126.087 136.496 126.087 137.58C126.087 138.664 125.892 139.737 125.512 140.739C125.132 141.74 124.576 142.65 123.874 143.417C123.173 144.183 122.34 144.791 121.423 145.206C120.506 145.621 119.524 145.834 118.532 145.834C99.6842 145.834 80.6442 134.752 68.3362 118.615C67.888 118.027 67.5168 117.374 67.2331 116.675C60.8087 115.185 54.9293 111.658 50.3306 106.536C45.7319 101.413 42.6183 94.9227 41.3795 87.8763C40.1407 80.83 40.8318 73.541 43.3662 66.9217C45.9006 60.3023 50.1657 54.6467 55.6278 50.6627C55.5895 45.9274 55.5693 41.192 55.5673 36.4565C55.5724 31.6441 55.6026 27.4246 55.658 23.7981C32.0544 32.6883 15.1111 57.1467 15.1111 85.9017C15.1111 110.843 27.7931 134.34 46.0776 145.446C47.2547 146.162 48.2355 147.208 48.9183 148.476C49.6011 149.744 49.9612 151.189 49.9611 152.661V185.741C49.9611 187.931 49.1651 190.03 47.7481 191.578C46.3312 193.126 44.4094 193.996 42.4056 193.996C40.4017 193.996 38.4799 193.126 37.063 191.578C35.646 190.03 34.85 187.931 34.85 185.741V157.329C13.7436 142.417 0 114.822 0 85.9017C0 46.6922 25.1524 13.9214 58.786 5.69569C59.8797 4.15539 61.2551 2.88095 62.8246 1.9536C64.3941 1.02625 66.1232 0.466332 67.9018 0.309548Z" fill="#FFF9F9"/>
</svg>
