<svg width="56" height="56" viewBox="0 0 56 56" fill="none" xmlns="http://www.w3.org/2000/svg">
<circle cx="28" cy="28" r="28" fill="#1E4193"/>
<circle cx="28" cy="28" r="28" fill="#1E4193"/>
<g clip-path="url(#clip0_1093_1182)">
<path d="M27.4725 13.0122C25.9081 13.3169 24.7773 14.6645 24.7773 16.2172C24.7831 17.5356 25.6093 18.7367 26.869 19.2347C27.2264 19.3754 27.3436 19.3871 27.9998 19.3871C28.6092 19.3871 28.7908 19.3636 29.0838 19.2582C30.5837 18.7015 31.4802 17.0961 31.1579 15.5434C31.0583 15.0571 30.7244 14.4243 30.3728 14.0376C29.7517 13.3755 29.0369 13.0415 28.1463 13.0064C27.8592 12.9947 27.5545 13.0005 27.4725 13.0122Z" fill="white"/>
<path d="M23.88 19.7856C23.5343 20.272 23.2296 20.8813 23.0714 21.4204C22.9543 21.8071 22.9367 22.0121 22.9191 23.3774C22.8898 25.1351 22.9074 25.2054 23.3702 25.4398L23.628 25.5746H27.999H32.37L32.6278 25.4398C33.0907 25.2054 33.1082 25.1351 33.079 23.3774C33.0614 22.0121 33.0438 21.8071 32.9266 21.4204C32.7684 20.8813 32.4637 20.272 32.118 19.7856L31.8544 19.4165L31.4618 19.7915C30.4892 20.7055 29.3115 21.1801 27.999 21.1801C26.6865 21.1801 25.5499 20.729 24.5538 19.8032L24.1378 19.4165L23.88 19.7856Z" fill="white"/>
<path d="M13.4047 21.6079C12.9711 21.895 13.0004 21.4731 13.0004 27.9593C13.0004 31.8615 13.018 33.8243 13.059 33.9357C13.0942 34.0235 14.3597 35.336 15.8714 36.8535L18.6194 39.6074L18.637 40.996C18.6546 42.5194 18.6604 42.5253 19.0588 42.8241C19.217 42.9471 19.2873 42.9471 22.7619 42.9647L26.3067 42.9764L26.5411 42.8475C26.6875 42.7655 26.8106 42.6307 26.8867 42.4784C26.9981 42.244 27.0039 42.1151 27.0039 38.2539C27.0039 33.8712 26.9864 33.6427 26.6524 32.7052C26.3067 31.756 26.0196 31.3752 24.4024 29.7463C23.1369 28.469 22.8791 28.2405 22.5568 28.0823C21.6428 27.6487 20.5119 27.8714 19.8205 28.6331C19.3811 29.1194 19.1526 29.9045 19.2639 30.5256C19.3987 31.2346 19.5334 31.4221 20.8752 32.7814C21.5666 33.4728 22.1584 34.1056 22.1994 34.1759C22.3048 34.3927 22.2814 34.8087 22.1525 35.0196C21.883 35.4532 21.2912 35.5587 20.8752 35.2481C20.5647 35.0196 16.9612 31.381 16.8616 31.1994C16.7972 31.0822 16.7737 30.2619 16.7503 26.9222L16.721 22.7915L16.5628 22.4985C16.3577 22.1118 16.0355 21.8071 15.6371 21.6255C15.3382 21.4849 15.2503 21.4731 14.4594 21.4731C13.6684 21.4731 13.5863 21.4849 13.4047 21.6079Z" fill="white"/>
<path d="M40.363 21.6255C39.9645 21.8071 39.6423 22.1118 39.4372 22.4985L39.279 22.7915L39.2497 26.9222C39.2263 30.2619 39.2028 31.0822 39.1384 31.1994C39.0388 31.381 35.4354 35.0196 35.1248 35.2481C34.7088 35.5587 34.117 35.4532 33.8475 35.0196C33.7186 34.8087 33.6952 34.3927 33.8006 34.1759C33.8417 34.1056 34.4334 33.4728 35.1248 32.7814C36.1326 31.7619 36.4021 31.4572 36.5252 31.1877C36.8416 30.5022 36.8416 29.8518 36.531 29.178C36.0096 28.0413 34.5858 27.5374 33.4432 28.0823C33.121 28.2405 32.869 28.4631 31.5741 29.7756C30.3437 31.0178 30.0273 31.3752 29.7929 31.7677C29.4531 32.3478 29.1426 33.2208 29.0605 33.8536C29.0195 34.1407 28.9961 35.8106 28.9961 38.2773C28.9961 42.1151 29.002 42.244 29.1133 42.4784C29.1894 42.6307 29.3125 42.7655 29.459 42.8475L29.6933 42.9764L33.2382 42.9647C36.7127 42.9471 36.783 42.9471 36.9412 42.8241C37.3396 42.5253 37.3455 42.5194 37.363 40.996L37.3806 39.6074L40.1286 36.8535C41.6403 35.336 42.9059 34.0235 42.941 33.9357C42.982 33.8243 42.9996 31.8615 42.9996 27.9593C42.9996 21.4731 43.0289 21.895 42.5953 21.6079C42.4137 21.4849 42.3317 21.4731 41.5407 21.4731C40.7497 21.4731 40.6618 21.4849 40.363 21.6255Z" fill="white"/>
</g>
<defs>
<clipPath id="clip0_1093_1182">
<rect width="30" height="30" fill="white" transform="translate(13 13)"/>
</clipPath>
</defs>
</svg>
