<svg width="56" height="56" viewBox="0 0 56 56" fill="none" xmlns="http://www.w3.org/2000/svg">
<circle cx="28" cy="28" r="28" fill="#1E4193"/>
<circle cx="28" cy="28" r="28" fill="#1E4193"/>
<g clip-path="url(#clip0_1093_1182)">
<path d="M14.1477 12.0802C13.7477 12.2048 13.3935 12.513 13.1771 12.9262L13 13.2607V25.2954C13 35.0084 13.0197 37.376 13.0853 37.5727C13.2361 37.999 13.5247 38.3204 13.9313 38.5171L14.3117 38.7073L19.7027 38.727C25.6708 38.7467 25.5593 38.7532 25.5593 38.3597C25.5593 38.0777 25.92 37.4022 26.2283 37.1333C26.7858 36.6283 26.8579 36.6152 29.1009 36.5758L31.1012 36.543L29.6583 35.5199C28.8648 34.9559 28.1696 34.4378 28.1106 34.3722C27.6449 33.8344 27.6843 32.8638 28.1958 32.4047C28.6156 32.0177 29.3567 31.8931 29.8026 32.1358L30.0059 32.2473L31.6193 29.9715L33.2261 27.6958L33.0031 27.4531C32.767 27.1908 32.6424 26.8497 32.6424 26.4759C32.6424 26.2332 32.8392 25.7348 32.9638 25.6627C33.0162 25.6299 33.0359 24.6592 33.0359 22.3441V19.0714L30.6618 19.0518C28.3139 19.0321 28.2745 19.0321 27.9728 18.8813C27.5072 18.6451 27.1137 18.2713 26.8645 17.8057L26.6415 17.3925L26.6087 14.7036L26.5759 12.0146L20.5094 12.0015C15.466 11.9949 14.3904 12.008 14.1477 12.0802ZM17.0662 14.31C17.158 14.3953 17.2302 14.5265 17.2302 14.5986C17.2302 14.7691 17.5712 15.0446 17.9057 15.1364C18.2402 15.2282 18.7845 15.1758 19.0665 15.0315C19.178 14.9724 19.3289 14.8282 19.401 14.7036C19.5322 14.4871 19.7617 14.3756 19.9454 14.4478C19.9978 14.4674 20.1028 14.5789 20.1683 14.697C20.3257 14.9659 20.6996 15.1495 21.1783 15.1823C21.4735 15.202 21.6177 15.1758 21.9063 15.0446C22.2211 14.9003 22.2736 14.8478 22.3588 14.5986C22.4179 14.4215 22.5228 14.2707 22.6212 14.2182C22.772 14.133 22.8114 14.133 22.9688 14.2379L23.1393 14.3494L23.1196 16.0677C23.0934 17.5565 23.0737 17.845 22.9557 18.2451C22.5097 19.7929 21.7292 20.8357 20.6405 21.3538C19.9585 21.6817 19.5978 21.6751 18.9288 21.3472C17.8401 20.8029 17.1187 19.8585 16.6662 18.3697C16.4956 17.8122 16.4825 17.7139 16.4563 16.0743L16.43 14.356L16.5809 14.251C16.7908 14.1067 16.8826 14.1199 17.0662 14.31ZM31.0684 23.9706C31.252 24.1149 31.2651 24.4297 31.0946 24.5543C30.9963 24.6264 29.5272 24.6395 22.995 24.6395H15.0069L14.9085 24.4953C14.7708 24.2985 14.7773 24.1411 14.9347 23.9837C15.0659 23.8525 15.1512 23.8525 22.995 23.8525C30.5503 23.8525 30.9307 23.8591 31.0684 23.9706ZM30.8848 27.1121C31.029 27.2432 31.0356 27.5121 30.8913 27.6695C30.7929 27.781 30.4585 27.7876 22.9229 27.7876C15.1512 27.7876 15.0659 27.7876 14.9347 27.6564C14.8626 27.5843 14.8036 27.4662 14.8036 27.3941C14.8036 27.3219 14.8626 27.2039 14.9347 27.1317C15.0659 27.0006 15.1512 27.0006 22.9163 27.0006C30.124 27.0006 30.7733 27.0071 30.8848 27.1121ZM27.3957 30.2798C27.4678 30.3519 27.5269 30.47 27.5269 30.5421C27.5269 30.6142 27.4678 30.7323 27.3957 30.8044C27.2645 30.9356 27.1793 30.9356 21.1652 30.9356C15.1512 30.9356 15.0659 30.9356 14.9347 30.8044C14.8626 30.7323 14.8036 30.6142 14.8036 30.5421C14.8036 30.47 14.8626 30.3519 14.9347 30.2798C15.0659 30.1486 15.1512 30.1486 21.1652 30.1486C27.1793 30.1486 27.2645 30.1486 27.3957 30.2798ZM25.9004 33.4081C26.0643 33.559 26.0512 33.8541 25.8741 33.9787C25.743 34.0705 25.1134 34.0836 20.3979 34.0836C15.1512 34.0836 15.0659 34.0836 14.9347 33.9525C14.7773 33.7951 14.7708 33.6377 14.9085 33.4409L15.0069 33.2966H20.3913C25.3101 33.2966 25.7889 33.3032 25.9004 33.4081Z" fill="white"/>
<path d="M19.6172 15.6218C19.5516 15.6742 19.2893 15.7857 19.04 15.8579C18.5285 16.0218 17.8923 16.0022 17.4595 15.8251L17.2168 15.7201L17.2496 16.7236C17.2889 17.8582 17.3742 18.2386 17.7611 19.0518C18.2071 19.9765 19.145 20.7898 19.7877 20.7963C20.1418 20.8029 20.6337 20.5209 21.0994 20.0553C21.8864 19.2682 22.2864 18.1992 22.3783 16.658C22.4045 16.2186 22.411 15.8316 22.3848 15.7988C22.3651 15.7661 22.2012 15.7923 22.0044 15.8579C21.8142 15.9235 21.4929 15.9759 21.2896 15.9825C20.8698 15.9825 20.1091 15.7726 19.9844 15.6218C19.8795 15.4972 19.7811 15.4972 19.6172 15.6218ZM21.2174 16.8088C21.5257 17.0187 21.4273 17.1958 20.4632 18.1599C19.7877 18.8419 19.5188 19.0649 19.3942 19.0649C19.1778 19.0649 18.2137 18.1205 18.2137 17.9041C18.2137 17.7467 18.4235 17.4909 18.5482 17.4909C18.6728 17.4909 18.8957 17.6352 19.145 17.8713L19.3942 18.1074L20.1025 17.4057C20.5157 17.0056 20.8698 16.7039 20.942 16.7039C21.0141 16.7039 21.1387 16.7498 21.2174 16.8088Z" fill="white"/>
<path d="M27.3965 14.9003C27.3965 17.0186 27.403 17.1367 27.5342 17.4056C27.6981 17.7466 28.1244 18.127 28.4458 18.2188C28.5835 18.2582 29.4099 18.2778 30.5838 18.2647L32.4923 18.2451L30.1051 15.6217C28.7934 14.1788 27.6457 12.9262 27.5604 12.8344L27.3965 12.6704V14.9003Z" fill="white"/>
<path d="M33.763 25.9776C33.4351 26.1612 33.3367 26.6007 33.5597 26.8892C33.6319 26.981 34.6419 27.7287 35.8027 28.5485C37.6587 29.8667 37.9473 30.0504 38.1637 30.0504C38.7277 30.0504 38.9835 29.3749 38.5769 28.9748C38.4129 28.8174 35.4879 26.7187 34.5107 26.0629C34.2287 25.8661 34.0057 25.8464 33.763 25.9776Z" fill="white"/>
<path d="M32.2945 30.3782C31.4354 31.585 30.7205 32.6146 30.7074 32.6605C30.668 32.7589 33.4227 34.7068 33.4948 34.6346C33.6194 34.5035 36.6427 30.2077 36.6427 30.1552C36.6427 30.1028 34.0915 28.2664 33.9341 28.2074C33.8817 28.1877 33.2324 29.0534 32.2945 30.3782Z" fill="white"/>
<path d="M35.7055 32.8834C35.4366 33.2703 35.3645 33.4146 35.4235 33.4736C35.6006 33.6507 41.9425 38.1104 42.1393 38.1957C42.4082 38.3072 42.7492 38.2219 42.9066 37.9989C43.0378 37.8087 43.0312 37.3628 42.8869 37.1923C42.8279 37.1136 41.8048 36.3659 40.6112 35.5264C39.4241 34.6804 37.9354 33.631 37.3123 33.1851C36.6827 32.7391 36.1449 32.3784 36.1187 32.3784C36.0859 32.3784 35.9022 32.6079 35.7055 32.8834Z" fill="white"/>
<path d="M28.8916 32.877C28.7933 32.9295 28.6818 33.0279 28.6424 33.1C28.5244 33.3164 28.5637 33.6706 28.7277 33.8477C28.9703 34.1166 32.9579 36.9039 33.1612 36.9432C33.3776 36.9891 33.7186 36.8317 33.8236 36.6481C33.9219 36.4513 33.9023 36.1037 33.7711 35.9398C33.6662 35.8086 29.7639 33.0147 29.4491 32.8508C29.2655 32.7458 29.1081 32.7524 28.8916 32.877Z" fill="white"/>
<path d="M27.1339 37.4678C26.8387 37.5989 26.6289 37.7957 26.4715 38.0974C26.2288 38.5761 25.9927 38.5433 29.5342 38.5433H32.7151L32.6757 38.3925C32.5642 38.0252 32.315 37.7104 32.0002 37.5399L31.6723 37.3628H29.5211C27.7438 37.3694 27.3241 37.3825 27.1339 37.4678Z" fill="white"/>
<path d="M25.4473 39.468C24.9816 39.6975 24.8833 39.9336 24.8505 40.9043C24.8308 41.4617 24.8439 41.7831 24.8964 41.8749L24.9751 42.0192L29.5463 42.0061L34.1175 41.9864V40.9895C34.1175 39.9008 34.0913 39.8156 33.665 39.5008C33.4879 39.363 33.4092 39.363 29.6053 39.3434C25.7752 39.3302 25.7162 39.3302 25.4473 39.468Z" fill="white"/>
</g>
<defs>
<clipPath id="clip0_1093_1182">
<rect width="30" height="31" fill="white" transform="translate(13 12)"/>
</clipPath>
</defs>
</svg>
