<svg width="56" height="56" viewBox="0 0 56 56" fill="none" xmlns="http://www.w3.org/2000/svg">
<circle cx="28" cy="28" r="28" fill="#1E4193"/>
<circle cx="28" cy="28" r="28" fill="#1E4193"/>
<g clip-path="url(#clip0_1093_1128)">
<path d="M15.0634 13.1029C14.0892 13.3631 13.351 14.1134 13.0908 15.0937C13.0121 15.4084 13 16.6972 13 25.7859C13 33.2106 13.0182 36.2058 13.0666 36.4358C13.2723 37.3918 14.0045 38.1966 14.9424 38.4871C15.2933 38.596 15.5777 38.6021 20.5941 38.6021H25.8766L25.7254 38.1966C25.4531 37.4402 25.326 36.7081 25.3199 35.7883C25.3139 35.3224 25.3381 34.7959 25.3623 34.6144L25.4107 34.2937L25.2594 34.4631L25.1142 34.6386L23.7346 34.6568C21.8406 34.681 21.8345 34.681 21.8345 33.622C21.8345 32.9746 21.8406 32.9625 22.01 32.787L22.1855 32.6115H23.6135H25.0416L25.2292 32.7809C25.4046 32.9383 25.4228 32.9927 25.4652 33.4647C25.4894 33.7431 25.5136 33.9125 25.5196 33.8399C25.5317 33.6099 25.9553 32.4723 26.2276 31.9217C26.3789 31.6252 26.6754 31.1109 26.8811 30.772L27.2684 30.1608L27.1352 29.9793C27.0263 29.822 27.0082 29.7131 27.0082 29.2169C27.0082 28.279 27.1655 28.1337 28.176 28.1337H28.7811L29.5738 27.22L30.3665 26.3124L30.1426 26.0401L29.9187 25.7738H28.6722C27.2926 25.7738 27.22 25.7557 27.0626 25.3745C26.9598 25.1385 26.9537 24.5092 27.0445 24.1824C27.0868 24.0251 27.1716 23.9162 27.2986 23.8375C27.4741 23.7286 27.6133 23.7165 28.7085 23.7165H29.9248L30.0095 23.5591C30.0518 23.4744 30.2455 23.2566 30.4331 23.0811L30.778 22.7664L30.3302 22.3187C29.8522 21.8467 29.6101 21.4413 29.5315 20.9935L29.483 20.7212L22.9358 20.6909L16.3886 20.6607L16.2252 20.4912L16.0558 20.3279L16.0376 18.9059C16.0195 17.7138 16.0316 17.4597 16.1163 17.3084C16.316 16.9151 15.8561 16.9393 23.6317 16.9393C30.5904 16.9393 30.7054 16.9393 30.899 17.0603C31.1531 17.2176 31.2136 17.3871 31.2136 17.9256V18.3613H31.6796C31.9398 18.3613 32.2484 18.3855 32.3633 18.4097C32.563 18.4581 32.5812 18.446 32.6901 18.2403C32.9261 17.7985 33.7672 17.1813 34.1363 17.1813C34.2452 17.1813 34.2513 17.1208 34.2271 16.1345L34.2089 15.0937L33.985 14.6217C33.6038 13.829 32.9866 13.3147 32.1395 13.0969C31.6251 12.9637 15.5596 12.9698 15.0634 13.1029ZM19.8619 23.777C20.1402 23.8799 20.2613 24.1703 20.2613 24.727C20.2613 25.2776 20.2129 25.4592 20.0132 25.6468C19.88 25.7678 19.8135 25.7738 18.4278 25.7738H16.9816L16.8061 25.5984C16.6367 25.4229 16.6306 25.4047 16.6306 24.7936C16.6367 24.1219 16.6911 23.9404 16.9392 23.8012C17.1147 23.7044 19.6198 23.6802 19.8619 23.777ZM25.1445 23.8375C25.3986 23.9888 25.4894 24.3216 25.4531 24.9509C25.4228 25.3987 25.4107 25.441 25.2292 25.6044L25.0416 25.7738H23.6135H22.1855L22.01 25.5984C21.8406 25.4229 21.8345 25.4047 21.8345 24.7754C21.8345 23.7165 21.8285 23.7225 23.6196 23.7165C24.8358 23.7165 24.969 23.7286 25.1445 23.8375ZM19.874 28.2245C20.1523 28.3395 20.2613 28.6057 20.2613 29.1927C20.2613 29.7857 20.1523 30.0459 19.8619 30.1669C19.6864 30.2395 19.396 30.2577 18.3128 30.2395L16.9816 30.2214L16.8061 30.0217C16.6367 29.8341 16.6306 29.8038 16.6306 29.1987C16.6306 28.6541 16.6488 28.5513 16.7577 28.4121C16.8303 28.3213 16.9453 28.2185 17.0179 28.1943C17.0845 28.164 17.7138 28.1398 18.4036 28.1398C19.3778 28.1337 19.7106 28.1519 19.874 28.2245ZM25.0295 28.2003C25.3562 28.3153 25.4349 28.5089 25.4349 29.1927C25.4349 29.8946 25.3502 30.0882 24.9871 30.1971C24.854 30.2335 24.2852 30.2516 23.4804 30.2395L22.1855 30.2214L22.01 30.0217C21.8406 29.8341 21.8345 29.8038 21.8345 29.1987C21.8345 28.6541 21.8527 28.5513 21.9616 28.4121C22.0342 28.3213 22.1492 28.2185 22.2218 28.1943C22.4094 28.1156 24.8056 28.1216 25.0295 28.2003ZM20.0555 32.7991C20.2189 32.9746 20.231 33.0109 20.2491 33.5676C20.2673 34.0759 20.2492 34.1848 20.1402 34.3542C20.0737 34.4631 19.9466 34.5781 19.8619 34.6084C19.7772 34.6447 19.1237 34.6689 18.4096 34.6689C16.6488 34.6689 16.6306 34.6568 16.6306 33.5736C16.6306 32.9806 16.6367 32.9625 16.8061 32.787L16.9816 32.6115H18.4278H19.874L20.0555 32.7991Z" fill="white"/>
<path d="M34.1902 18.1678C33.8937 18.2586 33.5427 18.6337 33.4277 18.9786C33.2281 19.5716 32.8831 19.7169 32.2901 19.4506C31.9815 19.3114 31.8666 19.2872 31.5882 19.3175C30.9347 19.3841 30.4688 19.9044 30.4688 20.564C30.4688 21.0239 30.5837 21.2236 31.2614 21.9134L31.8424 22.5064H34.6319H37.4214L38.0023 21.9134C38.6801 21.2175 38.8011 21.0239 38.8011 20.5701C38.8071 19.9165 38.3291 19.3841 37.6756 19.3175C37.3972 19.2872 37.2822 19.3114 36.9736 19.4506C36.3806 19.7169 36.0357 19.5716 35.8361 18.9786C35.6061 18.2949 34.8981 17.9379 34.1902 18.1678Z" fill="white"/>
<path d="M31.4867 23.5468C31.1842 23.6557 30.93 23.8796 30.7908 24.17C30.5064 24.757 30.7424 25.5073 31.3052 25.7978C31.5412 25.9248 31.6198 25.9248 34.6756 25.9248H37.798L38.0642 25.7433C38.4273 25.4831 38.5967 25.1624 38.5967 24.7267C38.5967 24.1519 38.2941 23.7223 37.7556 23.5407C37.4833 23.45 31.7469 23.456 31.4867 23.5468Z" fill="white"/>
<path d="M30.621 27.4863C28.9873 29.3622 27.7407 31.0807 27.0933 32.3514C25.6108 35.268 26.1433 38.4448 28.5032 40.6958C29.6408 41.785 31.208 42.5716 32.8478 42.8802C33.6466 43.0254 35.6131 43.0254 36.4058 42.8802C38.088 42.5655 39.5645 41.8334 40.7384 40.72C42.9349 38.6384 43.5703 35.8307 42.475 33.0049C41.9909 31.7463 40.6476 29.7978 38.7597 27.6255C38.0517 26.8086 38.0517 26.8086 37.8581 26.8691C37.5979 26.9417 31.6679 26.9417 31.4077 26.8691C31.214 26.8086 31.208 26.8147 30.621 27.4863ZM34.9899 29.8583C35.123 29.9794 35.1472 30.052 35.1472 30.3364V30.6631L35.4679 30.7721C35.9096 30.9173 36.2485 31.123 36.5692 31.4437C36.8476 31.7281 37.1441 32.2425 37.1441 32.4421C37.1441 32.666 36.9686 32.902 36.7507 32.9746C36.4845 33.0654 36.2606 32.9686 36.0791 32.6721C35.6979 32.073 35.3651 31.837 34.8084 31.7826C34.2093 31.7221 33.5558 32.0004 33.3682 32.3998C33.2169 32.7205 33.2411 33.1138 33.4287 33.3377C33.6647 33.616 33.9673 33.7431 34.8568 33.9428C36.1577 34.2333 36.781 34.6326 37.132 35.3829C37.368 35.8852 37.3619 36.5569 37.1259 37.0409C36.8294 37.646 36.2061 38.0696 35.3166 38.2632C35.1593 38.2996 35.1472 38.3238 35.1472 38.6203C35.1412 38.9531 35.0807 39.0801 34.8628 39.1951C34.6571 39.3101 34.4453 39.2798 34.2577 39.1225C34.1246 39.0075 34.0822 38.9107 34.058 38.6324L34.0278 38.2875L33.6526 38.1664C32.7086 37.882 31.8675 36.9139 31.9281 36.1877C31.9583 35.861 32.3335 35.6492 32.6844 35.7702C32.8176 35.8186 32.9023 35.9215 33.0294 36.2059C33.2169 36.6234 33.4953 36.9199 33.8341 37.0591C34.2033 37.2104 34.7599 37.2406 35.2017 37.1257C35.946 36.9381 36.2122 36.6476 36.1638 36.1091C36.1093 35.5584 35.6737 35.2559 34.6026 35.032C33.2472 34.7415 32.6602 34.3845 32.3093 33.6402C32.1822 33.368 32.1519 33.2227 32.1519 32.8234C32.158 31.8673 32.6844 31.1775 33.6647 30.8205L34.0278 30.6873L34.058 30.3424C34.0822 30.0641 34.1246 29.9673 34.2577 29.8523C34.4816 29.6587 34.7781 29.6587 34.9899 29.8583Z" fill="white"/>
</g>
<defs>
<clipPath id="clip0_1093_1128">
<rect width="30" height="30" fill="white" transform="translate(13 13)"/>
</clipPath>
</defs>
</svg>
