<svg width="41" height="38" viewBox="0 0 41 38" fill="none" xmlns="http://www.w3.org/2000/svg">
<path d="M20.5635 0L19.2188 0.870572C19.2188 0.870572 14.4217 3.82928 9.67395 8.13257C4.9241 12.4343 0 18.1101 0 24.0585C0 28.3432 2.32265 31.9122 6.08645 34.321C9.61655 36.578 14.3418 37.8002 19.475 37.952C19.8194 37.9644 20.1556 38 20.5 38C20.8444 38 21.1806 37.9644 21.525 37.952C26.6582 37.8002 31.3834 36.578 34.9136 34.321C38.6773 31.9122 41 28.3416 41 24.0585C41 18.7034 36.0513 13.1236 31.326 8.6639C26.6028 4.2057 21.9104 0.918592 21.9104 0.918592L20.5635 0ZM20.4385 4.30794C21.5045 5.07007 24.2986 6.98316 28.126 10.6018C32.6237 14.8555 36.9 20.2772 36.9 24.0585C36.9 27.5191 35.1227 30.1463 32.2239 31.9974C31.5187 32.4466 30.75 32.8571 29.9177 33.2072C30.422 32.2933 30.75 31.3019 30.75 30.2547C30.75 20.5731 23.8948 14.6665 23.8948 14.6665L20.1802 11.5219L20.3073 15.7323C20.3073 15.7323 20.3155 17.7042 19.9875 19.6049C19.8194 20.5545 19.5877 21.4994 19.2823 22.0261C19.1941 22.1763 19.1552 22.1949 19.0896 22.2677C18.5353 22.0866 18.0348 21.8233 17.6177 21.4932C16.9289 20.9603 16.4636 20.4275 16.4636 20.4275L14.4771 18.1039L12.9396 20.6211C12.9396 20.6211 10.25 24.7664 10.25 30.2547C10.25 31.3019 10.578 32.2933 11.0823 33.2072C10.2631 32.8619 9.49062 32.4567 8.77605 31.9974C5.87735 30.1463 4.1 27.5206 4.1 24.0585C4.1 19.4779 8.4009 14.177 12.876 10.1169C16.6726 6.67955 19.3622 4.99727 20.4364 4.30794H20.4385ZM23.8968 20.6211C25.297 22.9214 26.65 26.1342 26.65 30.2547C26.65 31.4872 26.0021 32.6692 24.8487 33.5408C23.6954 34.4123 22.1311 34.9019 20.5 34.9019C18.8689 34.9019 17.3046 34.4123 16.1513 33.5408C14.9979 32.6692 14.35 31.4872 14.35 30.2547C14.35 27.7855 14.9834 25.6989 15.5677 24.2041C16.4881 24.8268 17.6177 25.4619 19.2823 25.4619C20.2601 25.4619 21.1888 25.1242 21.7812 24.6874C22.3757 24.2521 22.7099 23.7378 22.9989 23.2359C23.4622 22.418 23.7041 21.5103 23.8968 20.6211Z" fill="#5A9BD5"/>
</svg>
