<svg width="41" height="42" viewBox="0 0 41 42" fill="none" xmlns="http://www.w3.org/2000/svg">
<path d="M6.90538 0.439045C3.63737 1.0252 1.07595 3.40194 0.208767 6.63783C0.0240885 7.32034 0 7.56925 0 8.70141C0 9.8416 0.0240885 10.0745 0.208767 10.7891C0.441623 11.6482 0.883246 12.6439 1.35699 13.3826C1.53364 13.6556 3.09136 15.2776 5.15495 17.3572L8.64778 20.8661L5.15495 24.3831C3.09136 26.4547 1.53364 28.0766 1.35699 28.3496C0.883246 29.0883 0.441623 30.084 0.208767 30.9432C0.0240885 31.6578 0 31.8906 0 33.0308C0 34.163 0.0240885 34.4119 0.208767 35.0944C1.16428 38.6676 4.22352 41.1808 7.86892 41.3976C9.67556 41.502 11.3778 41.0443 13.0319 40.0005C13.2969 39.8318 14.8707 38.3303 16.9824 36.2186L20.4993 32.7177L24.0163 36.2105C26.0879 38.2741 27.7098 39.8318 27.9828 40.0085C28.7216 40.4822 29.7172 40.9238 30.5764 41.1567C31.291 41.3414 31.5239 41.3655 32.6641 41.3655C33.8042 41.3655 34.0371 41.3414 34.7517 41.1567C37.7226 40.3538 39.995 38.0814 40.7899 35.0944C40.9746 34.4119 40.9987 34.155 40.9987 33.0308C41.0067 31.8906 40.9826 31.6578 40.7899 30.9432C40.5571 30.084 40.1154 29.0883 39.6417 28.3496C39.4651 28.0766 37.9073 26.4547 35.8437 24.3831L32.3509 20.8661L35.8437 17.3572C37.9073 15.2776 39.4651 13.6556 39.6417 13.3826C40.1154 12.6439 40.5571 11.6482 40.7899 10.7891C40.9826 10.0745 41.0067 9.8416 40.9987 8.70141C40.9987 7.56925 40.9746 7.32034 40.7899 6.61374C39.995 3.64282 37.7226 1.3785 34.7276 0.575547C34.0451 0.390868 33.7962 0.366779 32.6641 0.366779C31.5239 0.366779 31.291 0.390868 30.5764 0.575547C29.7172 0.808403 28.7216 1.25003 27.9828 1.72377C27.7098 1.90042 26.0879 3.45814 24.0082 5.52173L20.4993 9.02259L16.9824 5.52173C15.0553 3.59464 13.3129 1.90845 13.1122 1.77997C11.2975 0.567517 8.96897 0.0616579 6.90538 0.439045ZM9.72374 2.75957C10.3581 2.91214 11.0968 3.21726 11.6589 3.57858C12.1165 3.85962 18.8131 10.4679 18.8131 10.6285C18.8131 10.7329 10.3661 19.1799 10.2617 19.1799C10.2135 19.1799 8.65581 17.6543 6.801 15.7834C3.25998 12.2424 3.11545 12.0577 2.64974 10.9095C2.32856 10.0985 2.24826 9.49634 2.29644 8.39629C2.35265 6.96704 2.77018 5.89108 3.66949 4.79104C4.52062 3.76326 5.99002 2.90411 7.25065 2.69534C7.75651 2.60701 9.25803 2.64716 9.72374 2.75957ZM34.013 2.7676C34.7919 2.93622 35.924 3.49829 36.5664 4.02824C37.538 4.83922 38.3249 6.11591 38.5979 7.35246C38.7825 8.16344 38.7665 9.44013 38.5657 10.211C38.3971 10.9015 37.9635 11.8088 37.5621 12.3548C37.4095 12.5556 36.2532 13.752 34.9766 15.0206L32.6641 17.3331L28.3442 13.0133L24.0323 8.70141L26.4572 6.2765C27.8624 4.8874 29.0749 3.73917 29.3398 3.57858C29.8858 3.23332 30.6406 2.91214 31.2428 2.75957C31.8772 2.60701 33.3064 2.60701 34.013 2.7676ZM24.8192 25.178L18.6124 31.3848L14.3006 27.0729L9.98068 22.7531L16.1795 16.5543L22.3863 10.3475L26.6981 14.6593L31.018 18.9792L24.8192 25.178ZM34.1575 25.9006C35.9963 27.7474 37.5701 29.3694 37.6664 29.5059C38.0037 29.9957 38.4132 30.9191 38.5657 31.5213C38.7665 32.2921 38.7825 33.5688 38.5979 34.3798C38.2044 36.1543 36.9759 37.688 35.3138 38.4909C34.4065 38.9325 33.6677 39.0931 32.5998 39.0931C31.3633 39.0931 30.1508 38.7238 29.1391 38.0332C28.8099 37.8084 22.1855 31.2081 22.1855 31.1038C22.1855 30.9994 30.6326 22.5523 30.737 22.5523C30.7851 22.5523 32.3188 24.0619 34.1575 25.9006ZM14.694 35.3032C12.2209 37.7843 11.9078 38.0573 11.0406 38.4909C9.86827 39.0771 8.31055 39.2617 6.98568 38.9646C4.898 38.4989 3.2118 36.9332 2.49718 34.7973C2.33659 34.3075 2.3125 34.0827 2.3125 32.9907C2.3125 31.8344 2.32856 31.6979 2.53733 31.1038C2.97895 29.8431 3.2118 29.546 5.8776 26.8642L8.33463 24.3991L12.6465 28.711L16.9664 33.0308L14.694 35.3032Z" fill="#5A9BD5"/>
<path d="M21.8631 14.1853C21.4857 14.386 21.1806 14.9721 21.2529 15.3656C21.3733 15.9999 22.0719 16.4576 22.6741 16.289C23.6858 16.008 23.8223 14.6188 22.8748 14.1692C22.5215 14.0006 22.2084 14.0086 21.8631 14.1853Z" fill="#5A9BD5"/>
<path d="M18.1083 17.9746C17.8434 18.0951 17.7309 18.2075 17.6105 18.4724C17.4098 18.9141 17.4098 19.0506 17.6185 19.4681C17.7791 19.8134 18.2689 20.1426 18.6142 20.1426C18.9595 20.1426 19.4493 19.8134 19.6099 19.4681C19.8186 19.0425 19.8186 18.9141 19.6099 18.4724C19.4814 18.2075 19.3529 18.079 19.104 17.9666C18.6865 17.7819 18.5339 17.7819 18.1083 17.9746Z" fill="#5A9BD5"/>
<path d="M25.7492 17.9269C24.9542 18.2883 24.7937 19.2438 25.436 19.8139C25.8134 20.1431 26.1667 20.1993 26.6244 19.9986C27.2266 19.7336 27.4755 19.0752 27.1945 18.489C26.9375 17.951 26.2711 17.6941 25.7492 17.9269Z" fill="#5A9BD5"/>
<path d="M14.3568 21.7325C13.6101 22.0778 13.4575 22.969 14.0356 23.5472C14.7583 24.2698 15.9466 23.764 15.9466 22.7362C15.9466 21.9252 15.0955 21.3872 14.3568 21.7325Z" fill="#5A9BD5"/>
<path d="M21.8891 21.7573C21.5519 21.926 21.2227 22.4158 21.2227 22.753C21.2227 23.0983 21.5519 23.5881 21.8971 23.7487C22.3147 23.9574 22.4512 23.9574 22.8928 23.7567C23.1578 23.6362 23.2702 23.5238 23.3906 23.2589C23.5914 22.8172 23.5914 22.6807 23.3826 22.2471C23.2541 21.9822 23.1257 21.8537 22.8767 21.7413C22.4512 21.5486 22.2986 21.5486 21.8891 21.7573Z" fill="#5A9BD5"/>
<path d="M18.2844 25.4509C17.7786 25.5954 17.3771 26.2377 17.4815 26.7436C17.5457 27.0808 17.8026 27.4101 18.1238 27.5626C18.4852 27.7312 18.7582 27.7232 19.1436 27.5225C19.5531 27.3217 19.8181 26.7838 19.7378 26.3582C19.6735 25.9888 19.2721 25.5472 18.9107 25.4428C18.5735 25.3545 18.6136 25.3545 18.2844 25.4509Z" fill="#5A9BD5"/>
</svg>
