<svg width="85" height="78" viewBox="0 0 85 78" fill="none" xmlns="http://www.w3.org/2000/svg">
<path d="M41.8578 0.589613C40.2619 2.26207 39.6721 4.8902 40.4007 7.08829C40.7476 8.13954 42.1181 10.1465 42.4823 10.1465C42.7078 10.1465 43.6099 9.0793 44.1129 8.18733C45.4834 5.82996 44.9803 2.23021 43.0548 0.557756L42.4129 0.000272751L41.8578 0.589613Z" fill="white"/>
<path d="M25.7781 4.36385C25.5179 4.95319 25.4658 6.59378 25.6566 7.46983C25.9689 8.83965 26.7668 10.1617 27.8423 11.0855C28.8138 11.9297 30.8607 12.9491 31.2944 12.8057C31.8321 12.6146 31.9015 10.1776 31.4332 8.76001C30.826 7.00791 29.3862 5.39917 27.7036 4.66648C26.3852 4.07714 25.9168 4.01343 25.7781 4.36385Z" fill="white"/>
<path d="M57.9222 4.3957C55.8579 5.14432 54.1752 6.84863 53.5334 8.85558C53.0824 10.2413 53.2038 12.6305 53.7069 12.8057C54.1406 12.9491 56.1875 11.9297 57.1589 11.0855C58.7722 9.68384 59.6395 7.58133 59.4487 5.60624C59.2752 3.96564 59.2406 3.91786 57.9222 4.3957Z" fill="white"/>
<path d="M14.3112 15.0688C13.8949 15.1485 13.8082 15.244 13.8429 15.5626C13.999 16.8687 15.7337 18.9712 17.3122 19.7517C18.9255 20.564 21.1286 20.8667 22.6031 20.4844C23.3837 20.2933 23.401 20.134 22.7245 18.8119C21.7878 17.028 19.9837 15.6582 17.9367 15.1644C16.9133 14.9255 15.248 14.8777 14.3112 15.0688Z" fill="white"/>
<path d="M67.0455 15.1644C65.016 15.6741 63.1945 17.0598 62.2751 18.8119C61.5986 20.134 61.616 20.2933 62.4139 20.4844C63.8711 20.8667 66.0741 20.564 67.6874 19.7517C69.266 18.9712 71.0006 16.8687 71.1568 15.5626C71.1915 15.244 71.1047 15.1485 70.6884 15.0688C69.8037 14.8936 67.9476 14.9414 67.0455 15.1644Z" fill="white"/>
<path d="M40.5051 15.2428C34.6939 16.071 30.1317 19.8301 28.6051 25.0386C28.0847 26.8225 28.0847 29.7851 28.6051 31.5691C29.299 33.9583 30.3051 35.5671 32.4562 37.7333C33.1674 38.4341 33.948 39.3102 34.2256 39.6765C34.7807 40.4411 35.3878 42.1135 35.3878 42.894V43.4355H38.3368C40.9388 43.4355 41.3031 43.4037 41.4072 43.1648C41.546 42.8303 41.2164 39.6128 40.8347 37.8129L40.5572 36.4272H39.9154C37.3307 36.4112 34.1562 34.4521 32.9592 32.0947C31.9184 30.0559 31.8664 28.1764 32.7684 25.6916C33.497 23.6688 33.6358 23.621 35.648 24.8634C36.4113 25.3253 37.6429 25.9465 38.3888 26.2332C39.1347 26.5199 40.1235 27.0296 40.5919 27.3641C41.0603 27.7145 41.4766 27.9853 41.5113 27.9853C41.546 27.9853 41.6674 27.6826 41.7888 27.3004C42.2572 25.8668 43.4541 24.5448 45.2756 23.4458C45.9 23.0794 46.9235 22.3308 47.5654 21.8052C48.5368 20.9928 48.8143 20.8495 49.1266 20.945C49.699 21.1203 51.1041 23.7802 51.3296 25.1182C51.9888 28.8932 49.0572 32.4611 44.9286 32.9071L43.9745 33.0026L43.8531 33.799C43.7837 34.2291 43.5582 34.9299 43.35 35.3441L42.9684 36.0927L43.3327 38.0518C43.5409 39.135 43.749 40.7756 43.8184 41.7153L43.9398 43.4355H46.7674H49.6123V42.8303C49.6123 42.0976 50.15 40.6163 50.6878 39.8039C50.896 39.4854 51.6419 38.6571 52.3531 37.9403C55.5796 34.7229 56.7766 32.1107 56.7766 28.3038C56.7766 26.0739 56.4296 24.5448 55.5103 22.7768C54.1225 20.0531 51.4858 17.632 48.5194 16.3418C46.2643 15.3861 42.847 14.9083 40.5051 15.2428Z" fill="white"/>
<path d="M47.1843 24.9115C46.5598 25.3097 45.8139 25.7875 45.5363 25.9946C44.4608 26.7273 43.6108 28.8298 43.8363 30.1199C43.923 30.6615 43.9751 30.6934 44.5649 30.6934C45.3802 30.6934 46.7853 30.0881 47.5139 29.4032C48.3639 28.6227 48.971 27.3166 48.9884 26.2494C48.9884 25.3734 48.6588 24.1469 48.4333 24.1788C48.3639 24.1947 47.8088 24.5132 47.1843 24.9115Z" fill="white"/>
<path d="M34.6073 28.049C34.1736 31.2506 36.9491 34.1973 40.4185 34.1973H41.4593V33.3212C41.4593 31.0754 39.8113 29.1481 37.0011 28.0809C36.1164 27.7464 35.3532 27.4119 35.2838 27.3322C35.2318 27.2526 35.093 27.1889 34.9542 27.1889C34.7981 27.1889 34.6766 27.4756 34.6073 28.049Z" fill="white"/>
<path d="M12.4548 28.607C11.2752 28.9574 10.4946 29.3875 9.80068 30.0565L9.28027 30.5662L9.9568 31.1077C11.5701 32.3979 13.8425 32.9713 15.9588 32.6368C17.2772 32.4297 18.8037 31.7926 19.7752 31.0281L20.3823 30.5502L19.8619 30.0565C19.5844 29.7857 18.769 29.2919 18.0578 28.9733C16.8956 28.4477 16.6354 28.384 15.1088 28.3521C13.8425 28.3203 13.2007 28.3681 12.4548 28.607Z" fill="white"/>
<path d="M67.9131 28.5752C66.7856 28.9575 65.606 29.5946 65.0509 30.1361L64.6172 30.5662L65.2243 31.0122C68.1733 33.2581 72.3539 33.2899 75.0427 31.0918L75.7192 30.5343L74.8866 29.8335C73.7417 28.846 72.4754 28.4318 70.4284 28.3522C69.1621 28.3044 68.5723 28.3681 67.9131 28.5752Z" fill="white"/>
<path d="M0 41.6998C0 44.6306 0.121429 45.0925 0.971429 45.5066C1.17959 45.6181 2.72347 45.9686 4.42347 46.2871L7.49388 46.8605L9.00306 50.2054C9.83571 52.0372 10.7724 54.1397 11.102 54.8564L11.6745 56.1625L9.9398 58.5996C8.96837 59.9375 8.13571 61.1958 8.06633 61.4029C7.80612 62.1993 8.27449 62.7568 12.5418 66.6433C16.9133 70.6412 17.2602 70.8801 18.2663 70.5297C18.5092 70.4501 19.8449 69.6855 21.2153 68.8413C23.0714 67.6945 23.8173 67.3282 24.0776 67.3919C24.2684 67.4556 26.5582 68.3157 29.1776 69.3192L33.9133 71.1191L34.5378 73.9383C34.8847 75.4993 35.2663 76.9169 35.3878 77.108C35.8908 77.9681 36.099 78 42.4133 78C48.7276 78 49.1265 77.9522 49.6122 77.1399C49.7337 76.9328 50.1153 75.4993 50.4622 73.9383L51.0867 71.1191L56.1 69.2236C58.8582 68.1723 61.2173 67.3441 61.3388 67.3919C61.4602 67.4397 62.6225 68.1246 63.9235 68.921C65.2071 69.7174 66.4735 70.4341 66.7337 70.5297C67.7398 70.8801 68.0694 70.6571 72.4582 66.6433C76.7255 62.7568 77.1939 62.1993 76.9337 61.4029C76.8643 61.1958 76.0316 59.9375 75.0602 58.5996L73.3255 56.1625L73.898 54.8564C74.2276 54.1397 75.1643 52.0372 75.9969 50.2054L77.5061 46.8605L80.5592 46.2871C82.2418 45.9686 83.8031 45.6181 84.0459 45.5066C84.8439 45.1084 85 44.5032 85 41.6202V38.9761H74.6959H64.3918L64.2878 40.0433C63.6459 46.7331 60.1939 52.2124 54.4347 55.7006C44.4776 61.7215 30.9816 59.173 24.3551 50.0462C22.2214 47.0676 21.1286 44.1209 20.7296 40.0433L20.6082 38.9761H10.3041H0V41.6998Z" fill="white"/>
<path d="M35.3877 46.9718C35.3877 48.4531 35.6652 49.1699 36.4806 49.7114C36.9489 50.03 37.1918 50.0459 42.4999 50.0459C47.8081 50.0459 48.051 50.03 48.5193 49.7114C49.3346 49.1699 49.6122 48.4531 49.6122 46.9718V45.6657H42.4999H35.3877V46.9718Z" fill="white"/>
<path d="M38.5098 53.0721C38.5098 54.0118 38.8394 54.7286 39.5332 55.2701C40.0883 55.6843 40.1404 55.7002 42.4996 55.7002C44.8587 55.7002 44.9108 55.6843 45.4659 55.2701C46.1598 54.7286 46.4894 54.0118 46.4894 53.0721V52.3553H42.4996H38.5098V53.0721Z" fill="white"/>
</svg>
