<svg width="44" height="49" viewBox="0 0 44 49" fill="none" xmlns="http://www.w3.org/2000/svg">
<path d="M21.9855 0.00106093C22.7537 0.00106093 23.5102 0.0531973 24.214 0.175871C24.9073 0.269284 25.5912 0.427345 26.2577 0.648165C26.9223 0.85671 27.581 1.12557 28.2339 1.45474C28.8702 1.77063 29.524 2.15705 30.1779 2.57721C31.2833 3.31325 32.3712 3.90822 33.4795 4.38358C35.6609 5.29885 37.9684 5.84244 40.3143 5.99367C41.5008 6.08568 42.7294 6.1327 44 6.13475V18.4021C44 20.7309 43.7156 22.9451 43.1467 25.0449C42.6002 27.1187 41.8238 29.1186 40.8333 31.0038C39.847 32.8864 38.6799 34.659 37.3499 36.2941C36.0004 37.9671 34.5384 39.5372 32.9752 40.9925C31.3899 42.4502 29.7224 43.8072 27.9817 45.056C26.2381 46.3237 24.4847 47.4921 22.7215 48.5614L22.0178 49L21.3141 48.5614C19.5054 47.4665 17.7389 46.2971 16.0186 45.056C14.2686 43.8206 12.6004 42.463 11.0252 40.9925C9.46296 39.5371 8.00198 37.967 6.6534 36.2941C5.32793 34.6513 4.15561 32.8798 3.15243 31.0038C2.17972 29.1097 1.40413 27.112 0.838971 25.0449C0.27032 22.8812 -0.0118413 20.6461 0.000380635 18.4021V6.13475C1.27097 6.1327 2.50051 6.08568 3.68901 5.99367C4.86105 5.91034 6.02545 5.73504 7.17238 5.46924C8.29539 5.20549 9.4184 4.85587 10.5238 4.38358C11.6706 3.89873 12.7703 3.3 13.8078 2.59561C15.0979 1.71849 16.4057 1.07139 17.6958 0.645098C19.0854 0.200067 20.5324 -0.0171872 21.9855 0.00106093ZM41.0503 9.14945C38.8308 9.03583 36.6321 8.64773 34.4999 7.99325C32.3798 7.33004 30.36 6.35638 28.5007 5.10122C27.5361 4.44064 26.4893 3.9216 25.3897 3.5586C24.2907 3.21192 23.1481 3.0403 22.0002 3.0495C20.8438 3.04213 19.6927 3.21368 18.5843 3.5586C17.4834 3.91078 16.4381 4.43056 15.4821 5.10122C13.6189 6.36197 11.5941 7.33982 9.46824 8.00552C7.39034 8.63729 5.21176 9.02371 2.93252 9.16478V18.4174C2.93252 20.4477 3.18468 22.3982 3.68901 24.269C4.20324 26.1264 4.91121 27.919 5.80014 29.6145C6.70009 31.3275 7.7609 32.9425 8.96685 34.4356C10.1896 35.9414 11.4944 37.3429 12.9018 38.6739C14.3092 40.0049 15.7841 41.2378 17.3264 42.3726C18.8843 43.5093 20.4422 44.549 22.0002 45.4915C23.5952 44.522 25.1497 43.4814 26.6594 42.3726C28.2137 41.2409 29.6965 40.0055 31.0986 38.6739C32.506 37.3429 33.8138 35.9414 35.0365 34.4356C36.2424 32.9425 37.3032 31.3275 38.2032 29.6145C39.0876 27.9208 39.7851 26.1275 40.2821 24.269C40.8022 22.3665 41.0609 20.3962 41.0503 18.4174V9.14945Z" fill="white"/>
<path fill-rule="evenodd" clip-rule="evenodd" d="M32.9161 14.4425L31.626 13.2832L30.4355 13.3905L17.6514 29.1786L13.2972 22.6769L12.1243 22.4684L10.7668 23.4835L10.5645 24.7103L16.1619 33.0705L16.7982 33.4385L18.1382 33.5244L18.8243 33.2115L33.0012 15.6845L32.9161 14.4425Z" fill="white"/>
</svg>
