<svg width="44" height="49" viewBox="0 0 44 49" fill="none" xmlns="http://www.w3.org/2000/svg">
<path d="M12.5714 44.2793V22.7073H15.9238C16.1683 22.7073 16.4127 22.7372 16.6571 22.797C16.9016 22.8567 17.146 22.9264 17.3905 23.0061L31.9 29.161C32.3889 29.3602 32.7817 29.7187 33.0786 30.2366C33.3754 30.7545 33.5238 31.2923 33.5238 31.85C33.5238 32.6866 33.2706 33.3638 32.7643 33.8817C32.2579 34.3996 31.673 34.6585 31.0095 34.6585H25.5095C25.3349 34.6585 25.204 34.6486 25.1167 34.6287C25.0294 34.6087 24.9159 34.5589 24.7762 34.4793L21.4238 32.9854L20.7429 35.3159L24.7762 36.9293C24.846 36.9691 24.9508 36.999 25.0905 37.0189C25.2302 37.0388 25.3524 37.0488 25.4571 37.0488H39.8095C40.927 37.0488 41.9048 37.5069 42.7429 38.4232C43.581 39.3394 44 40.4748 44 41.8293L27.2905 49L12.5714 44.2793ZM0 49V22.7073H8.38095V49H0ZM28.2857 15.5366H30.381V13.1463H28.2857V15.5366ZM24.0952 15.5366H26.1905V13.1463H24.0952V15.5366ZM28.2857 20.3171H30.381V17.9268H28.2857V20.3171ZM24.0952 20.3171H26.1905V17.9268H24.0952V20.3171ZM36.719 29.878C36.2302 28.5634 35.5317 27.4081 34.6238 26.4122C33.7159 25.4163 32.5984 24.6394 31.2714 24.0817L16.7619 17.9268H12.5714V11.9512L27.2381 0L41.9048 11.9512V29.878H36.719Z" fill="white"/>
</svg>
