<svg width="758" height="235" viewBox="0 0 758 235" fill="none" xmlns="http://www.w3.org/2000/svg">
<rect x="7" y="7" width="744" height="221" rx="110.5" fill="url(#paint0_linear_377_505)" stroke="url(#paint1_linear_377_505)" stroke-width="14"/>
<circle cx="635" cy="114" r="85" fill="url(#paint2_linear_377_505)"/>
<path d="M676.97 73.1508C671.901 68.0121 665.865 63.9376 659.212 61.1648C652.56 58.392 645.424 56.9763 638.221 57.0003C608.04 57.0003 583.442 81.6977 583.442 112.001C583.442 121.713 585.985 131.148 590.739 139.473L583 168L612.02 160.341C620.035 164.726 629.045 167.057 638.221 167.057C668.402 167.057 693 142.359 693 112.056C693 97.3487 687.307 83.5292 676.97 73.1508ZM638.221 157.733C630.04 157.733 622.025 155.513 615.005 151.35L613.347 150.351L596.101 154.902L600.688 138.03L599.583 136.31C595.037 129.023 592.623 120.599 592.618 112.001C592.618 86.8037 613.07 66.2688 638.166 66.2688C650.327 66.2688 661.769 71.0418 670.337 79.6997C674.58 83.9392 677.942 88.9823 680.229 94.5367C682.516 100.091 683.681 106.046 683.658 112.056C683.769 137.253 663.317 157.733 638.221 157.733ZM663.206 123.545C661.824 122.879 655.08 119.549 653.864 119.049C652.593 118.605 651.709 118.383 650.769 119.715C649.829 121.103 647.231 124.211 646.457 125.099C645.683 126.042 644.854 126.153 643.472 125.432C642.09 124.766 637.668 123.267 632.472 118.605C628.382 114.942 625.673 110.447 624.844 109.059C624.07 107.672 624.734 106.95 625.452 106.229C626.06 105.618 626.834 104.619 627.497 103.842C628.161 103.065 628.437 102.455 628.879 101.567C629.322 100.623 629.1 99.8462 628.769 99.1802C628.437 98.5142 625.673 91.7432 624.568 88.9682C623.462 86.3042 622.302 86.6372 621.472 86.5817H618.819C617.879 86.5817 616.442 86.9147 615.171 88.3022C613.955 89.6897 610.417 93.0197 610.417 99.7907C610.417 106.562 615.337 113.111 616 113.999C616.663 114.942 625.673 128.817 639.382 134.756C642.643 136.199 645.186 137.031 647.176 137.642C650.437 138.696 653.422 138.53 655.799 138.197C658.452 137.808 663.925 134.867 665.03 131.648C666.191 128.429 666.191 125.709 665.804 125.099C665.417 124.488 664.588 124.211 663.206 123.545Z" fill="white"/>
<rect x="17.5" y="15.5" width="723" height="200" rx="96.5" stroke="url(#paint3_linear_377_505)" stroke-width="7"/>
<path d="M137.13 137L120.89 88H130.34L144.83 132.31H140.14L155.19 88H163.59L178.22 132.31H173.67L188.51 88H197.19L180.95 137H171.29L157.92 97.03H160.44L146.86 137H137.13ZM225.999 99.2C228.985 99.2 231.645 99.7833 233.979 100.95C236.359 102.117 238.225 103.913 239.579 106.34C240.932 108.72 241.609 111.8 241.609 115.58V137H232.859V116.7C232.859 113.387 232.065 110.913 230.479 109.28C228.939 107.647 226.769 106.83 223.969 106.83C221.915 106.83 220.095 107.25 218.509 108.09C216.922 108.93 215.685 110.19 214.799 111.87C213.959 113.503 213.539 115.58 213.539 118.1V137H204.789V85.06H213.539V109.7L211.649 106.62C212.955 104.24 214.845 102.42 217.319 101.16C219.839 99.8533 222.732 99.2 225.999 99.2ZM275.739 137V129.44L275.249 127.83V114.6C275.249 112.033 274.479 110.05 272.939 108.65C271.399 107.203 269.065 106.48 265.939 106.48C263.839 106.48 261.762 106.807 259.709 107.46C257.702 108.113 255.999 109.023 254.599 110.19L251.169 103.82C253.175 102.28 255.555 101.137 258.309 100.39C261.109 99.5967 264.002 99.2 266.989 99.2C272.402 99.2 276.579 100.507 279.519 103.12C282.505 105.687 283.999 109.677 283.999 115.09V137H275.739ZM263.979 137.49C261.179 137.49 258.729 137.023 256.629 136.09C254.529 135.11 252.895 133.78 251.729 132.1C250.609 130.373 250.049 128.437 250.049 126.29C250.049 124.19 250.539 122.3 251.519 120.62C252.545 118.94 254.202 117.61 256.489 116.63C258.775 115.65 261.809 115.16 265.589 115.16H276.439V120.97H266.219C263.232 120.97 261.225 121.46 260.199 122.44C259.172 123.373 258.659 124.54 258.659 125.94C258.659 127.527 259.289 128.787 260.549 129.72C261.809 130.653 263.559 131.12 265.799 131.12C267.945 131.12 269.859 130.63 271.539 129.65C273.265 128.67 274.502 127.223 275.249 125.31L276.719 130.56C275.879 132.753 274.362 134.457 272.169 135.67C270.022 136.883 267.292 137.49 263.979 137.49ZM309.298 137.49C305.192 137.49 302.018 136.44 299.778 134.34C297.538 132.193 296.418 129.043 296.418 124.89V91.36H305.168V124.68C305.168 126.453 305.612 127.83 306.498 128.81C307.432 129.79 308.715 130.28 310.348 130.28C312.308 130.28 313.942 129.767 315.248 128.74L317.698 134.97C316.672 135.81 315.412 136.44 313.918 136.86C312.425 137.28 310.885 137.49 309.298 137.49ZM290.258 106.9V99.9H315.178V106.9H290.258ZM336.446 137.49C333.32 137.49 330.31 137.093 327.416 136.3C324.57 135.46 322.306 134.457 320.626 133.29L323.986 126.64C325.666 127.713 327.673 128.6 330.006 129.3C332.34 130 334.673 130.35 337.006 130.35C339.76 130.35 341.743 129.977 342.956 129.23C344.216 128.483 344.846 127.48 344.846 126.22C344.846 125.193 344.426 124.423 343.586 123.91C342.746 123.35 341.65 122.93 340.296 122.65C338.943 122.37 337.426 122.113 335.746 121.88C334.113 121.647 332.456 121.343 330.776 120.97C329.143 120.55 327.65 119.967 326.296 119.22C324.943 118.427 323.846 117.377 323.006 116.07C322.166 114.763 321.746 113.037 321.746 110.89C321.746 108.51 322.423 106.457 323.776 104.73C325.13 102.957 327.02 101.603 329.446 100.67C331.92 99.69 334.836 99.2 338.196 99.2C340.716 99.2 343.26 99.48 345.826 100.04C348.393 100.6 350.516 101.393 352.196 102.42L348.836 109.07C347.063 107.997 345.266 107.273 343.446 106.9C341.673 106.48 339.9 106.27 338.126 106.27C335.466 106.27 333.483 106.667 332.176 107.46C330.916 108.253 330.286 109.257 330.286 110.47C330.286 111.59 330.706 112.43 331.546 112.99C332.386 113.55 333.483 113.993 334.836 114.32C336.19 114.647 337.683 114.927 339.316 115.16C340.996 115.347 342.653 115.65 344.286 116.07C345.92 116.49 347.413 117.073 348.766 117.82C350.166 118.52 351.286 119.523 352.126 120.83C352.966 122.137 353.386 123.84 353.386 125.94C353.386 128.273 352.686 130.303 351.286 132.03C349.933 133.757 347.996 135.11 345.476 136.09C342.956 137.023 339.946 137.49 336.446 137.49ZM354.832 137L376.882 88H385.842L407.962 137H398.442L379.472 92.83H383.112L364.212 137H354.832ZM364.982 125.66L367.432 118.52H393.892L396.342 125.66H364.982ZM434.073 137.49C431.04 137.49 428.263 136.79 425.743 135.39C423.27 133.99 421.287 131.89 419.793 129.09C418.347 126.243 417.623 122.65 417.623 118.31C417.623 113.923 418.323 110.33 419.723 107.53C421.17 104.73 423.13 102.653 425.603 101.3C428.077 99.9 430.9 99.2 434.073 99.2C437.76 99.2 441.003 99.9933 443.803 101.58C446.65 103.167 448.89 105.383 450.523 108.23C452.203 111.077 453.043 114.437 453.043 118.31C453.043 122.183 452.203 125.567 450.523 128.46C448.89 131.307 446.65 133.523 443.803 135.11C441.003 136.697 437.76 137.49 434.073 137.49ZM413.353 150.58V99.62H421.683V108.44L421.403 118.38L422.103 128.32V150.58H413.353ZM433.093 130C435.193 130 437.06 129.533 438.693 128.6C440.373 127.667 441.703 126.313 442.683 124.54C443.663 122.767 444.153 120.69 444.153 118.31C444.153 115.883 443.663 113.807 442.683 112.08C441.703 110.307 440.373 108.953 438.693 108.02C437.06 107.087 435.193 106.62 433.093 106.62C430.993 106.62 429.103 107.087 427.423 108.02C425.743 108.953 424.413 110.307 423.433 112.08C422.453 113.807 421.963 115.883 421.963 118.31C421.963 120.69 422.453 122.767 423.433 124.54C424.413 126.313 425.743 127.667 427.423 128.6C429.103 129.533 430.993 130 433.093 130ZM482.062 137.49C479.028 137.49 476.252 136.79 473.732 135.39C471.258 133.99 469.275 131.89 467.782 129.09C466.335 126.243 465.612 122.65 465.612 118.31C465.612 113.923 466.312 110.33 467.712 107.53C469.158 104.73 471.118 102.653 473.592 101.3C476.065 99.9 478.888 99.2 482.062 99.2C485.748 99.2 488.992 99.9933 491.792 101.58C494.638 103.167 496.878 105.383 498.512 108.23C500.192 111.077 501.032 114.437 501.032 118.31C501.032 122.183 500.192 125.567 498.512 128.46C496.878 131.307 494.638 133.523 491.792 135.11C488.992 136.697 485.748 137.49 482.062 137.49ZM461.342 150.58V99.62H469.672V108.44L469.392 118.38L470.092 128.32V150.58H461.342ZM481.082 130C483.182 130 485.048 129.533 486.682 128.6C488.362 127.667 489.692 126.313 490.672 124.54C491.652 122.767 492.142 120.69 492.142 118.31C492.142 115.883 491.652 113.807 490.672 112.08C489.692 110.307 488.362 108.953 486.682 108.02C485.048 107.087 483.182 106.62 481.082 106.62C478.982 106.62 477.092 107.087 475.412 108.02C473.732 108.953 472.402 110.307 471.422 112.08C470.442 113.807 469.952 115.883 469.952 118.31C469.952 120.69 470.442 122.767 471.422 124.54C472.402 126.313 473.732 127.667 475.412 128.6C477.092 129.533 478.982 130 481.082 130Z" fill="white"/>
<defs>
<linearGradient id="paint0_linear_377_505" x1="379" y1="0" x2="379" y2="235" gradientUnits="userSpaceOnUse">
<stop stop-color="#128C7E"/>
<stop offset="1" stop-color="#0E6B5B"/>
</linearGradient>
<linearGradient id="paint1_linear_377_505" x1="379" y1="0" x2="379" y2="235" gradientUnits="userSpaceOnUse">
<stop stop-color="#25D366"/>
<stop offset="1" stop-color="#128C7E"/>
</linearGradient>
<linearGradient id="paint2_linear_377_505" x1="635" y1="29" x2="635" y2="199" gradientUnits="userSpaceOnUse">
<stop stop-color="#5DF5A2"/>
<stop offset="0.548077" stop-color="#25D366"/>
</linearGradient>
<linearGradient id="paint3_linear_377_505" x1="379" y1="219" x2="379" y2="12" gradientUnits="userSpaceOnUse">
<stop offset="0.216346" stop-color="#0B5146"/>
<stop offset="1" stop-color="#1DD1B8" stop-opacity="0"/>
</linearGradient>
</defs>
</svg>
