<svg width="30" height="35" viewBox="0 0 30 35" fill="none" xmlns="http://www.w3.org/2000/svg">
<path d="M6.52186 0.140002C6.36848 0.220025 6.2151 0.373401 6.13508 0.533447C6.01505 0.773515 6.00171 0.920223 6.00171 2.40064V4.0011H7.60216C9.08258 4.0011 9.22929 3.98776 9.46936 3.86773C9.64274 3.78104 9.78278 3.641 9.86947 3.46761C9.98951 3.22755 10.0028 3.08084 10.0028 1.60042V-3.8147e-05H8.38905C6.90863 0.00663042 6.74859 0.0199676 6.52186 0.140002Z" fill="#1E4193"/>
<path d="M12.0034 1.63376C12.0034 2.58737 11.9701 3.4076 11.9301 3.61432C11.75 4.46123 11.1698 5.22812 10.4163 5.62156C9.76945 5.96166 9.45602 6.00167 7.62884 6.00167H6.00171L6.01505 11.6833L6.03505 17.3649L10.4963 20.5525C12.9503 22.3063 14.9909 23.74 15.0309 23.7334C15.071 23.7334 17.0982 22.2996 19.5389 20.5525L23.9735 17.3716L23.9935 11.6833L24.0068 6.00167H22.3797C21.4128 6.00167 20.5992 5.96833 20.3925 5.92832C19.2521 5.68158 18.3252 4.75465 18.0785 3.61432C18.0385 3.4076 18.0051 2.59404 18.0051 1.63376V-3.43323e-05H15.0043H12.0034V1.63376ZM15.4711 6.13504C15.8845 6.34844 16.0046 6.64852 16.0046 7.48876V8.17562L16.3647 8.349C17.0515 8.6891 17.4049 9.10922 17.4049 9.58269C17.4049 9.9628 17.2116 10.2762 16.8715 10.4496C16.4247 10.683 16.1513 10.6363 15.6111 10.2362C15.2043 9.93612 14.5041 10.0562 14.1907 10.4763C13.7439 11.0764 14.2507 12.0034 15.0243 12.0034C16.3847 12.0034 17.6383 13.037 17.9318 14.3907C18.0785 15.0976 17.9918 15.7044 17.6383 16.4046C17.4049 16.8648 16.8048 17.4583 16.3513 17.665L16.0046 17.825V18.5186C16.0046 19.3588 15.8845 19.6589 15.4711 19.8723C15.131 20.0457 14.8509 20.039 14.5241 19.8589C14.1107 19.6255 14.004 19.3455 14.004 18.5186V17.8317L13.6439 17.6583C12.957 17.3182 12.6036 16.8981 12.6036 16.4246C12.6036 16.0445 12.797 15.7311 13.1371 15.5511C13.5839 15.3243 13.8573 15.371 14.3974 15.7711C14.8042 16.0712 15.5044 15.9512 15.8245 15.5244C16.2713 14.9242 15.7645 14.0039 14.9776 14.0039C14.2441 14.0039 13.4705 13.6638 12.9037 13.1037C11.7033 11.9167 11.71 10.0562 12.9303 8.86915C13.1371 8.6691 13.4638 8.42903 13.6572 8.34234L14.004 8.18229V7.47542C14.0107 6.64852 14.104 6.40845 14.5108 6.16172C14.8309 5.96833 15.1243 5.96166 15.4711 6.13504Z" fill="#1E4193"/>
<path d="M20.0057 1.60042C20.0057 3.43427 20.039 3.58098 20.5258 3.85439C20.7792 3.99443 20.8593 4.0011 22.3997 4.0011H24.0068V2.40064C24.0068 0.920223 23.9935 0.773515 23.8734 0.533447C23.7868 0.360064 23.6467 0.220025 23.4733 0.133333C23.2333 0.013299 23.0866 -3.8147e-05 21.6061 -3.8147e-05H20.0057V1.60042Z" fill="#1E4193"/>
<path d="M2.50073 12.7103C1.69384 13.2838 1.02698 13.7572 1.02031 13.7639C1.01365 13.7706 1.66716 14.2507 2.48073 14.8242C3.28763 15.4044 3.96115 15.8645 3.97449 15.8512C3.98782 15.8378 3.99449 14.8909 3.98782 13.7439L3.96782 11.6633L2.50073 12.7103Z" fill="#1E4193"/>
<path d="M26.0074 13.7705C26.0074 14.9242 26.0274 15.8711 26.0474 15.8711C26.1408 15.8711 29.0016 13.7705 28.9616 13.7372C28.8349 13.6238 26.0674 11.6699 26.0407 11.6699C26.0207 11.6699 26.0074 12.6168 26.0074 13.7705Z" fill="#1E4193"/>
<path d="M0 23.4666C0 29.1282 0.0200057 31.5022 0.0733542 31.7556C0.320091 32.9026 1.24035 33.8229 2.38735 34.0696C2.88749 34.1763 27.1144 34.1763 27.6212 34.0696C28.7748 33.8229 29.7218 32.8626 29.9418 31.709C29.9952 31.4222 30.0085 29.0882 29.9952 23.4266L29.9752 15.5444L22.8398 20.6458C18.9187 23.4533 15.5911 25.8073 15.4577 25.8806C15.1576 26.034 14.8642 26.0407 14.6041 25.9073C14.4975 25.854 11.2032 23.52 7.28874 20.7192C3.37429 17.9184 0.126703 15.6111 0.0866913 15.5844C0.0200057 15.5377 0 17.1315 0 23.4666ZM25.4739 28.2747C25.774 28.428 26.0074 28.8081 26.0074 29.1416C26.0074 29.475 25.774 29.8551 25.4739 30.0085C25.2405 30.1285 25.0805 30.1419 24.0002 30.1419C22.8732 30.1419 22.7731 30.1352 22.5264 29.9951C21.8529 29.615 21.8462 28.7014 22.5131 28.3013C22.7598 28.148 22.8265 28.1413 23.9935 28.1413C25.0871 28.1413 25.2405 28.1546 25.4739 28.2747Z" fill="#1E4193"/>
</svg>
