<svg width="144" height="164" viewBox="0 0 144 164" fill="none" xmlns="http://www.w3.org/2000/svg">
<path fill-rule="evenodd" clip-rule="evenodd" d="M128.125 61.5V117.875H46.125V15.375H82V43.5625C82 53.464 90.036 61.5 99.9375 61.5H128.125ZM97.375 16.6152L126.885 46.125H99.9375C99.2579 46.125 98.6061 45.855 98.1255 45.3745C97.645 44.8939 97.375 44.2421 97.375 43.5625V16.6152ZM41 0C38.2815 0 35.6744 1.07991 33.7522 3.00216C31.8299 4.9244 30.75 7.53153 30.75 10.25V30.75H12.8125C5.74 30.75 0 36.49 0 43.5625V151.188C0 158.26 5.74 164 12.8125 164H97.375C104.447 164 110.188 158.26 110.188 151.188V134.07L110.146 133.25H133.25C135.968 133.25 138.576 132.17 140.498 130.248C142.42 128.326 143.5 125.718 143.5 123V45.2435C143.499 42.5253 142.419 39.9186 140.497 37.9967L105.503 3.00325C103.581 1.08087 100.975 0.000580533 98.2565 0H41ZM30.75 123V46.125H15.375V148.625H94.8125V134.07C94.8125 133.797 94.8262 133.523 94.8535 133.25H41C38.2815 133.25 35.6744 132.17 33.7522 130.248C31.8299 128.326 30.75 125.718 30.75 123Z" fill="#FFF9F9"/>
</svg>
