<svg width="95" height="66" viewBox="0 0 95 66" fill="none" xmlns="http://www.w3.org/2000/svg">
<rect width="95" height="66" rx="15" fill="#E7F0FA"/>
<path d="M71.7953 54.2739C71.0431 55.3723 70.027 55.9867 68.9705 55.9818C67.9139 55.977 66.9035 55.3535 66.1613 54.2482L46.5707 25.066L26.715 54.0685C25.9587 55.1357 24.9495 55.7235 23.9048 55.7053C22.8602 55.6872 21.8636 55.0645 21.1298 53.9715C20.396 52.8784 19.9837 51.4024 19.9817 49.8614C19.9796 48.3204 20.388 46.8376 21.1188 45.7324L43.8105 12.5876C44.5627 11.4892 45.5788 10.8748 46.6353 10.8796C47.6919 10.8844 48.7024 11.508 49.4445 12.6132L71.8332 45.9635C72.5752 47.069 72.988 48.5656 72.9809 50.124C72.9738 51.6824 72.5473 53.1752 71.7953 54.2739Z" fill="#1E4193"/>
</svg>
