<svg width="95" height="66" viewBox="0 0 95 66" fill="none" xmlns="http://www.w3.org/2000/svg">
<rect width="95" height="66" rx="15" fill="#5A9BD5" fill-opacity="0.19"/>
<path d="M71.7944 54.2739C71.0421 55.3723 70.026 55.9867 68.9695 55.9818C67.913 55.977 66.9025 55.3535 66.1603 54.2482L46.5697 25.066L26.714 54.0685C25.9577 55.1357 24.9485 55.7235 23.9038 55.7053C22.8592 55.6872 21.8626 55.0645 21.1289 53.9715C20.3951 52.8784 19.9828 51.4024 19.9807 49.8614C19.9786 48.3204 20.387 46.8376 21.1179 45.7324L43.8095 12.5876C44.5617 11.4892 45.5778 10.8748 46.6344 10.8796C47.6909 10.8844 48.7014 11.508 49.4436 12.6132L71.8322 45.9635C72.5742 47.069 72.987 48.5656 72.9799 50.124C72.9728 51.6824 72.5464 53.1752 71.7944 54.2739Z" fill="#D9534F"/>
</svg>
