<svg width="397" height="110" viewBox="0 0 397 110" fill="none" xmlns="http://www.w3.org/2000/svg">
<path d="M54.807 0H396L332.703 110H54.807L0 55.5L54.807 0Z" fill="#1E4193"/>
<path d="M237 0H396.5L333.5 110H174L237 0Z" fill="#5A9BD5"/>
<rect x="12" y="55.1121" width="60.9697" height="60.9697" transform="rotate(-45 12 55.1121)" fill="white"/>
<path d="M54.0572 39.0892C52.4939 39.3872 51.2226 40.3483 50.5231 41.7656C50.146 42.5381 50 43.1342 50 43.9554C50 44.5576 50.1156 45.2996 51.1922 51.4371C51.8491 55.1841 52.4331 58.3836 52.4818 58.5539C52.7007 59.2473 53.1934 59.7948 53.8929 60.1232C54.2762 60.3057 54.337 60.3179 55 60.3179C55.663 60.3179 55.7238 60.3057 56.1071 60.1232C56.8005 59.7948 57.2932 59.2473 57.5122 58.5539C57.5669 58.3836 58.1509 55.1841 58.8078 51.4371C59.8844 45.2996 60 44.5576 60 43.9554C60 43.1342 59.854 42.5381 59.4769 41.7656C58.4854 39.7583 56.2835 38.6695 54.0572 39.0892Z" fill="#1E4193"/>
<path d="M54.045 62.599C52.354 63.0431 51.1679 64.5577 51.1679 66.2851C51.1679 67.2705 51.5328 68.2316 52.1594 68.9068C52.646 69.4238 53.0961 69.7158 53.7652 69.9348C54.489 70.172 55.4562 70.1842 56.1557 69.9713C57.8467 69.4482 58.9051 67.9092 58.8139 66.0966C58.6983 63.7 56.3686 61.9908 54.045 62.599Z" fill="#1E4193"/>
<path d="M287.527 21.3046C286.069 21.7685 285.423 22.1661 283.021 24.1045L280.751 25.9104L277.553 26.0098C274.919 26.0761 274.174 26.1424 273.279 26.4406C269.734 27.5837 267.149 31.0464 267.149 34.6747V35.6853L264.912 37.3918C261.98 39.5953 260.853 41.0864 260.273 43.555C259.909 45.0792 259.909 70.3781 260.273 72.068C260.936 75.1993 263.521 77.8998 266.668 78.7282C268.06 79.1093 312.031 79.0927 313.456 78.7282C316.454 77.9495 318.973 75.4312 319.751 72.4325C319.967 71.5875 320 69.5166 320 57.7701C320 42.7597 320.033 43.4225 318.989 41.3515C318.343 40.0426 317.183 38.8498 314.98 37.2261L313.075 35.8179L312.975 34.5587C312.644 30.5162 310.291 27.5175 306.58 26.3743C305.917 26.1755 304.807 26.0595 302.521 26.0098L299.373 25.9104L297.12 24.1211C294.767 22.2489 293.674 21.6028 292.266 21.2217C291.056 20.8904 288.637 20.9401 287.527 21.3046ZM306.514 30.1352C307.64 30.7316 308.767 32.0073 309.115 33.0842C309.363 33.8463 309.397 34.8901 309.397 41.7823C309.397 47.846 309.347 49.6519 309.198 49.7679C309.082 49.8507 305.006 51.8885 300.152 54.2909L291.305 58.6813H289.996H288.687L279.658 54.1583L270.628 49.6519V41.7491C270.628 34.6084 270.661 33.7469 270.91 33.0179C271.423 31.6097 272.915 30.2346 274.439 29.7541C274.671 29.6878 281.795 29.6381 290.261 29.6547L305.669 29.6878L306.514 30.1352ZM312.263 61.7463C312.892 62.2433 313.124 63.0717 312.81 63.7841C312.379 64.8279 312.064 64.8942 307.657 64.8942C304.294 64.8942 303.664 64.861 303.267 64.6125C302.306 64.0492 302.14 62.6907 302.919 61.8954L303.399 61.415H307.624C311.6 61.415 311.865 61.4315 312.263 61.7463ZM311.534 68.4728C312.66 68.7047 313.273 69.8976 312.793 70.9248C312.279 72.0183 312.246 72.0183 304.194 72.0183C296.242 72.0183 296.06 72.0017 295.579 71.0408C295.248 70.4112 295.248 69.9805 295.579 69.3509C296.06 68.4065 296.209 68.39 303.946 68.3734C307.839 68.3734 311.236 68.4231 311.534 68.4728Z" fill="white"/>
<path d="M287.726 33.3328C282.706 34.476 279.177 39.148 279.459 44.284C279.608 46.9514 280.635 49.2046 282.557 51.1431C285.87 54.44 290.625 55.2021 294.8 53.098C297.236 51.872 299.091 49.7182 300.085 46.968C300.467 45.9077 300.516 45.51 300.516 43.6876C300.516 41.8651 300.467 41.4675 300.085 40.4072C299.472 38.6841 298.71 37.4913 297.468 36.2321C295.463 34.2274 293.21 33.2499 290.427 33.1505C289.366 33.1174 288.389 33.1671 287.726 33.3328ZM289.118 40.2249L290.012 41.103L290.708 40.4403C292.216 38.9989 292.978 38.8333 293.922 39.7776C294.85 40.7054 294.701 41.5007 293.359 42.9089L292.597 43.6876L293.458 44.5657C294.071 45.1787 294.353 45.626 294.419 46.0402C294.635 47.2993 293.442 48.3928 292.266 47.9952C291.967 47.9124 291.371 47.4485 290.924 47.0011L290.112 46.1893L289.25 47.0011C287.875 48.2934 287.096 48.4259 286.169 47.5479C285.257 46.6698 285.407 45.8248 286.699 44.4497L287.511 43.5882L286.765 42.8426C285.754 41.8817 285.456 41.2024 285.721 40.4238C285.97 39.6451 286.749 39.1646 287.593 39.2806C288.09 39.3303 288.438 39.5457 289.118 40.2249Z" fill="white"/>
</svg>
