<svg width="397" height="110" viewBox="0 0 397 110" fill="none" xmlns="http://www.w3.org/2000/svg">
<path d="M54.807 0H396L332.703 110H54.807L0 55.5L54.807 0Z" fill="#1E4193"/>
<path d="M237 0H396.5L333.5 110H174L237 0Z" fill="#5A9BD5"/>
<rect x="12" y="55.1121" width="60.9697" height="60.9697" transform="rotate(-45 12 55.1121)" fill="white"/>
<path d="M54.0572 39.0892C52.4939 39.3872 51.2226 40.3483 50.5231 41.7656C50.146 42.5381 50 43.1342 50 43.9554C50 44.5576 50.1156 45.2996 51.1922 51.4371C51.8491 55.1841 52.4331 58.3836 52.4818 58.5539C52.7007 59.2473 53.1934 59.7948 53.8929 60.1232C54.2762 60.3057 54.337 60.3179 55 60.3179C55.663 60.3179 55.7238 60.3057 56.1071 60.1232C56.8005 59.7948 57.2932 59.2473 57.5122 58.5539C57.5669 58.3836 58.1509 55.1841 58.8078 51.4371C59.8844 45.2996 60 44.5576 60 43.9554C60 43.1342 59.854 42.5381 59.4769 41.7656C58.4854 39.7583 56.2835 38.6695 54.0572 39.0892Z" fill="#1E4193"/>
<path d="M54.045 62.599C52.354 63.0431 51.1679 64.5577 51.1679 66.2851C51.1679 67.2705 51.5329 68.2316 52.1594 68.9068C52.646 69.4238 53.0961 69.7158 53.7652 69.9348C54.4891 70.172 55.4562 70.1842 56.1557 69.9713C57.8467 69.4482 58.9051 67.9092 58.8139 66.0966C58.6983 63.7 56.3686 61.9908 54.045 62.599Z" fill="#1E4193"/>
<path d="M253.528 25.0962C252.989 25.2604 252.249 26.0349 252.097 26.5982C252.015 26.915 251.991 31.5031 252.003 41.4185L252.038 55.7695L252.32 56.2154C252.472 56.4618 252.812 56.8021 253.071 56.9781L253.552 57.2949H259.008H264.476L264.922 57.0133C265.169 56.8608 265.509 56.5205 265.685 56.2623C265.978 55.8281 266.002 55.6756 266.049 54.3496L266.084 52.9063L272.092 52.8711L278.1 52.8359L278.581 52.5191C278.839 52.3431 279.179 52.0028 279.332 51.7564C279.602 51.3339 279.613 51.1931 279.649 49.0927L279.696 46.8749L282.582 49.7615C284.964 52.1319 285.563 52.6599 285.95 52.7655C286.267 52.8476 288.356 52.8946 292.181 52.8946H297.954L297.989 54.3379C298.036 55.6756 298.06 55.8281 298.353 56.2623C298.529 56.5205 298.869 56.8608 299.116 57.0133L299.562 57.2949H305.018H310.475L310.92 57.0133C311.167 56.8608 311.507 56.5205 311.683 56.2623L312 55.7812V41.1603V26.5395L311.683 26.0584C311.507 25.8002 311.167 25.4599 310.92 25.3074L310.475 25.0258H305.018H299.562L299.116 25.3074C298.869 25.4599 298.529 25.8002 298.353 26.0584C298.06 26.4925 298.036 26.6451 297.989 27.9828L297.954 29.4261H282.019H266.084L266.049 27.9828C266.002 26.6451 265.978 26.4925 265.685 26.0584C265.509 25.8002 265.169 25.4599 264.922 25.3074L264.476 25.0258L259.196 25.0023C256.063 24.9906 253.763 25.0258 253.528 25.0962ZM261.367 41.1603V52.6599H259.02H256.673V41.1603V29.6608H259.02H261.367V41.1603ZM307.365 41.1603V52.6599H305.018H302.671V41.1603V29.6608H305.018H307.365V41.1603ZM297.978 41.1603V48.2009H292.85H287.722L283.134 43.6363C279.027 39.541 278.499 39.0599 278.029 38.9308C277.008 38.661 275.988 39.013 275.389 39.8578L275.037 40.3624L275.002 44.2817L274.967 48.2009H270.508H266.06V41.1603V34.1198H282.019H297.978V41.1603Z" fill="white"/>
<path d="M281.221 57.7173C280.623 57.8933 280.059 58.5621 278.757 60.6743C275.319 66.2128 273.218 70.4372 272.514 73.2534C270.977 79.3552 276.175 85.4101 282.606 85.0111C287.698 84.6825 291.735 80.4934 291.782 75.4829C291.805 72.7019 290.327 69.1347 286.501 62.6926C284.624 59.5478 283.732 58.2453 283.275 57.9519C282.782 57.6468 281.796 57.5412 281.221 57.7173ZM283.286 66.471C284.706 68.9587 286.196 72.033 286.713 73.4881C287.464 75.6472 287.065 77.4425 285.481 78.9328C282.77 81.4908 278.358 80.3526 277.161 76.7854C276.656 75.2951 276.985 73.9105 278.628 70.4958C279.567 68.5597 281.878 64.394 282.019 64.394C282.054 64.394 282.629 65.3328 283.286 66.471Z" fill="white"/>
</svg>
