<svg width="56" height="56" viewBox="0 0 56 56" fill="none" xmlns="http://www.w3.org/2000/svg">
<circle cx="28" cy="28" r="28" fill="#1E4193"/>
<path d="M26.2837 16.0329C21.9393 16.2233 19.1042 16.9779 17.8001 18.2966C17.4705 18.6336 17.2653 18.9633 16.6133 20.26L15.8294 21.8204H14.7891C14.2177 21.8204 13.6683 21.8497 13.5657 21.8937C13.3313 21.9816 13.2726 22.2014 13.2726 22.9193C13.28 23.5274 13.3606 23.7472 13.6609 23.9303L13.8734 24.0549L12.8111 24.6043C12.2324 24.8973 11.6756 25.2197 11.5803 25.3076C11.3679 25.5054 11.2873 25.7911 11.1188 26.912C11.0089 27.6739 10.9943 28.3259 11.0016 31.7105C11.0089 34.2234 11.0529 36.0915 11.1115 36.912L11.214 38.1941L11.6243 38.216C12.0712 38.238 12.1298 38.2966 12.1298 38.7582C12.1298 39.0439 12.269 39.3076 12.4521 39.3589C12.5327 39.3809 13.9759 39.4029 15.6536 39.4029C19.2214 39.4029 19.0162 39.4468 19.0749 38.6776L19.1042 38.2307H28.4668H37.8295L37.8588 38.6776C37.9174 39.4468 37.7049 39.4029 41.3533 39.4029C43.7562 39.4029 44.5108 39.3809 44.606 39.3076C44.6866 39.2563 44.7672 39.0366 44.8185 38.7215L44.8991 38.2307H45.324H45.7562V37.9523C45.7562 37.8058 45.7928 37.227 45.8295 36.6776C46.1958 31.5713 45.9467 25.8644 45.324 25.2417C45.2507 25.1611 44.7159 24.8607 44.1518 24.575L43.1188 24.0475L43.3313 23.8864C43.617 23.6739 43.7342 23.249 43.6829 22.597C43.617 21.857 43.6243 21.8644 42.247 21.8351L41.0822 21.8131L40.987 21.5787C40.6646 20.7728 39.7928 19.0805 39.5071 18.7069C38.3936 17.2417 35.9247 16.3992 31.9467 16.1135C30.3862 16.0036 27.8587 15.9669 26.2837 16.0329ZM30.1957 18.3772C33.0456 18.5457 35.1921 18.9413 36.4741 19.5494C37.4485 20.0109 38.4082 21.3662 39.258 23.4834L39.4485 23.945H28.4668H17.4924L17.7342 23.3735C18.1225 22.4505 18.7159 21.3003 19.0529 20.8314C19.6829 19.945 20.3496 19.4981 21.5437 19.1464C23.7782 18.5017 27.1335 18.2014 30.1957 18.3772ZM14.8038 26.5897C15.7415 26.7069 17.0309 27.0512 17.7342 27.3809C18.4375 27.7105 19.1994 28.2087 19.3093 28.4138C19.3752 28.5384 19.3532 28.5604 19.1481 28.597C18.0565 28.7875 13.9393 28.934 13.5803 28.7948C13.4265 28.7289 13.3752 28.6409 13.3093 28.3406C13.2214 27.923 13.2067 27.3516 13.2726 26.8461L13.3239 26.5091H13.7342C13.9613 26.5091 14.4448 26.5457 14.8038 26.5897ZM43.5511 26.575C43.6756 26.6556 43.6976 27.3149 43.6024 28.0695C43.5144 28.8534 43.5071 28.8534 42.0419 28.8534C40.8697 28.8534 39.1335 28.7655 38.2983 28.6629C37.9686 28.619 37.91 28.5897 37.8661 28.4285C37.8295 28.2746 37.8661 28.2014 38.0712 28.0256C38.7379 27.4615 40.65 26.7655 42.0126 26.5897C42.6719 26.5017 43.4265 26.4944 43.5511 26.575ZM30.1518 31.271C33.0968 31.542 36.4082 32.4505 36.9577 33.1464C37.1555 33.3955 37.1555 33.4395 36.8844 34.1281L36.6646 34.7142H28.4815H20.2983L20.0565 34.1794C19.932 33.8937 19.8221 33.5713 19.8221 33.4761C19.8221 33.3809 19.9247 33.205 20.0639 33.0659C20.2617 32.8681 20.5254 32.7508 21.4705 32.4431C24.6719 31.4102 27.4631 31.0292 30.1518 31.271Z" fill="white"/>
<circle cx="28" cy="28" r="28" fill="#1E4193"/>
<path d="M26.2837 16.0329C21.9393 16.2233 19.1042 16.9779 17.8001 18.2966C17.4705 18.6336 17.2653 18.9633 16.6133 20.26L15.8294 21.8204H14.7891C14.2177 21.8204 13.6683 21.8497 13.5657 21.8937C13.3313 21.9816 13.2726 22.2014 13.2726 22.9193C13.28 23.5274 13.3606 23.7472 13.6609 23.9303L13.8734 24.0549L12.8111 24.6043C12.2324 24.8973 11.6756 25.2197 11.5803 25.3076C11.3679 25.5054 11.2873 25.7911 11.1188 26.912C11.0089 27.6739 10.9943 28.3259 11.0016 31.7105C11.0089 34.2234 11.0529 36.0915 11.1115 36.912L11.214 38.1941L11.6243 38.216C12.0712 38.238 12.1298 38.2966 12.1298 38.7582C12.1298 39.0439 12.269 39.3076 12.4521 39.3589C12.5327 39.3809 13.9759 39.4029 15.6536 39.4029C19.2214 39.4029 19.0162 39.4468 19.0749 38.6776L19.1042 38.2307H28.4668H37.8295L37.8588 38.6776C37.9174 39.4468 37.7049 39.4029 41.3533 39.4029C43.7562 39.4029 44.5108 39.3809 44.606 39.3076C44.6866 39.2563 44.7672 39.0366 44.8185 38.7215L44.8991 38.2307H45.324H45.7562V37.9523C45.7562 37.8058 45.7928 37.227 45.8295 36.6776C46.1958 31.5713 45.9467 25.8644 45.324 25.2417C45.2507 25.1611 44.7159 24.8607 44.1518 24.575L43.1188 24.0475L43.3313 23.8864C43.617 23.6739 43.7342 23.249 43.6829 22.597C43.617 21.857 43.6243 21.8644 42.247 21.8351L41.0822 21.8131L40.987 21.5787C40.6646 20.7728 39.7928 19.0805 39.5071 18.7069C38.3936 17.2417 35.9247 16.3992 31.9467 16.1135C30.3862 16.0036 27.8587 15.9669 26.2837 16.0329ZM30.1957 18.3772C33.0456 18.5457 35.1921 18.9413 36.4741 19.5494C37.4485 20.0109 38.4082 21.3662 39.258 23.4834L39.4485 23.945H28.4668H17.4924L17.7342 23.3735C18.1225 22.4505 18.7159 21.3003 19.0529 20.8314C19.6829 19.945 20.3496 19.4981 21.5437 19.1464C23.7782 18.5017 27.1335 18.2014 30.1957 18.3772ZM14.8038 26.5897C15.7415 26.7069 17.0309 27.0512 17.7342 27.3809C18.4375 27.7105 19.1994 28.2087 19.3093 28.4138C19.3752 28.5384 19.3532 28.5604 19.1481 28.597C18.0565 28.7875 13.9393 28.934 13.5803 28.7948C13.4265 28.7289 13.3752 28.6409 13.3093 28.3406C13.2214 27.923 13.2067 27.3516 13.2726 26.8461L13.3239 26.5091H13.7342C13.9613 26.5091 14.4448 26.5457 14.8038 26.5897ZM43.5511 26.575C43.6756 26.6556 43.6976 27.3149 43.6024 28.0695C43.5144 28.8534 43.5071 28.8534 42.0419 28.8534C40.8697 28.8534 39.1335 28.7655 38.2983 28.6629C37.9686 28.619 37.91 28.5897 37.8661 28.4285C37.8295 28.2746 37.8661 28.2014 38.0712 28.0256C38.7379 27.4615 40.65 26.7655 42.0126 26.5897C42.6719 26.5017 43.4265 26.4944 43.5511 26.575ZM30.1518 31.271C33.0968 31.542 36.4082 32.4505 36.9577 33.1464C37.1555 33.3955 37.1555 33.4395 36.8844 34.1281L36.6646 34.7142H28.4815H20.2983L20.0565 34.1794C19.932 33.8937 19.8221 33.5713 19.8221 33.4761C19.8221 33.3809 19.9247 33.205 20.0639 33.0659C20.2617 32.8681 20.5254 32.7508 21.4705 32.4431C24.6719 31.4102 27.4631 31.0292 30.1518 31.271Z" fill="white"/>
</svg>
