<svg width="56" height="56" viewBox="0 0 56 56" fill="none" xmlns="http://www.w3.org/2000/svg">
<circle cx="28" cy="28" r="28" fill="#1E4193"/>
<path d="M26.2837 16.0329C21.9393 16.2233 19.1042 16.9779 17.8001 18.2966C17.4705 18.6336 17.2653 18.9633 16.6133 20.26L15.8294 21.8204H14.7891C14.2177 21.8204 13.6683 21.8497 13.5657 21.8937C13.3313 21.9816 13.2726 22.2014 13.2726 22.9193C13.28 23.5274 13.3606 23.7472 13.6609 23.9303L13.8734 24.0549L12.8111 24.6043C12.2324 24.8973 11.6756 25.2197 11.5803 25.3076C11.3679 25.5054 11.2873 25.7911 11.1188 26.912C11.0089 27.6739 10.9943 28.3259 11.0016 31.7105C11.0089 34.2234 11.0529 36.0915 11.1115 36.912L11.214 38.1941L11.6243 38.216C12.0712 38.238 12.1298 38.2966 12.1298 38.7582C12.1298 39.0439 12.269 39.3076 12.4521 39.3589C12.5327 39.3809 13.9759 39.4029 15.6536 39.4029C19.2214 39.4029 19.0162 39.4468 19.0749 38.6776L19.1042 38.2307H28.4668H37.8295L37.8588 38.6776C37.9174 39.4468 37.7049 39.4029 41.3533 39.4029C43.7562 39.4029 44.5108 39.3809 44.606 39.3076C44.6866 39.2563 44.7672 39.0366 44.8185 38.7215L44.8991 38.2307H45.324H45.7562V37.9523C45.7562 37.8058 45.7928 37.227 45.8295 36.6776C46.1958 31.5713 45.9467 25.8644 45.324 25.2417C45.2507 25.1611 44.7159 24.8607 44.1518 24.575L43.1188 24.0475L43.3313 23.8864C43.617 23.6739 43.7342 23.249 43.6829 22.597C43.617 21.857 43.6243 21.8644 42.247 21.8351L41.0822 21.8131L40.987 21.5787C40.6646 20.7728 39.7928 19.0805 39.5071 18.7069C38.3936 17.2417 35.9247 16.3992 31.9467 16.1135C30.3862 16.0036 27.8587 15.9669 26.2837 16.0329ZM30.1957 18.3772C33.0456 18.5457 35.1921 18.9413 36.4741 19.5494C37.4485 20.0109 38.4082 21.3662 39.258 23.4834L39.4485 23.945H28.4668H17.4924L17.7342 23.3735C18.1225 22.4505 18.7159 21.3003 19.0529 20.8314C19.6829 19.945 20.3496 19.4981 21.5437 19.1464C23.7782 18.5017 27.1335 18.2014 30.1957 18.3772ZM14.8038 26.5897C15.7415 26.7069 17.0309 27.0512 17.7342 27.3809C18.4375 27.7105 19.1994 28.2087 19.3093 28.4138C19.3752 28.5384 19.3532 28.5604 19.1481 28.597C18.0565 28.7875 13.9393 28.934 13.5803 28.7948C13.4265 28.7289 13.3752 28.6409 13.3093 28.3406C13.2214 27.923 13.2067 27.3516 13.2726 26.8461L13.3239 26.5091H13.7342C13.9613 26.5091 14.4448 26.5457 14.8038 26.5897ZM43.5511 26.575C43.6756 26.6556 43.6976 27.3149 43.6024 28.0695C43.5144 28.8534 43.5071 28.8534 42.0419 28.8534C40.8697 28.8534 39.1335 28.7655 38.2983 28.6629C37.9686 28.619 37.91 28.5897 37.8661 28.4285C37.8295 28.2746 37.8661 28.2014 38.0712 28.0256C38.7379 27.4615 40.65 26.7655 42.0126 26.5897C42.6719 26.5017 43.4265 26.4944 43.5511 26.575ZM30.1518 31.271C33.0968 31.542 36.4082 32.4505 36.9577 33.1464C37.1555 33.3955 37.1555 33.4395 36.8844 34.1281L36.6646 34.7142H28.4815H20.2983L20.0565 34.1794C19.932 33.8937 19.8221 33.5713 19.8221 33.4761C19.8221 33.3809 19.9247 33.205 20.0639 33.0659C20.2617 32.8681 20.5254 32.7508 21.4705 32.4431C24.6719 31.4102 27.4631 31.0292 30.1518 31.271Z" fill="white"/>
<circle cx="28" cy="28" r="28" fill="#1E4193"/>
<path d="M27.2004 11.1298C25.4094 11.7041 23.5773 13.5429 22.34 16.0039C21.7863 17.1113 21.1164 18.8134 21.2053 18.9023C21.2258 18.9228 21.6359 18.8613 22.1144 18.7656C23.4885 18.499 25.1359 18.3144 26.4689 18.2666L27.6789 18.2255V14.6093C27.6789 12.6269 27.6584 11 27.631 11.0068C27.5969 11.0068 27.4055 11.0615 27.2004 11.1298Z" fill="white"/>
<path d="M29.1836 14.6092V18.2254L30.1611 18.2733C31.5625 18.3348 33.1484 18.5057 34.4814 18.7245C35.1172 18.8338 35.6504 18.909 35.6641 18.8954C35.7461 18.8133 35.0488 17.0565 34.5225 16.0038C33.4834 13.9256 32.0137 12.2782 30.5166 11.4989C30.0859 11.2801 29.3545 10.9999 29.2041 10.9999C29.1904 10.9999 29.1836 12.6268 29.1836 14.6092Z" fill="white"/>
<path d="M22.7924 11.8819C17.6996 13.6661 13.7553 17.5762 11.9232 22.6553C11.5336 23.7354 11.5404 23.7423 12.0394 23.2637C12.559 22.7716 13.6596 21.9307 14.3158 21.5343C15.3344 20.919 17.0502 20.1671 18.6566 19.6339L19.3812 19.3946L19.641 18.5675C20.4408 15.9835 21.7601 13.5909 23.1889 12.1075C23.4555 11.8409 23.64 11.6153 23.6058 11.6153C23.5717 11.6153 23.2094 11.7315 22.7924 11.8819Z" fill="white"/>
<path d="M33.6343 12.0734C34.1538 12.6271 34.9263 13.6457 35.3296 14.3156C35.9517 15.341 36.8472 17.3986 37.3189 18.9025L37.4761 19.381L38.2964 19.6408C40.8872 20.4474 43.2661 21.7531 44.7564 23.1955C45.3443 23.7629 45.3443 23.7765 44.8589 22.4162C43.3345 18.1711 39.9917 14.5412 35.7808 12.5724C35.1109 12.2512 33.7847 11.7453 33.395 11.6564C33.2105 11.6086 33.231 11.6428 33.6343 12.0734Z" fill="white"/>
<path d="M26.5176 19.7295C24.4941 19.8457 20.9121 20.4131 20.6592 20.666C20.5703 20.7549 20.2217 22.3066 20.0645 23.3389C19.9277 24.2207 19.7705 25.7793 19.7158 26.8389L19.668 27.6797H23.6738H27.6797V23.6807V19.6816L27.29 19.6953C27.0713 19.7021 26.7227 19.7158 26.5176 19.7295Z" fill="white"/>
<path d="M29.1836 23.6738V27.6797H33.1895H37.1953L37.1475 26.8389C37.0928 25.7793 36.9355 24.2207 36.7988 23.3389C36.6416 22.3135 36.293 20.7549 36.2041 20.6592C36.1084 20.5703 34.5498 20.2217 33.5244 20.0645C32.6426 19.9277 31.084 19.7705 30.0244 19.7158L29.1836 19.668V23.6738Z" fill="white"/>
<path d="M17.9043 21.5342C16.1406 22.2383 14.8486 22.9355 13.666 23.8242C12.7705 24.4941 12.1689 25.1572 11.6562 26.0322C11.4238 26.4287 11.123 27.1533 11.041 27.4883L11 27.6797H14.6094H18.2256L18.2734 26.668C18.3486 25.0273 18.6768 22.2451 18.9023 21.3428C18.957 21.124 18.8955 21.1377 17.9043 21.5342Z" fill="white"/>
<path d="M37.9549 21.3359C38.2352 22.4912 38.5497 25.0068 38.5975 26.4629L38.6385 27.6797H42.2548C44.2372 27.6797 45.8641 27.6729 45.8641 27.6592C45.8641 27.5088 45.5907 26.7842 45.3788 26.3809C44.4696 24.6309 42.5965 23.0791 40.0057 21.9307C39.3016 21.6162 38.1327 21.1855 37.9823 21.1855C37.9481 21.1855 37.9344 21.2539 37.9549 21.3359Z" fill="white"/>
<path d="M11 29.2043C11 29.3546 11.2734 30.0793 11.4854 30.4826C12.2852 32.0207 13.9121 33.4767 16.0039 34.5226C17.0703 35.0558 18.8135 35.7462 18.8955 35.6642C18.916 35.6505 18.8545 35.2404 18.7656 34.7482C18.4922 33.299 18.3076 31.6857 18.2666 30.3937L18.2256 29.1837H14.6094C12.627 29.1837 11 29.1906 11 29.2043Z" fill="white"/>
<path d="M19.7158 30.0176C19.7705 31.084 19.9277 32.6426 20.0645 33.5244C20.2217 34.5566 20.5703 36.1152 20.6592 36.1973C20.7549 36.293 22.0537 36.5801 23.2021 36.7715C24.166 36.9287 25.6699 37.0859 26.8457 37.1475L27.6797 37.1953V33.1895V29.1836H23.6738H19.668L19.7158 30.0176Z" fill="white"/>
<path d="M29.1836 33.1895V37.1953L30.0244 37.1475C31.084 37.0928 32.6426 36.9355 33.5244 36.7988C34.5498 36.6416 36.1084 36.293 36.2041 36.2041C36.293 36.1084 36.5664 34.8916 36.7646 33.6953C36.9287 32.7109 37.0791 31.2275 37.1475 30.0176L37.1953 29.1836H33.1895H29.1836V33.1895Z" fill="white"/>
<path d="M38.5896 30.1885C38.5144 31.8975 38.2547 34.0576 37.9539 35.5C37.9129 35.6914 37.9197 35.6983 38.1111 35.6504C38.9383 35.4385 40.7361 34.6319 41.8299 33.9688C44.1199 32.5947 45.5008 31.0293 45.8904 29.3682L45.9314 29.1836H42.2879H38.6375L38.5896 30.1885Z" fill="white"/>
<path d="M11.6566 33.3946C11.6839 33.5039 11.807 33.9004 11.9369 34.2764C13.6117 39.1163 17.6654 43.1495 22.6556 44.9405C23.7357 45.3301 23.7357 45.3233 23.2298 44.7901C22.7103 44.2364 21.9378 43.2178 21.5345 42.5479C20.9124 41.5225 20.0169 39.4649 19.5453 37.961L19.388 37.4756L18.6634 37.2569C16.1136 36.4776 13.6322 35.1241 12.1419 33.7022C11.6634 33.2442 11.6087 33.21 11.6566 33.3946Z" fill="white"/>
<path d="M44.8646 33.5654C44.4613 33.9755 43.2171 34.9257 42.5472 35.329C41.5218 35.9511 39.4642 36.8466 37.9603 37.3183L37.4818 37.4755L37.222 38.2958C36.4222 40.873 35.1097 43.2519 33.6673 44.7626C33.0999 45.3505 33.0863 45.3505 34.4466 44.8583C36.7982 44.0107 38.8695 42.6777 40.7425 40.8115C42.3079 39.2392 43.5316 37.4824 44.3929 35.5478C44.762 34.7206 45.2816 33.2988 45.2337 33.2441C45.22 33.2304 45.056 33.374 44.8646 33.5654Z" fill="white"/>
<path d="M35.2676 37.9404C34.1738 38.2139 31.8701 38.5078 30.1611 38.5898L29.1836 38.6377V42.2539C29.1836 44.2363 29.1904 45.8633 29.2041 45.8633C29.3545 45.8633 30.0791 45.5898 30.4824 45.3779C32.5674 44.291 34.3584 41.8506 35.4795 38.5557C35.5889 38.2344 35.6777 37.9541 35.6777 37.9199C35.6777 37.8516 35.5889 37.8584 35.2676 37.9404Z" fill="white"/>
<path d="M21.2133 38.1113C21.4594 39.0889 22.4848 41.2695 23.2163 42.3701C23.8657 43.3408 24.9663 44.5029 25.7319 45.0088C26.2377 45.3506 27.0375 45.7129 27.4956 45.8223L27.6801 45.8633V42.2539V38.6377L26.6752 38.5898C24.9868 38.5146 22.7924 38.248 21.3979 37.9609C21.1723 37.9131 21.1655 37.9131 21.2133 38.1113Z" fill="white"/>
</svg>
