<svg width="56" height="56" viewBox="0 0 56 56" fill="none" xmlns="http://www.w3.org/2000/svg">
<circle cx="28" cy="28" r="28" fill="#1E4193"/>
<path d="M19.8473 14.0759C17.4655 14.466 15.5558 15.4653 13.879 17.1969C12.4827 18.6411 11.5792 20.3317 11.1617 22.2755C10.9495 23.2817 10.9427 25.1434 11.1617 26.129C11.4286 27.3541 11.9488 28.6888 12.4964 29.558L12.6812 29.8523H16.4662L20.2443 29.8455L20.963 28.6477C21.3736 27.9564 21.7638 27.3815 21.8733 27.3062C22.1744 27.0872 22.6056 27.0666 22.9273 27.2514C23.16 27.3815 23.4133 27.7374 24.659 29.6881C25.4598 30.9475 26.1305 31.9741 26.1579 31.9741C26.1784 31.9741 27.1024 30.0577 28.2112 27.71C29.3132 25.3692 30.292 23.3433 30.3741 23.2064C30.8053 22.5356 31.7156 22.6041 32.1468 23.3364C32.2495 23.5144 33.0776 25.0407 33.988 26.7381L35.6443 29.8181L39.97 29.8387L44.2889 29.8523L44.5626 29.3732C46.4312 26.1426 46.4791 22.4603 44.6995 19.3324C43.1801 16.6699 40.6476 14.8151 37.6429 14.1649C36.6436 13.9527 34.7819 13.9527 33.7895 14.1649C32.0578 14.5413 30.5315 15.2668 29.06 16.4098C28.704 16.6905 28.4576 16.8342 28.4029 16.8068C28.3618 16.7726 28.1565 16.622 27.958 16.4577C26.5891 15.3421 24.8985 14.5345 23.1874 14.1649C22.3524 13.9869 20.6618 13.9458 19.8473 14.0759Z" fill="white"/>
<path d="M29.7233 29.3186C26.9923 35.0954 27.1155 34.8626 26.7802 35.0474C26.4379 35.2391 26.0136 35.2186 25.7056 34.9995C25.5961 34.9242 24.8569 33.8291 24.0082 32.5013C23.1868 31.2009 22.4887 30.1468 22.4681 30.1605C22.4408 30.1742 22.2286 30.5096 21.9959 30.8997C21.7221 31.3514 21.4894 31.6594 21.3525 31.7416C21.1472 31.8648 20.9281 31.8716 17.7249 31.9058L14.3164 31.9401L21.154 38.7298C27.184 44.7118 28.0258 45.5195 28.2517 45.5674C28.8677 45.6837 28.5255 45.9917 35.8148 38.7229C39.5245 35.0338 42.5703 31.988 42.5772 31.9537C42.5908 31.9264 40.8592 31.9058 38.7237 31.9058C34.3912 31.9058 34.5212 31.9195 34.2064 31.4336C34.1174 31.2967 33.4398 30.0647 32.7006 28.6889C31.9683 27.3201 31.3386 26.1702 31.3043 26.136C31.277 26.1086 30.5651 27.5391 29.7233 29.3186Z" fill="white"/>
</svg>
