<svg width="56" height="56" viewBox="0 0 56 56" fill="none" xmlns="http://www.w3.org/2000/svg">
<circle cx="28" cy="28" r="28" fill="#1E4193"/>
<circle cx="28" cy="28" r="28" fill="#1E4193"/>
<g clip-path="url(#clip0_1093_1170)">
<path d="M26.758 12.0906C26.4296 12.2724 20.3601 17.5092 20.2311 17.732C20.061 18.0076 20.061 18.295 20.2311 18.5882C20.4715 19.0104 20.5771 19.0339 22.1897 19.0339H23.6147V30.5278V42.0217H26.7814C29.8426 42.0217 29.9599 42.0159 30.1827 41.9044C30.5991 41.6933 30.6518 41.4998 30.6518 40.2331V39.1424L30.47 39.0427C29.9657 38.7671 29.045 38.1161 28.6169 37.7291C24.3009 33.8646 24.3009 27.1852 28.6169 23.3265C29.0509 22.9336 29.995 22.2651 30.4642 22.0129L30.6518 21.9132V20.4706V19.0339H32.0593C33.3611 19.0339 33.4901 19.0221 33.7012 18.9166C34.1352 18.6937 34.2877 18.1484 34.0355 17.7261C33.883 17.474 27.6259 12.0906 27.4148 12.032C27.1919 11.9733 26.9398 11.9968 26.758 12.0906Z" fill="white"/>
<path d="M34.2285 22.6463C32.3402 22.8809 30.7628 23.6491 29.4492 24.9803C28.2822 26.159 27.6137 27.4139 27.2677 29.0618C27.1269 29.7538 27.1269 31.3019 27.2677 31.9939C27.6137 33.6418 28.2822 34.8967 29.4492 36.0754C30.6161 37.26 31.918 37.9637 33.5835 38.3097C34.2578 38.4504 35.8177 38.4504 36.5156 38.3097C39.7585 37.6646 42.2039 35.2427 42.89 31.9939C43.0366 31.3019 43.0366 29.7538 42.89 29.0618C42.2098 25.8365 39.7644 23.3969 36.5684 22.7577C36.1344 22.6698 34.6214 22.5994 34.2285 22.6463ZM35.46 24.4877C35.8236 24.6753 35.9292 24.9392 35.9292 25.6723V26.2821L36.3572 26.4933C36.9143 26.7689 37.3718 27.1794 37.4539 27.4843C37.6239 28.1118 37.0434 28.7041 36.4042 28.5633C36.3045 28.5399 36.1109 28.4285 35.9702 28.317C35.6594 28.0473 35.3134 27.8889 35.0495 27.8889C34.6038 27.8889 34.1699 28.317 34.1699 28.7569C34.1699 29.2143 34.6097 29.6482 35.0671 29.6482C35.9878 29.6482 36.9202 30.2171 37.3542 31.0439C37.7588 31.818 37.7823 32.68 37.4128 33.4482C37.2017 33.8822 36.6329 34.4569 36.24 34.6387L35.9292 34.7794V35.3834C35.9292 36.1165 35.8236 36.3804 35.46 36.568C35.1609 36.7205 34.9146 36.7146 34.6273 36.5563C34.2637 36.351 34.1699 36.1047 34.1699 35.3834V34.7794L33.7477 34.5742C33.214 34.3162 32.4517 33.6007 32.3813 33.2958C32.2405 32.6448 32.8328 32.0526 33.4427 32.2226C33.5659 32.2578 33.7946 32.4161 33.9998 32.6097C34.5628 33.1492 35.0085 33.2782 35.46 33.0495C35.7239 32.9146 35.9292 32.5803 35.9292 32.2871C35.9292 31.8297 35.4952 31.4075 35.0261 31.4075C34.3869 31.4075 33.7007 31.1143 33.2023 30.6158C32.3696 29.8007 32.1878 28.6454 32.7097 27.5547C32.8915 27.1735 33.4838 26.5929 33.8649 26.4229L34.1699 26.2821V25.6664C34.1757 24.9392 34.2578 24.7281 34.6156 24.5111C34.897 24.3411 35.1551 24.3352 35.46 24.4877Z" fill="white"/>
<path d="M18.7933 24.4937C18.6585 24.5641 18.5236 24.699 18.4532 24.8397C18.3359 25.0684 18.3359 25.1681 18.3359 33.5481V42.0219H20.0952H21.8545V33.1962V24.3706H20.4353C19.1335 24.3764 18.9927 24.3881 18.7933 24.4937Z" fill="white"/>
<path d="M13.4574 31.5304C13.3225 31.6008 13.1877 31.7356 13.1173 31.8764C13 32.0992 13 32.2165 13 36.7144C13 41.1243 13.0059 41.3295 13.1114 41.5407C13.1759 41.6697 13.3167 41.8104 13.4574 41.8925C13.6803 42.0157 13.7506 42.0215 15.1053 42.0215H16.5185V36.7144V31.4072H15.0994C13.7975 31.4131 13.6568 31.4248 13.4574 31.5304Z" fill="white"/>
</g>
<defs>
<clipPath id="clip0_1093_1170">
<rect width="30" height="31" fill="white" transform="translate(13 12)"/>
</clipPath>
</defs>
</svg>
