<svg width="30" height="31" viewBox="0 0 30 31" fill="none" xmlns="http://www.w3.org/2000/svg">
<path d="M1.14772 0.080204C0.747658 0.204815 0.393504 0.51306 0.177077 0.926239L0 1.26072V13.2954C0 23.0084 0.0196752 25.376 0.0852592 25.5727C0.236102 25.999 0.524672 26.3204 0.931293 26.5171L1.31168 26.7073L6.70269 26.727C12.6708 26.7467 12.5593 26.7532 12.5593 26.3597C12.5593 26.0777 12.92 25.4022 13.2283 25.1333C13.7858 24.6283 13.8579 24.6152 16.1009 24.5758L18.1012 24.543L16.6583 23.5199C15.8648 22.9559 15.1696 22.4378 15.1106 22.3722C14.6449 21.8344 14.6843 20.8638 15.1958 20.4047C15.6156 20.0177 16.3567 19.8931 16.8026 20.1358L17.0059 20.2473L18.6193 17.9715L20.2261 15.6958L20.0031 15.4531C19.767 15.1908 19.6424 14.8497 19.6424 14.4759C19.6424 14.2332 19.8392 13.7348 19.9638 13.6627C20.0162 13.6299 20.0359 12.6592 20.0359 10.3441V7.07146L17.6618 7.05178C15.3139 7.03211 15.2745 7.03211 14.9728 6.88127C14.5072 6.64516 14.1137 6.27134 13.8645 5.80569L13.6415 5.39251L13.6087 2.70357L13.5759 0.0146217L7.50937 0.0015049C2.46596 -0.00505447 1.39038 0.00806236 1.14772 0.080204ZM4.06621 2.31006C4.15803 2.39532 4.23017 2.52649 4.23017 2.59863C4.23017 2.76915 4.57121 3.0446 4.90568 3.13642C5.24016 3.22824 5.78451 3.17577 6.06652 3.03148C6.17801 2.97246 6.32886 2.82817 6.401 2.70357C6.53217 2.48714 6.76171 2.37564 6.94535 2.44779C6.99781 2.46746 7.10275 2.57895 7.16833 2.69701C7.32573 2.9659 7.69956 3.14954 8.17833 3.18233C8.47345 3.202 8.61774 3.17577 8.90631 3.0446C9.22111 2.90032 9.27358 2.84785 9.35884 2.59863C9.41786 2.42155 9.5228 2.27071 9.62117 2.21824C9.77202 2.13298 9.81137 2.13298 9.96877 2.23792L10.1393 2.34941L10.1196 4.06771C10.0934 5.55647 10.0737 5.84504 9.95565 6.2451C9.50968 7.79288 8.72923 8.83567 7.64054 9.35378C6.95846 9.6817 6.59775 9.67514 5.92879 9.34723C4.8401 8.80288 4.11868 7.85847 3.66615 6.36971C3.49563 5.81225 3.48251 5.71387 3.45628 4.07427L3.43004 2.35597L3.58089 2.25104C3.79076 2.10675 3.88257 2.11987 4.06621 2.31006ZM18.0684 11.9706C18.252 12.1149 18.2651 12.4297 18.0946 12.5543C17.9963 12.6264 16.5272 12.6395 9.995 12.6395H2.00687L1.90849 12.4953C1.77077 12.2985 1.77733 12.1411 1.93473 11.9837C2.0659 11.8525 2.15116 11.8525 9.995 11.8525C17.5503 11.8525 17.9307 11.8591 18.0684 11.9706ZM17.8848 15.1121C18.029 15.2432 18.0356 15.5121 17.8913 15.6695C17.7929 15.781 17.4585 15.7876 9.92286 15.7876C2.15116 15.7876 2.0659 15.7876 1.93473 15.6564C1.86259 15.5843 1.80356 15.4662 1.80356 15.3941C1.80356 15.3219 1.86259 15.2039 1.93473 15.1317C2.0659 15.0006 2.15116 15.0006 9.9163 15.0006C17.124 15.0006 17.7733 15.0071 17.8848 15.1121ZM14.3957 18.2798C14.4678 18.3519 14.5269 18.47 14.5269 18.5421C14.5269 18.6142 14.4678 18.7323 14.3957 18.8044C14.2645 18.9356 14.1793 18.9356 8.16521 18.9356C2.15116 18.9356 2.0659 18.9356 1.93473 18.8044C1.86259 18.7323 1.80356 18.6142 1.80356 18.5421C1.80356 18.47 1.86259 18.3519 1.93473 18.2798C2.0659 18.1486 2.15116 18.1486 8.16521 18.1486C14.1793 18.1486 14.2645 18.1486 14.3957 18.2798ZM12.9004 21.4081C13.0643 21.559 13.0512 21.8541 12.8741 21.9787C12.743 22.0705 12.1134 22.0836 7.39788 22.0836C2.15116 22.0836 2.0659 22.0836 1.93473 21.9525C1.77733 21.7951 1.77077 21.6377 1.90849 21.4409L2.00687 21.2966H7.39132C12.3101 21.2966 12.7889 21.3032 12.9004 21.4081Z" fill="white"/>
<path d="M6.61742 3.6217C6.55183 3.67416 6.2895 3.78566 6.04028 3.8578C5.52872 4.02176 4.89256 4.00208 4.4597 3.82501L4.21704 3.72007L4.24983 4.72351C4.28918 5.85811 4.37444 6.2385 4.76139 7.05174C5.20736 7.97647 6.14521 8.78972 6.78793 8.79627C7.14209 8.80283 7.63397 8.52082 8.09961 8.05518C8.88662 7.26817 9.28668 6.19915 9.3785 4.65792C9.40474 4.21851 9.41129 3.83157 9.38506 3.79877C9.36539 3.76598 9.20143 3.79221 9.00467 3.8578C8.81448 3.92338 8.49312 3.97585 8.28981 3.98241C7.87007 3.98241 7.1093 3.77254 6.98469 3.6217C6.87975 3.49709 6.78138 3.49709 6.61742 3.6217ZM8.21767 4.80877C8.52591 5.01864 8.42753 5.19571 7.46345 6.1598C6.78793 6.84187 6.51904 7.06486 6.39443 7.06486C6.178 7.06486 5.21392 6.12045 5.21392 5.90402C5.21392 5.74662 5.42379 5.49084 5.5484 5.49084C5.67301 5.49084 5.89599 5.63513 6.14521 5.87123L6.39443 6.10733L7.10274 5.40558C7.51592 5.00552 7.87007 4.70383 7.94221 4.70383C8.01435 4.70383 8.13896 4.74974 8.21767 4.80877Z" fill="white"/>
<path d="M14.3958 2.90029C14.3958 5.01866 14.4023 5.13671 14.5335 5.4056C14.6974 5.74664 15.1237 6.12703 15.4451 6.21884C15.5828 6.25819 16.4092 6.27787 17.5831 6.26475L19.4916 6.24508L17.1044 3.62172C15.7927 2.17887 14.645 0.926213 14.5597 0.834396L14.3958 0.670436V2.90029Z" fill="white"/>
<path d="M20.7639 13.9774C20.436 14.161 20.3376 14.6005 20.5606 14.889C20.6328 14.9808 21.6428 15.7285 22.8036 16.5483C24.6596 17.8665 24.9482 18.0502 25.1646 18.0502C25.7286 18.0502 25.9844 17.3747 25.5778 16.9746C25.4138 16.8172 22.4888 14.7185 21.5116 14.0627C21.2296 13.8659 21.0066 13.8462 20.7639 13.9774Z" fill="white"/>
<path d="M19.2948 18.3781C18.4357 19.5849 17.7208 20.6145 17.7077 20.6604C17.6683 20.7588 20.4229 22.7067 20.495 22.6345C20.6196 22.5034 23.643 18.2076 23.643 18.1551C23.643 18.1027 21.0918 16.2663 20.9344 16.2073C20.882 16.1876 20.2327 17.0533 19.2948 18.3781Z" fill="white"/>
<path d="M22.7053 20.8834C22.4364 21.2703 22.3643 21.4146 22.4233 21.4736C22.6004 21.6507 28.9423 26.1104 29.1391 26.1957C29.408 26.3072 29.749 26.2219 29.9064 25.9989C30.0376 25.8087 30.031 25.3628 29.8867 25.1923C29.8277 25.1136 28.8046 24.3659 27.611 23.5264C26.4239 22.6804 24.9352 21.631 24.3121 21.1851C23.6825 20.7391 23.1447 20.3784 23.1185 20.3784C23.0857 20.3784 22.902 20.6079 22.7053 20.8834Z" fill="white"/>
<path d="M15.8909 20.8769C15.7926 20.9294 15.6811 21.0278 15.6417 21.0999C15.5237 21.3163 15.563 21.6705 15.727 21.8476C15.9696 22.1165 19.9572 24.9038 20.1605 24.9431C20.3769 24.989 20.7179 24.8316 20.8229 24.648C20.9212 24.4512 20.9016 24.1036 20.7704 23.9397C20.6655 23.8085 16.7632 21.0146 16.4484 20.8507C16.2648 20.7457 16.1074 20.7523 15.8909 20.8769Z" fill="white"/>
<path d="M14.1334 25.4678C13.8382 25.5989 13.6284 25.7957 13.471 26.0974C13.2283 26.5761 12.9922 26.5433 16.5337 26.5433H19.7146L19.6752 26.3925C19.5637 26.0252 19.3145 25.7104 18.9997 25.5399L18.6718 25.3628H16.5206C14.7433 25.3694 14.3236 25.3825 14.1334 25.4678Z" fill="white"/>
<path d="M12.4478 27.4681C11.9821 27.6976 11.8838 27.9337 11.851 28.9044C11.8313 29.4618 11.8444 29.7832 11.8969 29.875L11.9756 30.0193L16.5468 30.0062L21.118 29.9865V28.9896C21.118 27.9009 21.0918 27.8157 20.6655 27.5009C20.4884 27.3631 20.4097 27.3631 16.6058 27.3435C12.7757 27.3303 12.7167 27.3303 12.4478 27.4681Z" fill="white"/>
</svg>
