<svg width="56" height="56" viewBox="0 0 56 56" fill="none" xmlns="http://www.w3.org/2000/svg">
<circle cx="28" cy="28" r="28" fill="#1E4193"/>
<circle cx="28" cy="28" r="28" fill="#1E4193"/>
<g clip-path="url(#clip0_1093_1128)">
<path d="M19.5221 10.14C19.3687 10.2201 19.2153 10.3734 19.1353 10.5335C19.0153 10.7736 19.002 10.9203 19.002 12.4007V14.0011H20.6024C22.0828 14.0011 22.2295 13.9878 22.4696 13.8678C22.643 13.7811 22.783 13.641 22.8697 13.4676C22.9898 13.2276 23.003 13.0809 23.003 11.6005V10H21.3893C19.9089 10.0067 19.7488 10.02 19.5221 10.14Z" fill="white"/>
<path d="M25.0036 11.6338C25.0036 12.5874 24.9703 13.4076 24.9303 13.6144C24.7502 14.4613 24.17 15.2282 23.4165 15.6216C22.7697 15.9617 22.4563 16.0017 20.6291 16.0017H19.002L19.0153 21.6833L19.0353 27.3649L23.4965 30.5525C25.9505 32.3063 27.9911 33.74 28.0311 33.7334C28.0712 33.7334 30.0984 32.2996 32.5391 30.5525L36.9737 27.3716L36.9937 21.6833L37.007 16.0017H35.3799C34.413 16.0017 33.5994 15.9684 33.3927 15.9284C32.2523 15.6816 31.3254 14.7547 31.0787 13.6144C31.0387 13.4076 31.0053 12.5941 31.0053 11.6338V10H28.0045H25.0036V11.6338ZM28.4713 16.1351C28.8847 16.3485 29.0048 16.6486 29.0048 17.4888V18.1757L29.3649 18.349C30.0517 18.6891 30.4051 19.1093 30.4051 19.5827C30.4051 19.9628 30.2118 20.2762 29.8717 20.4496C29.4249 20.683 29.1515 20.6363 28.6113 20.2362C28.2045 19.9362 27.5043 20.0562 27.1909 20.4763C26.7441 21.0764 27.2509 22.0034 28.0245 22.0034C29.3849 22.0034 30.6385 23.037 30.932 24.3907C31.0787 25.0976 30.992 25.7044 30.6385 26.4046C30.4051 26.8648 29.805 27.4583 29.3515 27.665L29.0048 27.825V28.5186C29.0048 29.3588 28.8847 29.6589 28.4713 29.8723C28.1312 30.0457 27.8511 30.039 27.5243 29.8589C27.1109 29.6255 27.0042 29.3455 27.0042 28.5186V27.8317L26.6441 27.6583C25.9572 27.3182 25.6038 26.8981 25.6038 26.4246C25.6038 26.0445 25.7972 25.7311 26.1373 25.5511C26.5841 25.3243 26.8575 25.371 27.3976 25.7711C27.8044 26.0712 28.5046 25.9512 28.8247 25.5244C29.2715 24.9242 28.7647 24.0039 27.9778 24.0039C27.2443 24.0039 26.4707 23.6638 25.9039 23.1037C24.7035 21.9167 24.7102 20.0562 25.9305 18.8692C26.1373 18.6691 26.464 18.4291 26.6574 18.3424L27.0042 18.1823V17.4755C27.0109 16.6486 27.1042 16.4085 27.511 16.1618C27.8311 15.9684 28.1245 15.9617 28.4713 16.1351Z" fill="white"/>
<path d="M33.0059 11.6005C33.0059 13.4343 33.0392 13.581 33.526 13.8544C33.7794 13.9945 33.8595 14.0011 35.3999 14.0011H37.007V12.4007C37.007 10.9203 36.9937 10.7736 36.8736 10.5335C36.787 10.3601 36.6469 10.2201 36.4735 10.1334C36.2335 10.0133 36.0868 10 34.6063 10H33.0059V11.6005Z" fill="white"/>
<path d="M15.5 22.7101C14.6931 23.2836 14.0263 23.757 14.0196 23.7637C14.0129 23.7704 14.6664 24.2505 15.48 24.824C16.2869 25.4042 16.9604 25.8643 16.9738 25.851C16.9871 25.8376 16.9938 24.8907 16.9871 23.7437L16.9671 21.6631L15.5 22.7101Z" fill="white"/>
<path d="M39.0078 23.7705C39.0078 24.9242 39.0278 25.8711 39.0478 25.8711C39.1412 25.8711 42.002 23.7705 41.962 23.7372C41.8353 23.6238 39.0678 21.6699 39.0411 21.6699C39.0211 21.6699 39.0078 22.6168 39.0078 23.7705Z" fill="white"/>
<path d="M13 33.4666C13 39.1282 13.02 41.5022 13.0734 41.7556C13.3201 42.9026 14.2404 43.8229 15.3874 44.0696C15.8875 44.1763 40.1144 44.1763 40.6212 44.0696C41.7748 43.8229 42.7218 42.8626 42.9418 41.709C42.9952 41.4222 43.0085 39.0882 42.9952 33.4266L42.9752 25.5444L35.8398 30.6458C31.9187 33.4533 28.5911 35.8073 28.4577 35.8806C28.1576 36.034 27.8642 36.0407 27.6041 35.9073C27.4975 35.854 24.2032 33.52 20.2887 30.7192C16.3743 27.9184 13.1267 25.6111 13.0867 25.5844C13.02 25.5377 13 27.1315 13 33.4666ZM38.4739 38.2747C38.774 38.428 39.0074 38.8081 39.0074 39.1416C39.0074 39.475 38.774 39.8551 38.4739 40.0085C38.2405 40.1285 38.0805 40.1419 37.0002 40.1419C35.8732 40.1419 35.7731 40.1352 35.5264 39.9951C34.8529 39.615 34.8462 38.7014 35.5131 38.3013C35.7598 38.148 35.8265 38.1413 36.9935 38.1413C38.0871 38.1413 38.2405 38.1546 38.4739 38.2747Z" fill="white"/>
</g>
<defs>
<clipPath id="clip0_1093_1128">
<rect width="30" height="35" fill="white" transform="translate(13 10)"/>
</clipPath>
</defs>
</svg>
