<svg width="30" height="30" viewBox="0 0 30 30" fill="none" xmlns="http://www.w3.org/2000/svg">
<path d="M14.5763 0.121448C14.3213 0.279308 14.1392 0.582886 14.1392 0.862177V1.0929L14.4306 1.04432C14.5885 1.02004 14.8374 1.00182 14.9892 1.00182C15.141 1.00182 15.3899 1.02004 15.5538 1.04432L15.8392 1.0929V0.862177C15.8392 0.425025 15.4263 1.69277e-05 14.9892 1.69277e-05C14.8738 1.69277e-05 14.6856 0.0546609 14.5763 0.121448Z" fill="white"/>
<path d="M14.4731 2.02788C12.7427 2.45896 11.2795 4.76008 10.5934 8.13586C10.3202 9.47767 10.2473 10.2123 10.2109 12.0156L10.1744 13.746L10.5266 13.3635C12.6881 11.032 17.2842 11.032 19.4396 13.3574L19.7857 13.7278V12.4345C19.7857 11.7241 19.7553 10.8256 19.7189 10.443C19.3 5.88332 17.6546 2.59861 15.5053 2.03396C15.0863 1.92467 14.886 1.92467 14.4731 2.02788Z" fill="white"/>
<path d="M11.7106 2.459C9.86482 3.02973 8.31657 3.98903 6.93833 5.41584C5.11079 7.3041 4.0847 9.62343 3.84791 12.3981C3.82363 12.6592 3.82363 12.8717 3.84184 12.8717C3.86006 12.8717 4.00577 12.7746 4.16363 12.6531C4.52185 12.3799 4.89829 12.1917 5.43259 12.0095C5.79081 11.8881 5.97295 11.8699 6.67118 11.8699C7.3937 11.876 7.54549 11.8942 7.97657 12.0399C8.24371 12.131 8.62015 12.2949 8.81444 12.4163C9.00873 12.5317 9.17266 12.6288 9.1848 12.6288C9.19695 12.6288 9.22123 12.1006 9.23945 11.457C9.33052 8.82805 9.8466 6.40551 10.7088 4.56583C11.0609 3.81903 11.3523 3.35152 11.8138 2.77472C12.0202 2.51972 12.1902 2.30721 12.1781 2.31328C12.172 2.31328 11.9595 2.38007 11.7106 2.459Z" fill="white"/>
<path d="M18.1645 2.77472C19.6885 4.66904 20.6114 7.78375 20.7389 11.457C20.7571 12.1006 20.7874 12.6288 20.8056 12.6288C20.8178 12.6288 20.9817 12.5317 21.1699 12.4163C21.3642 12.301 21.7346 12.131 22.0017 12.0399C22.4389 11.8881 22.5725 11.8699 23.3071 11.8699C24.0053 11.8699 24.1875 11.8881 24.5457 12.0095C25.08 12.1917 25.4564 12.3799 25.8147 12.6531C25.9725 12.7746 26.1182 12.8717 26.1365 12.8717C26.185 12.8717 26.1122 12.0703 25.9968 11.3235C25.3897 7.31624 22.3964 3.81295 18.4863 2.52579C18.122 2.40436 17.8184 2.30721 17.8063 2.30721C17.7942 2.30721 17.9581 2.51971 18.1645 2.77472Z" fill="white"/>
<path d="M14.3395 12.6106L14.1392 12.6349V14.9542V17.2736H14.9892H15.8392V14.9603V12.647L15.5599 12.6045C15.2685 12.5681 14.6795 12.5681 14.3395 12.6106Z" fill="white"/>
<path d="M5.54185 14.4806C4.38218 14.7295 3.38645 15.6585 3.02216 16.8181C2.85215 17.3585 2.85215 18.2207 3.02216 18.761C3.44109 20.1028 4.6129 21.0379 6.0215 21.1654C7.92797 21.3293 9.65229 19.7203 9.64621 17.7714C9.64014 15.6524 7.61832 14.0252 5.54185 14.4806Z" fill="white"/>
<path d="M23.0036 14.4868C21.2125 14.8693 20.0286 16.6786 20.3989 18.4697C20.4354 18.6458 20.5689 19.0101 20.6964 19.2772C21.674 21.3051 24.3576 21.7969 26.0212 20.2608C26.7133 19.6111 27.0776 18.7672 27.0776 17.7897C27.0776 16.8 26.7133 15.9621 25.9969 15.3003C25.1712 14.5414 24.0904 14.25 23.0036 14.4868Z" fill="white"/>
<path d="M14.127 18.33C12.3602 18.8947 11.6316 21.0137 12.6638 22.568C12.9492 23.0051 13.2892 23.2844 13.8356 23.5516C14.2788 23.7641 14.3092 23.7701 14.9892 23.7701C15.6692 23.7701 15.6996 23.7641 16.161 23.5455C16.7864 23.2419 17.2296 22.8048 17.521 22.1794C17.7214 21.7665 17.7518 21.639 17.77 21.1533C17.8185 20.0786 17.3753 19.1983 16.501 18.6336C15.8514 18.2207 14.8678 18.0932 14.127 18.33Z" fill="white"/>
<path d="M5.03185 21.9122C4.37612 22.0579 4.01183 22.1854 3.4836 22.4526C1.66821 23.3633 0.429616 25.0208 0.0896096 27.0123C-0.0318214 27.7409 -0.0318214 27.8259 0.101753 27.9473C0.204969 28.0445 0.605691 28.0505 4.61291 28.0505H9.01479L9.12407 27.6984C9.26372 27.2612 9.59158 26.6116 9.9073 26.138C10.1987 25.713 10.897 24.9723 11.2309 24.7355L11.4677 24.5776L11.2673 24.3044C10.5145 23.2479 9.14229 22.3311 7.77619 21.9668C7.08403 21.7847 5.72401 21.7604 5.03185 21.9122Z" fill="white"/>
<path d="M22.5664 21.888C21.085 22.1673 19.555 23.1266 18.711 24.3045L18.5167 24.5716L18.8021 24.7902C19.6825 25.4581 20.5203 26.6542 20.8543 27.6985L20.9636 28.0506H25.3715C30.4837 28.0506 30.0345 28.1113 29.9555 27.4313C29.658 24.8084 27.7819 22.6348 25.2501 21.9791C24.5822 21.803 23.2525 21.7605 22.5664 21.888Z" fill="white"/>
<path d="M14.291 24.4683C12.1295 24.8083 10.4052 26.3748 9.93164 28.4452C9.77378 29.1434 9.76164 29.3499 9.86486 29.4956L9.95593 29.6292H14.9892H20.0226L20.1136 29.4956C20.2168 29.3499 20.2047 29.1434 20.0468 28.4452C19.6097 26.5327 18.0675 25.0026 16.1428 24.5594C15.6268 24.444 14.7464 24.4015 14.291 24.4683Z" fill="white"/>
</svg>
