<svg width="30" height="31" viewBox="0 0 30 31" fill="none" xmlns="http://www.w3.org/2000/svg">
<path d="M13.7575 0.0906353C13.4291 0.272427 7.35959 5.5092 7.23057 5.73204C7.06051 6.00766 7.06051 6.295 7.23057 6.58821C7.47101 7.01044 7.57656 7.0339 9.18923 7.0339H10.6142V18.5278V30.0217H13.7809C16.8421 30.0217 16.9594 30.0159 17.1822 29.9044C17.5986 29.6933 17.6513 29.4998 17.6513 28.2331V27.1424L17.4695 27.0427C16.9652 26.7671 16.0445 26.1161 15.6164 25.7291C11.3004 21.8646 11.3004 15.1852 15.6164 11.3265C16.0504 10.9336 16.9945 10.2651 17.4637 10.0129L17.6513 9.91324V8.47064V7.0339H19.0588C20.3606 7.0339 20.4896 7.02217 20.7007 6.91661C21.1347 6.69377 21.2872 6.1484 21.035 5.72617C20.8825 5.47401 14.6254 0.0906353 14.4143 0.031992C14.1914 -0.0266495 13.9393 -0.0031929 13.7575 0.0906353Z" fill="white"/>
<path d="M21.2285 10.6462C19.3402 10.8808 17.7628 11.649 16.4492 12.9802C15.2822 14.1589 14.6137 15.4138 14.2677 17.0617C14.1269 17.7537 14.1269 19.3018 14.2677 19.9938C14.6137 21.6417 15.2822 22.8966 16.4492 24.0753C17.6161 25.2599 18.918 25.9636 20.5835 26.3096C21.2578 26.4503 22.8177 26.4503 23.5156 26.3096C26.7585 25.6645 29.2039 23.2426 29.89 19.9938C30.0366 19.3018 30.0366 17.7537 29.89 17.0617C29.2098 13.8364 26.7644 11.3968 23.5684 10.7576C23.1344 10.6697 21.6214 10.5993 21.2285 10.6462ZM22.46 12.4876C22.8236 12.6752 22.9292 12.9391 22.9292 13.6722V14.282L23.3572 14.4932C23.9143 14.7688 24.3718 15.1793 24.4539 15.4842C24.6239 16.1117 24.0434 16.704 23.4042 16.5632C23.3045 16.5398 23.1109 16.4284 22.9702 16.3169C22.6594 16.0472 22.3134 15.8888 22.0495 15.8888C21.6038 15.8888 21.1699 16.3169 21.1699 16.7568C21.1699 17.2142 21.6097 17.6481 22.0671 17.6481C22.9878 17.6481 23.9202 18.217 24.3542 19.0438C24.7588 19.8179 24.7823 20.6799 24.4128 21.4481C24.2017 21.8821 23.6329 22.4568 23.24 22.6386L22.9292 22.7793V23.3833C22.9292 24.1164 22.8236 24.3803 22.46 24.5679C22.1609 24.7204 21.9146 24.7145 21.6273 24.5562C21.2637 24.3509 21.1699 24.1046 21.1699 23.3833V22.7793L20.7477 22.5741C20.214 22.3161 19.4517 21.6006 19.3813 21.2957C19.2405 20.6447 19.8328 20.0525 20.4427 20.2225C20.5659 20.2577 20.7946 20.416 20.9998 20.6096C21.5628 21.1491 22.0085 21.2781 22.46 21.0494C22.7239 20.9145 22.9292 20.5802 22.9292 20.287C22.9292 19.8296 22.4952 19.4074 22.0261 19.4074C21.3869 19.4074 20.7007 19.1142 20.2023 18.6157C19.3696 17.8006 19.1878 16.6453 19.7097 15.5546C19.8915 15.1734 20.4838 14.5928 20.8649 14.4228L21.1699 14.282V13.6663C21.1757 12.9391 21.2578 12.728 21.6156 12.511C21.897 12.341 22.1551 12.3351 22.46 12.4876Z" fill="white"/>
<path d="M5.79384 12.4935C5.65896 12.5639 5.52408 12.6988 5.45371 12.8395C5.33643 13.0682 5.33643 13.1679 5.33643 21.5479V30.0217H7.0957H8.85497V21.196V12.3704H7.43582C6.13396 12.3762 5.99322 12.3879 5.79384 12.4935Z" fill="white"/>
<path d="M0.457411 19.5306C0.322533 19.601 0.187656 19.7358 0.117285 19.8766C0 20.0994 0 20.2167 0 24.7146C0 29.1245 0.00586424 29.3297 0.111421 29.5409C0.175927 29.6699 0.316669 29.8106 0.457411 29.8927C0.680252 30.0159 0.750623 30.0217 2.10526 30.0217H3.51855V24.7146V19.4074H2.0994C0.797537 19.4133 0.656795 19.425 0.457411 19.5306Z" fill="white"/>
</svg>
