<svg width="30" height="30" viewBox="0 0 30 30" fill="none" xmlns="http://www.w3.org/2000/svg">
<path d="M2.06341 0.102942C1.08919 0.363136 0.350961 1.11347 0.0907657 2.09374C0.0121021 2.40839 0 3.69726 0 12.7859C0 20.2106 0.0181531 23.2058 0.0665615 23.4358C0.272297 24.3918 1.00447 25.1966 1.94239 25.4871C2.29335 25.596 2.57775 25.6021 7.59406 25.6021H12.8766L12.7254 25.1966C12.4531 24.4402 12.326 23.7081 12.3199 22.7883C12.3139 22.3224 12.3381 21.7959 12.3623 21.6144L12.4107 21.2937L12.2594 21.4631L12.1142 21.6386L10.7346 21.6568C8.84058 21.681 8.83453 21.681 8.83453 20.622C8.83453 19.9746 8.84058 19.9625 9.01001 19.787L9.18549 19.6115H10.6135H12.0416L12.2292 19.7809C12.4046 19.9383 12.4228 19.9927 12.4652 20.4647C12.4894 20.7431 12.5136 20.9125 12.5196 20.8399C12.5317 20.6099 12.9553 19.4723 13.2276 18.9217C13.3789 18.6252 13.6754 18.1109 13.8811 17.772L14.2684 17.1608L14.1352 16.9793C14.0263 16.822 14.0082 16.7131 14.0082 16.2169C14.0082 15.279 14.1655 15.1337 15.176 15.1337H15.7811L16.5738 14.22L17.3665 13.3124L17.1426 13.0401L16.9187 12.7738H15.6722C14.2926 12.7738 14.22 12.7557 14.0626 12.3745C13.9598 12.1385 13.9537 11.5092 14.0445 11.1824C14.0868 11.0251 14.1716 10.9162 14.2986 10.8375C14.4741 10.7286 14.6133 10.7165 15.7085 10.7165H16.9248L17.0095 10.5591C17.0518 10.4744 17.2455 10.2566 17.4331 10.0811L17.778 9.76646L17.3302 9.31869C16.8522 8.8467 16.6101 8.44128 16.5315 7.99351L16.483 7.72121L9.93582 7.69095L3.38859 7.6607L3.22521 7.49127L3.05578 7.32789L3.03763 5.9059C3.01947 4.71384 3.03157 4.4597 3.11629 4.30842C3.31597 3.9151 2.85609 3.9393 10.6317 3.9393C17.5904 3.9393 17.7054 3.9393 17.899 4.06033C18.1531 4.21765 18.2136 4.38708 18.2136 4.92562V5.3613H18.6796C18.9398 5.3613 19.2484 5.38551 19.3633 5.40971C19.563 5.45812 19.5812 5.44602 19.6901 5.24028C19.9261 4.79855 20.7672 4.18135 21.1363 4.18135C21.2452 4.18135 21.2513 4.12084 21.2271 3.13452L21.2089 2.09374L20.985 1.62175C20.6038 0.829067 19.9866 0.314728 19.1395 0.0968914C18.6251 -0.036232 2.55959 -0.0301819 2.06341 0.102942ZM6.86189 10.777C7.14023 10.8799 7.26126 11.1703 7.26126 11.727C7.26126 12.2776 7.21285 12.4592 7.01316 12.6468C6.88004 12.7678 6.81348 12.7738 5.42779 12.7738H3.98159L3.80611 12.5984C3.63668 12.4229 3.63063 12.4047 3.63063 11.7936C3.63668 11.1219 3.69114 10.9404 3.93923 10.8012C4.11471 10.7044 6.61984 10.6802 6.86189 10.777ZM12.1445 10.8375C12.3986 10.9888 12.4894 11.3216 12.4531 11.9509C12.4228 12.3987 12.4107 12.441 12.2292 12.6044L12.0416 12.7738H10.6135H9.18549L9.01001 12.5984C8.84058 12.4229 8.83453 12.4047 8.83453 11.7754C8.83453 10.7165 8.82848 10.7225 10.6196 10.7165C11.8358 10.7165 11.969 10.7286 12.1445 10.8375ZM6.87399 15.2245C7.15234 15.3395 7.26126 15.6057 7.26126 16.1927C7.26126 16.7857 7.15234 17.0459 6.86189 17.1669C6.68641 17.2395 6.39596 17.2577 5.31282 17.2395L3.98159 17.2214L3.80611 17.0217C3.63668 16.8341 3.63063 16.8038 3.63063 16.1987C3.63063 15.6541 3.64878 15.5513 3.7577 15.4121C3.83031 15.3213 3.94528 15.2185 4.01789 15.1943C4.08446 15.164 4.71377 15.1398 5.40358 15.1398C6.3778 15.1337 6.71061 15.1519 6.87399 15.2245ZM12.0295 15.2003C12.3562 15.3153 12.4349 15.5089 12.4349 16.1927C12.4349 16.8946 12.3502 17.0882 11.9871 17.1971C11.854 17.2335 11.2852 17.2516 10.4804 17.2395L9.18549 17.2214L9.01001 17.0217C8.84058 16.8341 8.83453 16.8038 8.83453 16.1987C8.83453 15.6541 8.85268 15.5513 8.9616 15.4121C9.03421 15.3213 9.14918 15.2185 9.22179 15.1943C9.40938 15.1156 11.8056 15.1216 12.0295 15.2003ZM7.05552 19.7991C7.2189 19.9746 7.231 20.0109 7.24915 20.5676C7.26731 21.0759 7.24915 21.1848 7.14023 21.3542C7.07367 21.4631 6.9466 21.5781 6.86189 21.6084C6.77717 21.6447 6.12366 21.6689 5.40964 21.6689C3.64878 21.6689 3.63063 21.6568 3.63063 20.5736C3.63063 19.9806 3.63668 19.9625 3.80611 19.787L3.98159 19.6115H5.42779H6.87399L7.05552 19.7991Z" fill="white"/>
<path d="M21.1909 5.16763C20.8944 5.25839 20.5434 5.63356 20.4284 5.97847C20.2288 6.57147 19.8838 6.71669 19.2908 6.45045C18.9822 6.31127 18.8673 6.28707 18.5889 6.31732C17.9354 6.38389 17.4695 6.90428 17.4695 7.56384C17.4695 8.02372 17.5845 8.2234 18.2622 8.91322L18.8431 9.50623H21.6326H24.4221L25.003 8.91322C25.6808 8.21735 25.8018 8.02372 25.8018 7.56989C25.8078 6.91638 25.3298 6.38389 24.6763 6.31732C24.3979 6.28707 24.283 6.31127 23.9744 6.45045C23.3814 6.71669 23.0364 6.57147 22.8368 5.97847C22.6068 5.2947 21.8988 4.93769 21.1909 5.16763Z" fill="white"/>
<path d="M18.4859 10.547C18.1834 10.6559 17.9292 10.8798 17.79 11.1702C17.5056 11.7572 17.7416 12.5075 18.3044 12.798C18.5404 12.925 18.619 12.925 21.6748 12.925H24.7972L25.0634 12.7435C25.4265 12.4833 25.5959 12.1626 25.5959 11.7269C25.5959 11.1521 25.2933 10.7225 24.7548 10.5409C24.4825 10.4502 18.7461 10.4562 18.4859 10.547Z" fill="white"/>
<path d="M17.6205 14.4862C15.9868 16.3621 14.7402 18.0806 14.0928 19.3513C12.6103 22.2679 13.1428 25.4447 15.5027 27.6957C16.6403 28.7849 18.2075 29.5715 19.8473 29.8801C20.6461 30.0253 22.6126 30.0253 23.4053 29.8801C25.0875 29.5654 26.564 28.8333 27.7379 27.7199C29.9344 25.6383 30.5698 22.8306 29.4745 20.0048C28.9904 18.7462 27.6471 16.7977 25.7592 14.6254C25.0512 13.8085 25.0512 13.8085 24.8576 13.869C24.5974 13.9416 18.6674 13.9416 18.4072 13.869C18.2135 13.8085 18.2075 13.8146 17.6205 14.4862ZM21.9894 16.8582C22.1225 16.9793 22.1467 17.0519 22.1467 17.3363V17.663L22.4674 17.772C22.9091 17.9172 23.248 18.1229 23.5687 18.4436C23.8471 18.728 24.1436 19.2424 24.1436 19.442C24.1436 19.6659 23.9681 19.9019 23.7502 19.9745C23.484 20.0653 23.2601 19.9685 23.0786 19.672C22.6974 19.0729 22.3646 18.8369 21.8079 18.7825C21.2088 18.722 20.5553 19.0003 20.3677 19.3997C20.2164 19.7204 20.2406 20.1137 20.4282 20.3376C20.6642 20.6159 20.9668 20.743 21.8563 20.9427C23.1572 21.2332 23.7805 21.6325 24.1315 22.3828C24.3675 22.8851 24.3614 23.5568 24.1254 24.0408C23.8289 24.6459 23.2056 25.0695 22.3161 25.2631C22.1588 25.2995 22.1467 25.3237 22.1467 25.6202C22.1407 25.953 22.0802 26.08 21.8623 26.195C21.6566 26.31 21.4448 26.2797 21.2572 26.1224C21.1241 26.0074 21.0817 25.9106 21.0575 25.6323L21.0273 25.2874L20.6521 25.1663C19.7081 24.8819 18.867 23.9138 18.9276 23.1876C18.9578 22.8609 19.333 22.6491 19.6839 22.7701C19.8171 22.8185 19.9018 22.9214 20.0289 23.2058C20.2164 23.6233 20.4948 23.9198 20.8336 24.059C21.2028 24.2103 21.7594 24.2405 22.2012 24.1256C22.9455 23.938 23.2117 23.6475 23.1633 23.109C23.1088 22.5583 22.6732 22.2558 21.6021 22.0319C20.2467 21.7414 19.6597 21.3844 19.3088 20.6401C19.1817 20.3679 19.1514 20.2226 19.1514 19.8233C19.1575 18.8672 19.6839 18.1774 20.6642 17.8204L21.0273 17.6872L21.0575 17.3423C21.0817 17.064 21.1241 16.9672 21.2572 16.8522C21.4811 16.6586 21.7776 16.6586 21.9894 16.8582Z" fill="white"/>
</svg>
