<svg width="56" height="56" viewBox="0 0 56 56" fill="none" xmlns="http://www.w3.org/2000/svg">
<circle cx="28" cy="28" r="28" fill="#1E4193"/>
<circle cx="28" cy="28" r="28" fill="#1E4193"/>
<path d="M27.5758 13.1213C27.3208 13.2792 27.1387 13.5828 27.1387 13.8621V14.0928L27.4301 14.0442C27.588 14.0199 27.8369 14.0017 27.9887 14.0017C28.1405 14.0017 28.3894 14.0199 28.5533 14.0442L28.8387 14.0928V13.8621C28.8387 13.4249 28.4258 12.9999 27.9887 12.9999C27.8733 12.9999 27.6851 13.0545 27.5758 13.1213Z" fill="white"/>
<path d="M27.4725 15.0275C25.7421 15.4586 24.2788 17.7597 23.5928 21.1355C23.3195 22.4773 23.2467 23.212 23.2103 25.0152L23.1738 26.7456L23.526 26.3631C25.6874 24.0316 30.2836 24.0316 32.439 26.357L32.7851 26.7274V25.4342C32.7851 24.7238 32.7547 23.8252 32.7183 23.4427C32.2994 18.883 30.654 15.5982 28.5046 15.0336C28.0857 14.9243 27.8853 14.9243 27.4725 15.0275Z" fill="white"/>
<path d="M24.7098 15.4589C22.8641 16.0296 21.3158 16.9889 19.9376 18.4157C18.1101 20.304 17.084 22.6233 16.8472 25.398C16.8229 25.6591 16.8229 25.8716 16.8411 25.8716C16.8593 25.8716 17.005 25.7744 17.1629 25.653C17.5211 25.3798 17.8976 25.1916 18.4319 25.0094C18.7901 24.888 18.9722 24.8698 19.6705 24.8698C20.393 24.8758 20.5448 24.8941 20.9758 25.0398C21.243 25.1309 21.6194 25.2948 21.8137 25.4162C22.008 25.5316 22.1719 25.6287 22.1841 25.6287C22.1962 25.6287 22.2205 25.1005 22.2387 24.4569C22.3298 21.8279 22.8459 19.4054 23.708 17.5657C24.0602 16.8189 24.3516 16.3514 24.8131 15.7746C25.0195 15.5196 25.1895 15.3071 25.1773 15.3132C25.1713 15.3132 24.9588 15.3799 24.7098 15.4589Z" fill="white"/>
<path d="M31.1655 15.7746C32.6895 17.6689 33.6123 20.7836 33.7398 24.4569C33.758 25.1005 33.7884 25.6287 33.8066 25.6287C33.8188 25.6287 33.9827 25.5316 34.1709 25.4162C34.3652 25.3009 34.7356 25.1309 35.0027 25.0398C35.4399 24.888 35.5734 24.8698 36.3081 24.8698C37.0063 24.8698 37.1885 24.888 37.5467 25.0094C38.081 25.1916 38.4574 25.3798 38.8156 25.653C38.9735 25.7744 39.1192 25.8716 39.1374 25.8716C39.186 25.8716 39.1132 25.0701 38.9978 24.3233C38.3906 20.3161 35.3974 16.8128 31.4873 15.5257C31.123 15.4042 30.8194 15.3071 30.8073 15.3071C30.7951 15.3071 30.9591 15.5196 31.1655 15.7746Z" fill="white"/>
<path d="M27.339 25.6105L27.1387 25.6348V27.9541V30.2734H27.9887H28.8387V27.9602V25.6469L28.5594 25.6044C28.268 25.568 27.679 25.568 27.339 25.6105Z" fill="white"/>
<path d="M18.5417 27.4805C17.3821 27.7294 16.3863 28.6583 16.022 29.818C15.852 30.3584 15.852 31.2205 16.022 31.7609C16.441 33.1027 17.6128 34.0377 19.0214 34.1652C20.9278 34.3292 22.6522 32.7202 22.6461 30.7712C22.64 28.6523 20.6182 27.0251 18.5417 27.4805Z" fill="white"/>
<path d="M36.0027 27.4866C34.2115 27.8691 33.0276 29.6785 33.398 31.4696C33.4344 31.6456 33.568 32.0099 33.6955 32.2771C34.673 34.305 37.3566 34.7968 39.0202 33.2607C39.7124 32.611 40.0767 31.7671 40.0767 30.7896C40.0767 29.7999 39.7124 28.962 38.9959 28.3002C38.1702 27.5413 37.0895 27.2498 36.0027 27.4866Z" fill="white"/>
<path d="M27.1266 31.3299C25.3597 31.8946 24.6312 34.0135 25.6633 35.5679C25.9487 36.005 26.2887 36.2843 26.8351 36.5514C27.2783 36.7639 27.3087 36.77 27.9887 36.77C28.6687 36.77 28.6991 36.7639 29.1605 36.5454C29.7859 36.2418 30.2291 35.8046 30.5206 35.1793C30.7209 34.7664 30.7513 34.6389 30.7695 34.1532C30.8181 33.0785 30.3748 32.1981 29.5005 31.6335C28.8509 31.2206 27.8673 31.0931 27.1266 31.3299Z" fill="white"/>
<path d="M18.0318 34.912C17.3761 35.0577 17.0118 35.1852 16.4836 35.4523C14.6682 36.3631 13.4296 38.0206 13.0896 40.0121C12.9682 40.7406 12.9682 40.8256 13.1018 40.9471C13.205 41.0442 13.6057 41.0503 17.6129 41.0503H22.0148L22.1241 40.6981C22.2637 40.261 22.5916 39.6113 22.9073 39.1378C23.1987 38.7127 23.897 37.972 24.2309 37.7352L24.4677 37.5774L24.2673 37.3041C23.5145 36.2477 22.1423 35.3309 20.7762 34.9666C20.084 34.7845 18.724 34.7602 18.0318 34.912Z" fill="white"/>
<path d="M35.5673 34.8877C34.0858 35.167 32.5558 36.1263 31.7119 37.3042L31.5176 37.5714L31.8029 37.7899C32.6833 38.4578 33.5212 39.6539 33.8551 40.6982L33.9644 41.0504H38.3724C43.4846 41.0504 43.0353 41.1111 42.9564 40.4311C42.6589 37.8082 40.7828 35.6345 38.2509 34.9788C37.5831 34.8027 36.2534 34.7602 35.5673 34.8877Z" fill="white"/>
<path d="M27.2917 37.4681C25.1303 37.8081 23.406 39.3746 22.9324 41.445C22.7745 42.1432 22.7624 42.3496 22.8656 42.4953L22.9567 42.6289H27.99H33.0233L33.1144 42.4953C33.2176 42.3496 33.2054 42.1432 33.0476 41.445C32.6104 39.5324 31.0682 38.0024 29.1436 37.5592C28.6275 37.4438 27.7471 37.4013 27.2917 37.4681Z" fill="white"/>
</svg>
