<svg width="75" height="77" viewBox="0 0 75 77" fill="none" xmlns="http://www.w3.org/2000/svg">
<path fill-rule="evenodd" clip-rule="evenodd" d="M36.26 0.337995C36.6377 0.116501 37.0651 0 37.5 0C37.9349 0 38.3623 0.116501 38.74 0.337995L73.74 20.8727C74.1226 21.0971 74.4407 21.4214 74.662 21.8127C74.8832 22.2039 74.9999 22.6483 75 23.1008V26.797C75.0001 38.1218 71.4069 49.1383 64.7642 58.179C58.1214 67.2196 48.7909 73.7922 38.185 76.9018C37.7372 77.0327 37.2628 77.0327 36.815 76.9018C26.2091 73.7922 16.8786 67.2196 10.2358 58.179C3.59312 49.1383 -0.000137447 38.1218 3.94323e-09 26.797L3.94322e-09 23.1008C0.000142139 22.6483 0.116756 22.2039 0.338028 21.8127C0.559299 21.4214 0.877365 21.0971 1.26 20.8727L36.26 0.337995ZM35.36 54.9861L56.95 27.2693L53.05 24.0659L34.64 47.686L21.6 36.5305L18.4 40.4731L35.36 54.9861Z" fill="#5A9BD5"/>
</svg>
