<svg width="170" height="170" viewBox="0 0 170 170" fill="none" xmlns="http://www.w3.org/2000/svg">
<path d="M37.1855 0.630859C33.5996 1.79297 30.8438 4.18359 29.25 7.60352L28.3867 9.46289V31.543V53.623L29.416 55.6152C30.0137 56.7109 31.209 58.3047 32.1387 59.168C33.666 60.5957 36.0566 62.0898 36.8535 62.0898C37.0859 62.0898 37.1855 59.2344 37.1855 53.5234C37.1855 46.0195 37.2852 44.5918 37.8496 42.334C41.502 27.9902 59.1992 23.1758 69.5586 33.668C71.0195 35.1621 72.2812 36.8223 72.9453 38.1836C74.8379 42.002 75.0371 43.3301 75.0371 53.2246V62.1562L75.9668 61.9238C78.623 61.293 81.6445 58.3711 83.2383 54.918L84.168 52.959L84.2676 32.7051C84.334 18.4609 84.2676 11.8535 84.002 10.459C83.2383 6.44141 80.5488 3.02148 76.7637 1.22852L74.5391 0.166016L56.7754 0.0996094C40.5059 0.0332031 38.8457 0.0664062 37.1855 0.630859Z" fill="#5A9BD5"/>
<path d="M100.604 0.53125C97.084 1.49414 94.1621 4.01758 92.3691 7.63672L91.4727 9.46289V31.377V53.291L92.3691 55.1836C93.5977 57.8398 95.9219 60.2305 98.5781 61.5254L100.77 62.5879H119.363H137.957L139.617 61.8242C143.137 60.1641 145.893 57.043 146.922 53.4238C147.387 51.7969 147.42 48.9746 147.354 30.6465L147.254 9.76172L145.992 7.23828C144.531 4.2832 142.937 2.72266 139.783 1.19531L137.625 0.166016L120.027 0.0996094C105.318 0.0332031 102.131 0.0996094 100.604 0.53125Z" fill="#5A9BD5"/>
<path d="M53.4238 38.3164C50.5352 39.3457 48.4766 41.4043 47.5469 44.127C47.248 44.957 47.1484 55.8145 47.1484 85.1992C47.1484 107.18 47.0156 125.176 46.8828 125.176C46.75 125.176 45.3223 119.531 43.6953 112.658C41.7363 104.158 40.541 99.6758 39.9766 98.7461C39.0469 97.0859 37.5195 95.7578 35.6934 94.9277C34 94.1641 30.0156 94.0977 27.5918 94.8281C24.6367 95.6914 22.5781 98.4473 22.5781 101.502C22.5781 102.066 24.0059 108.607 25.7656 116.078C27.4922 123.549 29.2852 131.418 29.75 133.576C32.2402 145.396 38.3496 156.686 48.1445 167.643L50.2695 170H78.0605H105.852L107.18 167.908C113.422 158.014 117.473 146.525 119.398 133.344C120.229 127.732 120.494 89.5156 119.73 86.8594C119.033 84.4355 117.439 82.4766 115.215 81.2148C113.688 80.3516 113.057 80.2188 111.064 80.2188C107.213 80.1855 104.357 82.0117 102.73 85.498L101.934 87.1582V85.4648C101.934 81.6133 100.107 78.3594 96.9531 76.5664C95.4258 75.7031 94.7949 75.5703 92.8027 75.5703C88.9844 75.5371 86.0625 77.3633 84.502 80.75L83.7715 82.3438L83.5391 80.252C83.3066 77.7949 82.0449 75.0723 80.584 73.8438C75.8027 69.8262 68.6309 71.3867 66.1074 77.0312L65.4434 78.5254L65.3438 61.5918L65.2441 44.6582L64.3477 42.9648C62.1895 38.8809 57.4414 36.8887 53.4238 38.3164Z" fill="#5A9BD5"/>
</svg>
