<svg width="175" height="160" viewBox="0 0 175 160" fill="none" xmlns="http://www.w3.org/2000/svg">
<g clip-path="url(#clip0_1303_1163)">
<path d="M63.6183 25.2632C72.0546 25.2632 80.1453 28.812 86.1107 35.129C92.0761 41.446 95.4274 50.0138 95.4274 58.9474C95.4274 67.881 92.0761 76.4487 86.1107 82.7657C80.1453 89.0827 72.0546 92.6316 63.6183 92.6316C55.182 92.6316 47.0912 89.0827 41.1258 82.7657C35.1604 76.4487 31.8091 67.881 31.8091 58.9474C31.8091 50.0138 35.1604 41.446 41.1258 35.129C47.0912 28.812 55.182 25.2632 63.6183 25.2632ZM63.6183 109.474C84.8509 109.474 127.237 120.758 127.237 143.158V160H0V143.158C0 120.758 42.3857 109.474 63.6183 109.474ZM125.328 28.2947C141.392 46.8211 141.392 72.5053 125.328 89.5158L111.968 75.2842C118.648 65.3474 118.648 52.4632 111.968 42.5263L125.328 28.2947ZM151.65 0C182.903 34.1053 182.664 85.1368 151.65 117.895L138.688 104.168C160.716 77.3895 160.716 39.1579 138.688 13.7263L151.65 0Z" fill="#5A9BD5"/>
</g>
<defs>
<clipPath id="clip0_1303_1163">
<rect width="175" height="160" fill="white"/>
</clipPath>
</defs>
</svg>
