<svg width="170" height="170" viewBox="0 0 170 170" fill="none" xmlns="http://www.w3.org/2000/svg">
<path d="M78.6217 17.299C57.2721 19.3576 37.9479 32.672 28.1198 52.0295L26.3932 55.4494H24.6998C18.4576 55.4494 10.6549 59.9318 6.80335 65.7424C3.15101 71.2541 2.55335 74.3088 2.75257 86.7599C2.88538 97.2521 3.0514 98.1818 5.27601 102.764C9.12757 110.6 17.6276 115.879 26.36 115.879C31.3073 115.879 36.3541 114.285 37.7155 112.26C38.9772 110.367 38.8112 108.707 36.8854 104.756C30.8092 92.2717 29.6139 78.758 33.3659 65.6427C38.1471 49.0744 51.528 35.2287 68.0631 29.7502C84.0006 24.4709 100.835 26.7619 114.813 36.092C126.965 44.1603 135.266 56.8771 138.022 71.5529C138.852 75.9025 138.819 85.6974 137.989 90.1467C134.536 108.807 121.653 124.412 104.321 130.987C101.432 132.082 96.4186 133.477 95.4225 133.477C94.9244 133.477 94.5592 133.145 94.2604 132.447C94.028 131.85 93.0651 130.588 92.1022 129.592C85.4948 122.819 73.7409 124.778 69.8561 133.311C66.0377 141.645 70.9518 151.141 79.983 152.801C85.6276 153.863 92.0026 150.576 94.7252 145.231L95.5553 143.604L98.4772 143.006C113.02 140.051 126.799 131.153 136.096 118.768L138.52 115.547L141.907 115.779C153.362 116.477 163.489 109.205 166.544 98.1154C167.407 95.0607 167.606 78.426 166.842 74.6408C165.78 69.3615 163.323 64.9787 159.505 61.4592C155.786 58.0392 149.61 55.4494 145.294 55.4494H143.567L142.305 52.8595C130.452 28.7873 105.251 14.7424 78.6217 17.299Z" fill="#5A9BD5"/>
<path d="M80.5509 39.1802C70.6895 40.3091 61.4591 44.9243 54.6524 52.1294C49.2071 57.9399 45.7208 64.7134 43.961 72.8813C43.2638 76.2016 43.1641 84.1372 43.795 87.6567C45.0567 94.895 49.1407 103.461 53.4903 108.077L54.42 109.073L52.0958 117.706C50.6016 123.317 49.838 126.67 49.9708 127.301C50.2364 128.795 51.3653 130.356 52.5938 130.954C55.0177 132.082 55.5821 131.883 65.2774 126.305L74.3087 121.159L77.0645 121.756C80.9161 122.586 89.0841 122.586 92.9688 121.756C101.336 119.963 108.342 116.245 114.186 110.5C120.361 104.424 124.711 96.1899 126.205 87.6567C126.836 84.1372 126.736 76.2016 126.039 72.8813C123.449 60.7622 116.576 51.0337 106.217 44.7915C98.9786 40.4419 88.8848 38.2505 80.5509 39.1802ZM70.5567 76.3677C75.2052 78.6255 73.5782 85.6645 68.3653 85.6645C64.2149 85.6645 61.9903 80.8501 64.6466 77.6626C66.3067 75.7036 68.2989 75.272 70.5567 76.3677ZM87.6231 76.6333C89.8145 78.2602 90.5118 80.6177 89.4493 82.8755C87.922 86.063 83.2735 86.5942 81.1485 83.8384C79.6212 81.8462 79.6544 79.5552 81.2481 77.6626C82.9415 75.6704 85.6973 75.2055 87.6231 76.6333ZM104.225 76.6001C108.01 79.4555 106.848 84.9673 102.299 85.5649C98.8458 86.0298 95.9239 82.8755 96.754 79.5552C97.0196 78.4262 98.547 76.6997 99.7755 76.1684C101.037 75.5708 103.096 75.8032 104.225 76.6001Z" fill="#5A9BD5"/>
</svg>
