<svg width="170" height="170" viewBox="0 0 170 170" fill="none" xmlns="http://www.w3.org/2000/svg">
<path d="M148.45 6.14329C145.13 7.07298 142.739 9.16477 141.245 12.3855C140.448 14.1452 140.382 14.6433 140.481 17.4988L140.614 20.6531L126.536 32.6726L112.458 44.7253L110.764 44.0613C109.436 43.5632 108.507 43.4636 106.581 43.5632C103.925 43.7292 102.132 44.4265 99.8737 46.2195L98.612 47.2156L92.9011 45.2234C89.7468 44.1277 84.2683 42.2019 80.7155 40.9402L74.2409 38.6824L73.8093 36.6902C72.9792 33.0378 70.9538 30.5808 67.4011 28.9206C65.9733 28.2566 65.0436 28.0906 63.0847 28.0574C60.8933 28.0574 60.2624 28.2234 58.3698 29.1531C55.7136 30.448 53.7546 32.5398 52.7917 35.0632C52.0944 36.989 51.9284 39.9441 52.4265 41.737L52.7253 42.7663L37.4186 56.1804C29.0183 63.5183 21.946 69.6609 21.7136 69.7937C21.5143 69.9597 20.7507 69.8269 20.0534 69.5281C18.3933 68.8308 14.5417 68.8308 12.6823 69.5281C6.37372 71.8191 3.61786 78.7917 6.60615 84.8347C7.80146 87.2585 9.3288 88.7195 11.9518 89.948C14.3757 91.0769 18.2936 91.1101 20.6511 90.0476C22.7429 89.1179 25.1003 86.8933 26.1628 84.8347C26.9929 83.3406 27.0593 82.8425 27.0593 79.489V75.8034L42.0007 62.7546C50.2351 55.5827 57.1745 49.5066 57.4733 49.2409C57.905 48.8757 58.2038 48.8757 59.2995 49.3406C60.0964 49.7058 61.5241 49.905 63.0847 49.905C65.9069 49.9382 68.364 49.0417 70.4226 47.2156L71.6179 46.1863L83.8698 50.4695C90.5768 52.8601 96.1218 54.7859 96.155 54.7859C96.1882 54.7859 96.2878 55.4499 96.3874 56.28C96.8522 59.5007 99.2097 62.655 102.43 64.3484C103.858 65.112 104.489 65.2449 107.079 65.2449C109.669 65.2449 110.3 65.112 111.926 64.3152C114.151 63.2527 116.342 60.9949 117.272 58.8366C118.102 57.0105 118.401 53.7566 117.936 52.0632L117.604 50.8015L131.085 39.28C138.489 32.905 144.93 27.4597 145.329 27.1277C146.059 26.53 146.159 26.53 147.653 27.0945C151.305 28.489 156.12 27.4265 158.942 24.6374C161.266 22.3132 162.196 20.0222 162.196 16.7683C162.196 14.4109 162.063 13.8464 161.1 11.8874C158.776 7.13938 153.464 4.74876 148.45 6.14329Z" fill="white"/>
<path d="M140.779 50.2031C139.916 50.668 139.02 51.4316 138.621 52.1289C137.957 53.291 137.957 53.6895 137.957 105.42V157.549L138.721 158.744C140.082 160.969 140.514 161.035 151.504 161.035C161.1 161.035 161.299 161.035 162.395 160.271C163.025 159.873 163.789 159.01 164.121 158.379C164.652 157.283 164.686 154.195 164.619 105.021C164.52 52.8926 164.52 52.8262 163.822 51.9297C163.457 51.4316 162.727 50.7012 162.229 50.3359C161.365 49.6719 160.801 49.6387 151.803 49.5391C142.439 49.4395 142.24 49.4727 140.779 50.2031Z" fill="white"/>
<path d="M52.1938 76.3672C51.5961 76.7324 50.8324 77.4961 50.4672 78.0938C49.8031 79.1562 49.8031 79.8535 49.8031 119.299C49.8031 163.99 49.6371 160.936 52.0941 162.43C53.2563 163.193 53.4887 163.193 63.0844 163.193C73.8422 163.193 73.975 163.16 75.5356 161.102C76.1996 160.205 76.1996 159.607 76.2992 119.697C76.3656 79.7539 76.3656 79.1895 75.7016 78.0938C75.3363 77.4961 74.5727 76.7324 73.975 76.3672C72.9457 75.7363 72.2816 75.7031 63.0844 75.7031C53.8871 75.7031 53.2231 75.7363 52.1938 76.3672Z" fill="white"/>
<path d="M96.7866 90.6451C96.4214 90.7779 95.6909 91.3756 95.1265 91.9733L94.1304 93.0026L94.0308 125.774C93.9312 162.397 93.7652 159.907 96.2554 161.467C97.3843 162.165 97.8491 162.198 106.084 162.297C111.695 162.397 115.314 162.297 116.41 162.065C118.103 161.667 119.365 160.704 120.162 159.143C120.427 158.612 120.527 149.381 120.527 126.272C120.527 90.4127 120.66 92.7037 118.236 91.0768C117.14 90.3131 116.974 90.3131 107.279 90.3463C101.867 90.3463 97.1519 90.4791 96.7866 90.6451Z" fill="white"/>
<path d="M8.03225 119.199C7.4346 119.564 6.67093 120.328 6.30569 120.926C5.67483 121.988 5.64163 122.652 5.64163 141.279C5.64163 163.127 5.50882 162.131 8.29788 163.592C9.69241 164.322 9.99124 164.355 18.8897 164.355C27.2237 164.355 28.1866 164.289 29.4483 163.691C30.2783 163.326 31.1416 162.596 31.5401 161.965C32.1709 160.902 32.2041 160.338 32.2041 141.445C32.2041 122.652 32.1709 121.988 31.5401 120.926C31.1748 120.328 30.4112 119.564 29.8135 119.199C28.7842 118.568 28.1201 118.535 18.9229 118.535C9.72561 118.535 9.06155 118.568 8.03225 119.199Z" fill="white"/>
</svg>
