<svg width="170" height="170" viewBox="0 0 170 170" fill="none" xmlns="http://www.w3.org/2000/svg">
<g clip-path="url(#clip0_1319_653)">
<path d="M42 0.199403C41.6348 0.265809 40.5391 0.498231 39.5762 0.69745C32.2051 2.19159 25.0996 8.20136 22.1446 15.4728C20.418 19.756 20.418 19.7228 20.418 40.0099C20.418 60.5295 20.3848 59.965 22.3106 64.5803C24.8672 70.756 30.8438 76.2013 37.2188 78.2599L40.1739 79.1896V87.2912C40.1739 94.8947 40.2071 95.4924 40.8711 96.8869C42.0332 99.2443 44.9219 100.24 47.2461 99.0783C47.8438 98.7795 52.5586 94.297 57.7715 89.1506L67.2344 79.7209L78.3575 79.5881C87.0899 79.4885 89.8457 79.3556 91.1407 78.9572C100.57 76.0685 106.912 69.5607 109.27 60.3967C109.934 57.7736 109.934 21.9142 109.27 19.2912C107.277 11.4553 101.6 4.78143 94.5938 1.95917C90.0118 0.132997 91.2735 0.199403 66.0723 0.132997C53.1895 0.0997936 42.3653 0.132997 42 0.199403ZM82.3418 20.6193C84.6661 21.9142 85.5957 24.7365 84.4668 26.9943C83.7696 28.3889 64.6778 47.6135 62.7852 48.842C59.6309 50.8674 58.1368 50.1369 51.0977 42.965C46.0508 37.8185 45.1543 36.6232 45.1543 34.8303C45.1543 32.4396 47.711 29.883 50.1016 29.883C51.795 29.883 53.0567 30.7463 56.709 34.3322L60.1289 37.6525L68.3301 29.4846C72.8457 25.0021 77.0625 20.9846 77.6934 20.6193C79.1875 19.7228 80.7481 19.7228 82.3418 20.6193Z" fill="#5A9BD5"/>
<path d="M116.676 10.4922C117.938 13.6797 119.232 18.3281 119.531 20.918C119.797 23.0762 119.863 29.7168 119.797 42.002L119.664 59.9316L118.801 63.1191C117.041 69.627 114.119 74.5742 109.172 79.4883L105.852 82.7754L113.289 90.2461C121.025 98.0156 122.951 99.6094 124.645 99.6094C126.537 99.5762 128.33 98.4805 129.127 96.8867C129.791 95.4922 129.824 94.8945 129.824 87.291V79.1895L132.779 78.2598C139.154 76.2012 145.131 70.7559 147.688 64.5801C149.58 60.0977 149.58 59.998 149.58 44.9902C149.58 34.166 149.48 30.6465 149.115 29.252C146.758 20.0879 140.316 13.4805 130.986 10.7246C129.891 10.3926 127.135 10.1602 122.885 10.0605C116.676 9.89453 116.443 9.89453 116.676 10.4922Z" fill="#5A9BD5"/>
<path d="M26.9277 95.6582C21.0176 96.8203 16.2363 101.9 15.207 108.043C13.9453 115.58 19.3906 123.35 26.9277 124.811C28.0234 125.043 27.127 125.109 23.2422 125.143C20.1543 125.176 17.166 125.375 15.7715 125.674C8.30078 127.234 2.05859 133.477 0.498047 140.947C0.132812 142.74 0 145.928 0 154.66C0 165.418 0.0332031 166.115 0.664062 167.344C1.0957 168.207 1.79297 168.904 2.65625 169.336C3.91797 170 4.54883 170 29.8828 170C55.2168 170 55.8477 170 57.1094 169.336C57.9727 168.904 58.6699 168.207 59.1016 167.344C59.7324 166.115 59.7656 165.418 59.7656 154.66C59.7656 141.811 59.5664 140.25 57.5742 136.133C55.8809 132.713 52.2285 129.061 48.8086 127.367C45.3555 125.707 42.6328 125.209 36.5234 125.143C32.6387 125.109 31.7422 125.043 32.8379 124.811C40.375 123.35 45.8203 115.58 44.5586 108.043C43.1641 99.5762 35.2285 94.0312 26.9277 95.6582Z" fill="#5A9BD5"/>
<path d="M137.162 95.6582C129.625 97.1191 124.18 104.889 125.441 112.426C126.471 118.568 131.252 123.648 137.162 124.811C138.258 125.043 137.361 125.109 133.477 125.143C127.367 125.209 124.645 125.707 121.191 127.367C117.771 129.061 114.119 132.713 112.426 136.133C110.434 140.25 110.234 141.811 110.234 154.66C110.234 165.418 110.268 166.115 110.898 167.344C111.33 168.207 112.027 168.904 112.891 169.336C114.152 170 114.783 170 140.117 170C165.451 170 166.082 170 167.344 169.336C168.207 168.904 168.904 168.207 169.336 167.344C169.967 166.115 170 165.418 170 154.66C170 141.811 169.801 140.25 167.809 136.133C166.115 132.713 162.463 129.061 159.043 127.367C155.59 125.707 152.867 125.209 146.758 125.143C142.873 125.109 141.977 125.043 143.072 124.811C150.609 123.35 156.055 115.58 154.793 108.043C153.398 99.5762 145.463 94.0312 137.162 95.6582Z" fill="#5A9BD5"/>
</g>
<defs>
<clipPath id="clip0_1319_653">
<rect width="170" height="170" fill="white"/>
</clipPath>
</defs>
</svg>
