<svg width="153" height="167" viewBox="0 0 153 167" fill="none" xmlns="http://www.w3.org/2000/svg">
<path d="M80.7703 162.093L80.6864 162.108L80.145 162.375L79.9925 162.406L79.8858 162.375L79.3444 162.108C79.263 162.083 79.202 162.096 79.1614 162.146L79.1309 162.223L79.0012 165.486L79.0394 165.639L79.1156 165.738L79.9086 166.302L80.023 166.333L80.1145 166.302L80.9075 165.738L80.999 165.616L81.0295 165.486L80.8999 162.23C80.8795 162.149 80.8363 162.103 80.7703 162.093ZM82.7909 161.231L82.6918 161.247L81.2811 161.956L81.2049 162.032L81.182 162.116L81.3192 165.395L81.3574 165.486L81.4184 165.54L82.951 166.249C83.0476 166.274 83.1213 166.254 83.1721 166.188L83.2026 166.081L82.9434 161.399C82.918 161.308 82.8671 161.252 82.7909 161.231ZM77.339 161.247C77.3054 161.226 77.2652 161.22 77.2269 161.228C77.1885 161.237 77.1549 161.26 77.1331 161.292L77.0874 161.399L76.8281 166.081C76.8332 166.172 76.8764 166.233 76.9578 166.264L77.0721 166.249L78.6047 165.54L78.681 165.479L78.7115 165.395L78.8411 162.116L78.8182 162.024L78.742 161.948L77.339 161.247Z" fill="white"/>
<path d="M76.25 0C118.363 0 152.5 34.1371 152.5 76.25C152.5 118.363 118.363 152.5 76.25 152.5C34.1371 152.5 0 118.363 0 76.25C0 34.1371 34.1371 0 76.25 0ZM76.25 15.25C60.0718 15.25 44.5562 21.6768 33.1165 33.1165C21.6768 44.5562 15.25 60.0718 15.25 76.25C15.25 92.4282 21.6768 107.944 33.1165 119.384C44.5562 130.823 60.0718 137.25 76.25 137.25C92.4282 137.25 107.944 130.823 119.384 119.384C130.823 107.944 137.25 92.4282 137.25 76.25C137.25 60.0718 130.823 44.5562 119.384 33.1165C107.944 21.6768 92.4282 15.25 76.25 15.25ZM76.25 30.5C78.1176 30.5002 79.9202 31.1859 81.3158 32.427C82.7115 33.668 83.6031 35.3781 83.8216 37.2329L83.875 38.125V73.0933L104.516 93.7341C105.883 95.1063 106.677 96.9476 106.736 98.8839C106.796 100.82 106.115 102.707 104.834 104.16C103.553 105.613 101.767 106.524 99.8381 106.707C97.9096 106.891 95.9834 106.334 94.4509 105.149L93.7341 104.516L70.8591 81.6409C69.674 80.4548 68.9129 78.9111 68.6936 77.2489L68.625 76.25V38.125C68.625 36.1027 69.4283 34.1633 70.8583 32.7333C72.2883 31.3033 74.2277 30.5 76.25 30.5Z" fill="white"/>
</svg>
