<svg width="170" height="170" viewBox="0 0 170 170" fill="none" xmlns="http://www.w3.org/2000/svg">
<path d="M42.6324 0.962547L41.3672 1.92565V9.96261V17.9996L42.6324 18.9627L43.8977 19.9258H84.9964C113.573 19.9258 126.313 19.8261 126.968 19.5605C128.756 18.8298 129.062 17.4018 129.062 9.96261C129.062 2.52344 128.756 1.09539 126.968 0.364758C126.313 0.0990715 113.573 -0.000558853 84.9964 -0.000558853H43.8977L42.6324 0.962547Z" fill="#5A9BD5"/>
<path d="M14.1026 10.4283C7.12192 12.1221 1.79916 16.4727 0.403029 21.6867C0.0539957 22.8823 -0.0332627 43.7053 0.0103665 91.3293L0.141254 159.245L1.62465 161.57C3.58796 164.625 7.03466 167.249 11.0485 168.743L14.1026 169.872L83.9965 169.972C153.498 170.038 153.934 170.038 156.595 169.374C159.955 168.511 161.918 167.548 164.536 165.555C166.892 163.695 168.943 160.806 169.597 158.315C169.946 157.119 170.033 136.296 169.99 88.6725L169.859 20.7568L168.375 18.4321C166.368 15.3435 162.747 12.6202 158.864 11.1922C155.941 10.1627 155.767 10.1295 148.829 10.0298L141.718 9.89697V13.1848C141.718 14.9782 141.5 17.3361 141.282 18.4321C140.016 24.3436 133.908 28.827 126.099 29.5908C121.954 29.9894 47.5662 29.9562 43.8577 29.5576C37.7932 28.8934 32.9068 26.1702 30.3326 22.0188C29.0238 19.8602 28.9365 19.5612 28.8056 14.8454L28.6311 9.96339L22.2176 9.99661C18.3783 9.99661 15.1497 10.1627 14.1026 10.4283ZM66.5449 50.4803C69.1626 51.377 70.2533 52.805 70.0352 55.0966L69.8607 56.8567L58.3426 65.6243L46.7808 74.3919H44.6866C43.5523 74.3919 42.1998 74.2259 41.6762 74.0266C40.3237 73.4952 31.3797 66.7535 30.638 65.6907C28.8056 63.0339 30.9435 59.4804 34.6956 58.9158C37.3133 58.5173 39.0149 59.0486 41.8071 61.008L44.4685 62.8678L52.8453 56.5578C62.2256 49.4508 62.8364 49.1851 66.5449 50.4803ZM136.439 60.6095C138.751 61.639 139.755 62.901 139.755 64.7608C139.755 66.6206 138.751 67.8826 136.439 68.9122C134.999 69.5432 134.17 69.5764 110.305 69.5764C86.4398 69.5764 85.6108 69.5432 84.2147 68.9122C79.241 66.6206 80.3753 61.1409 86.0471 60.0782C86.7888 59.9453 98.0888 59.8457 111.178 59.8789C134.083 59.9453 134.999 59.9785 136.439 60.6095ZM67.0248 86.3477C69.817 87.6429 70.995 90.499 69.5553 92.5913C68.5954 93.9529 47.8716 109.529 46.4754 109.927C43.3778 110.791 41.6326 110.16 36.3971 106.307C31.0743 102.355 30.0272 101.226 30.0272 99.333C30.0272 97.2408 31.2925 95.7795 33.823 94.916C36.6152 93.9861 38.5349 94.4511 41.8944 96.9087L44.4685 98.7685L52.6272 92.5913C57.121 89.2038 61.1785 86.2481 61.6584 86.0488C63.0109 85.4842 65.4541 85.6171 67.0248 86.3477ZM136.439 93.8201C138.751 94.8496 139.755 96.1116 139.755 97.9714C139.755 99.8312 138.751 101.093 136.439 102.123C134.999 102.754 134.17 102.787 110.305 102.787C86.4398 102.787 85.6108 102.754 84.2147 102.123C79.241 99.8312 80.3753 94.3515 86.0471 93.2887C86.7888 93.1559 98.0888 93.0562 111.178 93.0895C134.083 93.1559 134.999 93.1891 136.439 93.8201ZM67.0248 119.558C69.817 120.853 70.995 123.71 69.5553 125.802C68.5954 127.163 47.8716 142.739 46.4754 143.138C43.3778 144.001 41.6326 143.37 36.3971 139.518C31.0743 135.566 30.0272 134.437 30.0272 132.544C30.0272 130.451 31.2925 128.99 33.823 128.127C36.6152 127.197 38.5349 127.662 41.8944 130.119L44.4685 131.979L52.6272 125.802C57.121 122.414 61.1785 119.459 61.6584 119.259C63.0109 118.695 65.4541 118.828 67.0248 119.558ZM136.919 127.097C138.926 128.027 139.973 129.455 139.973 131.182C139.973 132.909 138.926 134.337 136.919 135.267C135.392 135.998 135.304 135.998 110.523 135.998C86.4398 135.998 85.6108 135.964 84.2147 135.333C79.241 133.042 80.3753 127.562 86.0471 126.499C86.7888 126.366 98.2196 126.267 111.396 126.3C135.217 126.366 135.392 126.366 136.919 127.097Z" fill="#5A9BD5"/>
</svg>
