<svg width="113" height="129" viewBox="0 0 113 129" fill="none" xmlns="http://www.w3.org/2000/svg">
<path d="M43.8642 84.6085L43.8012 84.4808C42.8542 84.2559 41.9152 84.0064 40.9855 83.7326L40.9154 83.7082C31.2395 80.8331 22.8409 75.4022 16.8953 68.1757C10.9497 60.9493 7.75465 52.289 7.75745 43.4073C7.75433 32.5069 12.5645 22.0205 21.1971 14.1081C29.8297 6.19563 41.6274 1.45966 54.1602 0.875661C66.6929 0.29166 79.0064 3.90409 88.5642 10.9689C98.1221 18.0337 104.197 28.0129 105.536 38.851C105.845 41.3572 103.463 43.4073 100.563 43.4073C97.6636 43.4073 95.3452 41.3511 94.96 38.857C94.0283 32.9702 91.3086 27.4049 87.0803 22.7333C82.8521 18.0616 77.2677 14.4521 70.9013 12.2756C64.5348 10.0991 57.6159 9.4342 50.8556 10.3492C44.0953 11.2642 37.7374 13.7261 32.4354 17.4819C27.1335 21.2377 23.0786 26.1519 20.6877 31.7195C18.2967 37.2871 17.6559 43.3072 18.831 49.1611C20.0061 55.015 22.9548 60.4916 27.3741 65.0279C31.7933 69.5643 37.5237 72.9969 43.9763 74.9728C45.2761 72.4211 47.5464 70.3349 50.4066 69.064C53.2667 67.7931 56.543 67.4147 59.6862 67.9922C62.8294 68.5697 65.6486 70.068 67.6711 72.236C69.6937 74.404 70.7967 77.1099 70.7954 79.9002C70.7987 82.7122 69.6802 85.4384 67.6303 87.6151C65.5804 89.7918 62.7256 91.2845 59.5514 91.8395C56.3773 92.3944 53.0798 91.9773 50.2198 90.659C47.3598 89.3407 45.114 87.2027 43.8642 84.6085ZM36.6849 92.0908C28.4264 89.5148 20.9258 85.3852 14.7196 79.9975C10.8823 80.3852 7.34262 81.9836 4.773 84.4889C2.20337 86.9943 0.782842 90.2321 0.78125 93.5873V99.1838C0.78125 102.663 2.028 106.058 4.3534 108.893C15.1539 122.057 32.8326 128.572 56.787 128.572C80.7414 128.572 98.427 122.05 109.249 108.893C111.585 106.055 112.841 102.654 112.842 99.1656V93.5812C112.842 89.9533 111.183 86.4737 108.231 83.9073C105.278 81.3408 101.273 79.8973 97.0962 79.8941H81.3017C81.3028 84.4251 79.6395 88.8383 76.5537 92.4918C73.4678 96.1453 69.1205 98.8485 64.1438 100.208C59.1672 101.568 53.8209 101.513 48.8824 100.052C43.944 98.5914 39.6709 95.8063 36.6849 92.0908ZM84.8038 43.4073C84.8039 39.8512 83.9064 36.3384 82.1748 33.116C80.4431 29.8937 77.9192 27.0401 74.7808 24.7563C71.8676 22.6397 68.4892 21.0598 64.8511 20.1124C61.2129 19.165 57.391 18.87 53.6175 19.2452C49.844 19.6205 46.1977 20.6582 42.9003 22.2952C39.6029 23.9323 36.7232 26.1346 34.4362 28.7682C32.1491 31.4019 30.5026 34.4119 29.5965 37.6154C28.6905 40.8188 28.5439 44.1489 29.1656 47.4031C29.7873 50.6573 31.1644 53.7677 33.2132 56.5453C35.262 59.323 37.9397 61.7098 41.0835 63.5608C45.49 60.3665 51.0473 58.6163 56.787 58.6152C62.7616 58.6152 68.2389 60.4705 72.4974 63.5608C76.2888 61.3307 79.3931 58.3276 81.5385 54.8142C83.6839 51.3007 84.8051 47.3842 84.8038 43.4073Z" fill="white"/>
</svg>
