<svg width="145" height="134" viewBox="0 0 145 134" fill="none" xmlns="http://www.w3.org/2000/svg">
<path fill-rule="evenodd" clip-rule="evenodd" d="M118.327 4.02765C118.107 3.21259 117.656 2.46587 117.02 1.86389C116.384 1.26191 115.585 0.826282 114.706 0.601572C113.827 0.376861 112.899 0.371135 112.017 0.584979C111.134 0.798822 110.329 1.22456 109.685 1.81863L89.0824 20.7801C88.4541 21.3596 87.9996 22.079 87.7631 22.8682C87.5266 23.6574 87.5163 24.4895 87.733 25.2835L91.4414 38.9737L91.2971 39.1064L66.6674 61.7749C65.3027 63.1228 64.5597 64.9057 64.595 66.7478C64.6304 68.5899 65.4412 70.3475 66.8567 71.6503C68.2722 72.9531 70.1818 73.6993 72.1833 73.7318C74.1848 73.7643 76.1219 73.0805 77.5865 71.8245L102.237 49.1655L102.381 49.0233L117.245 52.4459C118.108 52.6453 119.012 52.6358 119.87 52.4181C120.727 52.2005 121.509 51.7821 122.138 51.2039L142.741 32.2424C143.389 31.6491 143.854 30.9077 144.088 30.0943C144.321 29.281 144.316 28.425 144.072 27.6143C143.827 26.8035 143.353 26.0673 142.697 25.481C142.041 24.8948 141.228 24.4798 140.34 24.2785L122.736 20.2397L118.327 4.02765ZM75.3923 7.63034C75.5339 9.51103 74.8581 11.3665 73.5137 12.7888C72.1692 14.211 70.2662 15.0837 68.2228 15.2149C57.4603 15.9014 47.138 19.4171 38.4827 25.3443C29.8273 31.2715 23.2027 39.361 19.396 48.6516C15.5893 57.9422 14.7605 68.0434 17.0081 77.7548C19.2556 87.4662 24.4851 96.3796 32.0752 103.436C39.6652 110.492 49.2967 115.395 59.8252 117.561C70.3537 119.727 81.3366 119.066 91.4688 115.656C101.601 112.246 110.457 106.231 116.984 98.3251C123.51 90.419 127.434 80.9547 128.288 71.0566C128.451 69.1758 129.418 67.4314 130.978 66.2073C132.538 64.9831 134.563 64.3795 136.606 64.5291C138.65 64.6787 140.545 65.5693 141.875 67.005C143.205 68.4408 143.861 70.304 143.699 72.1848C142.608 84.7963 137.608 96.8547 129.291 106.927C120.973 117 109.689 124.664 96.7792 129.008C83.869 133.352 69.8753 134.193 56.4605 131.433C43.0458 128.673 30.774 122.426 21.1031 113.435C11.4322 104.445 4.76869 93.0879 1.90429 80.7143C-0.96011 68.3407 0.0949859 55.4704 4.94423 43.6325C9.79347 31.7946 18.233 21.4866 29.2602 13.9333C40.2873 6.38002 53.4386 1.89886 67.1515 1.02225C69.1949 0.891998 71.2109 1.51393 72.7562 2.75131C74.3016 3.98869 75.2498 5.74971 75.3923 7.63034ZM68.47 38.9073C68.8402 39.777 69.0206 40.7052 69.0009 41.639C68.9812 42.5728 68.7618 43.4939 68.3553 44.3497C67.9487 45.2055 67.363 45.9791 66.6315 46.6265C65.9 47.2739 65.0371 47.7823 64.0921 48.1226C60.7138 49.3423 57.719 51.3175 55.3783 53.8698C53.0377 56.4221 51.425 59.4711 50.6861 62.741C49.9471 66.011 50.1052 69.3989 51.146 72.5985C52.1868 75.7981 54.0775 78.7085 56.6473 81.0668C59.217 83.425 62.3848 85.1567 65.8643 86.1053C69.3437 87.0539 73.0252 87.1895 76.5759 86.4999C80.1266 85.8103 83.4346 84.3171 86.2009 82.1554C88.9672 79.9938 91.1046 77.2317 92.42 74.1189C92.7879 73.2486 93.3385 72.4535 94.0403 71.7791C94.7421 71.1047 95.5813 70.5641 96.5101 70.1881C97.4389 69.8122 98.4391 69.6084 99.4535 69.5882C100.468 69.568 101.477 69.7319 102.422 70.0706C103.368 70.4092 104.232 70.916 104.964 71.5619C105.697 72.2078 106.285 72.9802 106.693 73.8351C107.102 74.6899 107.323 75.6104 107.345 76.544C107.367 77.4777 107.189 78.4061 106.821 79.2764C104.574 84.5921 100.924 89.3086 96.1989 92.9996C91.4743 96.6906 85.8247 99.2397 79.7608 100.416C73.6969 101.593 67.41 101.36 61.4685 99.7391C55.5269 98.1179 50.118 95.1594 45.7308 91.131C41.3436 87.1026 38.1164 82.1314 36.341 76.6668C34.5656 71.2022 34.2979 65.4165 35.5622 59.8327C36.8265 54.249 39.5828 49.0433 43.5821 44.6863C47.5814 40.3292 52.6974 36.9582 58.4677 34.878C60.3748 34.1929 62.4993 34.2324 64.3747 34.9879C66.2501 35.7434 67.7231 37.1531 68.47 38.9073Z" fill="white"/>
</svg>
