<svg width="137" height="97" viewBox="0 0 137 97" fill="none" xmlns="http://www.w3.org/2000/svg">
<path fill-rule="evenodd" clip-rule="evenodd" d="M25.2907 26.8382C27.195 26.8382 29.0213 26.1349 30.3679 24.8832C31.7144 23.6314 32.4709 21.9336 32.4709 20.1633C32.4709 18.393 31.7144 16.6952 30.3679 15.4435C29.0213 14.1917 27.195 13.4884 25.2907 13.4884C23.3864 13.4884 21.56 14.1917 20.2135 15.4435C18.8669 16.6952 18.1104 18.393 18.1104 20.1633C18.1104 21.9336 18.8669 23.6314 20.2135 24.8832C21.56 26.1349 23.3864 26.8382 25.2907 26.8382ZM25.2907 40.1879C31.0036 40.1879 36.4826 38.0782 40.5222 34.3229C44.5619 30.5675 46.8313 25.4742 46.8313 20.1633C46.8313 14.8524 44.5619 9.7591 40.5222 6.00375C36.4826 2.2484 31.0036 0.138672 25.2907 0.138672C19.5777 0.138672 14.0988 2.2484 10.0591 6.00375C6.01946 9.7591 3.75 14.8524 3.75 20.1633C3.75 25.4742 6.01946 30.5675 10.0591 34.3229C14.0988 38.0782 19.5777 40.1879 25.2907 40.1879Z" fill="white"/>
<path fill-rule="evenodd" clip-rule="evenodd" d="M25.6542 45.1941C22.7978 45.1941 20.0583 46.249 18.0384 48.1266C16.0186 50.0043 14.8839 52.551 14.8839 55.2064V65.2187C14.8839 66.989 14.1274 68.6868 12.7808 69.9386C11.4343 71.1904 9.60798 71.8936 7.70366 71.8936C5.79935 71.8936 3.97303 71.1904 2.62648 69.9386C1.27992 68.6868 0.523438 66.989 0.523438 65.2187V55.2064C0.523437 49.0104 3.17114 43.0682 7.88407 38.6869C12.597 34.3057 18.9891 31.8443 25.6542 31.8443C32.3193 31.8443 38.7114 34.3057 43.4244 38.6869C48.1373 43.0682 50.785 49.0104 50.785 55.2064V65.2187C50.785 66.989 50.0285 68.6868 48.682 69.9386C47.3354 71.1904 45.5091 71.8936 43.6048 71.8936C41.7005 71.8936 39.8741 71.1904 38.5276 69.9386C37.181 68.6868 36.4246 66.989 36.4246 65.2187V55.2064C36.4246 52.551 35.2898 50.0043 33.27 48.1266C31.2502 46.249 28.5107 45.1941 25.6542 45.1941ZM111.458 26.8382C109.554 26.8382 107.727 26.1349 106.381 24.8832C105.034 23.6314 104.278 21.9336 104.278 20.1633C104.278 18.393 105.034 16.6952 106.381 15.4435C107.727 14.1917 109.554 13.4884 111.458 13.4884C113.362 13.4884 115.189 14.1917 116.535 15.4435C117.882 16.6952 118.638 18.393 118.638 20.1633C118.638 21.9336 117.882 23.6314 116.535 24.8832C115.189 26.1349 113.362 26.8382 111.458 26.8382ZM111.458 40.1879C105.745 40.1879 100.266 38.0782 96.2263 34.3229C92.1867 30.5675 89.9172 25.4742 89.9172 20.1633C89.9172 14.8524 92.1867 9.7591 96.2263 6.00375C100.266 2.2484 105.745 0.138672 111.458 0.138672C117.171 0.138672 122.65 2.2484 126.689 6.00375C130.729 9.7591 132.999 14.8524 132.999 20.1633C132.999 25.4742 130.729 30.5675 126.689 34.3229C122.65 38.0782 117.171 40.1879 111.458 40.1879Z" fill="white"/>
<path fill-rule="evenodd" clip-rule="evenodd" d="M111.1 45.1945C113.956 45.1945 116.695 46.2493 118.715 48.127C120.735 50.0047 121.87 52.5514 121.87 55.2068V65.2191C121.87 66.9894 122.626 68.6872 123.973 69.939C125.319 71.1907 127.146 71.894 129.05 71.894C130.954 71.894 132.781 71.1907 134.127 69.939C135.474 68.6872 136.23 66.9894 136.23 65.2191V55.2068C136.23 49.0108 133.583 43.0686 128.87 38.6873C124.157 34.3061 117.765 31.8447 111.1 31.8447C104.434 31.8447 98.0423 34.3061 93.3294 38.6873C88.6165 43.0686 85.9688 49.0108 85.9688 55.2068V65.2191C85.9688 66.9894 86.7252 68.6872 88.0718 69.939C89.4183 71.1907 91.2447 71.894 93.149 71.894C95.0533 71.894 96.8796 71.1907 98.2262 69.939C99.5727 68.6872 100.329 66.9894 100.329 65.2191V55.2068C100.329 52.5514 101.464 50.0047 103.484 48.127C105.504 46.2493 108.243 45.1945 111.1 45.1945Z" fill="white"/>
<path fill-rule="evenodd" clip-rule="evenodd" d="M68.7329 63.5509C63.9721 63.5509 59.4063 65.309 56.0399 68.4385C52.6735 71.5679 50.7823 75.8124 50.7823 80.2381V90.2504C50.7823 92.0207 50.0258 93.7185 48.6793 94.9703C47.3327 96.2221 45.5064 96.9253 43.6021 96.9253C41.6978 96.9253 39.8715 96.2221 38.5249 94.9703C37.1784 93.7185 36.4219 92.0207 36.4219 90.2504V80.2381C36.4219 72.2718 39.8261 64.6318 45.8856 58.9988C51.945 53.3658 60.1635 50.2012 68.7329 50.2012C77.3023 50.2012 85.5207 53.3658 91.5802 58.9988C97.6397 64.6318 101.044 72.2718 101.044 80.2381V90.2504C101.044 92.0207 100.287 93.7185 98.9409 94.9703C97.5943 96.2221 95.768 96.9253 93.8637 96.9253C91.9594 96.9253 90.133 96.2221 88.7865 94.9703C87.4399 93.7185 86.6834 92.0207 86.6834 90.2504V80.2381C86.6834 75.8124 84.7922 71.5679 81.4258 68.4385C78.0595 65.309 73.4937 63.5509 68.7329 63.5509Z" fill="white"/>
<path fill-rule="evenodd" clip-rule="evenodd" d="M68.3766 45.1936C70.2809 45.1936 72.1072 44.4904 73.4538 43.2386C74.8004 41.9868 75.5568 40.2891 75.5568 38.5188C75.5568 36.7485 74.8004 35.0507 73.4538 33.7989C72.1072 32.5471 70.2809 31.8439 68.3766 31.8439C66.4723 31.8439 64.646 32.5471 63.2994 33.7989C61.9529 35.0507 61.1964 36.7485 61.1964 38.5188C61.1964 40.2891 61.9529 41.9868 63.2994 43.2386C64.646 44.4904 66.4723 45.1936 68.3766 45.1936ZM68.3766 58.5434C74.0896 58.5434 79.5685 56.4337 83.6082 52.6783C87.6478 48.923 89.9173 43.8296 89.9173 38.5188C89.9173 33.2079 87.6478 28.1146 83.6082 24.3592C79.5685 20.6039 74.0896 18.4941 68.3766 18.4941C62.6637 18.4941 57.1847 20.6039 53.1451 24.3592C49.1054 28.1146 46.8359 33.2079 46.8359 38.5188C46.8359 43.8296 49.1054 48.923 53.1451 52.6783C57.1847 56.4337 62.6637 58.5434 68.3766 58.5434Z" fill="white"/>
</svg>
