<svg width="183" height="149" viewBox="0 0 183 149" fill="none" xmlns="http://www.w3.org/2000/svg">
<path fill-rule="evenodd" clip-rule="evenodd" d="M39.3878 54.7214C45.2386 54.7214 50.8498 52.4153 54.987 48.3104C59.1242 44.2055 61.4484 38.6381 61.4484 32.8328C61.4484 27.0276 59.1242 21.4602 54.987 17.3553C50.8498 13.2504 45.2386 10.9443 39.3878 10.9443C33.5369 10.9443 27.9257 13.2504 23.7886 17.3553C19.6514 21.4602 17.3272 27.0276 17.3272 32.8328C17.3272 38.6381 19.6514 44.2055 23.7886 48.3104C27.9257 52.4153 33.5369 54.7214 39.3878 54.7214ZM39.3878 65.6657C43.7333 65.6657 48.0364 64.8164 52.0511 63.1664C56.0659 61.5164 59.7138 59.098 62.7866 56.0492C65.8594 53.0004 68.2968 49.3809 69.9598 45.3974C71.6228 41.414 72.4787 37.1445 72.4787 32.8328C72.4787 28.5212 71.6228 24.2517 69.9598 20.2683C68.2968 16.2848 65.8594 12.6653 62.7866 9.61652C59.7138 6.56771 56.0659 4.14926 52.0511 2.49925C48.0364 0.849249 43.7333 -6.42489e-08 39.3878 0C30.6115 1.29757e-07 22.1947 3.45917 15.989 9.61652C9.78323 15.7739 6.29688 24.125 6.29688 32.8328C6.29688 41.5407 9.78323 49.8918 15.989 56.0492C22.1947 62.2065 30.6115 65.6657 39.3878 65.6657Z" fill="#FFF9F9"/>
<path fill-rule="evenodd" clip-rule="evenodd" d="M26.7466 53.5823C27.2602 54.0906 27.6677 54.6945 27.9457 55.3593C28.2238 56.0241 28.3669 56.7368 28.3669 57.4566C28.3669 58.1764 28.2238 58.8891 27.9457 59.5539C27.6677 60.2187 27.2602 60.8226 26.7466 61.3309L23.0183 65.0191C15.8435 72.1399 11.8125 81.7964 11.8116 91.8654V112.178C11.8116 113.629 11.2305 115.021 10.1962 116.047C9.16191 117.074 7.75911 117.65 6.2964 117.65C4.83369 117.65 3.43089 117.074 2.3966 116.047C1.36231 115.021 0.78125 113.629 0.78125 112.178V91.8654C0.782814 78.8941 5.97637 66.4543 15.2199 57.2815L18.9371 53.5823C19.4494 53.0727 20.058 52.6684 20.7281 52.3926C21.3981 52.1167 22.1164 51.9747 22.8419 51.9747C23.5673 51.9747 24.2856 52.1167 24.9556 52.3926C25.6257 52.6684 26.2343 53.0727 26.7466 53.5823ZM156.816 50.299C156.302 50.8074 155.895 51.4112 155.617 52.076C155.339 52.7408 155.196 53.4535 155.196 54.1733C155.196 54.8931 155.339 55.6058 155.617 56.2706C155.895 56.9354 156.302 57.5393 156.816 58.0476L160.544 61.7358C167.719 68.8567 171.75 78.5131 171.751 88.5821V112.178C171.751 113.629 172.332 115.021 173.366 116.047C174.401 117.074 175.803 117.65 177.266 117.65C178.729 117.65 180.132 117.074 181.166 116.047C182.2 115.021 182.781 113.629 182.781 112.178V88.5821C182.78 75.6108 177.586 63.171 168.343 53.9982L164.625 50.299C164.113 49.7894 163.504 49.3851 162.834 49.1093C162.164 48.8334 161.446 48.6914 160.721 48.6914C159.995 48.6914 159.277 48.8334 158.607 49.1093C157.937 49.3851 157.328 49.7894 156.816 50.299Z" fill="#FFF9F9"/>
<path fill-rule="evenodd" clip-rule="evenodd" d="M138.66 54.7214C132.81 54.7214 127.198 52.4153 123.061 48.3104C118.924 44.2055 116.6 38.638 116.6 32.8328C116.6 27.0276 118.924 21.4602 123.061 17.3553C127.198 13.2504 132.81 10.9443 138.66 10.9443C144.511 10.9443 150.122 13.2504 154.26 17.3553C158.397 21.4602 160.721 27.0276 160.721 32.8328C160.721 38.638 158.397 44.2055 154.26 48.3104C150.122 52.4153 144.511 54.7214 138.66 54.7214ZM138.66 65.6657C134.315 65.6657 130.012 64.8164 125.997 63.1664C121.982 61.5164 118.334 59.098 115.262 56.0492C112.189 53.0004 109.751 49.3809 108.088 45.3974C106.425 41.414 105.569 37.1445 105.569 32.8328C105.569 28.5212 106.425 24.2517 108.088 20.2683C109.751 16.2848 112.189 12.6653 115.262 9.61652C118.334 6.56771 121.982 4.14926 125.997 2.49925C130.012 0.849249 134.315 -6.42489e-08 138.66 0C147.437 1.29756e-07 155.853 3.45917 162.059 9.61652C168.265 15.7739 171.751 24.125 171.751 32.8328C171.751 41.5406 168.265 49.8918 162.059 56.0492C155.853 62.2065 147.437 65.6657 138.66 65.6657ZM89.024 101.235C81.7105 101.235 74.6965 104.117 69.525 109.248C64.3536 114.379 61.4483 121.339 61.4483 128.595V142.823C61.4483 144.274 60.8672 145.666 59.8329 146.692C58.7986 147.718 57.3958 148.295 55.9331 148.295C54.4704 148.295 53.0676 147.718 52.0333 146.692C50.999 145.666 50.418 144.274 50.418 142.823V128.595C50.418 118.436 54.4854 108.693 61.7254 101.51C68.9655 94.326 78.7851 90.2903 89.024 90.2903C99.263 90.2903 109.083 94.326 116.323 101.51C123.563 108.693 127.63 118.436 127.63 128.595V142.823C127.63 144.274 127.049 145.666 126.015 146.692C124.98 147.718 123.578 148.295 122.115 148.295C120.652 148.295 119.249 147.718 118.215 146.692C117.181 145.666 116.6 144.274 116.6 142.823V128.595C116.6 125.002 115.887 121.444 114.501 118.125C113.115 114.805 111.084 111.789 108.523 109.248C105.962 106.708 102.922 104.692 99.5768 103.317C96.2312 101.942 92.6453 101.235 89.024 101.235Z" fill="#FFF9F9"/>
<path fill-rule="evenodd" clip-rule="evenodd" d="M89.0245 84.8191C94.8753 84.8191 100.487 82.513 104.624 78.408C108.761 74.3031 111.085 68.7357 111.085 62.9305C111.085 57.1253 108.761 51.5579 104.624 47.453C100.487 43.3481 94.8753 41.0419 89.0245 41.0419C83.1737 41.0419 77.5625 43.3481 73.4253 47.453C69.2881 51.5579 66.9639 57.1253 66.9639 62.9305C66.9639 68.7357 69.2881 74.3031 73.4253 78.408C77.5625 82.513 83.1737 84.8191 89.0245 84.8191ZM89.0245 95.7633C97.8008 95.7633 106.218 92.3042 112.423 86.1468C118.629 79.9895 122.115 71.6383 122.115 62.9305C122.115 54.2227 118.629 45.8715 112.423 39.7142C106.218 33.5568 97.8008 30.0977 89.0245 30.0977C80.2483 30.0977 71.8314 33.5568 65.6257 39.7142C59.4199 45.8715 55.9336 54.2227 55.9336 62.9305C55.9336 71.6383 59.4199 79.9895 65.6257 86.1468C71.8314 92.3042 80.2483 95.7633 89.0245 95.7633Z" fill="#FFF9F9"/>
</svg>
