<svg width="138" height="157" viewBox="0 0 138 157" fill="none" xmlns="http://www.w3.org/2000/svg">
<path d="M120.656 48.7241H17.9062C13.3658 48.7284 9.01263 50.441 5.80205 53.4859C2.59147 56.5308 0.785784 60.6594 0.78125 64.9655V97.4483C0.78125 100.32 1.98407 103.074 4.12511 105.105C6.26615 107.135 9.17003 108.276 12.1979 108.276V146.172C12.1979 149.044 13.4007 151.798 15.5418 153.829C17.6828 155.859 20.5867 157 23.6146 157H46.4479C49.4758 157 52.3797 155.859 54.5207 153.829C56.6618 151.798 57.8646 149.044 57.8646 146.172V81.2069H46.4479V146.172H23.6146V97.4483H12.1979V64.9655C12.1979 63.5297 12.7993 62.1527 13.8699 61.1374C14.9404 60.1221 16.3923 59.5517 17.9062 59.5517H120.656C122.17 59.5517 123.622 60.1221 124.693 61.1374C125.763 62.1527 126.365 63.5297 126.365 64.9655V97.4483H114.948V146.172H92.1146V81.2069H80.6979V146.172C80.6979 149.044 81.9007 151.798 84.0418 153.829C86.1828 155.859 89.0867 157 92.1146 157H114.948C117.976 157 120.88 155.859 123.021 153.829C125.162 151.798 126.365 149.044 126.365 146.172V108.276C129.392 108.276 132.296 107.135 134.437 105.105C136.578 103.074 137.781 100.32 137.781 97.4483V64.9655C137.777 60.6594 135.971 56.5308 132.76 53.4859C129.55 50.441 125.197 48.7284 120.656 48.7241ZM35.0312 43.3104C30.5152 43.3104 26.1007 42.0403 22.3457 39.6608C18.5908 37.2813 15.6642 33.8992 13.936 29.9423C12.2078 25.9853 11.7556 21.6312 12.6367 17.4305C13.5177 13.2298 15.6923 9.37119 18.8856 6.34266C22.0789 3.31413 26.1475 1.25168 30.5767 0.416108C35.0059 -0.419462 39.5969 0.00938284 43.7692 1.64841C47.9414 3.28744 51.5075 6.06304 54.0165 9.62421C56.5254 13.1854 57.8646 17.3722 57.8646 21.6552C57.8585 27.3967 55.451 32.9015 51.1702 36.9614C46.8894 41.0213 41.0852 43.3046 35.0312 43.3104ZM35.0312 10.8276C32.7732 10.8276 30.566 11.4626 28.6885 12.6524C26.811 13.8421 25.3477 15.5332 24.4836 17.5116C23.6195 19.4901 23.3934 21.6672 23.834 23.7675C24.2745 25.8679 25.3618 27.7972 26.9585 29.3114C28.5551 30.8257 30.5894 31.8569 32.804 32.2747C35.0186 32.6925 37.3141 32.4781 39.4002 31.6586C41.4863 30.8391 43.2694 29.4513 44.5239 27.6707C45.7783 25.8901 46.4479 23.7967 46.4479 21.6552C46.4479 18.7835 45.2451 16.0295 43.104 13.9989C40.963 11.9684 38.0591 10.8276 35.0312 10.8276ZM103.531 43.3104C99.0152 43.3104 94.6007 42.0403 90.8457 39.6608C87.0908 37.2813 84.1642 33.8992 82.436 29.9423C80.7078 25.9853 80.2556 21.6312 81.1367 17.4305C82.0177 13.2298 84.1924 9.37119 87.3857 6.34266C90.5789 3.31413 94.6475 1.25168 99.0767 0.416108C103.506 -0.419462 108.097 0.00938284 112.269 1.64841C116.441 3.28744 120.008 6.06304 122.516 9.62421C125.025 13.1854 126.365 17.3722 126.365 21.6552C126.359 27.3967 123.951 32.9015 119.67 36.9614C115.389 41.0213 109.585 43.3046 103.531 43.3104ZM103.531 10.8276C101.273 10.8276 99.066 11.4626 97.1885 12.6524C95.311 13.8421 93.8477 15.5332 92.9836 17.5116C92.1195 19.4901 91.8934 21.6672 92.334 23.7675C92.7745 25.8679 93.8618 27.7972 95.4585 29.3114C97.0551 30.8257 99.0894 31.8569 101.304 32.2747C103.519 32.6925 105.814 32.4781 107.9 31.6586C109.986 30.8391 111.769 29.4513 113.024 27.6707C114.278 25.8901 114.948 23.7967 114.948 21.6552C114.948 18.7835 113.745 16.0295 111.604 13.9989C109.463 11.9684 106.559 10.8276 103.531 10.8276Z" fill="#5A9BD5"/>
</svg>
