<svg width="300" height="332" viewBox="0 0 300 332" fill="none" xmlns="http://www.w3.org/2000/svg">
<path d="M233.121 2.07841C226.014 5.56484 226.282 4.76028 226.282 25.2765V42.9768L227.958 44.586C230.104 46.7985 232.652 46.6644 236.339 44.1837C239.021 42.3064 239.759 42.1723 243.044 42.4405C245.256 42.6416 249.145 43.8484 252.766 45.3905C263.426 50.0838 269.863 51.4918 274.422 50.0167L275.897 49.5474L275.763 92.9936L275.562 136.44L265.236 136.641L254.978 136.842L241.1 126.517C223.399 113.309 223.936 113.644 219.041 112.035C215.153 110.694 213.476 110.627 190.144 110.627C168.086 110.627 165.002 110.761 161.448 111.834C157.09 113.242 119.611 135.769 117.197 138.451C116.393 139.39 115.521 140.127 115.32 140.127C115.052 140.127 109.42 135.367 102.715 129.601C83.8753 113.309 80.4559 111.096 70.3989 108.213C65.3034 106.805 27.9584 106.001 21.4549 107.207C12.8059 108.817 5.76601 114.18 2.07844 122.025L0 126.383V165.337V204.291L2.0114 207.576C3.28528 209.588 5.29668 211.599 7.37513 212.873C10.1911 214.616 11.2638 214.884 15.2196 214.884H19.8458L19.4435 218.237C19.1753 220.047 14.8843 241.971 9.9229 266.845C4.8944 291.72 0.670466 313.778 0.536373 315.789C-0.335233 327.992 14.0127 335.568 24.5391 328.528C29.2323 325.377 30.171 323.366 32.7858 310.761C34.0597 304.459 38.1495 284.881 41.9041 267.181C45.5917 249.48 49.2792 231.847 50.0168 227.958C51.4918 220.65 52.4304 218.773 54.2407 219.443C55.1793 219.846 55.3134 224.874 55.3134 269.326C55.3134 299.899 55.5816 319.745 55.9839 321.22C56.8555 324.438 61.0124 329.132 64.2977 330.607C70.0637 333.222 77.5059 331.747 81.9309 327.12C86.4231 322.36 86.1549 328.327 86.1549 238.351C86.1549 193.564 86.356 156.889 86.6913 156.889C86.9594 156.889 95.5414 163.996 105.8 172.645C116.058 181.294 124.707 188.401 125.042 188.401C125.31 188.401 125.914 189.742 126.383 191.418C126.852 193.027 128.26 195.575 129.467 197.05C135.635 204.224 148.508 203.084 152.732 194.971C155.012 190.479 154.878 188.334 151.257 171.371C149.313 162.588 147.905 155.28 147.972 155.213C148.106 155.079 150.386 153.939 153.067 152.598L157.895 150.184V182.836C157.895 200.872 157.56 217.834 157.224 220.583C155.95 230.573 150.989 255.85 149.715 258.465C149.045 259.94 140.53 271.338 130.808 283.808C121.086 296.279 112.638 307.61 112.035 309.085C110.56 312.705 110.694 318.807 112.236 322.159C113.711 325.31 116.929 328.528 120.684 330.473C126.45 333.49 136.172 331.411 140.127 326.249C172.176 285.149 181.026 273.483 181.763 271.271C182.3 269.795 184.982 259.873 187.798 249.145C190.613 238.418 192.96 229.568 193.027 229.433C193.429 229.031 224.874 275.696 227.154 280.054C228.562 282.803 233.791 293.731 238.82 304.257C243.848 314.851 248.676 324.506 249.614 325.712C252.363 329.333 256.52 331.344 262.085 331.747C266.309 332.015 267.315 331.814 270.265 330.339C276.567 327.12 280.523 320.349 279.651 314.113C279.45 312.303 274.556 301.374 267.047 285.887L254.844 260.543L240.496 240.094C232.585 228.83 225.478 218.237 224.673 216.56C223.332 213.61 223.265 212.538 223.064 183.171C222.93 166.544 222.997 152.866 223.265 152.866C223.466 152.866 226.282 154.744 229.501 157.09C239.893 164.666 236.876 163.862 257.794 164.264L276.232 164.599L276.567 203.621C276.768 225.075 277.037 242.709 277.238 242.91C279.718 245.122 282.87 245.189 284.948 243.044L286.624 241.435V202.883V164.264L288.502 163.929C293.53 162.856 297.821 159.035 299.296 154.274C300.235 151.123 300.235 149.849 299.296 146.631C298.089 142.139 291.921 136.775 288.032 136.775C286.624 136.775 286.624 136.574 286.49 71.3376C286.289 7.44216 286.289 5.90007 285.015 4.96142C282.803 3.3523 279.584 3.82162 276.165 6.16825C271.874 9.2524 269.393 9.05126 259.47 4.82732C249.413 0.603387 247.201 -3.20003e-05 241.636 -3.20003e-05C238.015 -3.20003e-05 236.473 0.402248 233.121 2.07841Z" fill="#5A9BD5"/>
<path d="M43.3791 41.2336C38.2835 42.6416 36.071 43.9825 31.78 48.0724C29.2993 50.419 27.2879 53.1009 26.0811 55.8498C24.3379 59.6044 24.1367 60.6772 24.1367 67.3818C24.1367 74.1535 24.2708 75.0922 26.0811 78.7797C31.3107 89.4401 43.5802 95.9437 54.71 93.9323C67.4488 91.7197 76.5672 81.6627 77.3047 69.058C77.9751 57.3919 72.2091 47.7372 61.6158 42.7757C56.3191 40.295 48.8769 39.6916 43.3791 41.2336Z" fill="#5A9BD5"/>
<path d="M183.439 41.3007C171.84 44.3848 163.191 53.9725 161.18 65.8398C158.565 81.6628 170.298 97.2176 186.926 100.101C195.575 101.576 204.559 98.6926 211.264 92.3902C217.633 86.356 220.918 78.9138 220.918 70.3989C220.918 61.884 217.633 54.4418 211.264 48.4076C203.821 41.3007 193.295 38.6188 183.439 41.3007Z" fill="#5A9BD5"/>
</svg>
