<svg width="170" height="185" viewBox="0 0 170 185" fill="none" xmlns="http://www.w3.org/2000/svg">
<path d="M83.3039 0.983772C80.0533 2.98704 68.6763 8.3165 63.7248 10.1308C60.8522 11.2269 55.8251 12.8522 52.5745 13.7972C49.3239 14.7421 46.4135 15.5736 46.1867 15.687C45.8087 15.8004 45.6953 20.4495 45.6953 37.3072C45.6953 61.2709 45.6575 60.8929 48.3412 66.298C52.1209 73.8953 59.6426 80.3209 77.0295 90.8286L85.0048 95.6289L92.9801 90.8286C113.277 78.5822 120.837 71.3629 123.558 61.4977C124.277 58.8897 124.314 57.6801 124.314 37.2694C124.314 20.4495 124.201 15.8004 123.861 15.687C123.596 15.6114 120.648 14.7421 117.322 13.7594C106.36 10.5466 94.1896 5.48168 87.3105 1.28615C86.101 0.567998 85.0426 -0.0367629 84.967 0.00103472C84.8914 0.00103472 84.1355 0.454606 83.3039 0.983772ZM90.7501 11.4537C97.1378 14.5153 105.113 17.6903 111.955 19.807C114.865 20.7141 116.528 21.4323 116.755 21.8858C116.982 22.3394 117.133 29.3698 117.133 40.1421C117.133 60.0614 117.095 60.4394 114.071 64.8995C110.367 70.4557 99.7837 78.6956 87.7263 85.4236L84.967 86.9733L82.0944 85.3102C69.2054 77.9396 59.6426 70.4935 55.9385 64.8995C52.9147 60.4394 52.8769 60.0614 52.8769 40.0665C52.8769 26.5349 52.9903 22.2638 53.3682 21.7724C53.595 21.4323 56.0519 20.4495 58.7355 19.5802C65.6903 17.3879 74.1569 13.9861 79.9022 11.1513C82.6236 9.79061 84.8536 8.69448 84.8914 8.69448C84.9292 8.65668 87.5751 9.904 90.7501 11.4537Z" fill="#5A9BD5"/>
<path d="M81.0333 15.9147C76.3842 18.2581 68.9759 21.2819 62.5881 23.4364L57.75 25.0239L57.8634 41.8816L57.9768 58.7393L59.2619 61.1206C61.6054 65.4295 68.2955 71.1369 78.4253 77.5247C84.9643 81.6069 84.7753 81.5313 86.2872 80.6997C88.5928 79.4902 95.5098 75.0301 99.0628 72.5354C104.052 69.0203 109.155 64.031 110.742 61.1206L112.027 58.7393L112.141 41.8816L112.254 25.0239L107.983 23.6254C101.482 21.4709 96.3035 19.392 90.3315 16.5572C87.3455 15.1209 84.8887 13.9492 84.8509 13.987C84.8131 13.987 83.1122 14.8563 81.0333 15.9147ZM102.956 33.3393C103.636 33.9063 104.014 34.7001 104.165 35.7962L104.392 37.4593L91.5788 50.2727C79.8994 61.9521 78.6521 63.086 77.5181 63.086C75.6661 63.086 74.7589 61.9521 69.9208 53.5232C66.0277 46.7197 65.6497 45.8881 65.8387 44.6408C66.2923 41.9572 69.5806 40.5587 71.6595 42.2218C72.1131 42.562 73.7762 45.1322 75.4015 47.8914L78.3119 52.9563L88.5928 42.7131C98.6848 32.6212 98.8738 32.47 100.423 32.47C101.482 32.47 102.276 32.7346 102.956 33.3393Z" fill="#5A9BD5"/>
<path d="M21.2007 33.6796C21.0117 33.9442 19.9912 35.9853 18.9329 38.2153C17.8745 40.4832 16.854 42.2975 16.7028 42.2975C15.7201 42.2975 7.78258 43.4692 7.4802 43.6204C6.45967 44.263 7.29121 45.6615 10.5796 48.7231L13.9814 51.9359L13.2254 55.9046C11.7891 63.1995 12.0537 63.4263 18.0257 60.1001L22.1457 57.7945L26.379 60.1001C30.4233 62.2924 31.4817 62.557 31.8974 61.4609C32.0108 61.1963 31.7085 58.9284 31.2171 56.4716L30.3477 51.9359L33.9385 48.5341C36.8489 45.6993 37.4537 44.9811 37.2269 44.3008C36.9623 43.4314 36.6221 43.3558 30.8769 42.6377L27.2483 42.2219L25.2829 37.9886C24.2245 35.6829 23.1284 33.6796 22.9016 33.5284C22.2213 33.1127 21.6543 33.1505 21.2007 33.6796Z" fill="#5A9BD5"/>
<path d="M147.103 33.5284C146.876 33.6796 145.78 35.6829 144.722 37.9886L142.756 42.2219L139.128 42.6377C133.382 43.3558 133.042 43.4314 132.778 44.3008C132.551 44.9811 133.156 45.6993 136.066 48.5341L139.657 51.9359L138.787 56.4716C138.296 58.9284 137.994 61.1963 138.107 61.4609C138.523 62.557 139.581 62.2924 143.625 60.1001L147.859 57.7945L151.979 60.1001C157.951 63.4263 158.215 63.1995 156.779 55.9046L156.023 51.9359L159.425 48.7231C162.713 45.6237 163.545 44.263 162.524 43.6204C162.335 43.507 160.143 43.1668 157.686 42.8267C155.229 42.5243 153.15 42.1841 153.037 42.0707C152.924 41.9573 151.903 39.9918 150.769 37.6484C148.804 33.6418 148.123 32.8481 147.103 33.5284Z" fill="#5A9BD5"/>
<path d="M16.5137 86.2939C8.76518 92.8707 2.52857 103.908 0.487505 114.718C-0.192851 118.46 -0.155053 128.514 0.563101 129.761C0.789886 130.139 2.67977 131.197 4.72083 132.067L8.4628 133.654L8.91637 129.27C9.86131 120.463 11.5622 114.604 15.1152 107.687C17.9122 102.282 21.2006 97.8222 25.8119 93.2487L29.4027 89.7335L24.489 86.9743C21.8053 85.5002 19.4241 84.2529 19.2351 84.2529C19.0461 84.2529 17.8366 85.16 16.5137 86.2939Z" fill="#5A9BD5"/>
<path d="M145.402 87.0125L140.602 89.734L144.192 93.2491C149.03 98.0872 152.205 102.434 155.116 108.255C158.744 115.588 160.181 120.728 161.012 129.119C161.239 131.576 161.466 133.617 161.504 133.617C161.768 133.882 169.101 130.291 169.441 129.762C170.159 128.476 170.197 118.46 169.479 114.68C167.891 105.949 163.885 97.7092 157.762 90.5655C155.418 87.8063 151.374 84.2533 150.656 84.2911C150.391 84.2911 148.048 85.5384 145.402 87.0125Z" fill="#5A9BD5"/>
<path d="M28.4163 98.3143C20.2142 106.857 15.4139 117.478 14.5068 129.233L14.2422 132.446L23.4648 137.17C31.9315 141.517 32.8386 142.046 34.8797 144.238C36.0892 145.561 37.2231 146.62 37.3743 146.62C37.4877 146.62 38.2059 145.561 38.924 144.314C41.3809 139.892 45.1984 137.624 49.3183 138.04C53.0603 138.418 56.9157 141.252 57.8228 144.352L58.2386 145.712L60.771 145.561C62.7743 145.448 63.7192 145.599 65.2689 146.242C67.499 147.224 69.9558 149.643 70.674 151.684L71.1653 153.083L73.093 152.856C77.5153 152.327 82.6936 155.615 83.7141 159.622C83.9409 160.567 84.0165 160.567 86.1332 160.34C90.3287 159.924 94.2219 162.154 96.1495 166.085C97.0567 167.862 97.1701 168.504 97.0189 170.923C96.9055 173.418 96.7165 174.023 95.1668 176.706C94.1841 178.332 93.4659 179.806 93.5793 179.995C94.0329 180.751 97.0567 181.885 98.7198 181.923C100.269 181.96 100.685 181.809 101.479 180.902C102.122 180.146 102.386 179.39 102.386 178.332C102.386 176.782 102.235 176.555 99.3623 174.098C97.737 172.7 98.9466 169.676 101.177 169.676C101.744 169.676 103.482 170.432 105.032 171.377C107.338 172.738 108.207 173.078 109.681 173.078C111.193 173.078 111.684 172.889 112.629 171.982C113.536 171.037 113.725 170.545 113.725 169.034C113.725 166.766 113.121 165.972 110.021 164.195C108.698 163.44 107.451 162.419 107.224 161.928C106.657 160.642 107.149 159.206 108.434 158.526C109.757 157.845 110.021 157.959 114.67 160.567C116.56 161.625 118.45 162.495 118.941 162.495C120.453 162.495 122.381 161.436 123.175 160.151C124.838 157.392 123.817 154.935 119.962 152.554C116.825 150.626 116.182 149.454 117.392 147.829C118.639 146.166 119.924 146.279 123.78 148.547C126.501 150.173 127.484 150.551 128.92 150.551C131.15 150.588 132.624 149.568 133.342 147.489C133.985 145.675 133.72 144.352 132.322 142.84C131.037 141.441 105.07 126.473 101.252 124.924C98.7198 123.903 98.0016 123.752 94.4487 123.752C89.7996 123.752 88.7034 124.054 81.1817 127.532C73.8868 130.934 72.6017 131.312 68.3683 131.312C65.2311 131.312 64.4752 131.16 62.5475 130.253C56.2731 127.305 53.4761 121.9 55.8195 117.251C56.8401 115.248 57.218 114.983 66.6674 109.087C71.052 106.365 75.2853 103.757 76.079 103.228L77.5909 102.283L75.7011 101.527C73.2442 100.544 67.1966 100.28 59.4103 100.847C49.8097 101.565 43.5731 100.469 36.0892 96.689C34.0481 95.6684 32.2716 94.8369 32.0826 94.8369C31.9315 94.8369 30.3062 96.4244 28.4163 98.3143Z" fill="#5A9BD5"/>
<path d="M134.136 96.5372C132.587 97.4443 129.676 98.7294 127.711 99.4098C124.385 100.544 123.742 100.657 119.206 100.657C114.86 100.657 113.763 100.506 109.795 99.4476C104.352 97.9735 100.61 97.8601 96.112 98.994C91.5763 100.166 89.3462 101.375 74.4918 110.598C63.984 117.137 60.7334 119.329 60.5822 120.047C60.2043 121.446 61.1492 123.071 63.0013 124.318C67.1212 127.04 69.8049 126.775 78.6873 122.693C82.0513 121.143 85.9822 119.518 87.4185 119.065C92.7858 117.401 97.5105 117.628 103.142 119.82C107.073 121.332 133.947 136.829 135.837 138.719C136.707 139.513 137.538 140.193 137.689 140.193C137.878 140.193 141.998 138.379 146.874 136.149L155.757 132.067L155.492 129.043C154.774 120.35 151.863 112.072 146.912 104.739C144.606 101.337 138.445 94.8363 137.576 94.8741C137.236 94.8741 135.686 95.63 134.136 96.5372Z" fill="#5A9BD5"/>
<path d="M45.8783 144.313C45.1224 144.766 43.7239 146.77 41.645 150.436C39.037 154.972 38.5078 156.181 38.5078 157.542C38.5078 158.865 38.7346 159.394 39.7551 160.415C41.4182 162.078 43.2703 162.418 45.1602 161.511C46.3319 160.906 47.0879 159.923 49.5447 155.69C53.3623 149.113 53.589 148.319 52.5307 146.127C52.0771 145.22 51.2834 144.275 50.7542 144.048C49.3557 143.368 47.1635 143.519 45.8783 144.313Z" fill="#5A9BD5"/>
<path d="M59.4916 151.306C57.9041 152.025 57.6773 152.327 52.688 160.983C47.6987 169.676 47.3207 170.885 48.7948 173.078C50.3823 175.383 54.2755 175.875 55.9764 173.947C57.1103 172.624 65.7282 157.354 65.9549 156.22C66.2195 154.746 65.3124 152.554 64.1029 151.722C62.7799 150.853 60.8145 150.664 59.4916 151.306Z" fill="#5A9BD5"/>
<path d="M71.5057 159.243C70.0694 160.453 62.6989 173.039 62.4343 174.778C62.0185 177.424 64.173 179.881 67.0078 179.881C69.8804 179.881 70.0316 179.692 75.4745 170.242C78.8763 164.308 79.2164 163.439 78.6117 161.625C77.9691 159.659 76.6084 158.639 74.4917 158.412C72.942 158.298 72.5263 158.412 71.5057 159.243Z" fill="#5A9BD5"/>
<path d="M84.6974 166.387C83.6391 166.991 83.2989 167.483 80.0105 173.152C78.3097 176.176 77.2891 178.331 77.1757 179.313C76.76 183.131 81.1823 185.626 84.4707 183.509C85.4534 182.829 91.3498 172.774 91.6522 171.225C91.9924 169.562 91.1608 167.445 89.7623 166.613C88.4394 165.782 85.9826 165.706 84.6974 166.387Z" fill="#5A9BD5"/>
</svg>
