<svg width="170" height="173" viewBox="0 0 170 173" fill="none" xmlns="http://www.w3.org/2000/svg">
<path d="M54.2194 0.617801C45.9252 3.91467 43.8776 14.4647 50.3326 20.5379C52.623 22.6548 55.0523 23.5918 58.4533 23.5918C63.3812 23.5918 66.9904 21.3707 69.1074 17.0675C70.1138 15.0199 70.2526 14.43 70.2526 11.7925C70.2526 9.29378 70.1138 8.53029 69.2809 6.76039C68.0316 4.1229 65.4635 1.65892 62.9301 0.687209C60.5355 -0.180389 56.3363 -0.249797 54.2194 0.617801Z" fill="white"/>
<path d="M106.976 0.721915C104.547 1.65892 101.944 4.19231 100.73 6.7604C99.8966 8.5303 99.7578 9.29378 99.7578 11.7925C99.7578 14.43 99.8966 15.0199 100.903 17.0675C103.02 21.3707 106.629 23.5918 111.557 23.5918C116.45 23.5918 120.372 21.1278 122.385 16.8245C123.218 15.0546 123.356 14.2911 123.356 11.7925C123.356 9.15497 123.218 8.565 122.211 6.51747C120.962 3.98408 119.192 2.21418 116.624 0.964842C114.333 -0.180387 109.51 -0.284499 106.976 0.721915Z" fill="white"/>
<path d="M37.9122 31.7129C27.6746 34.0728 20.7338 46.1497 23.0242 57.602C23.7877 61.3153 24.8288 63.814 26.8764 67.0415C31.7002 74.5028 39.1269 82.9012 47.8722 90.7095C53.0084 95.3252 58.1099 99.5938 58.4222 99.5938C58.804 99.5938 61.4068 97.4421 61.4068 97.0951C61.4068 96.9563 60.2268 95.2558 58.804 93.347C53.529 86.2327 52.2102 82.7276 52.2102 75.9951C52.2449 72.2124 52.3838 71.2754 53.1819 68.8114C54.3966 65.2022 57.0341 61.2112 59.6022 59.0943C63.9749 55.5198 69.6663 53.8887 74.5249 54.8951C75.8783 55.1727 77.0235 55.3463 77.0235 55.2421C77.0235 55.1727 76.3295 54.4092 75.5313 53.5764C70.3604 48.3361 70.1869 40.5971 75.1148 35.1139C75.9477 34.2116 77.1624 33.1357 77.8564 32.7887C78.5505 32.407 79.1058 31.9905 79.1058 31.8864C79.1058 31.7476 78.0647 31.5047 76.8153 31.3658C71.9915 30.88 65.2589 33.2052 60.5045 37.0573L58.4222 38.7578L56.9994 37.5084C51.6897 32.8234 43.7078 30.3941 37.9122 31.7129Z" fill="white"/>
<path d="M92.0521 31.47C90.5946 31.6435 90.6293 31.9558 92.1562 32.7887C92.8503 33.1357 94.065 34.2116 94.8978 35.1139C99.8258 40.5971 99.6523 48.3361 94.4814 53.5764C93.6832 54.4092 92.9891 55.1727 92.9891 55.2421C92.9891 55.3463 94.1344 55.1727 95.5225 54.8951C104.268 53.0905 113.638 59.2331 116.831 68.8114C117.664 71.3101 117.768 72.1777 117.768 76.1686C117.768 80.1249 117.629 81.0272 116.831 83.4564C115.824 86.5104 113.846 89.9461 110.688 94.0758C109.543 95.5681 108.606 96.9215 108.606 97.0951C108.606 97.4074 111.209 99.5938 111.59 99.5938C111.903 99.5938 117.004 95.3252 122.14 90.7095C133.732 80.3331 143.587 68.2214 145.947 61.4888C147.093 58.192 147.613 54.4439 147.335 51.3553C146.988 47.5726 146.537 46.0109 144.802 42.367C141.297 35.0098 134.044 30.6371 126.652 31.3658C122.279 31.817 116.518 34.4198 113.013 37.5084L111.59 38.7578L109.508 37.0573C108.328 36.1203 106.003 34.6627 104.268 33.7951C99.9299 31.6435 96.2513 30.9494 92.0521 31.47Z" fill="white"/>
<path d="M81.9843 34.9748C78.7569 36.1201 76.8829 37.9941 75.8417 41.048C74.2106 45.9413 76.7787 51.3898 81.6373 53.2638C83.7195 54.062 87.3287 53.8538 89.3763 52.8126C96.4212 49.2034 96.4212 39.0352 89.3763 35.5648C86.9123 34.3502 84.3095 34.1419 81.9843 34.9748Z" fill="white"/>
<path d="M68.1747 58.7814C64.1838 59.7531 59.707 63.4664 57.7982 67.388C55.5425 72.073 55.2301 78.3544 57.0348 83.1089C59.6375 89.8414 69.3546 101.12 81.0846 110.941L85.0061 114.238L89.1012 110.837C97.6383 103.688 106.8 93.8324 110.791 87.4122C113.082 83.6988 113.845 81.339 114.053 77.2092C114.366 71.4484 112.908 67.2492 109.264 63.3623C105.586 59.4408 101.109 57.8097 96.2155 58.6426C93.3003 59.1285 89.6564 60.7595 86.9148 62.8418L85.0061 64.2646L83.1668 62.8765C80.564 60.9331 77.3018 59.3714 74.6296 58.7814C71.888 58.2262 70.4999 58.2262 68.1747 58.7814Z" fill="white"/>
<path d="M3.79871 71.4836C3.06992 71.6571 2.06351 72.3512 1.30002 73.1841C-0.365765 74.954 -0.400469 75.9257 1.02239 80.9578C1.9941 84.3935 18.652 129.335 20.5607 133.708C22.2265 137.386 24.0658 139.642 31.9089 147.659C39.4743 155.328 39.8214 155.779 41.3831 158.938C43.1182 162.443 44.2288 166.26 44.6105 169.904L44.8534 172.125H60.8867H76.9199L77.1628 171.049C77.2669 170.459 77.371 166.642 77.371 162.616C77.3363 149.429 75.6705 141.516 71.4714 135.269C69.0768 131.66 68.2786 130.862 60.8867 124.719C54.3623 119.306 50.8225 116.182 44.437 110.213C40.4113 106.465 38.2944 105.355 35.5181 105.563C31.1454 105.945 28.7161 110.248 30.3472 114.829C31.6312 118.507 36.0039 123.609 44.5064 131.452C46.4845 133.291 47.1786 134.124 47.1786 134.784C47.1786 135.929 46.0334 137.074 44.9229 137.074C43.1182 137.074 32.36 126.385 28.8202 121.11C26.1133 117.085 25.211 114.655 25.1763 111.567C25.1416 109.484 25.3151 108.79 26.2868 106.812L27.4321 104.487L25.9745 101.607C25.1763 100.01 22.6082 94.6311 20.2484 89.5991C17.9232 84.6017 15.2857 79.4308 14.3834 78.1121C12.2318 74.8152 9.42074 72.3165 7.19969 71.6571C6.19328 71.3795 5.32568 71.1366 5.22157 71.1713C5.11745 71.206 4.45808 71.3448 3.79871 71.4836Z" fill="white"/>
<path d="M162.671 71.6919C160.589 72.3165 157.708 74.954 155.626 78.1121C154.724 79.4308 152.086 84.6017 149.761 89.5991C147.401 94.6311 144.833 100.01 144.035 101.607L142.577 104.487L143.723 106.812C144.694 108.79 144.868 109.484 144.833 111.567C144.798 114.655 143.896 117.085 141.189 121.11C137.649 126.385 126.891 137.074 125.087 137.074C123.976 137.074 122.831 135.929 122.831 134.784C122.831 134.124 123.525 133.291 125.538 131.452C136.261 121.561 140.183 116.286 140.183 111.81C140.183 108.478 137.788 105.841 134.491 105.563C131.715 105.355 129.598 106.465 125.572 110.213C119.187 116.182 115.647 119.306 109.123 124.719C101.731 130.862 100.933 131.66 98.5381 135.269C96.3865 138.462 94.8595 142.384 93.7837 147.485C93.0549 150.921 92.8814 152.726 92.7425 160.222C92.6384 165.011 92.6731 169.661 92.7773 170.529L93.0202 172.125H109.088H125.156L125.399 169.904C125.781 166.26 126.891 162.443 128.626 158.938C130.153 155.779 130.5 155.363 137.927 147.832C145.631 140.059 147.956 137.143 149.588 133.361C151.6 128.71 168.119 84.1159 168.987 80.9578C170.341 76.134 170.341 74.9887 168.952 73.3923C168.328 72.6983 167.599 72.0389 167.287 71.8654C166.141 71.2754 164.267 71.206 162.671 71.6919Z" fill="white"/>
</svg>
