<svg width="758" height="235" viewBox="0 0 758 235" fill="none" xmlns="http://www.w3.org/2000/svg">
<rect x="-7" y="7" width="744" height="221" rx="110.5" transform="matrix(-1 0 0 1 744 0)" fill="url(#paint0_linear_377_506)" stroke="url(#paint1_linear_377_506)" stroke-width="14"/>
<circle cx="85" cy="85" r="85" transform="matrix(-1 0 0 1 208 29)" fill="url(#paint2_linear_377_506)"/>
<rect x="-3.5" y="3.5" width="723" height="200" rx="96.5" transform="matrix(-1 0 0 1 737 12)" stroke="url(#paint3_linear_377_506)" stroke-width="7"/>
<path d="M271.13 138L254.89 89H264.34L278.83 133.31H274.14L289.19 89H297.59L312.22 133.31H307.67L322.51 89H331.19L314.95 138H305.29L291.92 98.03H294.44L280.86 138H271.13ZM359.999 100.2C362.985 100.2 365.645 100.783 367.979 101.95C370.359 103.117 372.225 104.913 373.579 107.34C374.932 109.72 375.609 112.8 375.609 116.58V138H366.859V117.7C366.859 114.387 366.065 111.913 364.479 110.28C362.939 108.647 360.769 107.83 357.969 107.83C355.915 107.83 354.095 108.25 352.509 109.09C350.922 109.93 349.685 111.19 348.799 112.87C347.959 114.503 347.539 116.58 347.539 119.1V138H338.789V86.06H347.539V110.7L345.649 107.62C346.955 105.24 348.845 103.42 351.319 102.16C353.839 100.853 356.732 100.2 359.999 100.2ZM409.739 138V130.44L409.249 128.83V115.6C409.249 113.033 408.479 111.05 406.939 109.65C405.399 108.203 403.065 107.48 399.939 107.48C397.839 107.48 395.762 107.807 393.709 108.46C391.702 109.113 389.999 110.023 388.599 111.19L385.169 104.82C387.175 103.28 389.555 102.137 392.309 101.39C395.109 100.597 398.002 100.2 400.989 100.2C406.402 100.2 410.579 101.507 413.519 104.12C416.505 106.687 417.999 110.677 417.999 116.09V138H409.739ZM397.979 138.49C395.179 138.49 392.729 138.023 390.629 137.09C388.529 136.11 386.895 134.78 385.729 133.1C384.609 131.373 384.049 129.437 384.049 127.29C384.049 125.19 384.539 123.3 385.519 121.62C386.545 119.94 388.202 118.61 390.489 117.63C392.775 116.65 395.809 116.16 399.589 116.16H410.439V121.97H400.219C397.232 121.97 395.225 122.46 394.199 123.44C393.172 124.373 392.659 125.54 392.659 126.94C392.659 128.527 393.289 129.787 394.549 130.72C395.809 131.653 397.559 132.12 399.799 132.12C401.945 132.12 403.859 131.63 405.539 130.65C407.265 129.67 408.502 128.223 409.249 126.31L410.719 131.56C409.879 133.753 408.362 135.457 406.169 136.67C404.022 137.883 401.292 138.49 397.979 138.49ZM443.298 138.49C439.192 138.49 436.018 137.44 433.778 135.34C431.538 133.193 430.418 130.043 430.418 125.89V92.36H439.168V125.68C439.168 127.453 439.612 128.83 440.498 129.81C441.432 130.79 442.715 131.28 444.348 131.28C446.308 131.28 447.942 130.767 449.248 129.74L451.698 135.97C450.672 136.81 449.412 137.44 447.918 137.86C446.425 138.28 444.885 138.49 443.298 138.49ZM424.258 107.9V100.9H449.178V107.9H424.258ZM470.446 138.49C467.32 138.49 464.31 138.093 461.416 137.3C458.57 136.46 456.306 135.457 454.626 134.29L457.986 127.64C459.666 128.713 461.673 129.6 464.006 130.3C466.34 131 468.673 131.35 471.006 131.35C473.76 131.35 475.743 130.977 476.956 130.23C478.216 129.483 478.846 128.48 478.846 127.22C478.846 126.193 478.426 125.423 477.586 124.91C476.746 124.35 475.65 123.93 474.296 123.65C472.943 123.37 471.426 123.113 469.746 122.88C468.113 122.647 466.456 122.343 464.776 121.97C463.143 121.55 461.65 120.967 460.296 120.22C458.943 119.427 457.846 118.377 457.006 117.07C456.166 115.763 455.746 114.037 455.746 111.89C455.746 109.51 456.423 107.457 457.776 105.73C459.13 103.957 461.02 102.603 463.446 101.67C465.92 100.69 468.836 100.2 472.196 100.2C474.716 100.2 477.26 100.48 479.826 101.04C482.393 101.6 484.516 102.393 486.196 103.42L482.836 110.07C481.063 108.997 479.266 108.273 477.446 107.9C475.673 107.48 473.9 107.27 472.126 107.27C469.466 107.27 467.483 107.667 466.176 108.46C464.916 109.253 464.286 110.257 464.286 111.47C464.286 112.59 464.706 113.43 465.546 113.99C466.386 114.55 467.483 114.993 468.836 115.32C470.19 115.647 471.683 115.927 473.316 116.16C474.996 116.347 476.653 116.65 478.286 117.07C479.92 117.49 481.413 118.073 482.766 118.82C484.166 119.52 485.286 120.523 486.126 121.83C486.966 123.137 487.386 124.84 487.386 126.94C487.386 129.273 486.686 131.303 485.286 133.03C483.933 134.757 481.996 136.11 479.476 137.09C476.956 138.023 473.946 138.49 470.446 138.49ZM488.832 138L510.882 89H519.842L541.962 138H532.442L513.472 93.83H517.112L498.212 138H488.832ZM498.982 126.66L501.432 119.52H527.892L530.342 126.66H498.982ZM568.073 138.49C565.04 138.49 562.263 137.79 559.743 136.39C557.27 134.99 555.287 132.89 553.793 130.09C552.347 127.243 551.623 123.65 551.623 119.31C551.623 114.923 552.323 111.33 553.723 108.53C555.17 105.73 557.13 103.653 559.603 102.3C562.077 100.9 564.9 100.2 568.073 100.2C571.76 100.2 575.003 100.993 577.803 102.58C580.65 104.167 582.89 106.383 584.523 109.23C586.203 112.077 587.043 115.437 587.043 119.31C587.043 123.183 586.203 126.567 584.523 129.46C582.89 132.307 580.65 134.523 577.803 136.11C575.003 137.697 571.76 138.49 568.073 138.49ZM547.353 151.58V100.62H555.683V109.44L555.403 119.38L556.103 129.32V151.58H547.353ZM567.093 131C569.193 131 571.06 130.533 572.693 129.6C574.373 128.667 575.703 127.313 576.683 125.54C577.663 123.767 578.153 121.69 578.153 119.31C578.153 116.883 577.663 114.807 576.683 113.08C575.703 111.307 574.373 109.953 572.693 109.02C571.06 108.087 569.193 107.62 567.093 107.62C564.993 107.62 563.103 108.087 561.423 109.02C559.743 109.953 558.413 111.307 557.433 113.08C556.453 114.807 555.963 116.883 555.963 119.31C555.963 121.69 556.453 123.767 557.433 125.54C558.413 127.313 559.743 128.667 561.423 129.6C563.103 130.533 564.993 131 567.093 131ZM616.062 138.49C613.028 138.49 610.252 137.79 607.732 136.39C605.258 134.99 603.275 132.89 601.782 130.09C600.335 127.243 599.612 123.65 599.612 119.31C599.612 114.923 600.312 111.33 601.712 108.53C603.158 105.73 605.118 103.653 607.592 102.3C610.065 100.9 612.888 100.2 616.062 100.2C619.748 100.2 622.992 100.993 625.792 102.58C628.638 104.167 630.878 106.383 632.512 109.23C634.192 112.077 635.032 115.437 635.032 119.31C635.032 123.183 634.192 126.567 632.512 129.46C630.878 132.307 628.638 134.523 625.792 136.11C622.992 137.697 619.748 138.49 616.062 138.49ZM595.342 151.58V100.62H603.672V109.44L603.392 119.38L604.092 129.32V151.58H595.342ZM615.082 131C617.182 131 619.048 130.533 620.682 129.6C622.362 128.667 623.692 127.313 624.672 125.54C625.652 123.767 626.142 121.69 626.142 119.31C626.142 116.883 625.652 114.807 624.672 113.08C623.692 111.307 622.362 109.953 620.682 109.02C619.048 108.087 617.182 107.62 615.082 107.62C612.982 107.62 611.092 108.087 609.412 109.02C607.732 109.953 606.402 111.307 605.422 113.08C604.442 114.807 603.952 116.883 603.952 119.31C603.952 121.69 604.442 123.767 605.422 125.54C606.402 127.313 607.732 128.667 609.412 129.6C611.092 130.533 612.982 131 615.082 131Z" fill="white"/>
<path d="M163.97 72.1508C158.901 67.0121 152.865 62.9376 146.212 60.1648C139.56 57.392 132.424 55.9763 125.221 56.0003C95.0402 56.0003 70.4422 80.6977 70.4422 111.001C70.4422 120.713 72.9849 130.148 77.7387 138.473L70 167L99.0201 159.341C107.035 163.726 116.045 166.057 125.221 166.057C155.402 166.057 180 141.359 180 111.056C180 96.3487 174.307 82.5292 163.97 72.1508ZM125.221 156.733C117.04 156.733 109.025 154.513 102.005 150.35L100.347 149.351L83.1005 153.902L87.6884 137.03L86.5829 135.31C82.0367 128.023 79.6232 119.599 79.6181 111.001C79.6181 85.8037 100.07 65.2688 125.166 65.2688C137.327 65.2688 148.769 70.0418 157.337 78.6997C161.58 82.9392 164.942 87.9823 167.229 93.5367C169.516 99.091 170.681 105.046 170.658 111.056C170.769 136.253 150.317 156.733 125.221 156.733ZM150.206 122.545C148.824 121.879 142.08 118.549 140.864 118.049C139.593 117.605 138.709 117.383 137.769 118.715C136.829 120.103 134.231 123.211 133.457 124.099C132.683 125.042 131.854 125.153 130.472 124.432C129.09 123.766 124.668 122.267 119.472 117.605C115.382 113.942 112.673 109.447 111.844 108.059C111.07 106.672 111.734 105.95 112.452 105.229C113.06 104.618 113.834 103.619 114.497 102.842C115.161 102.065 115.437 101.455 115.879 100.567C116.322 99.6232 116.1 98.8462 115.769 98.1802C115.437 97.5142 112.673 90.7432 111.568 87.9682C110.462 85.3042 109.302 85.6372 108.472 85.5817H105.819C104.879 85.5817 103.442 85.9147 102.171 87.3022C100.955 88.6897 97.4171 92.0197 97.4171 98.7907C97.4171 105.562 102.337 112.111 103 112.999C103.663 113.942 112.673 127.817 126.382 133.756C129.643 135.199 132.186 136.031 134.176 136.642C137.437 137.696 140.422 137.53 142.799 137.197C145.452 136.808 150.925 133.867 152.03 130.648C153.191 127.429 153.191 124.709 152.804 124.099C152.417 123.488 151.588 123.211 150.206 122.545Z" fill="white"/>
<defs>
<linearGradient id="paint0_linear_377_506" x1="379" y1="0" x2="379" y2="235" gradientUnits="userSpaceOnUse">
<stop stop-color="#128C7E"/>
<stop offset="1" stop-color="#0E6B5B"/>
</linearGradient>
<linearGradient id="paint1_linear_377_506" x1="379" y1="0" x2="379" y2="235" gradientUnits="userSpaceOnUse">
<stop stop-color="#25D366"/>
<stop offset="1" stop-color="#128C7E"/>
</linearGradient>
<linearGradient id="paint2_linear_377_506" x1="85" y1="0" x2="85" y2="170" gradientUnits="userSpaceOnUse">
<stop stop-color="#5DF5A2"/>
<stop offset="0.548077" stop-color="#25D366"/>
</linearGradient>
<linearGradient id="paint3_linear_377_506" x1="365" y1="207" x2="365" y2="0" gradientUnits="userSpaceOnUse">
<stop offset="0.216346" stop-color="#0B5146"/>
<stop offset="1" stop-color="#1DD1B8" stop-opacity="0"/>
</linearGradient>
</defs>
</svg>
