<svg width="56" height="56" viewBox="0 0 56 56" fill="none" xmlns="http://www.w3.org/2000/svg">
<circle cx="28" cy="28" r="28" fill="#1E4193"/>
<path d="M23.2361 13.1143C22.7438 13.2716 22.3813 13.5041 21.9916 13.9212C21.3898 14.5708 21.1847 15.2272 21.1847 16.5538V17.3607H17.287C13.5603 17.3607 13.3689 17.3675 12.9996 17.4975C12.1722 17.7847 11.5089 18.4138 11.1807 19.2206C11.0371 19.5694 11.0303 19.6993 11.0098 22.2157C10.9892 24.0825 11.0098 24.9577 11.0645 25.2244C11.3038 26.3185 12.2338 27.2484 13.3073 27.4741C13.5535 27.5288 15.5297 27.5493 19.612 27.5493H25.561V27.1732C25.561 26.9612 25.602 26.6877 25.6567 26.5646C25.8482 26.1065 25.8072 26.1133 28.5013 26.1133C31.1955 26.1133 31.1545 26.1065 31.346 26.5646C31.4007 26.6877 31.4417 26.9612 31.4417 27.1732V27.5493H37.3907C41.473 27.5493 43.4492 27.5288 43.6954 27.4741C44.4886 27.31 45.3091 26.6741 45.6852 25.9355C45.9861 25.3406 46.0203 24.9782 45.9929 22.1815C45.9724 19.6993 45.9656 19.5694 45.822 19.2206C45.6032 18.6736 45.1587 18.1402 44.6869 17.8325C43.9484 17.3539 44.0373 17.3607 39.702 17.3607H35.818V16.5538C35.818 15.617 35.6949 14.9606 35.4282 14.4819C35.1684 13.9964 34.4846 13.3742 33.9923 13.1758L33.5957 13.0186L28.6039 13.0049C23.9814 12.9912 23.5848 12.9981 23.2361 13.1143ZM32.8777 16.6085V17.3607H28.5013H24.125V16.6085V15.8563H28.5013H32.8777V16.6085Z" fill="white"/>
<path d="M11.4256 28.3286C10.9675 28.5337 10.988 28.2602 11.0085 34.3734C11.029 39.8643 11.029 39.8916 11.1794 40.254C11.5077 41.0609 12.171 41.69 12.9984 41.9772C13.3813 42.114 13.5659 42.114 28.4864 42.114C45.2669 42.114 43.8924 42.155 44.6856 41.6421C45.1574 41.3344 45.6019 40.8011 45.8207 40.254C45.9712 39.8916 45.9712 39.8643 45.9917 34.3734C46.0122 28.2192 46.0327 28.5269 45.5541 28.3286C45.2737 28.2123 45.1438 28.2397 44.6378 28.5405C43.8651 29.0055 44.1591 28.985 37.4784 28.985H31.4404V30.1133C31.4404 31.3851 31.3789 31.645 31.037 31.8159C30.7293 31.9801 26.2709 31.9801 25.9632 31.8159C25.6213 31.645 25.5597 31.3851 25.5597 30.1133V28.985H19.5218C12.8342 28.985 13.1283 29.0055 12.3624 28.5405C11.8906 28.2533 11.6991 28.2123 11.4256 28.3286Z" fill="white"/>
</svg>
