<svg width="54" height="54" viewBox="0 0 54 54" fill="none" xmlns="http://www.w3.org/2000/svg">
<path d="M27 0C23.4543 0 19.9433 0.698376 16.6675 2.05525C13.3918 3.41213 10.4153 5.40094 7.90812 7.90812C2.84463 12.9716 0 19.8392 0 27C0 34.1608 2.84463 41.0284 7.90812 46.0919C10.4153 48.5991 13.3918 50.5879 16.6675 51.9448C19.9433 53.3016 23.4543 54 27 54C34.1608 54 41.0284 51.1554 46.0919 46.0919C51.1554 41.0284 54 34.1608 54 27C54 23.4543 53.3016 19.9433 51.9448 16.6675C50.5879 13.3918 48.5991 10.4153 46.0919 7.90812C43.5847 5.40094 40.6082 3.41213 37.3325 2.05525C34.0567 0.698376 30.5457 0 27 0ZM38.34 38.34L24.3 29.7V13.5H28.35V27.54L40.5 34.83L38.34 38.34Z" fill="#385495"/>
</svg>
