<svg width="53" height="42" viewBox="0 0 53 42" fill="none" xmlns="http://www.w3.org/2000/svg">
<g clip-path="url(#clip0_1090_647)">
<path d="M37.1 2.625V3.52734C37.1 6.66094 38.3588 9.66328 40.5947 11.8781L42.3338 13.6008C44.0728 15.3234 45.05 17.6613 45.05 20.0977V21C45.05 22.452 43.8658 23.625 42.4 23.625C40.9342 23.625 39.75 22.452 39.75 21V20.0977C39.75 19.0559 39.3277 18.0551 38.5823 17.3168L36.8433 15.5941C33.6136 12.3949 31.8 8.04727 31.8 3.52734V2.625C31.8 1.17305 32.9842 0 34.45 0C35.9158 0 37.1 1.17305 37.1 2.625ZM47.7 21V20.0977C47.7 16.9641 46.4412 13.9617 44.2053 11.7469L42.4663 10.0242C40.7272 8.30156 39.75 5.96367 39.75 3.52734V2.625C39.75 1.17305 40.9342 0 42.4 0C43.8658 0 45.05 1.17305 45.05 2.625V3.52734C45.05 4.56914 45.4723 5.56992 46.2177 6.3082L47.9567 8.03086C51.1864 11.2301 53 15.5695 53 20.0977V21C53 22.452 51.8158 23.625 50.35 23.625C48.8842 23.625 47.7 22.452 47.7 21ZM0 34.125C0 31.2293 2.37672 28.875 5.3 28.875H34.45C35.9158 28.875 37.1 30.048 37.1 31.5V39.375C37.1 40.827 35.9158 42 34.45 42H5.3C2.37672 42 0 39.6457 0 36.75V34.125ZM18.55 34.125V36.75H31.8V34.125H18.55ZM42.4 28.875C43.8658 28.875 45.05 30.048 45.05 31.5V39.375C45.05 40.827 43.8658 42 42.4 42C40.9342 42 39.75 40.827 39.75 39.375V31.5C39.75 30.048 40.9342 28.875 42.4 28.875ZM50.35 28.875C51.8158 28.875 53 30.048 53 31.5V39.375C53 40.827 51.8158 42 50.35 42C48.8842 42 47.7 40.827 47.7 39.375V31.5C47.7 30.048 48.8842 28.875 50.35 28.875Z" fill="#385495"/>
</g>
<defs>
<clipPath id="clip0_1090_647">
<rect width="53" height="42" fill="white"/>
</clipPath>
</defs>
</svg>
