<svg width="54" height="53" viewBox="0 0 54 53" fill="none" xmlns="http://www.w3.org/2000/svg">
<path d="M6 53C4.35 53 2.938 52.4239 1.764 51.2716C0.59 50.1193 0.002 48.7325 0 47.1111V10.3792C0 9.69214 0.113 9.02964 0.339 8.39168C0.565 7.75372 0.902 7.16483 1.35 6.62501L5.1 2.13474C5.65 1.4477 6.337 0.919663 7.161 0.550627C7.985 0.18159 8.848 -0.00194738 9.75 1.55791e-05H44.25C45.15 1.55791e-05 46.013 0.184534 46.839 0.553571C47.665 0.922608 48.352 1.44966 48.9 2.13474L52.65 6.62501C53.1 7.16483 53.438 7.75372 53.664 8.39168C53.89 9.02964 54.002 9.69214 54 10.3792V47.1111C54 48.7306 53.413 50.1174 52.239 51.2716C51.065 52.4258 49.652 53.002 48 53H6ZM7.2 8.83335H46.8L44.25 5.8889H9.75L7.2 8.83335ZM39 14.7222H15V38.2778L27 32.3889L39 38.2778V14.7222Z" fill="#5A9BD5"/>
</svg>
