<svg width="183" height="148" viewBox="0 0 183 148" fill="none" xmlns="http://www.w3.org/2000/svg">
<path d="M146.4 98.6667H128.1V115.111H146.4M146.4 65.7778H128.1V82.2222H146.4M164.7 131.556H91.5V115.111H109.8V98.6667H91.5V82.2222H109.8V65.7778H91.5V49.3333H164.7M73.2 32.8889H54.9V16.4444H73.2M73.2 65.7778H54.9V49.3333H73.2M73.2 98.6667H54.9V82.2222H73.2M73.2 131.556H54.9V115.111H73.2M36.6 32.8889H18.3V16.4444H36.6M36.6 65.7778H18.3V49.3333H36.6M36.6 98.6667H18.3V82.2222H36.6M36.6 131.556H18.3V115.111H36.6M91.5 32.8889V0H0V148H183V32.8889H91.5Z" fill="#5A9BD5"/>
</svg>
