<svg width="183" height="146" viewBox="0 0 183 146" fill="none" xmlns="http://www.w3.org/2000/svg">
<path fill-rule="evenodd" clip-rule="evenodd" d="M91.3301 15.6478C85.8658 15.5691 80.4356 16.3508 75.3504 17.9482C70.2652 19.5456 65.6248 21.9274 61.6947 24.9571C57.7646 27.9869 54.622 31.6053 52.4468 35.6051C50.2715 39.6049 49.1063 43.9077 49.0179 48.2671V93.8591C49.0179 96.6248 47.6407 99.2773 45.1893 101.233C42.738 103.189 39.4132 104.287 35.9464 104.287H19.6071C14.407 104.287 9.41985 102.639 5.7428 99.7058C2.06575 96.7723 0 92.7936 0 88.645L0 67.7887C0 63.6401 2.06575 59.6614 5.7428 56.7279C9.41985 53.7944 14.407 52.1464 19.6071 52.1464H29.4107V48.0794C29.53 41.6702 31.2307 35.3425 34.4157 29.4577C37.6007 23.5729 42.2076 18.2463 47.9733 13.7821C53.739 9.31785 60.5505 5.80349 68.0189 3.43969C75.4873 1.07589 83.4662 -0.0910406 91.5 0.00554063C99.5338 -0.0910406 107.513 1.07589 114.981 3.43969C122.449 5.80349 129.261 9.31785 135.027 13.7821C140.792 18.2463 145.399 23.5729 148.584 29.4577C151.769 35.3425 153.47 41.6702 153.589 48.0794V52.1464H163.393C168.593 52.1464 173.58 53.7944 177.257 56.7279C180.934 59.6614 183 63.6401 183 67.7887V88.645C183 92.7936 180.934 96.7723 177.257 99.7058C173.58 102.639 168.593 104.287 163.393 104.287H153.589V109.501C153.591 116.548 150.34 123.349 144.458 128.606C138.575 133.862 130.472 137.207 121.695 138.002C119.991 140.429 117.505 142.45 114.495 143.856C111.485 145.262 108.059 146.002 104.571 146H84.9643C79.7641 146 74.777 144.352 71.0999 141.418C67.4229 138.485 65.3571 134.506 65.3571 130.358C65.3571 126.209 67.4229 122.23 71.0999 119.297C74.777 116.363 79.7641 114.715 84.9643 114.715H104.571C111.656 114.715 117.865 117.708 121.303 122.203C124.906 121.542 128.121 119.926 130.424 117.619C132.727 115.312 133.981 112.451 133.982 109.501V48.2567C133.892 43.8748 132.715 39.5505 130.518 35.5338C128.32 31.5172 125.147 27.8878 121.181 24.8556C117.215 21.8233 112.534 19.4483 107.411 17.8678C102.287 16.2874 96.8215 15.5328 91.3301 15.6478Z" fill="white"/>
</svg>
