<svg width="70" height="70" viewBox="0 0 70 70" fill="none" xmlns="http://www.w3.org/2000/svg">
<path d="M7.77777 70C5.63889 70 3.80852 69.2391 2.28667 67.7172C0.764815 66.1954 0.00259259 64.3637 0 62.2222V13.7083C0 12.8009 0.146481 11.9259 0.439444 11.0833C0.732407 10.2408 1.16926 9.46298 1.75 8.75002L6.61111 2.81946C7.32407 1.91206 8.21463 1.21465 9.28277 0.727243C10.3509 0.239835 11.4696 -0.00257202 12.6389 2.05761e-05H57.3611C58.5277 2.05761e-05 59.6465 0.243724 60.7172 0.731131C61.7879 1.21854 62.6785 1.91465 63.3889 2.81946L68.25 8.75002C68.8333 9.46298 69.2714 10.2408 69.5644 11.0833C69.8574 11.9259 70.0026 12.8009 70 13.7083V62.2222C70 64.3611 69.239 66.1928 67.7172 67.7172C66.1953 69.2417 64.3637 70.0026 62.2222 70H7.77777ZM9.33333 11.6667H60.6666L57.3611 7.77779H12.6389L9.33333 11.6667ZM50.5555 19.4445H19.4444V50.5556L35 42.7778L50.5555 50.5556V19.4445Z" fill="#385495"/>
</svg>
