<svg width="156" height="140" viewBox="0 0 156 140" fill="none" xmlns="http://www.w3.org/2000/svg">
<path d="M56.7111 22.1053C64.2315 22.1053 71.4438 25.2105 76.7616 30.7379C82.0793 36.2653 85.0667 43.762 85.0667 51.5789C85.0667 59.3959 82.0793 66.8926 76.7616 72.42C71.4438 77.9474 64.2315 81.0526 56.7111 81.0526C49.1908 81.0526 41.9784 77.9474 36.6607 72.42C31.343 66.8926 28.3556 59.3959 28.3556 51.5789C28.3556 43.762 31.343 36.2653 36.6607 30.7379C41.9784 25.2105 49.1908 22.1053 56.7111 22.1053ZM56.7111 95.7895C75.6385 95.7895 113.422 105.663 113.422 125.263V140H0V125.263C0 105.663 37.7838 95.7895 56.7111 95.7895ZM111.721 24.7579C126.041 40.9684 126.041 63.4421 111.721 78.3263L99.8116 65.8737C105.766 57.1789 105.766 45.9053 99.8116 37.2105L111.721 24.7579ZM135.185 0C163.045 29.8421 162.832 74.4947 135.185 103.158L123.63 91.1474C143.267 67.7158 143.267 34.2632 123.63 12.0105L135.185 0Z" fill="#5A9BD5"/>
</svg>
