<svg width="166" height="163" viewBox="0 0 166 163" fill="none" xmlns="http://www.w3.org/2000/svg">
<path d="M115.198 0L110.999 4.51296C101.598 14.6624 93.8478 19.2005 87.3967 22.1694C80.9456 25.132 75.5249 26.017 70.2002 30.0153C64.5236 34.2834 56.2741 42.4683 52.799 57.0804C45.3495 58.6747 39.8968 61.4741 35.5961 65.1209C31.3466 68.7238 28.1467 72.8224 24.2043 77.2852C24.1723 77.3354 24.2235 77.4296 24.2043 77.4798C18.5468 83.8569 13.5997 90.7236 3.99992 94.3516L0 95.9208V163H122.001C128.996 162.63 133.847 157.878 136.797 153.189C139.741 148.507 141.373 143.435 142.199 139.268C144.324 128.648 148.196 98.0737 148.196 98.0737L148.4 97.4899V96.8999C148.196 92.6569 146.416 89.054 144.196 85.7148L151.395 64.7318L162.8 47.86L166 43.347L161.795 39.6249L119.799 3.92295L115.198 0ZM115.601 17.261L148.996 45.707L140.196 58.4488L139.601 59.0451L139.396 60.0242L133.597 76.8898C130.57 75.6658 127.454 74.8059 123.998 74.9314H123.594L83.1984 75.126H76.7985V99.4483C75.9025 106.29 72.0242 108.939 67.1987 110.828C65.5987 111.462 65.4003 111.117 63.9988 111.412V74.9377C62.9492 51.6699 71.397 44.9727 78.0017 40.0203C79.8257 38.6457 85.1696 37.0577 92.7982 33.549C99.1725 30.6053 107.096 25.3265 115.601 17.261ZM51.6022 71.203C51.5766 72.6279 51.1222 73.6321 51.199 75.126V125.34H57.5989C57.5989 125.34 64.4468 125.264 71.8002 122.396C79.1537 119.527 88.0239 112.811 89.5983 101.017V87.6794L123.998 87.4848H124.196C127.006 87.3306 129.764 88.2764 131.864 90.1146C133.964 91.9528 135.234 94.5332 135.396 97.2891C135.37 97.3895 135.076 99.7182 134.999 100.233H108.798V112.786H133.399C132.721 117.638 132.1 120.682 131.396 125.34H108.798V137.893H129.399C128.643 140.93 127.429 143.839 125.796 146.524C124.049 149.317 122.545 150.371 121.201 150.447H12.7998V103.566C23.174 98.1678 29.625 90.4035 33.7977 85.7211C38.1241 80.8629 41.0936 77.1848 43.9992 74.7368C45.8999 73.1426 48.8759 72.2324 51.6022 71.203Z" fill="#5A9BD5"/>
</svg>
