<svg width="133" height="123" viewBox="0 0 133 123" fill="none" xmlns="http://www.w3.org/2000/svg">
<path d="M120.909 110.7H133V123H0V110.7H12.0909V6.15C12.0909 4.51892 12.7278 2.95464 13.8616 1.80129C14.9953 0.647944 16.533 0 18.1364 0H114.864C116.467 0 118.005 0.647944 119.138 1.80129C120.272 2.95464 120.909 4.51892 120.909 6.15V110.7ZM60.4545 36.9H48.3636V49.2H60.4545V61.5H72.5455V49.2H84.6364V36.9H72.5455V24.6H60.4545V36.9ZM78.5909 110.7H90.6818V73.8H42.3182V110.7H54.4091V86.1H78.5909V110.7Z" fill="#FFF9F9"/>
</svg>
