<svg width="176" height="189" viewBox="0 0 176 189" fill="none" xmlns="http://www.w3.org/2000/svg">
<path fill-rule="evenodd" clip-rule="evenodd" d="M29.0381 28.0144C29.0381 20.5845 32.0157 13.4589 37.3158 8.20523C42.6159 2.95151 49.8044 0 57.2998 0H114.954C117.924 0.000528445 120.775 1.15983 122.89 3.22726L172.63 51.7818C173.697 52.8242 174.544 54.0662 175.123 55.4359C175.701 56.8056 175.999 58.2755 175.999 59.7603V140.072C175.999 147.502 173.022 154.627 167.722 159.881C162.421 165.135 155.233 168.086 147.737 168.086H74.2569C71.2587 168.086 68.3833 166.906 66.2633 164.804C64.1432 162.703 62.9522 159.853 62.9522 156.881C62.9522 153.909 64.1432 151.058 66.2633 148.957C68.3833 146.856 71.2587 145.675 74.2569 145.675H147.737C149.237 145.675 150.674 145.085 151.734 144.034C152.794 142.983 153.39 141.558 153.39 140.072V70.9661H126.259C120.262 70.9661 114.511 68.6049 110.271 64.4019C106.031 60.1989 103.649 54.4985 103.649 48.5546V22.4115H57.2998C55.8007 22.4115 54.363 23.0018 53.303 24.0526C52.243 25.1033 51.6475 26.5284 51.6475 28.0144V44.823C51.6475 47.795 50.4565 50.6452 48.3364 52.7467C46.2164 54.8482 43.341 56.0288 40.3428 56.0288C37.3446 56.0288 34.4692 54.8482 32.3492 52.7467C30.2291 50.6452 29.0381 47.795 29.0381 44.823V28.0144ZM126.259 37.9651L137.111 48.5546H126.259V37.9651Z" fill="#5A9BD5"/>
<path fill-rule="evenodd" clip-rule="evenodd" d="M63.5072 80.4356C60.6296 78.8875 57.4712 77.9196 54.2143 77.588C50.9574 77.2564 47.6664 77.5675 44.5315 78.5035C41.3965 79.4395 38.4796 80.9817 35.9492 83.0412C33.4188 85.1006 31.325 87.6365 29.7887 90.5024C28.2524 93.3684 27.304 96.5076 26.9983 99.7388C26.6925 102.97 27.0355 106.229 28.0074 109.328C28.9793 112.428 30.5609 115.305 32.6608 117.795C34.7607 120.285 37.3374 122.338 40.2421 123.836C46.0417 126.825 52.7979 127.424 59.0403 125.5C65.2828 123.577 70.5061 119.287 73.5735 113.565C76.641 107.843 77.3043 101.151 75.419 94.9465C73.5337 88.742 69.2525 83.5267 63.5072 80.4356ZM10.0133 80.0882C14.1858 72.3075 20.4815 65.8466 28.1815 61.4433C35.8815 57.04 44.6754 54.8718 53.5592 55.1862C62.4431 55.5006 71.0587 58.2849 78.4223 63.2213C85.7859 68.1576 91.6007 75.0471 95.2028 83.1029C98.805 91.1587 100.049 100.056 98.7933 108.78C97.5375 117.503 93.8324 125.7 88.1009 132.436C82.3694 139.172 74.8427 144.174 66.3801 146.872C57.9174 149.569 48.8601 149.854 40.2421 147.693L21.2954 183.047C19.8893 185.672 17.4884 187.637 14.6211 188.508C11.7537 189.379 8.65473 189.085 6.00583 187.692C3.35692 186.298 1.3751 183.918 0.496346 181.076C-0.382411 178.233 -0.0861241 175.161 1.32003 172.536L20.278 137.182C12.373 130.173 7.06613 120.741 5.2054 110.391C3.34466 100.041 5.03748 89.372 10.0133 80.0882Z" fill="#5A9BD5"/>
</svg>
