<svg width="170" height="140" viewBox="0 0 170 140" fill="none" xmlns="http://www.w3.org/2000/svg">
<path d="M61.8006 22.1053C69.9959 22.1053 77.8555 25.2105 83.6504 30.7379C89.4453 36.2653 92.7009 43.762 92.7009 51.5789C92.7009 59.3959 89.4453 66.8926 83.6504 72.42C77.8555 77.9474 69.9959 81.0526 61.8006 81.0526C53.6053 81.0526 45.7457 77.9474 39.9508 72.42C34.1559 66.8926 30.9003 59.3959 30.9003 51.5789C30.9003 43.762 34.1559 36.2653 39.9508 30.7379C45.7457 25.2105 53.6053 22.1053 61.8006 22.1053ZM61.8006 95.7895C82.4265 95.7895 123.601 105.663 123.601 125.263V140H0V125.263C0 105.663 41.1746 95.7895 61.8006 95.7895ZM121.747 24.7579C137.352 40.9684 137.352 63.4421 121.747 78.3263L108.769 65.8737C115.258 57.1789 115.258 45.9053 108.769 37.2105L121.747 24.7579ZM147.317 0C177.677 29.8421 177.445 74.4947 147.317 103.158L134.725 91.1474C156.124 67.7158 156.124 34.2632 134.725 12.0105L147.317 0Z" fill="#5A9BD5"/>
</svg>
