<svg width="300" height="300" viewBox="0 0 300 300" fill="none" xmlns="http://www.w3.org/2000/svg">
<path d="M102.933 0.297241C82.9912 2.64099 66.0411 8.73474 50.3812 19.1644C18.8856 40.2582 0 75.5902 0 113.618C0 152.993 20.4106 189.496 54.1349 210.414C65.1613 217.328 78.1818 222.426 92.0235 225.356C98.827 226.821 100.528 226.938 113.49 226.996C124.809 226.996 128.739 226.762 133.431 225.883C183.636 216.567 220.821 177.25 227.038 126.918C228.153 117.719 227.449 100.317 225.572 91.5277C220.117 65.6879 206.686 43.0707 187.097 26.6058C166.276 9.1449 140.059 -0.230103 113.021 0.00427246C108.446 0.0628662 103.93 0.238647 102.933 0.297241ZM117.889 30.1801C118.768 30.7074 120.469 32.8754 121.701 35.0433C125.924 42.3676 133.548 48.9301 141.349 51.9769C149.208 55.0238 157.009 56.1957 169.971 56.1957C180.469 56.1957 181.877 56.6644 183.578 60.473C185.982 66.0394 187.038 89.7113 185.396 101.899C182.405 124.399 173.783 145.668 160.704 162.836C150.499 176.254 136.246 188.207 121.994 195.356C114.897 198.871 114.076 198.989 109.032 196.879C96.3636 191.547 81.2903 180.004 70.9678 167.641C54.956 148.598 45.3959 126.45 42.2287 101.313C41.349 93.8715 41.4663 76.3519 42.522 68.266C44.0469 56.6644 44.6334 56.1957 58.1818 56.1957C73.4311 56.1957 84.3988 53.9105 92.4927 49.1058C97.0675 46.3519 102.522 40.7855 105.22 36.098C108.27 30.8246 110.205 29.2426 113.607 29.2426C115.073 29.2426 116.95 29.6527 117.889 30.1801Z" fill="#FFF9F9"/>
<path d="M110.557 54.4965C100.117 65.1605 85.748 70.4926 63.8711 71.7816L57.6541 72.1332L57.2436 75.6488C56.7157 81.098 56.833 92.4652 57.5368 98.8519C60.8799 129.848 77.5368 158.325 102.053 175.082C104.81 176.957 108.563 179.301 110.44 180.356L113.842 182.289L118.651 179.536C128.856 173.618 137.889 166.118 145.161 157.504C158.71 141.391 167.038 122.465 169.795 101.547C170.675 94.6918 170.968 79.6918 170.323 74.7699L169.971 72.1332L163.695 71.723C150.792 70.9613 142.288 69.2621 134.194 65.8636C128.505 63.4613 120.88 58.3636 117.009 54.4965C115.425 52.8558 113.959 51.5082 113.783 51.5082C113.607 51.5082 112.141 52.8558 110.557 54.4965ZM146.1 88.9496C148.035 90.8832 148.387 91.5863 148.387 93.7543C148.387 95.2777 147.918 97.0941 147.273 98.1488C145.807 100.493 118.299 135.59 115.953 138.11C113.725 140.453 111.027 141.274 108.211 140.512C106.745 140.102 102.288 136.528 93.9591 129.086C87.2729 123.168 81.2318 117.485 80.528 116.43C78.182 113.266 79.0618 108.754 82.4635 106.059C84.223 104.711 88.3873 104.36 90.3814 105.473C91.0266 105.825 95.5427 109.633 100.352 113.969L109.15 121.821L110.499 120.239C111.203 119.301 117.009 111.918 123.402 103.774C129.795 95.6293 135.719 88.4808 136.54 87.8363C137.537 87.016 138.886 86.6644 140.939 86.6644C143.519 86.6644 144.047 86.8988 146.1 88.9496Z" fill="#FFF9F9"/>
<path d="M216.833 191.782C211.437 199.34 199.531 211.176 191.965 216.567C190.323 217.797 188.915 219.086 188.856 219.379C188.856 219.731 206.1 237.133 227.156 258.11C262.874 293.735 265.631 296.313 269.208 297.895C272.493 299.36 273.783 299.653 278.299 299.653C282.991 299.653 283.988 299.477 287.39 297.836C292.2 295.551 295.836 291.918 298.182 287.055C299.824 283.657 300 282.661 300 277.973C300 273.461 299.707 272.172 298.241 268.891C296.657 265.317 294.076 262.563 258.417 226.821C237.419 205.844 220 188.618 219.648 188.618C219.355 188.676 218.065 190.082 216.833 191.782Z" fill="#FFF9F9"/>
</svg>
