<svg width="100" height="101" viewBox="0 0 100 101" fill="none" xmlns="http://www.w3.org/2000/svg">
<path d="M13.5133 0.29277C11.9142 0.65313 11.1259 1.08106 9.97727 2.27475C8.6034 3.69367 8.01781 5.13511 8.01781 7.18466C7.99529 8.58106 8.1079 9.09908 8.62592 10.1576C11.216 15.473 18.716 15.4504 21.3286 10.1576C21.8692 9.07655 21.9593 8.60358 21.9367 7.07205C21.9367 5.56304 21.8241 5.06754 21.3286 4.09908C19.7746 1.08106 16.7115 -0.405429 13.5133 0.29277Z" fill="#FFF9F9"/>
<path d="M48.7164 0.202714C46.6443 0.630642 44.82 1.95947 43.8065 3.82884C42.9056 5.47299 42.7704 7.8829 43.4461 9.6847C44.0092 11.1937 45.4957 12.7703 47.0272 13.536C48.5587 14.2793 51.4641 14.2793 53.0182 13.5135C54.3921 12.8379 55.6533 11.5541 56.3515 10.1577C57.0723 8.67118 57.0948 5.47299 56.3741 4.12163C54.7975 1.14866 51.7569 -0.405394 48.7164 0.202714Z" fill="#FFF9F9"/>
<path d="M83.7614 0.202701C81.6442 0.563062 79.7523 2.0045 78.6713 4.0991C78.1758 5.06757 78.0632 5.56306 78.0632 7.07207C78.0406 8.6036 78.1307 9.07658 78.6713 10.1577C80.7433 14.3919 86.1713 15.473 89.7073 12.3423C91.2614 10.991 92.0046 9.3018 91.9821 7.18469C91.9821 5.13513 91.3965 3.69369 90.0226 2.27477C88.8514 1.05856 87.8605 0.540539 86.1487 0.225224C85.428 0.0900888 84.8199 -1.34278e-06 84.8199 -1.34278e-06C84.7974 0.0225212 84.3244 0.112611 83.7614 0.202701Z" fill="#FFF9F9"/>
<path d="M12.8378 15.5405C8.15315 16.2162 3.64865 19.482 1.5991 23.6486C0.608108 25.6982 0 27.7252 0 29.0766V29.9324H14.9775H29.955V29.0766C29.955 26.5315 28.1757 22.5676 25.991 20.2477C23.4685 17.5901 20.518 16.036 16.982 15.518C15.2252 15.2703 14.5946 15.2703 12.8378 15.5405Z" fill="#FFF9F9"/>
<path d="M48.0403 15.518C42.77 16.3288 38.6259 19.3919 36.3736 24.1216C35.6304 25.6757 34.9322 28.2658 34.9097 29.4144V29.9324H50.0223H65.1349L64.9772 28.7387C64.2115 22.5676 59.7295 17.4099 53.8061 15.8784C52.1619 15.4504 49.4817 15.2928 48.0403 15.518Z" fill="#FFF9F9"/>
<path d="M83.5584 15.4279C79.2566 16.1486 76.644 17.4775 74.0314 20.2477C71.8242 22.5676 70.0449 26.5315 70.0449 29.0766V29.9324H85.0224H99.9999V29.0766C99.9999 27.7928 99.1665 25.0676 98.2431 23.2883C97.0494 21.0135 94.3467 18.3559 92.0044 17.1622C91.0134 16.6441 89.5945 16.0811 88.8512 15.8784C87.4098 15.518 84.5044 15.2703 83.5584 15.4279Z" fill="#FFF9F9"/>
<path d="M15.6533 37.3423C15.4056 37.4549 14.9777 37.7703 14.7299 38.0631C14.3245 38.5135 1.46414 60.6081 0.360541 62.7477C-0.0899098 63.6486 -0.112432 64.8874 0.338018 65.7432C0.675856 66.3964 2.36505 67.4775 7.83802 70.5631C9.95514 71.7568 10.2479 71.8694 11.1939 71.7568C11.9146 71.6892 12.3876 71.464 12.838 71.0135C13.5587 70.2703 27.5678 46.1261 27.7705 45.2252C27.9732 44.4369 27.5903 43.1757 26.9822 42.5901C26.6894 42.3423 24.5948 41.036 22.2975 39.7072C18.0182 37.2297 16.847 36.8243 15.6533 37.3423Z" fill="#FFF9F9"/>
<path d="M82.0047 37.2973C81.0813 37.6802 73.4687 42.2072 73.0182 42.6126C72.4101 43.1757 72.0273 44.4369 72.23 45.2252C72.4327 46.1261 86.4417 70.2703 87.1624 71.0135C87.6128 71.4639 88.0858 71.6892 88.8291 71.7567C89.82 71.8694 90.0453 71.7793 94.5047 69.2342C99.4822 66.3964 100 65.9459 100 64.3243C100 63.8513 99.8426 63.1531 99.6399 62.7477C98.1083 59.8198 85.6309 38.4684 85.1354 37.9504C84.6399 37.4549 84.257 37.2748 83.4011 37.2297C82.8155 37.1847 82.1849 37.2072 82.0047 37.2973Z" fill="#FFF9F9"/>
<path d="M48.0628 47.7478C45.4502 48.0856 43.5808 49.3469 38.5583 54.1892L35.3151 57.2973L35.1124 60.9009C35.0223 62.8829 34.9322 65.4054 34.9097 66.4865C34.9097 68.2883 34.9547 68.5135 35.4727 69.009C36.1484 69.7072 37.1394 69.7297 38.8286 69.0991C40.5853 68.446 41.8016 67.0045 43.4007 63.6937L44.707 61.0135L46.3511 60.2252C49.6394 58.6712 52.1169 58.1982 53.8511 58.8063C54.279 58.9414 59.6844 62.0045 65.8781 65.5856L77.1394 72.0946L80.5854 70.3829C82.4547 69.4369 84.0088 68.6036 84.0088 68.5135C84.0088 68.4009 81.3511 63.7162 78.0854 58.0856C73.3331 49.8649 72.0944 47.8378 71.734 47.8604C71.4862 47.8829 70.225 48.1306 68.9187 48.4234C66.8917 48.8739 65.9232 48.9414 62.1619 48.9414C58.3331 48.964 57.3421 48.8739 54.5043 48.3559C50.6304 47.6351 49.5944 47.545 48.0628 47.7478Z" fill="#FFF9F9"/>
<path d="M27.6125 48.2207C27.4323 48.5135 24.6846 53.2432 21.5314 58.7387C17.8603 65.0676 15.8332 68.8288 15.9459 68.9865C16.0585 69.1216 17.7927 71.2838 19.7972 73.8063L23.4459 78.3784L25.1801 75.9459C27.3423 72.9279 28.0405 72.455 30.2251 72.545C32.1396 72.6351 33.4008 73.4459 34.2342 75.0901C34.5495 75.7207 34.8197 76.2613 34.8423 76.3063C34.8873 76.3513 35.09 76.2387 35.2927 76.0586C38.2882 73.4459 43.2432 75.6982 43.2432 79.6622V80.7658L44.4819 80.9009C48.1305 81.2838 50.1801 84.7748 48.536 87.8378L47.9954 88.8964L49.054 89.0541C52.0044 89.5045 54.0089 91.982 53.4459 94.5721C53.3107 95.1351 53.1531 95.7432 53.063 95.9459C52.9278 96.2387 53.5585 96.6892 56.036 98.1532C58.7612 99.7523 59.3017 99.9775 60.2477 99.9775C62.2522 99.9775 63.7387 98.4234 63.7387 96.3288C63.7387 94.6622 63.1981 94.1216 59.3468 91.8468C56.8017 90.3604 55.8558 89.6847 55.8558 89.3694C55.8558 89.0991 56.0134 88.9414 56.2837 88.9414C56.5089 88.9414 58.4684 89.9775 60.608 91.2387C62.7702 92.5 64.9098 93.6712 65.3828 93.8288C67.4999 94.5721 69.8197 92.7027 69.8197 90.2477C69.8197 88.5586 69.2567 88.018 64.7522 85.4054C62.5224 84.0991 60.6306 82.9279 60.5405 82.7703C60.4504 82.6351 60.5179 82.3874 60.6756 82.2297C61.0585 81.8468 60.5855 81.6216 66.8918 85.3153C71.3738 87.9279 71.8242 88.1532 72.8828 88.1532C74.9774 88.1532 76.5089 86.3739 76.3062 84.1667C76.2161 83.3559 76.0134 82.8829 75.5405 82.3874C75.2026 82.027 72.8152 80.4955 70.2477 79.009C65.5179 76.2613 64.9324 75.8559 65.2026 75.4279C65.4729 74.9775 66.0585 75.2252 69.4369 77.2072C71.3288 78.2883 73.1756 79.3694 73.581 79.5721C75.7432 80.6757 78.3107 79.1441 78.5585 76.5991C78.6486 75.4279 78.3333 74.5045 77.5675 73.8063C77.3197 73.6036 71.8693 70.4054 65.4504 66.6667C56.6441 61.5766 53.5134 59.8649 52.7477 59.7522C51.4639 59.5721 50.0224 59.8874 47.6125 60.9234L45.6981 61.7568L44.2567 64.5946C43.4684 66.1486 42.4999 67.8153 42.0945 68.2883C40.5855 70.1126 36.8468 71.2387 35.1801 70.3829C33.6486 69.5946 33.536 68.7387 33.9864 60.3829L34.1666 56.9369L36.7116 54.3694C38.1305 52.9504 39.2342 51.7568 39.1891 51.6892C39.054 51.5766 28.2657 47.7252 28.063 47.7252C27.9954 47.7252 27.7927 47.9504 27.6125 48.2207Z" fill="#FFF9F9"/>
<path d="M28.7164 73.8514C27.9957 74.1442 27.0047 75.3378 24.6849 78.6487C23.4912 80.3829 22.4777 82.1171 22.3876 82.5225C21.9371 84.9324 24.7299 87.2523 27.1398 86.464C28.0407 86.1712 28.6263 85.4955 31.3065 81.6442C33.4912 78.536 33.8966 77.5676 33.5587 76.3514C33.311 75.4279 32.2074 74.2342 31.2389 73.8739C30.4957 73.5811 29.347 73.5811 28.7164 73.8514Z" fill="#FFF9F9"/>
<path d="M37.0497 76.3288C36.802 76.4189 36.329 76.8018 36.0137 77.1396C34.775 78.491 28.2885 87.9729 28.0858 88.7162C27.7479 89.9324 28.0633 91.0811 28.9416 91.982C30.4281 93.4459 32.5903 93.5135 33.8966 92.1396C35.0227 90.9234 41.8696 80.991 42.0047 80.3378C42.3651 78.7838 41.4191 77.027 39.9326 76.4189C39.1218 76.0811 37.7479 76.036 37.0497 76.3288Z" fill="#FFF9F9"/>
<path d="M43.3782 82.1847C43.0178 82.2973 42.4773 82.6126 42.1845 82.9054C41.1935 83.8288 35.4052 92.2072 35.18 93.063C34.2791 96.2838 38.7611 98.8738 41.0358 96.4414C41.8917 95.4955 47.4998 87.4774 47.7476 86.8018C48.4458 84.9774 47.4322 83.0405 45.3827 82.2522C44.5719 81.9369 44.2566 81.9369 43.3782 82.1847Z" fill="#FFF9F9"/>
<path d="M47.0272 90.6531C46.3065 91.036 43.5362 94.9324 43.2209 95.9685C42.838 97.3423 43.6939 99.1667 45.0903 99.8874C45.9687 100.338 47.5002 100.338 48.3786 99.8874C49.2344 99.4595 51.9371 95.7207 52.2524 94.5721C52.6353 93.1081 51.802 91.3288 50.3606 90.6531C49.4146 90.2027 47.838 90.2027 47.0272 90.6531Z" fill="#FFF9F9"/>
</svg>
