<svg width="70" height="70" viewBox="0 0 70 70" fill="none" xmlns="http://www.w3.org/2000/svg">
<path fill-rule="evenodd" clip-rule="evenodd" d="M24.367 63.6959C14.0665 54.4107 0 39.0725 0 24.5703C0 0.342166 19.25 -8.70425 35 10.0062C50.75 -8.70425 70 0.342166 70 24.5703C70 39.0725 55.93 54.4107 45.633 63.6959C40.971 67.8959 38.64 70 35 70C31.36 70 29.029 67.9 24.367 63.6959ZM50.75 13.3827C51.4462 13.3827 52.1139 13.708 52.6062 14.2872C53.0984 14.8663 53.375 15.6518 53.375 16.4709V21.6179H57.75C58.4462 21.6179 59.1139 21.9433 59.6062 22.5224C60.0984 23.1016 60.375 23.8871 60.375 24.7061C60.375 25.5252 60.0984 26.3107 59.6062 26.8898C59.1139 27.469 58.4462 27.7944 57.75 27.7944H53.375V32.9414C53.375 33.7604 53.0984 34.5459 52.6062 35.1251C52.1139 35.7042 51.4462 36.0296 50.75 36.0296C50.0538 36.0296 49.3861 35.7042 48.8938 35.1251C48.4016 34.5459 48.125 33.7604 48.125 32.9414V27.7944H43.75C43.0538 27.7944 42.3861 27.469 41.8938 26.8898C41.4016 26.3107 41.125 25.5252 41.125 24.7061C41.125 23.8871 41.4016 23.1016 41.8938 22.5224C42.3861 21.9433 43.0538 21.6179 43.75 21.6179H48.125V16.4709C48.125 15.6518 48.4016 14.8663 48.8938 14.2872C49.3861 13.708 50.0538 13.3827 50.75 13.3827Z" fill="#5A9BD5"/>
</svg>
