<svg width="110" height="110" viewBox="0 0 110 110" fill="none" xmlns="http://www.w3.org/2000/svg">
<path d="M101.332 110C88.8768 110 76.5716 107.286 64.4158 101.858C52.26 96.4294 41.2002 88.7313 31.2364 78.7636C21.2726 68.7958 13.5766 57.7361 8.14837 45.5842C2.72011 33.4324 0.00398551 21.1272 0 8.66848C0 6.875 0.597826 5.38044 1.79348 4.18478C2.98913 2.98913 4.4837 2.3913 6.27718 2.3913H30.4891C31.8841 2.3913 33.1295 2.86558 34.2255 3.81413C35.3216 4.76268 35.9692 5.88261 36.1685 7.17391L40.0543 28.0978C40.2536 29.692 40.2038 31.0371 39.9049 32.1332C39.606 33.2292 39.058 34.1757 38.2609 34.9728L23.7636 49.6196C25.7563 53.3062 28.1217 56.8672 30.8598 60.3027C33.5978 63.7382 36.6129 67.0522 39.9049 70.2446C42.9937 73.3333 46.2319 76.1989 49.6196 78.8413C53.0072 81.4837 56.5942 83.8989 60.3804 86.087L74.4293 72.038C75.3261 71.1413 76.4978 70.4697 77.9446 70.0234C79.3913 69.577 80.8101 69.4514 82.2011 69.6467L102.826 73.8315C104.221 74.2301 105.367 74.9534 106.264 76.0016C107.16 77.0498 107.609 78.2196 107.609 79.5109V103.723C107.609 105.516 107.011 107.011 105.815 108.207C104.62 109.402 103.125 110 101.332 110ZM59.7826 50.2174V14.3478H71.7391V29.8913L101.63 0L110 8.36957L80.1087 38.2609H95.6522V50.2174H59.7826Z" fill="#5A9BD5"/>
</svg>
