<svg width="202" height="151" viewBox="0 0 202 151" fill="none" xmlns="http://www.w3.org/2000/svg">
<path d="M174.955 0.00953972H25.5157C18.8428 0.00953972 12.4432 3.19111 7.72473 8.85435C3.00627 14.5176 0.355469 22.1986 0.355469 30.2076V120.802C0.355469 128.811 3.00627 136.492 7.72473 142.155C12.4432 147.818 18.8428 151 25.5157 151H176.477C183.15 151 189.55 147.818 194.268 142.155C198.987 136.492 201.637 128.811 201.637 120.802V32.0346L145.782 99.0744C142.221 103.198 137.454 105.478 132.506 105.424C127.558 105.369 122.826 102.985 119.329 98.7836C115.832 94.5824 113.85 88.9007 113.809 82.9623C113.768 77.0238 115.673 71.3038 119.112 67.0342L174.955 0.00953972ZM25.5157 52.8562C25.5157 50.8539 26.1784 48.9337 27.358 47.5179C28.5377 46.1021 30.1376 45.3067 31.8058 45.3067H56.966C58.6343 45.3067 60.2342 46.1021 61.4138 47.5179C62.5934 48.9337 63.2561 50.8539 63.2561 52.8562C63.2561 54.8585 62.5934 56.7787 61.4138 58.1945C60.2342 59.6103 58.6343 60.4057 56.966 60.4057H31.8058C30.1376 60.4057 28.5377 59.6103 27.358 58.1945C26.1784 56.7787 25.5157 54.8585 25.5157 52.8562ZM25.5157 98.1533C25.5157 96.1511 26.1784 94.2308 27.358 92.815C28.5377 91.3992 30.1376 90.6038 31.8058 90.6038H88.4163C90.0846 90.6038 91.6845 91.3992 92.8641 92.815C94.0437 94.2308 94.7064 96.1511 94.7064 98.1533C94.7064 100.156 94.0437 102.076 92.8641 103.492C91.6845 104.907 90.0846 105.703 88.4163 105.703H31.8058C30.1376 105.703 28.5377 104.907 27.358 103.492C26.1784 102.076 25.5157 100.156 25.5157 98.1533ZM199.801 12.9041C200.982 11.4865 201.645 9.56385 201.645 7.55906C201.645 5.55428 200.982 3.6316 199.801 2.214C198.62 0.796401 197.018 3.95191e-08 195.347 0C193.677 -3.95191e-08 192.075 0.796401 190.894 2.214L127.993 77.7092C126.812 79.1268 126.149 81.0495 126.149 83.0543C126.149 85.0591 126.812 86.9818 127.993 88.3994C129.175 89.817 130.776 90.6133 132.447 90.6133C134.117 90.6133 135.719 89.817 136.9 88.3994L199.801 12.9041Z" fill="#FFF9F9"/>
</svg>
