<svg width="41" height="35" viewBox="0 0 41 35" fill="none" xmlns="http://www.w3.org/2000/svg">
<path d="M10.7705 1.05195C5.36523 1.90078 1.4334 6.70546 1.70566 12.1348C1.77773 13.5041 2.10605 14.8734 2.67461 16.1627L2.80273 16.467H1.88184C1.11309 16.467 0.904883 16.491 0.640625 16.6271C0.280273 16.8113 0 17.2678 0 17.6682C0 18.0685 0.280273 18.525 0.640625 18.7092C0.928906 18.8533 1.10508 18.8693 2.69863 18.8693H4.44434L12.1719 26.5889C19.0426 33.4516 19.9314 34.3164 20.2037 34.3644C20.9645 34.5086 20.4279 34.9891 28.8281 26.5889L36.5557 18.8693H38.3014C39.8949 18.8693 40.0711 18.8533 40.3594 18.7092C40.7197 18.525 41 18.0685 41 17.6682C41 17.2678 40.7197 16.8113 40.3594 16.6271C40.0951 16.491 39.8869 16.467 39.1182 16.467H38.1973L38.3254 16.1707C40.2473 11.8064 39.2863 6.96972 35.859 3.7746C34.2654 2.30117 32.3516 1.38027 30.1494 1.04394C29.1725 0.891792 27.4027 0.931831 26.4658 1.13203C24.4719 1.54843 22.7102 2.46933 21.2207 3.8707L20.5 4.55136L19.7633 3.85468C18.1297 2.31718 16.2158 1.38027 14.0137 1.05195C13.1008 0.907808 11.6514 0.907808 10.7705 1.05195ZM13.9896 3.48632C15.2549 3.73457 16.3439 4.20703 17.3609 4.95175C17.6092 5.13593 18.2658 5.72851 18.8184 6.26503C19.3709 6.80156 19.8994 7.27402 19.9955 7.33007C20.2197 7.44218 20.7803 7.44218 21.0045 7.33007C21.1006 7.27402 21.6531 6.77753 22.2217 6.225C23.8072 4.6875 24.8402 4.04687 26.4818 3.59843C27.1865 3.39824 27.4027 3.38222 28.5479 3.37421C29.6129 3.37421 29.9492 3.40625 30.5338 3.55839C32.6078 4.0789 34.3535 5.3041 35.5146 7.0498C37.3404 9.80449 37.3725 13.3359 35.5867 16.1627L35.3945 16.467H32.2395H29.0924L27.667 14.2248C26.4418 12.2869 26.2016 11.9506 25.9373 11.8225C25.5369 11.6143 25.1766 11.6223 24.7922 11.8465C24.5119 12.0066 24.2717 12.391 22.4859 15.506C21.3889 17.4199 20.468 19.0135 20.4359 19.0455C20.4039 19.0775 19.2107 16.7873 17.7773 13.9605C15.2789 9.02773 15.1588 8.81152 14.8545 8.64335C14.2779 8.31503 13.5732 8.4832 13.2689 9.00371C13.1889 9.13984 12.4441 10.8695 11.6193 12.8394L10.1139 16.4269L7.86367 16.451L5.62148 16.467L5.46133 16.2508C5.37324 16.1227 5.15703 15.7383 4.98086 15.3859C3.00293 11.4221 4.43633 6.67343 8.28809 4.41523C9.88164 3.47832 12.0998 3.11796 13.9896 3.48632ZM18.8904 21.4719C19.3469 22.3687 19.459 22.5369 19.7393 22.6891C20.1477 22.9213 20.532 22.9213 20.9324 22.6891C21.2127 22.5289 21.4609 22.1365 23.3027 18.9094C24.4398 16.9314 25.4008 15.3059 25.4328 15.2898C25.4729 15.2818 25.9693 16.0105 26.5379 16.9154C27.4027 18.3008 27.6109 18.5811 27.8752 18.7092C28.1635 18.8613 28.3557 18.8693 30.6459 18.8693H33.1123L26.8021 25.1715L20.5 31.4816L14.1979 25.1715L7.8877 18.8693H9.51328C10.9867 18.8693 11.1709 18.8533 11.4512 18.7092C11.8436 18.509 11.8275 18.549 13.1168 15.458C13.6934 14.0967 14.2059 12.8795 14.2619 12.7594C14.358 12.5512 14.4461 12.7033 16.36 16.483C17.457 18.6531 18.5941 20.8953 18.8904 21.4719Z" fill="#5A9BD5"/>
</svg>
