<svg width="41" height="40" viewBox="0 0 41 40" fill="none" xmlns="http://www.w3.org/2000/svg">
<path d="M27.1615 31.0394C25.3533 34.5094 20.9973 36.9236 15.8938 36.9489H15.884C13.3809 36.9489 10.9416 36.3482 8.91314 35.2321C6.88465 34.1161 5.37032 32.5416 4.58562 30.7327C3.80092 28.9238 3.78582 26.9726 4.54248 25.1567C5.29914 23.3409 6.789 21.7529 8.80009 20.6188L8.8314 20.6009L8.1367 17.3379C3.24646 19.4497 1.31767e-06 23.3844 1.31767e-06 27.897C-0.00145443 30.6191 1.20334 33.2621 3.41965 35.3988C5.63596 37.5354 8.73425 39.0408 12.2137 39.6716C15.6932 40.3024 19.3505 40.0217 22.5945 38.875C25.8385 37.7283 28.4796 35.7826 30.0909 33.3522L30.132 33.2837L27.1615 31.0394Z" fill="#5A9BD5"/>
<path d="M28.8116 22.4444C28.6688 22.3393 28.5157 22.2428 28.3537 22.1554L28.3419 22.1495C27.9134 21.9261 27.3831 21.792 26.8117 21.792H14.4227L12.82 14.2756H26.0446C26.3 14.2756 26.5529 14.2373 26.7889 14.1629C27.0249 14.0885 27.2394 13.9795 27.42 13.842C27.6006 13.7045 27.7439 13.5414 27.8416 13.3617C27.9394 13.1821 27.9897 12.9896 27.9897 12.7952C27.9897 12.6008 27.9394 12.4083 27.8416 12.2287C27.7439 12.0491 27.6006 11.8859 27.42 11.7485C27.2394 11.611 27.0249 11.502 26.7889 11.4276C26.5529 11.3532 26.3 11.3149 26.0446 11.3149H12.186L11.9687 10.3141C11.9083 10.0419 11.7781 9.78151 11.5855 9.54767C11.3928 9.31383 11.1416 9.11116 10.846 8.95122C10.5505 8.79128 10.2164 8.67722 9.86293 8.61553C9.50945 8.55385 9.14346 8.54576 8.78587 8.59172C8.42829 8.63768 8.08609 8.73679 7.77883 8.8834C7.47157 9.03001 7.20527 9.22124 6.99512 9.44617C6.5707 9.90045 6.40078 10.4644 6.52274 11.0141L6.52079 11.0021L9.33869 24.1451C9.46575 24.651 9.81507 25.1089 10.3293 25.4437C10.8435 25.7784 11.492 25.9702 12.1683 25.9874H25.6806L36.2654 34.0444C36.5189 34.2452 36.8226 34.4054 37.1585 34.5157C37.4944 34.6261 37.8558 34.6843 38.2217 34.687C38.5875 34.6898 38.9504 34.637 39.2891 34.5317C39.6278 34.4264 39.9355 34.2707 40.1943 34.0738C40.453 33.8769 40.6575 33.6428 40.7958 33.385C40.9342 33.1272 41.0036 32.851 41 32.5726C40.9964 32.2942 40.9199 32.0191 40.7749 31.7634C40.6299 31.5078 40.4194 31.2767 40.1556 31.0837L28.8116 22.4444ZM13.3464 4.00843C13.3464 5.07153 12.7915 6.09109 11.8037 6.84281C10.816 7.59454 9.47632 8.01685 8.07944 8.01685C6.68256 8.01685 5.34289 7.59454 4.35515 6.84281C3.36741 6.09109 2.8125 5.07153 2.8125 4.00843C2.8125 2.94533 3.36741 1.92577 4.35515 1.17404C5.34289 0.422315 6.68256 0 8.07944 0C9.47632 0 10.816 0.422315 11.8037 1.17404C12.7915 1.92577 13.3464 2.94533 13.3464 4.00843Z" fill="#5A9BD5"/>
</svg>
