<svg width="41" height="41" viewBox="0 0 41 41" fill="none" xmlns="http://www.w3.org/2000/svg">
<path d="M27.6577 0.00624903C27.6216 0.014584 27.4412 0.0437562 27.2562 0.0687609C25.4017 0.347981 23.8225 1.69407 23.3397 3.40273C23.2044 3.89032 23.1548 4.69047 23.2315 5.18223C23.2766 5.46979 23.421 5.96988 23.5293 6.20326C23.5563 6.2616 23.4886 6.24493 23.2089 6.12825C21.747 5.50729 20.1407 4.90301 17.8667 4.11953C15.2723 3.22769 13.9187 2.83595 12.0642 2.44838C10.8144 2.19 10.2143 2.10665 9.35704 2.08164C7.8771 2.0358 6.65434 2.24834 5.40001 2.76094C2.54842 3.92783 0.504478 6.57416 0.0668138 9.66642C-0.244515 11.8877 0.540575 14.1923 2.24611 16.076C4.57431 18.6431 8.37793 19.76 11.8657 18.9015C12.529 18.739 13.4855 18.3889 14.2481 18.0347C14.5729 17.8805 14.8436 17.768 14.8436 17.7888C14.8436 17.8096 14.7714 18.0889 14.6857 18.4139C14.1533 20.3559 14.036 21.2478 13.9999 23.5316C13.9818 24.6776 13.9909 25.3861 14.036 26.0112C14.0721 26.4904 14.0992 27.0739 14.0992 27.3031C14.0992 27.6865 14.0856 27.7407 13.9503 28.0074C13.869 28.1658 13.7111 28.42 13.5938 28.57C13.2329 29.0368 12.0958 30.0661 10.3993 31.4622C8.65768 32.8958 7.21383 34.1961 6.80324 34.7003C5.83316 35.8839 5.51281 36.9383 5.7745 38.0551C5.87828 38.4969 6.17156 39.072 6.46935 39.4179C7.14615 40.2014 8.22001 40.6723 9.33899 40.6723C9.90299 40.6681 10.2955 40.589 10.8144 40.3681C11.4551 40.093 11.8296 39.818 12.9937 38.7636C14.618 37.2967 15.3309 36.6549 16.5086 35.613C18.3359 34.0002 20.1407 32.3207 20.5017 31.8998C21.4131 30.8413 21.6703 30.1786 21.7335 28.77L21.7605 28.1116L22.0042 28.3325C22.2524 28.5533 22.3471 28.6867 22.4373 28.9242C22.4689 29.0118 22.496 30.5412 22.514 33.4918C22.5411 37.7718 22.5456 37.9426 22.6359 38.3094C22.8073 38.997 23.0645 39.4721 23.5202 39.9347C24.5399 40.964 26.4711 41.3058 27.9104 40.7015C28.876 40.2972 29.6972 39.4012 29.9543 38.4636C30.1484 37.7676 30.1529 37.6592 30.1709 32.5958C30.1935 27.4031 30.1845 27.1239 29.9814 26.4613C29.837 25.9945 29.4896 25.3402 29.1963 24.986C28.8805 24.5984 27.1118 22.9481 24.6798 20.7602C22.5276 18.8265 22.4148 18.7098 22.5095 18.4764C22.5321 18.4222 22.6314 18.2555 22.7261 18.1097C22.8254 17.9638 23.1051 17.5012 23.3443 17.0803L23.7864 16.3177L23.9353 16.5386C24.012 16.6594 24.3414 17.172 24.6573 17.6763C25.5732 19.1349 25.7853 19.3974 26.4305 19.8684C27.0757 20.3434 27.748 20.6143 28.4834 20.6977C29.3723 20.7935 29.5483 20.7602 33.6361 19.6308C35.4951 19.114 38.843 18.0805 39.1814 17.9138C39.5288 17.7388 40.0387 17.3262 40.2914 17.0095C41.3742 15.6551 41.1983 13.7672 39.8853 12.642C39.5108 12.3211 38.9062 12.0252 38.3783 11.9043C37.9632 11.8085 37.2773 11.7918 36.6953 11.8668L36.3253 11.9168L35.7703 11.7168C35.0168 11.4459 33.6948 10.9125 32.5758 10.4249C31.132 9.79978 29.458 8.97879 29.5392 8.93295C29.5573 8.92461 29.6566 8.89127 29.7558 8.8621C29.8551 8.83293 30.0942 8.73707 30.2882 8.64956C31.908 7.90775 32.9232 6.46998 33.0135 4.79049C33.0857 3.4069 32.6074 2.24834 31.5651 1.29399C30.6853 0.489674 29.5528 0.0437562 28.2894 0.00624903C27.9781 -0.00208588 27.6938 -0.00208588 27.6577 0.00624903ZM28.9662 2.25251C29.7107 2.49005 30.3288 3.061 30.5905 3.74863C30.7304 4.1112 30.762 4.78632 30.6627 5.14889C30.4191 6.02823 29.6611 6.72419 28.7135 6.9284C28.0683 7.07009 27.2923 6.94507 26.7328 6.61167C25.4062 5.81569 25.1175 4.21538 26.0876 3.03599C26.426 2.63175 27.008 2.29418 27.5901 2.16916C27.9781 2.08581 28.5601 2.12332 28.9662 2.25251ZM10.67 4.25289C11.9063 4.4696 13.7472 4.94885 15.6468 5.54897C16.7928 5.90737 20.8807 7.38265 20.9755 7.466C20.9845 7.47433 20.8581 7.62436 20.6957 7.79523C19.9783 8.55787 19.297 9.47471 18.4126 10.8833C17.7719 11.9002 17.0996 12.842 16.5041 13.5505C15.9626 14.2006 14.8211 15.255 14.1894 15.6884C12.6057 16.7844 10.2775 17.3262 8.40951 17.0303C7.34017 16.8595 6.01364 16.3469 5.2105 15.7926C4.69162 15.4383 3.84336 14.6465 3.50947 14.2173C2.97255 13.513 2.50781 12.542 2.34087 11.7585C2.30026 11.5668 2.2777 11.1709 2.2777 10.5916C2.2777 9.59974 2.34989 9.17883 2.64317 8.39951C3.13498 7.09093 4.10506 5.94071 5.40903 5.11555C5.9234 4.79049 6.35204 4.59879 6.98823 4.40292C7.80491 4.1487 8.09819 4.1112 9.13595 4.12787C9.87592 4.14037 10.1511 4.16121 10.67 4.25289ZM24.3098 8.64956C24.7204 8.84543 24.8377 8.99546 25.695 10.4666C25.9612 10.925 26.426 11.6751 26.7238 12.1336C27.2742 12.9837 28.885 15.23 29.1196 15.48C29.3272 15.7009 29.6069 15.8301 29.9318 15.8509C30.3018 15.8801 30.5544 15.8176 33.3203 15.0299C34.5385 14.6799 35.7839 14.3256 36.0952 14.234C36.8938 14.0089 37.2006 13.9464 37.5616 13.9464C38.2519 13.9506 38.658 14.3215 38.7031 14.9924C38.7347 15.5259 38.5407 15.8718 38.094 16.0843C37.9451 16.1552 36.7675 16.5052 33.4782 17.4637C29.4535 18.6306 29.5167 18.614 28.9076 18.614C28.4112 18.614 28.0819 18.4764 27.6622 18.0805C27.2787 17.7305 27.0441 17.4012 25.871 15.5967C25.3386 14.7757 24.8377 14.0548 24.7249 13.9422C24.4407 13.663 24.1609 13.5547 23.7323 13.5547C23.1728 13.5588 22.8209 13.763 22.4509 14.2923C21.8824 15.1008 20.4295 17.6929 20.2355 18.2472C20.1317 18.5514 20.1137 18.6598 20.1317 18.914C20.1768 19.5308 20.0009 19.3433 23.9353 22.9689C27.2156 25.9862 27.4773 26.2404 27.6216 26.5113C27.9149 27.0489 27.8969 26.7405 27.8878 32.2624C27.8833 35.0337 27.8608 37.4259 27.8382 37.5759C27.8157 37.7259 27.7615 37.9343 27.7254 38.0426C27.3735 38.9845 25.6905 39.1637 25.0814 38.326C24.7791 37.9135 24.7971 38.1968 24.7701 33.0959C24.7385 27.9366 24.761 28.2783 24.4226 27.8115C24.3369 27.6948 22.8434 26.2904 21.1018 24.6984C19.3647 23.1065 17.8125 21.6604 17.6546 21.4895C17.3388 21.1519 17.0545 20.656 16.9372 20.2601C16.8244 19.8725 16.8064 19.0849 16.8921 18.6181C17.1042 17.4929 18.6247 14.5924 20.61 11.5293C21.7425 9.77477 22.2569 9.13715 22.8164 8.79542C22.9517 8.71207 23.1502 8.61622 23.254 8.58705C23.5293 8.5037 24.0707 8.53287 24.3098 8.64956ZM29.9137 11.4793C30.6221 11.8252 31.6012 12.2794 32.093 12.492C32.5803 12.7087 32.9819 12.892 32.9819 12.9087C32.9819 12.942 32.3773 13.1254 31.2267 13.4421L30.4913 13.6422L30.0852 13.1379C29.5077 12.4211 28.4744 10.9625 28.339 10.6791C28.33 10.6583 28.3932 10.6874 28.4744 10.7458C28.5601 10.8041 29.2054 11.1334 29.9137 11.4793ZM19.4504 26.803C19.4775 27.2156 19.491 27.9657 19.4775 28.47C19.4549 29.5327 19.4143 29.6911 19.0308 30.2287C18.7465 30.6162 16.9462 32.3332 15.182 33.8919C14.4646 34.5253 13.1742 35.6964 12.3169 36.4923C10.3452 38.3219 10.0113 38.5469 9.27131 38.5469C8.86072 38.5511 8.55841 38.4302 8.28318 38.1593C7.85905 37.7426 7.83649 37.2258 8.2155 36.5132C8.58097 35.8214 9.2307 35.2046 11.9108 32.9917C13.8149 31.4247 14.997 30.3578 15.4482 29.8036C15.8273 29.3327 16.1657 28.6992 16.2694 28.2616C16.3506 27.9116 16.3461 27.1281 16.2424 25.4277C16.2198 25.036 16.2018 24.3525 16.1972 23.9066V23.094L17.799 24.5734L19.4053 26.057L19.4504 26.803Z" fill="#5A9BD5"/>
</svg>
