<svg width="41" height="41" viewBox="0 0 41 41" fill="none" xmlns="http://www.w3.org/2000/svg">
<path d="M0 41V36.9C1.29833 36.9 2.26388 36.5583 2.89665 35.875C3.52942 35.1917 4.85303 34.85 6.8675 34.85C8.88197 34.85 10.1974 35.1917 10.8137 35.875C11.4301 36.5583 12.3868 36.9 13.6838 36.9C14.9807 36.9 15.9374 36.5583 16.5537 35.875C17.1701 35.1917 18.4855 34.85 20.5 34.85C22.4475 34.85 23.7718 35.1917 24.4729 35.875C25.174 36.5583 26.1389 36.9 27.3675 36.9C28.6658 36.9 29.6225 36.5583 30.2375 35.875C30.8525 35.1917 32.1679 34.85 34.1837 34.85C36.1996 34.85 37.515 35.1917 38.13 35.875C38.745 36.5583 39.7017 36.9 41 36.9V41C39.0183 41 37.7029 40.6583 37.0538 39.975C36.4046 39.2917 35.4479 38.95 34.1837 38.95C32.9196 38.95 31.9629 39.2917 31.3137 39.975C30.6646 40.6583 29.3492 41 27.3675 41C25.3858 41 24.0622 40.6583 23.3966 39.975C22.7311 39.2917 21.7655 38.95 20.5 38.95C19.2017 38.95 18.245 39.2917 17.63 39.975C17.015 40.6583 15.6996 41 13.6838 41C11.6679 41 10.3525 40.6583 9.7375 39.975C9.1225 39.2917 8.16583 38.95 6.8675 38.95C5.60333 38.95 4.64667 39.2917 3.9975 39.975C3.34833 40.6583 2.01583 41 0 41ZM13.6838 31.775C11.7363 31.775 10.4208 31.4333 9.7375 30.75C9.05417 30.0667 8.0975 29.725 6.8675 29.725C5.67167 29.725 4.715 30.0667 3.9975 30.75C3.28 31.4333 1.9475 31.775 0 31.775V27.675C1.29833 27.675 2.255 27.3333 2.87 26.65C3.485 25.9667 4.80042 25.625 6.81625 25.625C7.02125 25.625 7.22625 25.6339 7.43125 25.6516C7.63625 25.6694 7.82417 25.6947 7.995 25.7275L6.0475 18.5525L3.22875 22.2425L0 19.68L15.9387 0L39.565 9.02L38.0788 12.8637L33.7737 11.1212L37.925 26.5475C38.4033 26.8208 38.8728 27.0771 39.3333 27.3162C39.7939 27.5554 40.3495 27.675 41 27.675V31.775C39.0525 31.7408 37.7371 31.3903 37.0538 30.7233C36.3704 30.0564 35.4137 29.7236 34.1837 29.725C32.8854 29.725 31.9287 30.0667 31.3137 30.75C30.6987 31.4333 29.3833 31.775 27.3675 31.775C25.42 31.775 24.0964 31.4333 23.3966 30.75C22.6969 30.0667 21.7314 29.725 20.5 29.725C19.2017 29.725 18.245 30.0667 17.63 30.75C17.015 31.4333 15.6996 31.775 13.6838 31.775ZM13.6838 27.675C14.7088 27.675 15.5028 27.4358 16.0658 26.9575C16.6289 26.4792 17.492 26.1033 18.655 25.83L16.7588 18.86L24.7025 16.7588L27.5725 27.6238C28.6317 27.5554 29.4687 27.2397 30.0837 26.6766C30.6987 26.1136 31.8092 25.7801 33.415 25.6762L29.0075 9.225L17.2712 4.92L9.225 14.555L12.7613 27.5725C12.8979 27.6067 13.0428 27.6326 13.1959 27.6504C13.3489 27.6682 13.5116 27.6764 13.6838 27.675Z" fill="#5A9BD5"/>
</svg>
