<svg width="41" height="41" viewBox="0 0 41 41" fill="none" xmlns="http://www.w3.org/2000/svg">
<path d="M38.7113 23.0305C39.9214 23.0305 40.9892 21.9094 40.9892 20.46C41.0604 19.7393 40.7757 19.0986 40.2062 18.5381L22.0323 0.560547C21.6051 0.160156 21.0356 0 20.5373 0C20.039 0 19.4695 0.0800781 18.9712 0.640625L0.711866 18.5381C0.21356 19.0986 0 19.7393 0 20.46C0 21.9014 0.996613 23.0305 2.27797 23.0305H4.55594V35.875C4.55594 38.7018 6.599 41 9.11189 41H16.3943L14.1661 36.8199C13.8743 36.2754 13.9811 35.5787 14.4153 35.1783L20.5017 29.4688L16.2163 22.8383C15.4404 21.6371 16.8 20.1557 17.8394 21.0766L26.2323 28.4918C26.8018 28.9963 26.816 29.9652 26.2607 30.4857L20.5017 35.875L23.2353 41H31.9272C34.4543 41 36.4974 38.6938 36.4831 35.851L36.4333 23.0225H38.7113V23.0305Z" fill="#5A9BD5"/>
</svg>
