<svg width="163" height="166" viewBox="0 0 163 166" fill="none" xmlns="http://www.w3.org/2000/svg">
<path d="M81.5 0C36.5609 0 0 37.2338 0 83V117.387C0 125.886 7.31055 132.8 16.3 132.8H24.45C26.6115 132.8 28.6845 131.926 30.2129 130.369C31.7413 128.812 32.6 126.701 32.6 124.5V81.8131C32.6 79.6118 31.7413 77.5007 30.2129 75.9441C28.6845 74.3876 26.6115 73.5131 24.45 73.5131H17.0498C21.5812 41.3921 48.7207 16.6 81.5 16.6C114.279 16.6 141.419 41.3921 145.95 73.5131H138.55C136.388 73.5131 134.315 74.3876 132.787 75.9441C131.259 77.5007 130.4 79.6118 130.4 81.8131V132.8C130.4 141.955 123.089 149.4 114.1 149.4H97.8V141.1H65.2V166H114.1C132.079 166 146.7 151.11 146.7 132.8C155.689 132.8 163 125.886 163 117.387V83C163 37.2338 126.439 0 81.5 0Z" fill="#5A9BD5"/>
</svg>
