<svg width="144" height="160" viewBox="0 0 144 160" fill="none" xmlns="http://www.w3.org/2000/svg">
<path d="M72 80C62.1 80 53.625 76.0833 46.575 68.25C39.525 60.4167 36 51 36 40C36 29 39.525 19.5833 46.575 11.75C53.625 3.91667 62.1 0 72 0C81.9 0 90.375 3.91667 97.425 11.75C104.475 19.5833 108 29 108 40C108 51 104.475 60.4167 97.425 68.25C90.375 76.0833 81.9 80 72 80ZM0 160V132C0 126.333 1.314 121.127 3.942 116.38C6.57 111.633 10.056 108.007 14.4 105.5C23.7 100.333 33.15 96.46 42.75 93.88C52.35 91.3 62.1 90.0067 72 90C81.9 89.9933 91.65 91.2867 101.25 93.88C110.85 96.4733 120.3 100.347 129.6 105.5C133.95 108 137.439 111.627 140.067 116.38C142.695 121.133 144.006 126.34 144 132V160H0Z" fill="#5A9BD5"/>
</svg>
