<svg width="55" height="53" viewBox="0 0 55 53" fill="none" xmlns="http://www.w3.org/2000/svg">
<path d="M6.11111 53C4.43055 53 2.99241 52.4239 1.79667 51.2716C0.600926 50.1193 0.00203704 48.7325 0 47.1111V10.3792C0 9.69214 0.115092 9.02964 0.345277 8.39168C0.575462 7.75372 0.918703 7.16483 1.375 6.62501L5.19444 2.13474C5.75463 1.4477 6.45435 0.919664 7.29361 0.550627C8.13287 0.18159 9.01185 -0.00194738 9.93055 1.55791e-05H45.0694C45.9861 1.55791e-05 46.8651 0.184534 47.7064 0.553571C48.5477 0.922608 49.2474 1.44966 49.8055 2.13474L53.625 6.62501C54.0833 7.16483 54.4276 7.75372 54.6578 8.39168C54.8879 9.02964 55.002 9.69214 55 10.3792V47.1111C55 48.7306 54.4021 50.1174 53.2064 51.2716C52.0106 52.4258 50.5715 53.002 48.8889 53H6.11111ZM7.33333 8.83335H47.6666L45.0694 5.8889H9.93055L7.33333 8.83335ZM39.7222 14.7222H15.2778V38.2778L27.5 32.3889L39.7222 38.2778V14.7222Z" fill="#5A9BD5"/>
</svg>
