<svg width="90" height="72" viewBox="0 0 90 72" fill="none" xmlns="http://www.w3.org/2000/svg">
<path d="M29.7284 0.358339C28.478 0.833881 26.9985 2.22528 26.3821 3.47578C25.9241 4.42686 25.8889 4.63822 25.8361 7.15683L25.7656 9.85156H28.5132H31.2607V7.91417C31.2607 6.20574 31.296 5.94155 31.613 5.62452C31.9652 5.27227 32.1942 5.27227 45.1394 5.27227C60.6913 5.27227 58.9652 4.93763 59.0533 7.93178L59.1237 9.85156H61.6776H64.2314L64.1609 7.15683C64.1081 4.63822 64.0729 4.42686 63.6149 3.47578C62.9809 2.19006 61.5191 0.833881 60.2333 0.358339C59.2646 -0.0115261 59.0005 -0.0115261 44.9457 0.00608635C31.0494 0.00608635 30.6267 0.0236988 29.7284 0.358339Z" fill="#5A9BD5"/>
<path d="M12.6293 8.30165C12.506 8.42494 12.418 8.81242 12.418 9.18228V9.85156H16.5569H20.6959V9.18228C20.6959 8.81242 20.6078 8.42494 20.4845 8.30165C20.1851 8.00223 12.9287 8.00223 12.6293 8.30165Z" fill="#5A9BD5"/>
<path d="M69.4808 8.42494C69.3928 8.61868 69.3047 9.00615 69.3047 9.30557V9.85156H73.4436H77.5826V9.18228C77.5826 8.81242 77.4945 8.42494 77.3712 8.30165C77.2127 8.14313 76.0855 8.0903 73.4084 8.0903C69.8859 8.0903 69.6569 8.10791 69.4808 8.42494Z" fill="#5A9BD5"/>
<path d="M4.26223 11.4537C2.64188 11.8412 1.19765 13.0036 0.440313 14.5183L0 15.3989V41.5537V67.7085L0.422701 68.642C0.968689 69.8396 2.41292 71.1782 3.64579 71.6185C4.54403 71.9179 6.25245 71.9355 45 71.9355C83.7476 71.9355 85.456 71.9179 86.3542 71.6185C87.5871 71.1782 89.0313 69.8396 89.5773 68.642L90 67.7085V41.5537V15.3989L89.4012 14.2893C88.7495 13.0917 87.9393 12.3519 86.6184 11.7355L85.773 11.348L45.3522 11.3128C22.1566 11.3128 4.64971 11.3656 4.26223 11.4537ZM48.8395 25.0683C54.2994 26.4244 58.8434 30.3873 60.8337 35.5654C61.6614 37.6965 61.9609 39.6868 61.8552 42.3463C61.7495 44.8473 61.4677 46.1682 60.5871 48.2641C58.7554 52.6321 54.775 56.2955 50.2838 57.7221C48.3288 58.3386 47.0959 58.5323 44.9119 58.5147C37.1977 58.4971 30.5753 53.3366 28.5499 45.7807C28.0744 44.0371 27.9687 40.2151 28.3562 38.3658C29.0431 34.9666 30.5225 32.219 33.0059 29.7356C35.6301 27.1113 38.5186 25.5614 41.9883 24.9097C43.6262 24.5927 47.2368 24.6808 48.8395 25.0683Z" fill="#5A9BD5"/>
<path d="M42.13 26.3362C38.308 27.023 34.3805 29.5769 32.1437 32.8352C31.4039 33.892 30.3472 36.2345 29.9245 37.6787C29.6603 38.5946 29.5898 39.3871 29.5898 41.7296C29.6075 44.4244 29.6427 44.7414 30.1006 46.1328C31.5624 50.5536 34.2219 53.6534 38.22 55.5732C40.6681 56.7708 42.1652 57.1055 45.0008 57.1055C47.8188 57.1055 49.3335 56.7708 51.7816 55.5908C57.1887 52.9841 60.4998 47.6651 60.4998 41.6239C60.4998 37.5378 59.1437 34.0505 56.3961 31.0563C52.8208 27.1816 47.3961 25.3851 42.13 26.3362ZM47.9597 32.9585C48.1006 33.0994 48.1711 33.98 48.1711 35.7765V38.3832H50.7777C52.5742 38.3832 53.4548 38.4537 53.5957 38.5946C53.7366 38.7355 53.8071 39.6689 53.8071 41.6768C53.8071 44.3187 53.7895 44.5476 53.4724 44.7238C53.2787 44.8118 52.0106 44.8999 50.6544 44.8999H48.1711V47.5418C48.1711 49.9547 48.1358 50.1837 47.8364 50.3598C47.6427 50.4479 46.3746 50.5359 45.0008 50.5359C43.627 50.5359 42.3589 50.4479 42.1652 50.3598C41.8658 50.1837 41.8305 49.9547 41.8305 47.5418V44.8999H39.3472C37.991 44.8999 36.7229 44.8118 36.5292 44.7238C36.2122 44.5476 36.1945 44.3187 36.1945 41.6768C36.1945 39.6689 36.265 38.7355 36.4059 38.5946C36.5468 38.4537 37.4274 38.3832 39.2239 38.3832H41.8305V35.7765C41.8305 33.98 41.901 33.0994 42.0419 32.9585C42.1828 32.8176 43.0986 32.7472 45.0008 32.7472C46.903 32.7472 47.8188 32.8176 47.9597 32.9585Z" fill="#5A9BD5"/>
<path d="M43.2376 36.6396C43.2376 37.9958 43.1495 39.2639 43.0614 39.4576C42.8853 39.757 42.6564 39.7922 40.2434 39.7922H37.6016V41.6416V43.4909H40.2082C42.0047 43.4909 42.8853 43.5614 43.0262 43.7023C43.1671 43.8432 43.2376 44.7238 43.2376 46.5203V49.127H44.9988H46.7601V46.5203C46.7601 44.7238 46.8305 43.8432 46.9714 43.7023C47.1123 43.5614 47.993 43.4909 49.7894 43.4909H52.3961V41.6416V39.7922H49.7542C47.3413 39.7922 47.1123 39.757 46.9362 39.4576C46.8481 39.2639 46.7601 37.9958 46.7601 36.6396V34.1562H44.9988H43.2376V36.6396Z" fill="#5A9BD5"/>
</svg>
