<svg width="183" height="162" viewBox="0 0 183 162" fill="none" xmlns="http://www.w3.org/2000/svg">
<path fill-rule="evenodd" clip-rule="evenodd" d="M91.3301 17.3626C85.8658 17.2753 80.4356 18.1427 75.3504 19.9151C70.2652 21.6876 65.6248 24.3304 61.6947 27.6922C57.7646 31.054 54.622 35.0688 52.4468 39.507C50.2715 43.9451 49.1063 48.7194 49.0179 53.5567V104.145C49.0179 107.214 47.6407 110.157 45.1893 112.327C42.738 114.497 39.4132 115.716 35.9464 115.716H19.6071C14.407 115.716 9.41985 113.887 5.7428 110.632C2.06575 107.377 0 102.963 0 98.3596L0 75.2176C0 70.6143 2.06575 66.1997 5.7428 62.9447C9.41985 59.6897 14.407 57.8611 19.6071 57.8611H29.4107V53.3484C29.53 46.2368 31.2307 39.2156 34.4157 32.6859C37.6007 26.1562 42.2076 20.2459 47.9733 15.2924C53.739 10.339 60.5505 6.43949 68.0189 3.81664C75.4873 1.1938 83.4662 -0.101018 91.5 0.00614783C99.5338 -0.101018 107.513 1.1938 114.981 3.81664C122.449 6.43949 129.261 10.339 135.027 15.2924C140.792 20.2459 145.399 26.1562 148.584 32.6859C151.769 39.2156 153.47 46.2368 153.589 53.3484V57.8611H163.393C168.593 57.8611 173.58 59.6897 177.257 62.9447C180.934 66.1997 183 70.6143 183 75.2176V98.3596C183 102.963 180.934 107.377 177.257 110.632C173.58 113.887 168.593 115.716 163.393 115.716H153.589V121.502C153.591 129.321 150.34 136.867 144.458 142.7C138.575 148.532 130.472 152.244 121.695 153.125C119.991 155.819 117.505 158.061 114.495 159.622C111.485 161.182 108.059 162.003 104.571 162H84.9643C79.7641 162 74.777 160.171 71.0999 156.916C67.4229 153.661 65.3571 149.247 65.3571 144.644C65.3571 140.04 67.4229 135.626 71.0999 132.371C74.777 129.116 79.7641 127.287 84.9643 127.287H104.571C111.656 127.287 117.865 130.608 121.303 135.595C124.906 134.862 128.121 133.069 130.424 130.509C132.727 127.949 133.981 124.774 133.982 121.502V53.5451C133.892 48.683 132.715 43.8848 130.518 39.428C128.32 34.9711 125.147 30.944 121.181 27.5794C117.215 24.2149 112.534 21.5796 107.411 19.826C102.287 18.0723 96.8215 17.2351 91.3301 17.3626Z" fill="#5A9BD5"/>
</svg>
