<svg width="47" height="47" viewBox="0 0 47 47" fill="none" xmlns="http://www.w3.org/2000/svg">
<path d="M8.11046 19.2247C5.35104 21.5067 3.61532 24.3477 3.13564 27.3675C2.65597 30.3872 3.45523 33.4415 5.42643 36.1215C7.39763 38.8016 10.4467 40.9794 14.1655 42.3636C17.8843 43.7478 22.0954 44.2722 26.2349 43.8666C30.3745 43.4611 34.2451 42.1449 37.3286 40.0943C40.4121 38.0438 42.5613 35.3566 43.4885 32.3926C44.4157 29.4286 44.0767 26.3292 42.5169 23.5093C40.9571 20.6894 38.2508 18.2835 34.7604 16.6138C34.0771 21.2139 30.3188 24.1356 23.4855 25.3788C28.6104 17.9192 26.9021 10.4596 18.3605 3C18.3605 9.21634 14.9438 14.6246 8.11046 19.2247Z" stroke="#5A9BD5" stroke-width="6" stroke-linecap="round" stroke-linejoin="round"/>
</svg>
