<svg width="54" height="48" viewBox="0 0 54 48" fill="none" xmlns="http://www.w3.org/2000/svg">
<path d="M45.2639 18.9505C42.5776 21.0617 31.8465 22.433 21.0043 21.9367M43.5786 29.0998C40.984 30.4835 38.101 31.3198 35.1292 31.5506M3.42578 7.80648C3.42578 11.5001 23.2491 13.8094 39.1077 11.9637C46.466 11.1061 51.0016 9.52161 51.0016 7.80648C51.0016 4.11286 31.1784 1.80353 15.3197 3.64926C7.95913 4.50682 3.42578 6.09135 3.42578 7.80648Z" stroke="#5A9BD5" stroke-width="6" stroke-linecap="round" stroke-linejoin="round"/>
<path d="M3.36203 8C3.36203 8 -0.626731 16.7051 17.8756 27.1852C32.3892 35.4074 28.0351 45 28.0351 45C28.0351 45 39.6459 40.8889 38.1946 31.2963C35.3432 12.4486 44 17.5926 44 8" stroke="#5A9BD5" stroke-width="6" stroke-linecap="round" stroke-linejoin="round"/>
</svg>
