<svg width="41" height="34" viewBox="0 0 41 34" fill="none" xmlns="http://www.w3.org/2000/svg">
<path d="M5.05177 10.8155C5.05158 9.02304 5.42664 7.25864 6.14322 5.68099C6.85979 4.10333 7.8954 2.76191 9.1569 1.77737C10.4184 0.792827 11.8662 0.196043 13.3702 0.0406941C14.8741 -0.114655 16.387 0.176303 17.7727 0.887398C19.1584 1.59849 20.3736 2.70742 21.3088 4.11445C22.2441 5.52148 22.8701 7.18247 23.1306 8.94803C23.3911 10.7136 23.2779 12.5284 22.8012 14.2291C22.3245 15.9298 21.4992 17.4632 20.3996 18.6913C22.4728 19.8864 24.2729 21.6573 25.6472 23.8538C27.0215 26.0504 27.9297 28.608 28.2947 31.3099C28.3349 31.6105 28.3248 31.9176 28.265 32.2137C28.2052 32.5097 28.0968 32.7888 27.9462 33.0351C27.7955 33.2814 27.6055 33.4901 27.3869 33.6492C27.1683 33.8083 26.9255 33.9147 26.6723 33.9624C26.419 34.0101 26.1604 33.9981 25.9111 33.9271C25.6618 33.8561 25.4267 33.7274 25.2192 33.5486C25.0118 33.3697 24.836 33.144 24.702 32.8845C24.568 32.6249 24.4784 32.3366 24.4383 32.036C24.048 29.1325 22.7987 26.4894 20.9148 24.5813C19.0309 22.6731 16.6357 21.6249 14.1595 21.6249C11.6833 21.6249 9.28816 22.6731 7.40425 24.5813C5.52035 26.4894 4.27108 29.1325 3.88077 32.036C3.84045 32.3366 3.75065 32.6249 3.61649 32.8844C3.48233 33.1438 3.30645 33.3694 3.09888 33.5481C2.89131 33.7268 2.65613 33.8553 2.40675 33.9261C2.15738 33.9969 1.89869 34.0088 1.64547 33.9609C1.39225 33.913 1.14946 33.8064 0.930943 33.6471C0.712429 33.4878 0.522479 33.2789 0.371939 33.0325C0.221399 32.786 0.113216 32.5068 0.0535671 32.2107C-0.00608162 31.9146 -0.016028 31.6074 0.0242958 31.3068C0.388013 28.6051 1.29572 26.0477 2.67026 23.8519C4.04481 21.6561 5.84554 19.8868 7.91941 18.6944C7.01384 17.683 6.29225 16.4622 5.79907 15.1072C5.30589 13.7522 5.05157 12.2916 5.05177 10.8155ZM28.4717 6.18085C29.9836 6.18211 31.4627 6.70445 32.7294 7.68448C33.9962 8.66451 34.9961 10.0601 35.6078 11.7018C36.2195 13.3435 36.4167 15.1607 36.1754 16.9329C35.9341 18.7051 35.2648 20.356 34.2486 21.6853C35.8334 22.6175 37.2415 23.9235 38.3869 25.5236C39.5323 27.1237 40.3909 28.9842 40.9103 30.9916C41.0134 31.3811 41.0279 31.7961 40.9523 32.1945C40.8767 32.5928 40.7137 32.9603 40.4798 33.2597C40.246 33.559 39.9495 33.7796 39.6207 33.8989C39.2918 34.0183 38.9422 34.0322 38.6073 33.9392C38.2725 33.8473 37.9641 33.652 37.7132 33.3732C37.4624 33.0943 37.278 32.7417 37.1787 32.3511C36.7116 30.5601 35.8615 28.9435 34.7113 27.659C33.5611 26.3745 32.15 25.466 30.6159 25.0222C30.1898 24.9001 29.8107 24.6111 29.5397 24.2019C29.2687 23.7928 29.1217 23.2872 29.1222 22.7667V21.6791C29.122 21.2477 29.2232 20.8247 29.4145 20.4579C29.6057 20.0911 29.8794 19.7949 30.2048 19.6028C30.9937 19.1385 31.6272 18.3713 32.0025 17.4256C32.3777 16.4799 32.4727 15.4113 32.272 14.3934C32.0712 13.3755 31.5865 12.4681 30.8966 11.8186C30.2067 11.169 29.3521 10.8155 28.4717 10.8155C27.9541 10.8155 27.4577 10.5713 27.0917 10.1368C26.7256 9.70218 26.52 9.11276 26.52 8.49817C26.52 7.88358 26.7256 7.29416 27.0917 6.85958C27.4577 6.425 27.9541 6.18085 28.4717 6.18085ZM14.1595 4.63597C13.4664 4.61736 12.7772 4.76335 12.1323 5.06536C11.4874 5.36737 10.8998 5.81932 10.4041 6.39467C9.9083 6.97003 9.51433 7.65719 9.2453 8.41581C8.97627 9.17444 8.8376 9.98923 8.83743 10.8124C8.83725 11.6355 8.97558 12.4504 9.24429 13.2092C9.51301 13.9679 9.90668 14.6553 10.4022 15.231C10.8977 15.8066 11.4851 16.2589 12.1299 16.5613C12.7747 16.8637 13.4638 17.0101 14.1569 16.9919C15.5167 16.9562 16.8107 16.2899 17.7619 15.1355C18.7131 13.9811 19.2459 12.4304 19.2463 10.8155C19.2466 9.20047 18.7145 7.6495 17.7638 6.49456C16.813 5.33962 15.5193 4.67248 14.1595 4.63597Z" fill="#5A9BD5"/>
</svg>
