<svg width="397" height="110" viewBox="0 0 397 110" fill="none" xmlns="http://www.w3.org/2000/svg">
<path d="M54.807 0H396L332.703 110H54.807L0 55.5L54.807 0Z" fill="#1E4193"/>
<path d="M237 0H396.5L333.5 110H174L237 0Z" fill="#5A9BD5"/>
<rect x="12" y="55.1121" width="60.9697" height="60.9697" transform="rotate(-45 12 55.1121)" fill="white"/>
<path d="M54.0572 39.0892C52.4939 39.3872 51.2226 40.3483 50.5231 41.7656C50.146 42.5381 50 43.1342 50 43.9554C50 44.5576 50.1156 45.2996 51.1922 51.4371C51.8491 55.1841 52.4331 58.3836 52.4818 58.5539C52.7007 59.2473 53.1934 59.7948 53.8929 60.1232C54.2762 60.3057 54.337 60.3179 55 60.3179C55.663 60.3179 55.7238 60.3057 56.1071 60.1232C56.8005 59.7948 57.2932 59.2473 57.5122 58.5539C57.5669 58.3836 58.1509 55.1841 58.8078 51.4371C59.8844 45.2996 60 44.5576 60 43.9554C60 43.1342 59.854 42.5381 59.4769 41.7656C58.4854 39.7583 56.2835 38.6695 54.0572 39.0892Z" fill="#1E4193"/>
<path d="M54.045 62.599C52.354 63.0431 51.1679 64.5577 51.1679 66.2851C51.1679 67.2705 51.5329 68.2316 52.1594 68.9068C52.646 69.4238 53.0961 69.7158 53.7652 69.9348C54.4891 70.172 55.4562 70.1842 56.1557 69.9713C57.8467 69.4482 58.9051 67.9092 58.8139 66.0966C58.6983 63.7 56.3686 61.9908 54.045 62.599Z" fill="#1E4193"/>
<path d="M266.713 26.1019C266.158 26.2748 265.676 26.5836 265.28 27.0036C265.07 27.226 261.883 32.6862 258.19 39.1469C254.508 45.5954 251.383 51.0679 251.247 51.2779L251 51.6855H268.295H285.577L291.679 38.9493C295.04 31.945 297.807 26.1636 297.819 26.1019C297.868 25.966 267.17 25.966 266.713 26.1019ZM273.261 30.8579C274.731 31.6238 274.867 32.7356 273.656 33.9462C271.408 36.2069 266.318 36.3057 265.799 34.0944C265.676 33.6003 266.219 32.5379 266.825 32.0438C267.479 31.5373 268.665 30.9691 269.518 30.7467C270.531 30.4996 272.68 30.5614 273.261 30.8579ZM287.047 30.9073C287.331 31.0432 287.702 31.3397 287.887 31.5497C289.011 32.8962 287.022 34.9715 284.02 35.5768C281.55 36.071 279.561 35.2927 279.561 33.8474C279.561 32.8838 280.376 31.9697 281.859 31.2779C283.094 30.6973 283.773 30.5614 285.243 30.5985C286.293 30.6232 286.639 30.6849 287.047 30.9073ZM267.195 41.9264C268.653 42.1735 269.431 42.7788 269.431 43.693C269.431 46.0771 264.428 47.9672 261.747 46.6083C260.895 46.176 260.549 45.2001 260.957 44.4218C261.253 43.8659 262.155 43.0753 262.946 42.6923C263.959 42.1859 264.564 42.0376 266.281 41.8153C266.355 41.8153 266.763 41.8647 267.195 41.9264ZM280.907 41.9264C282.834 42.2476 283.588 43.2729 282.896 44.6318C282.118 46.1636 278.968 47.3866 276.769 47.0036C274.916 46.6701 274.138 45.7436 274.669 44.4836C275.015 43.6559 276.596 42.5441 277.955 42.1735C278.412 42.0376 279.005 41.9388 279.993 41.8153C280.067 41.8153 280.475 41.8647 280.907 41.9264Z" fill="white"/>
<path d="M299.45 28.5849C298.745 29.9561 287.714 53.0815 287.714 53.1679C287.714 53.3656 299.524 78.2699 299.623 78.2822C299.672 78.2946 302.254 72.8591 305.355 66.2007L311 54.0944V53.1679V52.2414L305.639 40.7529C302.686 34.428 300.154 28.9925 300.006 28.6466L299.734 28.029L299.45 28.5849ZM300.475 46.7936C301.513 47.226 302.587 48.8937 303.057 50.7714C303.427 52.3032 303.427 54.7739 303.044 56.1945C302.353 58.7763 301.031 60.3329 299.511 60.3329C298.004 60.3329 296.682 58.7887 295.978 56.1945C295.595 54.8109 295.595 52.0561 295.966 50.6849C296.46 48.8566 297.448 47.3372 298.486 46.8307C298.98 46.5836 299.944 46.5589 300.475 46.7936Z" fill="white"/>
<path d="M251.161 54.9221C251.247 55.0827 254.311 60.5923 257.967 67.1889C262.995 76.2439 264.724 79.2705 265.07 79.5793C265.985 80.3823 265.182 80.3452 282.229 80.3205L297.683 80.2834L291.63 67.4607L285.577 54.6503H268.295H251.012L251.161 54.9221ZM263.971 58.2946C264.984 58.5293 266.108 59.1099 266.8 59.7522C267.479 60.3823 267.702 60.7899 267.702 61.457C267.702 61.9017 267.628 62.05 267.232 62.4206C266.145 63.4582 263.674 63.5447 261.562 62.6182C258.696 61.3458 258.177 59.0358 260.598 58.2822C261.278 58.0722 263.032 58.0722 263.971 58.2946ZM273.915 64.5947C276.349 65.0271 278.4 66.6948 278.153 68.0413C278.054 68.5601 277.424 69.1655 276.72 69.4125C276.003 69.6843 274.187 69.6719 273.199 69.4125C270.827 68.7949 269.11 67.1395 269.567 65.9289C269.765 65.3853 270.283 64.9283 270.901 64.7306C271.988 64.3724 272.581 64.3477 273.915 64.5947ZM285.182 70.2773C287.282 70.8208 288.937 72.2044 288.949 73.4274C288.949 73.9832 288.492 74.5391 287.739 74.885C287.121 75.1815 286.874 75.2186 285.799 75.2186C284.774 75.2186 284.379 75.1568 283.514 74.8727C280.821 73.9832 279.462 72.0191 280.722 70.8455C281.476 70.1414 283.6 69.8696 285.182 70.2773Z" fill="white"/>
</svg>
