<svg width="170" height="170" viewBox="0 0 170 170" fill="none" xmlns="http://www.w3.org/2000/svg">
<path d="M29.208 0.494614C28.5036 1.15432 28.5036 37.3217 29.208 37.9814C29.5394 38.2918 31.4039 38.447 34.9257 38.447C41.7207 38.447 41.4721 38.253 41.6378 44.5784L41.7621 49.3516L47.6456 44.5008C50.9188 41.8232 53.9848 39.3784 54.482 39.0679C55.3106 38.5246 58.2524 38.447 78.4301 38.447C95.7905 38.447 101.591 38.3306 101.964 37.9814C102.668 37.3217 102.668 1.15432 101.964 0.494614C101.26 -0.165092 29.9123 -0.165092 29.208 0.494614ZM89.7827 10.7394C90.57 11.438 90.6528 12.8738 89.9485 13.5335C89.2441 14.1932 41.9278 14.1932 41.2235 13.5335C40.4777 12.835 40.602 11.0111 41.4721 10.5454C41.9278 10.2738 50.463 10.1573 65.6688 10.1185C86.4681 10.1185 89.2027 10.1962 89.7827 10.7394ZM89.9485 24.9425C90.6528 25.6022 90.57 27.038 89.7827 27.7365C89.2027 28.2798 86.4681 28.3574 65.7517 28.3574C50.3801 28.3574 42.0521 28.2022 41.5135 27.9694C40.602 27.5037 40.4363 25.6798 41.2235 24.9425C41.9278 24.2828 89.2441 24.2828 89.9485 24.9425Z" fill="white"/>
<path d="M106.603 27.3492C106.603 38.5254 106.603 38.7582 105.65 40.0388C103.744 42.7164 103.786 42.7164 84.768 42.7164H67.6562V48.0329C67.6562 50.9821 67.822 53.621 67.9877 53.8538C68.2363 54.2419 73.954 54.3583 92.5574 54.4359L116.796 54.5523L122.596 59.6747L128.355 64.8359L128.48 60.218C128.562 56.5314 128.728 55.4837 129.267 55.0568C129.723 54.7075 131.711 54.4747 135.565 54.3583L141.2 54.1642L141.324 35.5761C141.365 22.188 141.282 16.8327 140.951 16.4835C140.578 16.0566 137.346 15.9402 123.549 15.9402H106.603V27.3492Z" fill="white"/>
<path d="M42.058 65.2628C37.3761 66.0389 32.5699 68.5613 29.0481 72.1703C20.5958 80.7077 21.0102 93.9017 29.9596 102.129C34.4758 106.32 39.6964 108.299 46.1185 108.299C52.7891 108.299 57.8025 106.359 62.5258 101.935C69.818 95.1047 71.4339 85.0539 66.6277 76.5166C62.0287 68.3673 51.7119 63.6329 42.058 65.2628Z" fill="white"/>
<path d="M120.2 85.7907C111.292 87.1101 103.503 93.8623 101.431 102.167C99.5667 109.656 101.804 117.068 107.605 122.501C112.287 126.925 117.341 128.904 123.805 128.904C130.641 128.904 135.613 126.964 140.378 122.462C146.261 116.913 148.457 109.462 146.386 101.934C145.267 97.8594 143.527 95.0653 140.005 91.8056C134.743 86.916 127.492 84.7429 120.2 85.7907Z" fill="white"/>
<path d="M28.9201 112.839C17.9818 114.275 8.12083 121.183 3.27319 130.845C1.07725 135.192 0.455761 137.753 0.248597 143.884L0 149.434H18.2304H36.4195L37.9939 136.472L39.5269 123.55L37.9939 118.039L36.4609 112.568L33.312 112.607C31.5718 112.645 29.6245 112.762 28.9201 112.839Z" fill="white"/>
<path d="M41.3525 113.654C41.4768 114.274 42.0155 116.215 42.5126 118.039L43.4242 121.298L46.1587 121.415L48.8933 121.531L50.1363 117.03L51.3378 112.567H46.2002H41.0625L41.3525 113.654Z" fill="white"/>
<path d="M54.3221 118.039L52.7891 123.628L54.2392 135.657C55.0264 142.254 55.7722 148.075 55.8551 148.541L56.0623 149.434H67.0005H77.9388L79.2646 147.377C81.502 143.962 84.9409 140.237 87.9655 137.947C89.5814 136.744 90.8658 135.463 90.8658 135.114C90.8658 134.105 88.2556 128.828 86.7225 126.732C84.9409 124.248 80.8391 120.213 78.436 118.583C73.4226 115.129 66.9591 113.033 60.2055 112.684L55.8551 112.451L54.3221 118.039Z" fill="white"/>
<path d="M43.6292 125.801C43.6292 126.422 41.1847 146.756 40.8947 148.153L40.6875 149.434H46.1152C49.0569 149.434 51.5015 149.317 51.5015 149.123C51.5015 148.696 49.0569 128.905 48.8083 127.004L48.5597 125.374H46.0738C44.6236 125.374 43.6292 125.529 43.6292 125.801Z" fill="white"/>
<path d="M107.309 133.755C98.8149 135.191 90.404 140.042 85.2249 146.445C80.6259 152.188 78.0156 159.328 78.0156 166.158V170H124.006H169.996V166.74C169.996 150.558 157.359 136.51 140.372 133.716C135.442 132.94 112.073 132.94 107.309 133.755Z" fill="white"/>
</svg>
