<svg width="170" height="169" viewBox="0 0 170 169" fill="none" xmlns="http://www.w3.org/2000/svg">
<path d="M79.6896 0.0802536C65.0041 2.87749 54.015 13.9332 51.7506 28.1858C51.2511 31.316 51.3177 36.3443 51.8838 39.408C53.2158 46.3677 56.013 51.7624 61.0081 56.924C65.3038 61.3862 70.532 64.4165 76.6926 66.0816C79.4565 66.8142 80.5221 66.9141 85.0177 66.9141C89.4799 66.9141 90.6121 66.8142 93.3428 66.0816C104.665 63.0512 113.656 54.5929 117.086 43.6704C119.484 36.0113 119.051 27.2533 115.92 20.0938C111.824 10.7364 104.132 4.0097 94.1753 1.01266C91.5445 0.246758 90.5122 0.113556 85.8502 0.0136566C82.9197 -0.0196457 80.1558 0.0136566 79.6896 0.0802536ZM99.2369 24.1564C100.469 24.9223 100.935 26.4208 100.269 27.6529C100.036 28.1192 95.807 31.8155 90.8785 35.8448C82.7199 42.5049 81.7875 43.1709 80.6553 43.1709C79.2234 43.1709 78.8904 42.8379 74.3948 36.5774C71.3978 32.3483 71.1314 31.3826 72.53 29.984C73.196 29.318 73.6289 29.1515 74.7944 29.2514C76.1265 29.3513 76.293 29.4845 78.1911 32.0486C79.29 33.5138 80.4222 35.0789 80.7219 35.5118L81.2547 36.311L88.5475 30.317C92.5769 26.9869 96.1733 24.1231 96.5063 23.9233C97.4387 23.3905 98.0381 23.4238 99.2369 24.1564Z" fill="#5A9BD5"/>
<path d="M21.6458 67.8807C16.6507 76.4056 0.0671003 105.277 0.000499493 105.51C-0.0994017 106.01 14.8192 114.501 15.1522 114.168C15.3187 114.002 20.7133 104.811 27.107 93.7551C38.5291 73.9414 38.6956 73.6417 37.9962 73.1422C37.197 72.5761 24.443 65.1834 23.8436 64.917C23.6438 64.8504 22.6781 66.0825 21.6458 67.8807Z" fill="#5A9BD5"/>
<path d="M138.798 69.1449C134.768 71.5092 131.505 73.6071 131.571 73.8069C131.705 74.3397 154.282 113.501 154.782 114.034C155.115 114.4 156.58 113.667 162.474 110.271C166.47 107.94 169.867 105.942 170 105.809C170.233 105.575 146.923 65.0822 146.423 64.949C146.257 64.8824 142.827 66.7806 138.798 69.1449Z" fill="#5A9BD5"/>
<path d="M68.6673 78.7029L63.5391 81.2671L55.3805 81.5002C50.8849 81.6334 45.7234 81.7666 43.8918 81.7666L40.5618 81.7999L31.4375 97.6508C23.8117 110.904 22.4131 113.568 22.7794 113.935C23.3788 114.468 33.6353 120.428 33.9683 120.428C34.1348 120.428 36.7655 117.897 39.8625 114.801C46.456 108.174 47.8546 107.308 51.8839 107.308C55.0808 107.275 57.2786 108.107 59.543 110.138C61.6742 112.103 63.0063 114.634 63.2727 117.231C63.4392 118.996 63.5058 119.096 64.3716 119.096C64.8711 119.096 66.2697 119.396 67.4685 119.762C71.5312 121.028 74.8279 124.99 75.2608 129.186L75.4606 130.984L77.2255 131.184C79.4567 131.417 81.5879 132.35 83.2529 133.848C84.5516 135.014 84.5849 135.047 85.8836 134.581C86.5829 134.348 87.8817 134.048 88.7142 133.915L90.246 133.682L90.6456 131.517C91.1118 128.986 91.6446 127.821 93.243 125.823C94.7748 123.958 97.2724 122.56 100.036 122.06L102.301 121.66L102.501 119.962C102.933 116.599 104.765 113.668 107.496 111.837L108.994 110.838L100.702 104.644C96.1401 101.214 91.911 98.2836 91.3116 98.1171C89.4801 97.5842 85.7504 97.7174 84.6848 98.3169C84.1187 98.6499 82.7867 100.481 81.3215 102.879C77.5252 109.173 76.4263 110.105 72.9631 110.105C70.3656 110.105 64.5048 109.206 63.4392 108.64C61.4744 107.608 60.0425 105.277 60.0425 103.079C60.0425 101.614 63.7389 87.9937 64.5714 86.362C65.6037 84.3973 67.6683 82.8988 72.9298 80.3014L78.1912 77.7039L76.5262 76.938C75.6271 76.5051 74.6281 76.1388 74.3284 76.1388C74.0287 76.1388 71.4646 77.3043 68.6673 78.7029Z" fill="#5A9BD5"/>
<path d="M81.4875 82.4653C74.7609 85.7621 70.565 88.0265 70.1654 88.5593C69.4328 89.4584 65.47 103.012 65.8364 103.345C66.0362 103.544 71.6306 104.41 72.9293 104.444C73.4954 104.444 74.1615 103.611 76.0929 100.414C77.4249 98.1831 79.0233 95.8188 79.6227 95.1195C80.7549 93.7542 83.3857 92.3555 85.3837 91.9892C87.1486 91.6895 92.9762 92.3888 94.4081 93.0882C95.1074 93.4212 101.068 97.7169 107.695 102.645C117.419 109.872 120.649 112.469 124.312 115.999C126.809 118.43 128.941 120.428 129.041 120.428C129.307 120.428 145.324 111.204 145.691 110.837C145.891 110.637 142.893 105.11 138.132 96.9177C133.836 89.4584 130.239 83.2645 130.139 83.1979C130.073 83.1313 128.708 83.5643 127.076 84.1637C124.478 85.1627 123.779 85.2959 121.148 85.2626C118.251 85.2293 117.785 85.0961 106.163 81.1666C99.5697 78.9688 93.7421 77.1373 93.176 77.1706C92.6099 77.1706 87.6481 79.435 81.4875 82.4653Z" fill="#5A9BD5"/>
<path d="M48.851 114.067C48.1517 114.6 45.2212 117.397 42.3241 120.294C38.1948 124.49 37.0293 125.888 36.7296 126.987C35.2311 132.016 40.6924 136.012 45.088 133.081C45.9205 132.548 48.9176 129.718 51.7814 126.821C57.3093 121.193 58.0419 120.061 57.5757 117.697C57.0429 114.799 54.9782 113.101 52.0145 113.101C50.4827 113.101 49.9166 113.268 48.851 114.067Z" fill="#5A9BD5"/>
<path d="M110.958 116.531C108.527 118.162 107.561 121.359 108.793 123.69C109.06 124.19 111.957 127.22 115.22 130.484C120.049 135.246 121.414 136.411 122.48 136.711C126.975 137.876 130.738 133.347 128.84 128.985C128.274 127.653 117.152 116.597 115.886 116.131C114.288 115.532 112.19 115.698 110.958 116.531Z" fill="#5A9BD5"/>
<path d="M62.2358 125.257C60.6707 125.823 49.7149 136.579 48.8491 138.377C47.6503 140.875 49.0489 144.538 51.5797 145.603C53.0116 146.203 55.1761 146.203 56.3084 145.603C56.8079 145.337 59.8382 142.44 63.1016 139.176C67.8636 134.348 69.0291 132.982 69.3954 131.817C70.5942 127.688 66.3318 123.758 62.2358 125.257Z" fill="#5A9BD5"/>
<path d="M98.9734 128.52C96.5425 130.152 95.5768 133.349 96.8089 135.68C97.6081 137.212 109.063 148.334 110.096 148.567C111.594 148.967 114.158 148.567 115.224 147.801C115.79 147.402 116.489 146.569 116.789 145.936C117.389 144.638 117.488 142.04 116.956 140.975C116.423 139.942 105.334 128.787 104.268 128.221C102.87 127.488 100.305 127.621 98.9734 128.52Z" fill="#5A9BD5"/>
<path d="M74.2292 137.244C72.6308 137.81 61.575 148.633 60.8424 150.298C59.3772 153.661 61.575 157.557 65.1715 157.957C67.8022 158.257 68.5015 157.79 74.9285 151.297C79.9901 146.202 81.0225 145.003 81.3222 143.804C82.4544 139.575 78.3251 135.746 74.2292 137.244Z" fill="#5A9BD5"/>
<path d="M87.7458 140.043C87.4461 140.209 87.2796 141.108 87.2463 142.54L87.1797 144.738L88.7115 145.238C93.0073 146.67 95.9044 151.964 94.7056 156.227C94.3726 157.459 94.4059 157.592 95.4049 158.624C97.4695 160.756 100.2 161.322 102.631 160.09C104.829 158.957 105.928 156.393 105.295 153.896C104.995 152.83 103.83 151.465 99.0679 146.636C95.8045 143.373 92.7742 140.476 92.2746 140.209C91.3089 139.71 88.4451 139.577 87.7458 140.043Z" fill="#5A9BD5"/>
<path d="M83.6879 150.931C82.3226 151.831 75.0298 159.157 74.497 160.122C73.0651 162.82 74.83 165.717 77.8936 165.717C79.0592 165.717 79.4588 165.384 83.7878 161.121C89.5821 155.394 89.9151 154.828 88.8162 152.53C87.8838 150.565 85.3862 149.799 83.6879 150.931Z" fill="#5A9BD5"/>
<path d="M88.2134 165.017C85.7492 167.481 85.6493 167.681 86.282 168.014C87.3809 168.613 89.4788 168.447 90.4113 167.714C91.71 166.715 92.1762 165.283 91.71 163.685C91.5102 162.986 91.2105 162.386 91.0773 162.386C90.9441 162.386 89.6453 163.585 88.2134 165.017Z" fill="#5A9BD5"/>
</svg>
