<svg width="170" height="170" viewBox="0 0 170 170" fill="none" xmlns="http://www.w3.org/2000/svg">
<path d="M82.2424 0.818443C81.5245 1.31235 79.251 4.0858 77.177 6.97323L73.4278 12.2922L69.5191 13.394C67.4052 13.9639 64.4537 14.7997 62.9779 15.2176C59.7871 16.0914 58.0322 17.3832 57.5137 19.2448C56.9154 21.2964 57.6732 22.7781 62.1802 28.325L66.2485 33.34L66.1289 40.5586L66.0491 47.7772L67.2057 48.955C69.4393 51.1965 70.3567 51.1585 78.214 48.613L85.1939 46.3335L89.5813 47.8532C99.2733 51.2345 100.39 51.3485 102.783 48.955L103.94 47.7772L103.86 40.5586L103.74 33.34L107.809 28.325C112.316 22.7781 113.074 21.2964 112.475 19.2448C111.757 16.6993 110.202 15.9395 99.8716 13.204L96.601 12.3302L92.6923 6.85925C90.4587 3.74387 88.2651 1.08439 87.587 0.666473C85.9517 -0.283337 83.7979 -0.207352 82.2424 0.818443Z" fill="white"/>
<path d="M21.2971 16.7762C20.7786 17.0041 18.9439 19.2077 17.149 21.6772C15.3941 24.1467 13.7189 26.3123 13.4796 26.5023C13.2004 26.7302 10.7674 27.5281 8.01535 28.2879C2.03259 29.9976 1.15512 30.3775 0.516962 31.7072C-0.559934 33.9488 -0.161084 34.9366 3.70777 39.8376L7.41708 44.4347L7.29742 50.2096C7.17777 55.4526 7.25754 56.1364 7.97547 57.2382C8.49397 58.036 9.29167 58.6059 10.2888 58.8719C11.6848 59.2898 12.2831 59.1378 17.5479 57.3902L23.3312 55.4526L28.3168 57.1242C35.0574 59.4038 35.217 59.4418 36.8522 58.6819C39.2453 57.6181 39.6043 56.3264 39.2852 50.0196L39.0459 44.6247L42.6356 40.1416C44.6298 37.6721 46.3848 35.2785 46.5443 34.8606C46.9831 33.5689 46.3449 31.5933 45.1483 30.6814C44.4703 30.1115 41.9575 29.1997 38.5673 28.2499L33.1031 26.7682L29.992 22.3991C28.277 20.0055 26.4821 17.726 26.0434 17.3461C25.0463 16.4722 22.4936 16.1683 21.2971 16.7762Z" fill="white"/>
<path d="M145.221 16.5859C144.064 17.0039 143.107 18.0677 139.996 22.4368L136.845 26.8059L131.381 28.2876C128.031 29.1995 125.478 30.1493 124.8 30.6812C123.643 31.593 123.045 33.5686 123.444 34.8603C123.603 35.2783 125.318 37.6718 127.313 40.1033L130.902 44.5864L130.783 50.5892L130.663 56.5541L131.939 57.8078C133.734 59.4795 135.05 59.4035 141.472 57.2379L146.657 55.4523L152.44 57.3899C157.705 59.1376 158.303 59.2895 159.699 58.8716C160.696 58.6057 161.494 58.0358 162.013 57.2379C162.731 56.1362 162.81 55.4903 162.691 50.2473L162.571 44.4725L166.28 39.8374C170.229 34.8603 170.628 33.8346 169.351 31.555C168.713 30.3012 167.517 29.8073 161.335 28.0977C158.941 27.4138 156.788 26.7299 156.508 26.502C156.269 26.312 154.594 24.1465 152.839 21.6769C149.17 16.6239 147.814 15.6741 145.221 16.5859Z" fill="white"/>
<path d="M81.4023 69.1299C72.8669 70.4216 65.2887 76.6904 62.5766 84.7068C61.4199 88.1641 61.4199 94.1669 62.6164 97.6243C63.813 101.196 66.0864 104.615 69.0379 107.274C72.149 110.01 75.3398 111.719 79.4081 112.783L82.3994 113.543H79.3682C72.7074 113.619 64.3315 116.697 58.8274 121.142C52.5255 126.195 48.2977 133.451 47.1012 141.24C46.822 143.025 46.7023 147.622 46.7821 152.713L46.9017 161.262L48.2578 163.655C49.7735 166.315 51.0099 167.455 54.0412 168.974L56.0753 170H84.992H113.909L115.943 168.974C118.974 167.455 120.21 166.315 121.726 163.655L123.082 161.262V150.814C123.042 140.48 123.042 140.328 121.926 136.947C119.054 127.98 112.872 120.952 104.256 116.848C100.308 114.987 96.2395 113.961 91.6129 113.695L87.7041 113.467L90.536 112.783C98.3535 110.884 104.895 104.995 107.367 97.6243C108.564 94.1669 108.564 88.1641 107.367 84.7068C104.974 77.6022 98.6725 71.7134 91.3337 69.7378C88.5417 68.9779 84.1544 68.712 81.4023 69.1299Z" fill="white"/>
<path d="M29.1987 73.537C19.1078 76.1205 12.8459 86.1125 15.3985 95.5346C17.1933 101.993 22.5778 107.16 29.2386 108.794L31.2728 109.288L27.6831 109.516C20.5038 110.01 13.9626 112.859 8.81747 117.722C5.34747 120.99 2.99426 124.523 1.35897 128.968C0.242188 131.969 0.242188 132.159 0.242188 140.746C0.242188 149.142 0.282073 149.56 1.15954 151.118C2.55552 153.625 4.66943 155.639 7.1423 156.779L9.41575 157.842L23.8143 157.956L38.2526 158.07L38.4521 148.458C38.6116 139.568 38.6914 138.58 39.6486 135.427C41.7625 128.322 45.4718 122.281 50.9361 117.114C52.7708 115.367 54.2864 113.847 54.2864 113.809C54.2864 113.733 52.8905 113.087 51.2153 112.327C47.2667 110.58 44.1955 109.82 39.9677 109.516L36.6174 109.288L38.7313 108.756C48.7025 106.325 55.0443 96.2185 52.4916 86.8723C49.8193 77.0323 39.2099 70.9535 29.1987 73.537Z" fill="white"/>
<path d="M131.298 73.537C121.207 76.1205 114.945 86.1125 117.498 95.5346C119.293 101.993 124.677 107.16 131.338 108.794L133.372 109.288L130.022 109.516C126.153 109.782 122.803 110.58 119.692 111.909C115.265 113.847 115.304 113.505 119.014 117.076C124.558 122.357 128.387 128.664 130.501 135.921C131.258 138.428 131.378 140.176 131.538 148.458L131.737 158.07L146.175 157.956L160.574 157.842L162.847 156.779C165.32 155.639 167.434 153.625 168.83 151.118C169.708 149.56 169.748 149.142 169.748 140.746C169.748 132.159 169.708 131.969 168.631 128.968C166.956 124.485 164.682 121.028 161.013 117.57C155.907 112.745 149.526 110.01 142.307 109.516L138.717 109.288L140.831 108.756C150.802 106.325 157.144 96.2185 154.591 86.8723C151.919 77.0323 141.31 70.9535 131.298 73.537Z" fill="white"/>
</svg>
