<svg width="170" height="170" viewBox="0 0 170 170" fill="none" xmlns="http://www.w3.org/2000/svg">
<path d="M11.4723 0.462715C8.71734 1.12666 6.6262 2.32175 4.46867 4.44636C2.31114 6.63737 0.983435 8.99435 0.385966 11.8825C-0.111925 14.3391 -0.145118 83.5549 0.385966 86.0447C0.950242 88.7004 2.84223 92.0865 4.7674 93.8128C8.21945 96.9001 11.4391 97.9292 17.6794 97.9292H21.928V105.73C21.928 114.362 22.0608 115.059 23.8864 116.619C25.4133 117.914 26.7742 118.047 30.3258 117.217C40.2172 114.926 49.3784 108.154 53.793 99.8878L54.822 97.9292H69.6592C81.7745 97.9292 84.8614 97.8296 86.4215 97.4312C92.0311 95.9706 95.981 92.0201 97.4415 86.4098C98.1717 83.5549 98.1717 14.3723 97.4415 11.5173C95.9478 5.80744 91.5995 1.52502 86.0564 0.363129C83.4341 -0.16803 13.7626 -0.101631 11.4723 0.462715ZM51.0381 24.5638C53.0296 25.4601 53.793 26.8212 53.793 29.6097V31.8671H61.6929C69.2277 31.8671 69.6592 31.9003 71.0533 32.5974C73.8414 33.9917 74.6713 37.0458 73.0116 39.7016C72.0158 41.3283 70.5886 41.8262 66.9706 41.8262H63.8172L63.253 45.0463C62.2904 50.391 60.3984 55.271 57.8426 59.0887C57.2783 59.8854 56.88 60.6489 56.9795 60.7817C57.1455 61.0805 61.0954 62.5744 62.921 63.0391C63.6513 63.2383 65.7756 63.6035 67.6344 63.869C71.5843 64.4002 72.6797 65.0309 73.5427 67.1223C74.5717 69.6785 73.4431 72.2679 70.8209 73.4298C69.4932 74.0273 69.0949 74.0273 66.1739 73.6954C60.5644 73.0314 55.7846 71.5376 51.3036 69.1142L48.9801 67.8527L46.2915 69.2802C41.9101 71.6039 37.3295 72.9982 31.8859 73.6954C28.2347 74.1269 27.1061 73.8945 25.5792 72.3675C23.986 70.774 23.6541 69.1142 24.4507 67.1223C25.2805 65.0309 26.4091 64.4002 30.3258 63.869C34.4085 63.2715 36.9975 62.6407 39.4206 61.5784C41.3458 60.7153 41.3458 60.7485 39.9517 58.8895C37.761 55.9349 35.0392 48.4656 34.3753 43.3865L34.1762 41.8262H30.9565C27.0065 41.8262 25.7784 41.2951 24.6498 39.1373C23.2889 36.5811 24.3179 33.7261 27.0397 32.4978C28.2347 31.9667 29.2968 31.8671 36.0681 31.8671H43.7357L43.9348 29.6761C44.2004 26.8876 44.9638 25.5929 46.8226 24.6301C48.615 23.7338 49.2456 23.7338 51.0381 24.5638Z" fill="#5A9BD5"/>
<path d="M44.469 42.0589C44.1371 44.2499 46.4938 51.0885 48.3858 53.4123L49.0496 54.209L49.7799 53.1799C51.0412 51.3872 52.5017 47.8352 53.1323 44.947C53.4642 43.42 53.6302 42.1253 53.5306 42.0257C53.2651 41.7269 44.5022 41.7933 44.469 42.0589Z" fill="#5A9BD5"/>
<path d="M123 0.46209C122.469 0.727665 119.349 3.58261 116.129 6.83592C107.865 15.2016 107.865 14.936 115.997 23.1689C121.573 28.8455 122.967 29.8747 125.058 29.8747C127.515 29.8747 129.805 27.6173 129.805 25.1607C129.805 23.534 129.407 22.5713 128.145 21.1438L127.149 19.9819L128.544 20.1479C142.85 21.841 154.567 31.7005 158.483 45.2781C158.948 46.8715 159.546 50.2244 159.811 52.681C160.276 57.1294 160.309 57.1958 161.404 58.3245C163.993 60.8807 167.91 60.1503 169.371 56.8306C170.034 55.37 170.034 55.0712 169.669 51.2867C169.205 46.44 168.375 42.8547 166.815 38.7715C162.832 28.4472 154.865 19.6832 144.742 14.604C141.655 13.0438 135.381 11.0851 132.128 10.6204C130.568 10.4212 128.809 10.1556 128.178 10.0892L127.05 9.92324L128.079 8.86094C129.44 7.40027 129.805 6.57034 129.805 4.87729C129.805 1.39161 126.187 -0.965382 123 0.46209Z" fill="#5A9BD5"/>
<path d="M138.93 52.9141C132.524 54.6071 126.881 57.6945 122.4 62.0433C120.375 63.9687 117.089 68.2843 115.994 70.4089L115.197 72.0356H111.579H107.961L107.795 79.5713C107.629 88.2357 107.43 89.3644 105.007 94.2776C103.713 96.9333 102.982 97.8961 100.46 100.452C97.904 102.975 96.9414 103.706 94.286 105C89.3735 107.424 88.2449 107.623 79.6148 107.789L72.0469 107.955V132.122C72.0469 148.787 72.1796 156.887 72.412 158.082C73.6069 163.659 78.3535 168.407 83.9299 169.602C86.3861 170.133 155.593 170.133 158.082 169.602C163.758 168.407 168.372 163.792 169.6 158.082C170.131 155.592 170.131 86.4099 169.6 83.9201C168.704 79.7373 165.783 75.8864 162.099 73.961C159.145 72.4007 157.186 72.0356 152.207 72.0356H148.091L147.992 63.7695C147.892 56.0014 147.859 55.4371 147.195 54.5739C145.37 52.1174 143.444 51.719 138.93 52.9141ZM123.164 96.6678L124.657 97.4313L135.013 118.013C140.723 129.334 145.536 139.16 145.735 139.824C146.498 142.546 144.606 145.401 141.752 145.899C140.656 146.098 140.059 145.965 138.831 145.335C137.37 144.604 137.138 144.272 135.113 140.322L132.956 136.106H121.006H109.057L106.899 140.355C104.874 144.339 104.642 144.604 103.182 145.335C100.393 146.729 97.5721 145.6 96.4435 142.612C95.9788 141.451 95.9456 140.953 96.2776 139.89C96.4767 139.193 101.29 129.334 106.999 118.013L117.355 97.4313L118.849 96.6678C119.645 96.2694 120.641 95.9374 121.006 95.9374C121.371 95.9374 122.367 96.2694 123.164 96.6678Z" fill="#5A9BD5"/>
<path d="M117.589 119.009C115.73 122.76 114.203 125.881 114.203 125.98C114.203 126.08 117.257 126.146 121.008 126.146C124.758 126.146 127.812 126.047 127.779 125.881C127.779 125.748 126.252 122.628 124.393 118.91L121.008 112.204L117.589 119.009Z" fill="#5A9BD5"/>
<path d="M2.80451 110.544C0.149095 111.905 -0.381989 114.03 0.381444 120.337C2.47258 137.567 14.5547 152.24 31.0515 157.618C34.238 158.68 39.4493 159.676 41.64 159.676H42.9677L42.1379 160.605C40.7438 162.132 40.4451 162.597 40.1795 163.826C39.6484 166.249 40.9098 168.573 43.2996 169.469C44.4946 169.934 44.9593 169.967 46.1874 169.635C47.4155 169.303 48.5109 168.407 53.2243 163.726C56.3112 160.672 59.033 157.75 59.3317 157.219C59.9292 156.091 59.9624 153.734 59.4313 152.638C58.9002 151.642 49.7058 142.314 48.013 141.052C46.984 140.289 46.3866 140.09 45.0257 140.09C42.0051 140.09 40.1131 141.949 40.1131 144.903C40.1131 146.497 40.5446 147.459 41.7728 148.787L42.6358 149.717H41.7728C40.0135 149.717 35.267 148.621 32.7111 147.659C27.5663 145.667 24.3798 143.575 20.2307 139.426C13.9573 133.151 10.804 126.18 10.0405 116.752C9.80818 114.03 9.57583 112.934 9.07794 112.271C7.4183 110.046 5.09481 109.382 2.80451 110.544Z" fill="#5A9BD5"/>
</svg>
