<svg width="170" height="170" viewBox="0 0 170 170" fill="none" xmlns="http://www.w3.org/2000/svg">
<path d="M78.5892 0.108948C78.0612 0.199966 76.3642 0.51857 74.8181 0.791641C65.4658 2.3846 55.8119 6.9814 47.063 13.9904C41.3687 18.5872 33.4117 28.1904 29.5652 35.1084C26.4352 40.8431 23.4184 47.9886 21.646 53.9508C20.4392 58.0014 20.4015 58.0925 19.1948 58.0925C17.1207 58.0925 13.161 59.822 10.7476 61.779C6.10914 65.5111 2.60204 71.8374 0.829636 79.7111C0.150843 82.806 0 84.581 0 91.3169C0 99.8734 0.339397 102.559 2.30035 108.839C4.63842 116.395 9.38997 123.495 13.8776 126.134C16.9321 127.955 21.0426 128.228 25.3793 126.863C30.9982 125.179 32.9592 123.085 32.9592 118.761C32.9592 117.714 31.8279 108.02 30.4703 97.1426C27.7551 75.4784 27.7174 74.7957 29.2635 66.3303C30.8474 57.2732 34.6562 47.1238 39.1437 39.8873C42.3114 34.7898 48.9485 27.0981 52.9459 23.9122C62.8261 15.993 73.3851 12.1244 85 12.1244C99.9712 12.1244 113.509 18.7238 124.37 31.2398C132.855 41.0706 138.323 52.813 140.736 66.3303C142.207 74.4316 142.169 76.0246 140.246 91.3169L138.512 105.198L136.437 110.387C128.518 130.322 114.414 143.611 96.1247 148.481C93.8997 149.073 90.5812 149.346 83.303 149.528C76.9299 149.71 73.2343 149.983 72.744 150.347C71.575 151.167 69.9911 153.306 69.5763 154.717C68.9729 156.537 69.0484 163.409 69.6894 165.184C70.3305 167.142 72.6309 169.508 74.1393 169.827C74.8181 169.963 80.173 170.054 86.0182 169.963L96.6149 169.827L98.0856 168.416C99.8957 166.641 100.839 164.456 100.839 161.862V159.814L105.854 157.857C116.074 153.852 124.332 147.708 132.176 138.241C134.967 134.827 138.097 130.686 139.077 128.956C140.925 125.816 141.415 125.497 143.188 126.316C143.716 126.59 145.45 127.09 147.034 127.5C152.351 128.82 156.537 127.045 160.949 121.72C163.929 118.124 166.154 113.846 167.7 108.839C169.661 102.559 170 99.8734 170 91.3169C169.962 81.9413 169.434 78.7098 166.644 71.8829C163.401 63.9636 158.913 59.7309 152.389 58.4566L149.448 57.8649L148.354 53.9963C145.978 45.7585 141.642 36.4738 137.041 29.6469C133.911 25.0045 127.915 18.2686 123.842 14.7186C119.581 11.0776 111.096 5.8891 106.193 3.93204C99.4809 1.29228 94.2014 0.245483 86.5084 0.0634308C82.6619 -0.0275879 79.1171 -0.0275879 78.5892 0.108948Z" fill="white"/>
<path d="M77.4582 25.5505C60.3752 28.9184 46.1583 43.4826 40.9165 62.9621C39.1818 69.425 38.8047 72.7019 38.8047 80.8487C38.8047 85.4 38.9932 89.5872 39.3326 91.5443C40.8788 101.102 45.0647 111.524 49.6654 117.623L51.1738 119.535L49.6277 127.955C48.4209 134.736 48.1947 136.693 48.4586 137.968C48.9489 140.061 50.5327 141.518 52.0034 141.244C52.6445 141.108 56.0385 139.06 59.5833 136.693L65.9564 132.324L69.8406 133.917C91.9768 142.837 116.036 131.232 126.331 106.7C129.537 98.9629 130.97 92.2725 131.271 83.3064C131.837 67.4679 127.5 53.2679 118.751 42.2082C114.83 37.2473 110.681 33.5152 105.968 30.7845C101.593 28.2357 99.6698 27.4165 95.1822 26.1877C90.9209 25.0043 81.8704 24.6402 77.4582 25.5505ZM65.3153 71.5641C73.4609 76.434 70.5571 91.3167 61.4311 91.3167C52.192 91.3167 49.2883 76.525 57.5092 71.5641C60.1867 69.9711 62.6756 69.9711 65.3153 71.5641ZM87.6778 70.8359C88.3943 71.0634 89.7519 72.0647 90.657 72.975C96.7661 79.3013 93.0704 91.3167 85.0003 91.3167C80.1357 91.3167 76.3269 86.7199 76.3269 80.8487C76.3269 73.7032 81.8326 68.8788 87.6778 70.8359ZM112.416 71.4731C119.166 75.2962 118.827 87.175 111.888 90.7251C108.72 92.2725 104.12 90.9071 101.932 87.7212C95.9365 78.9827 103.893 66.6942 112.416 71.4731Z" fill="white"/>
</svg>
