<svg width="179" height="172" viewBox="0 0 179 172" fill="none" xmlns="http://www.w3.org/2000/svg">
<path d="M89 100C81.8392 100 74.9716 102.687 69.9081 107.469C64.8446 112.251 62 118.737 62 125.5C62 132.263 64.8446 138.749 69.9081 143.531C74.9716 148.313 81.8392 151 89 151C96.1608 151 103.028 148.313 108.092 143.531C113.155 138.749 116 132.263 116 125.5C116 118.737 113.155 112.251 108.092 107.469C103.028 102.687 96.1608 100 89 100ZM77.4286 125.5C77.4286 122.602 78.6477 119.822 80.8178 117.772C82.9878 115.723 85.9311 114.571 89 114.571C92.0689 114.571 95.0122 115.723 97.1822 117.772C99.3523 119.822 100.571 122.602 100.571 125.5C100.571 128.398 99.3523 131.178 97.1822 133.228C95.0122 135.277 92.0689 136.429 89 136.429C85.9311 136.429 82.9878 135.277 80.8178 133.228C78.6477 131.178 77.4286 128.398 77.4286 125.5Z" fill="white"/>
<path d="M136.603 35.9217L109.505 0L9.87057 75.2606L4.34714 75.2042V75.2848H0V172H179V75.2848H170.8L154.486 30.159L136.603 35.9217ZM152.789 75.2848H67.3125L130.977 54.765L143.95 50.84L152.789 75.2848ZM119.76 41.3538L54.041 62.5345L106.087 23.2197L119.76 41.3538ZM17.0476 141.124V106.145C20.6462 104.944 23.9148 102.997 26.6139 100.446C29.3131 97.8955 31.3742 94.8059 32.6462 91.404H146.354C147.625 94.8074 149.685 97.8985 152.385 100.451C155.084 103.003 158.353 104.951 161.952 106.153V141.132C158.353 142.333 155.084 144.282 152.385 146.834C149.685 149.386 147.625 152.477 146.354 155.881H32.6632C31.3862 152.477 29.3216 149.386 26.62 146.833C23.9184 144.28 20.6481 142.329 17.0476 141.124Z" fill="white"/>
</svg>
