<svg width="360" height="450" viewBox="0 0 360 450" fill="none" xmlns="http://www.w3.org/2000/svg">
<path d="M30 3.5H356.5V420C356.5 434.636 344.636 446.5 330 446.5H30C15.3645 446.5 3.5 434.636 3.5 420V30C3.5 15.3645 15.3645 3.5 30 3.5Z" fill="white" stroke="#5A9BD5" stroke-width="7"/>
<path d="M256 4H356V104V104C300.772 104 256 59.2285 256 4V4Z" fill="#5A9BD5"/>
<path d="M315.705 16.5045C314.971 16.8143 314.638 17.0438 313.559 18.0307C312.618 18.8914 311.23 19.9242 310.117 20.6127C306.789 22.6553 303.323 23.7111 298.584 24.1472C297.631 24.239 296.817 24.3767 296.323 24.5488C294.326 25.2373 292.823 26.9013 292.272 29.0242C292.123 29.575 292.077 30.6996 292.02 34.4751C291.928 40.7062 292.146 44.4472 292.846 48.6243C294.372 57.7587 298.549 64.7014 305.526 69.6703C308.912 72.0801 315.189 74.9834 317.002 74.9834C318.035 74.9834 320.789 73.9391 323.83 72.4014C327.031 70.7834 329.235 69.2801 331.656 67.0768C335.661 63.4391 338.668 58.4128 340.228 52.7555C341.605 47.7636 342.099 42.5653 341.984 34.3029C341.927 30.6767 341.881 29.5636 341.732 29.0242C341.181 26.9013 339.677 25.2373 337.681 24.5488C337.187 24.3767 336.372 24.239 335.42 24.1472C328.959 23.5619 324.713 21.7947 320.215 17.8242C318.941 16.6996 318.161 16.3094 317.117 16.2635C316.531 16.2291 316.233 16.2865 315.705 16.5045ZM319.182 31.1587C324.817 31.939 329.59 36.1964 331.105 41.762C331.759 44.1603 331.771 46.9489 331.151 49.2784C329.786 54.4423 325.838 58.3899 320.674 59.7555C318.425 60.3637 315.579 60.3637 313.33 59.7555C308.166 58.3899 304.218 54.4423 302.853 49.2784C302.244 47.0292 302.244 44.1833 302.853 41.9341C304.494 35.7374 309.876 31.3423 316.256 30.998C317.036 30.9521 318.149 31.0209 319.182 31.1587Z" fill="white"/>
<path d="M316.428 34.452C313.617 34.6126 311.264 35.6454 309.233 37.6077C306.995 39.7651 305.859 42.4618 305.859 45.6061C305.859 48.7504 306.995 51.4471 309.233 53.6045C311.436 55.7389 313.949 56.7488 317.002 56.7488C320.054 56.7488 322.567 55.7389 324.771 53.6045C327.008 51.4471 328.144 48.7389 328.144 45.6061C328.144 42.4733 326.997 39.7536 324.771 37.6077C322.476 35.4044 319.492 34.2684 316.428 34.452ZM323.199 40.7635C324.002 41.1651 324.369 42.2668 323.956 43.0586C323.864 43.2307 321.856 45.2848 319.503 47.6373C314.936 52.1701 314.971 52.1471 314.041 51.975C313.697 51.9176 313.295 51.5734 311.803 50.1045C310.805 49.1061 309.91 48.1651 309.818 47.993C309.371 47.1324 309.807 46.0192 310.736 45.6635C311.62 45.3192 311.953 45.4684 313.215 46.7078C313.823 47.3045 314.362 47.7865 314.431 47.7865C314.489 47.7865 316.084 46.2373 317.977 44.3323C319.871 42.4274 321.58 40.8094 321.764 40.7176C322.235 40.511 322.717 40.5225 323.199 40.7635Z" fill="white"/>
</svg>
