<svg width="170" height="170" viewBox="0 0 170 170" fill="none" xmlns="http://www.w3.org/2000/svg">
<path d="M35.5933 0.51635C19.1119 4.46491 7.98241 20.5629 9.50651 38.2935C10.6053 50.9744 17.8713 61.9089 28.8235 67.3382C36.1605 70.945 45.305 71.4006 53.1382 68.4772L55.5129 67.6039L60.7941 70.1857C68.8399 74.1343 68.6627 74.2861 68.0601 64.7185L67.6348 57.8085L68.6981 56.2898C72.9869 50.1391 75.1489 43.0773 75.1489 35.0283C75.1844 19.1581 65.5082 5.56595 50.9406 1.00992C47.4317 -0.0531537 39.2086 -0.356889 35.5933 0.51635ZM60.0852 20.2212C62.1764 21.7019 62.9207 24.8911 61.6802 27.0552C60.7232 28.7258 41.4771 49.5696 40.3074 50.253C39.1378 50.8985 37.0466 50.9365 35.9832 50.367C34.8845 49.7595 23.3651 37.4962 22.7626 36.2812C20.9549 32.6364 24.2512 28.1563 28.1855 28.9536C29.2134 29.1434 30.3831 30.1685 33.7857 33.7374L38.1453 38.2935L46.0494 29.5231C50.7989 24.2837 54.5559 20.487 55.4066 19.9934C57.0016 19.1581 58.632 19.2341 60.0852 20.2212Z" fill="#5A9BD5"/>
<path d="M121.155 0.476926C106.41 4.00785 96.131 16.6129 94.7487 32.7868C94.1462 40.2663 96.8045 49.8719 101.306 56.2883L102.369 57.807L101.944 64.717C101.341 74.2847 101.164 74.1328 109.245 70.1463L114.562 67.5645L116.157 68.2479C121.509 70.488 129.59 70.9815 135.439 69.4629C141.18 67.9442 145.965 65.0967 150.396 60.6166C157.804 53.0611 161.384 42.7341 160.462 31.6098C159.222 17.2963 149.687 5.18483 136.396 1.04643C132.922 -0.0546116 124.628 -0.358347 121.155 0.476926ZM145.505 20.2197C147.454 21.5865 148.305 24.7758 147.277 26.788C146.533 28.1928 126.826 49.6061 125.656 50.2516C124.947 50.6692 124.026 50.8211 122.82 50.6692C121.119 50.5174 121.013 50.4414 114.881 43.9111C111.478 40.2663 108.466 36.8493 108.182 36.2798C106.374 32.6349 109.671 28.1548 113.605 28.9521C114.633 29.142 115.803 30.1671 119.205 33.736L123.529 38.292L131.469 29.4837C136.679 23.6747 139.904 20.4475 140.826 19.954C142.421 19.1567 144.122 19.2706 145.505 20.2197Z" fill="#5A9BD5"/>
<path d="M36.9028 79.4492C30.6292 81.3095 25.2063 86.2073 22.6189 92.3579C21.1657 95.737 20.6694 98.3947 20.7049 102.419C20.9175 120.264 39.2776 131.008 53.6679 121.744C56.0781 120.15 59.6934 116.163 61.1466 113.392C67.6328 101.166 62.3871 85.5618 50.088 80.3224C47.5715 79.2593 46.7917 79.1075 42.9992 78.9936C40.0219 78.9176 38.1788 79.0695 36.9028 79.4492Z" fill="#5A9BD5"/>
<path d="M122.285 79.4482C112.148 82.4856 105.024 93.1922 106.052 103.823C106.583 109.328 108.568 113.884 112.148 117.947C120.265 127.135 133.698 127.628 142.276 119.048C146.919 114.378 149.223 108.949 149.293 102.418C149.329 98.2039 148.797 95.6221 147.167 91.9773C144.827 86.6999 140.61 82.4856 135.506 80.3215C132.989 79.2584 132.209 79.1065 128.417 78.9926C125.44 78.9167 123.596 79.0685 122.285 79.4482Z" fill="#5A9BD5"/>
<path d="M36.973 129.413C22.5473 131.502 10.3191 140.803 3.86824 154.661C1.17449 160.394 -0.704045 168.14 0.252945 169.393C0.678274 169.924 4.82523 170 42.2542 170C74.083 170 83.901 169.886 84.22 169.544C84.858 168.861 84.7516 167.152 83.7946 163.356C79.435 146.157 66.6043 133.248 50.5481 129.945C46.8619 129.186 40.2339 128.92 36.973 129.413Z" fill="#5A9BD5"/>
<path d="M122.393 129.413C107.826 131.539 95.491 140.993 89.111 154.965C86.5236 160.66 84.7514 168.178 85.7084 169.43C86.0983 169.924 90.9896 170 127.71 170C165.174 170 169.321 169.924 169.746 169.393C170.703 168.14 168.825 160.394 166.166 154.699C163.969 149.991 161.63 146.536 158.014 142.664C150.004 134.045 140.47 129.603 128.95 129.186C126.717 129.11 123.775 129.186 122.393 129.413Z" fill="#5A9BD5"/>
</svg>
