<svg width="170" height="170" viewBox="0 0 170 170" fill="none" xmlns="http://www.w3.org/2000/svg">
<path d="M63.1615 0.31093C56.6925 1.13717 49.1107 4.33883 44.0329 8.36673C37.7379 13.393 33.147 20.416 31.0602 28.1275C29.3908 34.4964 29.3908 41.0374 31.095 47.6129C32.1036 51.572 35.4424 58.0786 38.2248 61.4523C47.6152 72.9852 63.3702 78.1148 77.734 74.2934L79.1252 73.9147L76.4124 71.918C74.9169 70.8163 72.9345 69.095 71.9606 68.1311L70.2565 66.3753H67.961C58.4315 66.3753 49.3541 61.5556 44.0329 53.672C36.2771 42.2424 37.7726 27.3701 47.5804 17.6619C61.4225 3.96014 84.5159 7.50607 93.489 24.7193C94.3585 26.3718 95.0888 27.921 95.0888 28.1275C95.0888 28.3685 93.9063 28.5062 91.6109 28.5062C88.3417 28.5062 88.133 28.5406 87.6113 29.3325C87.194 29.9177 87.1592 30.3308 87.4026 30.9505C87.6113 31.398 90.1502 35.8046 93.1064 40.7276C98.0103 48.9211 98.5668 49.6785 99.471 49.7818C100.027 49.8162 100.654 49.7473 100.862 49.6096C101.28 49.2998 112.861 33.1882 113.487 32.0177C113.835 31.3636 113.835 31.0538 113.348 30.3652C113.07 29.9177 112.791 29.5046 112.722 29.5046C112.687 29.4702 110.948 29.3669 108.896 29.2292L105.14 29.0226L104.131 26.0275C99.4362 12.1881 87.8548 2.6175 73.1779 0.414209C69.5956 -0.102188 66.6046 -0.136614 63.1615 0.31093Z" fill="white"/>
<path d="M98.561 0.174521C96.683 0.346654 93.3094 0.96633 92.0225 1.34502L90.9096 1.72371L93.0659 3.2729C94.2832 4.13357 96.2656 5.78604 97.5177 6.99096L99.7783 9.15983L103.43 9.36639C109.03 9.67623 113.238 11.0189 117.864 13.9451C127.636 20.2107 132.645 32.1223 130.245 43.483C128.958 49.7142 125.167 55.9798 120.368 59.8356C117.62 62.0389 113.029 64.4143 109.69 65.3438C98.1437 68.5455 85.2406 63.9323 78.4238 54.1552C76.7544 51.8142 74.9111 48.2339 74.9111 47.4421C74.9111 47.2355 76.3719 47.0978 78.3543 47.0978C82.1452 47.0978 82.7365 46.8224 82.493 45.1011C82.4235 44.5847 79.8846 40.006 76.8588 34.9453C71.4332 25.8911 71.3637 25.7534 70.2159 25.7534C69.103 25.7534 68.8248 26.0632 63.2253 33.9125C60.0256 38.4223 57.0694 42.5191 56.7216 43.0355C56.2695 43.6552 56.0956 44.2404 56.2695 44.8257C56.5477 45.9617 58.1475 46.4093 61.9037 46.4093H64.7556L65.6946 49.2322C67.0163 53.2257 69.7638 58.3208 72.3027 61.4536C80.2324 71.2308 93.2746 76.6701 105.726 75.3275C134.836 72.2291 149.826 40.0404 133.271 16.1828C130.941 12.8779 126.906 8.84999 123.706 6.71555C116.229 1.79257 106.943 -0.651714 98.561 0.174521Z" fill="white"/>
<path d="M32.7595 80.1471C25.5254 81.352 20.7606 87.9963 21.5258 95.7767C22.1866 102.524 25.6993 108.101 30.9857 110.683C33.3507 111.854 33.5942 111.888 36.5504 111.751C40.4804 111.578 42.3238 110.718 45.3495 107.688C48.6188 104.418 50.3578 100.596 50.7751 95.7423C51.7141 85.2766 43.6801 78.3225 32.7595 80.1471Z" fill="white"/>
<path d="M130.492 80.1463C126.388 80.8348 122.458 83.6578 120.719 87.2037C117.519 93.607 119.189 102.248 124.649 107.722C127.884 110.958 129.518 111.646 133.866 111.646C137.135 111.646 137.483 111.578 139.465 110.51C147.256 106.345 150.907 94.7775 146.908 87.0316C144.125 81.661 137.691 78.9413 130.492 80.1463Z" fill="white"/>
<path d="M20.485 115.95C7.44276 119.187 3.65182 120.942 1.77374 124.591C0.139117 127.759 0 129.652 0 146.074C0 159.534 0.0695585 161.462 0.626026 163.252C1.77374 167.039 5.77335 170 9.73819 170H10.8859L10.9902 155.575C11.0946 141.942 11.1294 141.116 11.7554 140.428C12.5901 139.533 14.4334 139.464 15.1985 140.324C15.7202 140.875 15.7898 142.562 15.8593 155.403L15.9637 169.828L36.24 169.931L56.4815 170V155.438C56.4815 141.736 56.5163 140.806 57.1075 140.29C58.1161 139.395 59.7855 139.533 60.6202 140.6C61.3158 141.495 61.3506 141.874 61.3506 155.747V170H62.4983C64.6546 170 67.2631 168.967 68.8977 167.487C71.4018 165.18 71.8539 164.01 72.1669 158.639C72.5495 152.133 72.5147 136.882 72.1322 131.959C71.7148 126.451 71.0888 124.523 69.1759 122.664C66.5675 120.082 62.9852 118.67 51.7863 115.95L45.1782 114.332L43.7175 115.021C42.535 115.606 42.222 115.916 42.222 116.605C42.222 117.121 43.2306 124.695 44.4827 133.474C45.7347 142.252 46.7433 149.929 46.7433 150.515C46.7433 151.341 45.6999 153.028 42.222 157.882C37.5964 164.216 36.9356 164.836 35.3009 164.32C34.3271 164.044 25.528 151.72 25.528 150.687C25.528 149.895 29.8754 118.429 30.2232 116.639C30.3971 115.882 30.1884 115.675 28.9363 115.124C28.1016 114.746 27.3713 114.401 27.2669 114.367C27.1626 114.332 24.1368 115.021 20.485 115.95Z" fill="white"/>
<path d="M118.072 115.985C109.238 118.154 105.343 119.496 102.769 121.114C98.3175 123.972 97.9001 125.693 97.6567 140.91C97.4132 155.024 97.7958 162.702 98.8392 164.664C100.404 167.728 104.126 170 107.499 170H108.647V155.747C108.647 141.874 108.682 141.495 109.377 140.6C110.247 139.498 112.055 139.36 112.925 140.324C113.446 140.91 113.516 142.459 113.516 155.472V170L133.792 169.931L154.034 169.828L154.138 155.403C154.208 142.562 154.277 140.875 154.799 140.324C155.564 139.464 157.407 139.533 158.242 140.428C158.868 141.116 158.903 141.942 159.007 155.575L159.112 170H160.259C164.224 170 168.259 167.039 169.372 163.252C169.928 161.462 169.998 159.5 169.998 146.074C169.998 129.618 169.858 127.759 168.224 124.557C166.346 120.942 162.694 119.255 150.104 116.123L142.696 114.264L141.583 114.918C137.514 117.224 130.627 117.224 126.037 114.918C124.819 114.298 124.819 114.298 118.072 115.985Z" fill="white"/>
<path d="M35.0901 117.122C35.0205 117.328 33.9424 124.833 32.6903 133.784L30.4297 150.068L33.0729 153.752C34.5336 155.783 35.8205 157.539 35.9596 157.711C36.0639 157.848 37.4551 156.196 39.0549 153.993L41.9068 150.034L39.6114 133.784C38.3594 124.833 37.2812 117.328 37.2116 117.122C37.1073 116.915 36.6552 116.709 36.1335 116.709C35.6118 116.709 35.1597 116.915 35.0901 117.122Z" fill="white"/>
</svg>
