<svg width="30" height="30" viewBox="0 0 30 30" fill="none" xmlns="http://www.w3.org/2000/svg">
<path d="M1.56526 0.0608568C0.955884 0.178044 0.428541 0.594059 0.164869 1.15656C0.0359625 1.43195 0.0066656 1.57258 0.0066656 1.95929C0.0066656 2.8675 -0.391772 2.41633 6.30549 9.10773L12.2235 15.0257L6.25276 21.0023C1.40706 25.8597 0.264478 27.0316 0.15315 27.2718C-0.0460688 27.6878 -0.0519282 28.4378 0.141431 28.8538C0.311353 29.223 0.686353 29.6097 1.06135 29.8089C1.48323 30.0257 2.15706 30.055 2.64338 29.8792C2.98323 29.7503 3.19417 29.5511 8.98909 23.762L14.9774 17.7796L20.9422 23.7327C25.7293 28.514 26.9598 29.7152 27.1942 29.8265C27.4403 29.9437 27.575 29.9671 28.0438 29.9671C28.5301 29.9671 28.6356 29.9437 28.8934 29.8089C29.2567 29.6214 29.6492 29.2054 29.8192 28.8363C30.0067 28.4378 29.9949 27.682 29.8016 27.2718C29.6903 27.0316 28.5477 25.8597 23.702 21.0023L17.7313 15.0257L23.6492 9.10773C30.3465 2.41633 29.9481 2.8675 29.9481 1.95929C29.9481 1.57843 29.9188 1.43195 29.7957 1.16828C29.3211 0.160466 28.1317 -0.249691 27.1356 0.242497C26.9832 0.318669 24.8446 2.41047 20.9422 6.31281L14.9774 12.2718L9.01838 6.31281C5.11018 2.41047 2.97151 0.318669 2.81917 0.242497C2.61995 0.142888 1.96956 -0.0211745 1.85823 0.00226301C1.84065 0.00812238 1.70588 0.0315599 1.56526 0.0608568Z" fill="#111111"/>
</svg>
